<?xml version="1.0" encoding="utf-8"?>
<!-- Generator: Adobe Illustrator 27.4.0, SVG Export Plug-In . SVG Version: 6.00 Build 0)  -->
<svg version="1.1" id="Camada_1" xmlns="http://www.w3.org/2000/svg" xmlns:xlink="http://www.w3.org/1999/xlink" x="0px" y="0px"
	 viewBox="0 0 750 500" style="enable-background:new 0 0 750 500;" xml:space="preserve">
<style type="text/css">
	.st0{fill:#679AF8;}
	.st1{fill:#FFFFFF;}
	.st2{fill:none;stroke:#FFFFFF;stroke-width:1.9569;stroke-miterlimit:10;}
	.st3{fill:#F13C7E;}
	.st4{fill:none;stroke:#FFFFFF;stroke-width:2.2315;stroke-miterlimit:10;}
	.st5{fill:#645ABD;}
	.st6{fill:none;stroke:#679AF8;stroke-width:0.7353;stroke-miterlimit:10;stroke-dasharray:2.9414,2.9414;}
	.st7{fill:none;stroke:#679AF8;stroke-width:0.7353;stroke-miterlimit:10;}
	.st8{fill:none;stroke:#FFFFFF;stroke-width:1.957;stroke-linecap:round;stroke-linejoin:round;stroke-miterlimit:10;}
	.st9{fill:none;stroke:#FFFFFF;stroke-width:1.9569;stroke-linecap:round;stroke-linejoin:round;stroke-miterlimit:9.9996;}
</style>
<g id="OBJECTS">
	<g>
		<path class="st0" d="M0,0v287.8c39.3,8.7,98.4,12.1,135.2,1c30-9,44.6-34.1,90.7-32.4c30.8,1.1,45.4,15.8,59.8,27.2
			c26.1,20.7,79.7,37.8,134.8,33.5c64.7-5.1,91.2-27.6,158.3-10.6c31.3,7.9,66,14,102.5,15.2c23.3,0.8,47.4-0.7,68.8-4.5V0H0z"/>
		<g>
			<g>
				<g>
					<g>
						<path class="st1" d="M23.4,155.6c-4.7-7.5-2.4-17.5,5.1-22.2s17.5-2.4,22.2,5.1s2.4,17.5-5.1,22.2
							C38.1,165.4,28.1,163.1,23.4,155.6z M49.2,139.5c-4.2-6.7-13-8.7-19.7-4.5s-8.7,13-4.5,19.7s13,8.7,19.7,4.5
							S53.3,146.2,49.2,139.5z"/>
					</g>
					<g>
						<g>
							<path class="st1" d="M43,132.7l12.1-2.3l4.9,7.8l-7.4,9.9l-1.1-3.1c-1.3-3.7-3.4-7.2-6.2-9.9L43,132.7z M50.6,138.6
								c1.1,1.7,2,3.6,2.7,5.5l4.6-6.1l-3.5-5.6l-7.5,1.4C48.2,135.3,49.5,136.9,50.6,138.6z"/>
						</g>
						<g>
							<path class="st1" d="M18.9,163.8L14,156l7.4-9.9l1.4,4c1.1,3.1,2.9,6,5.2,8.3l3,3L18.9,163.8z M16.3,156.1l3.5,5.6l7.5-1.4
								l-0.6-0.6c-2.5-2.5-4.5-5.6-5.6-9l-0.3-0.8L16.3,156.1z"/>
						</g>
					</g>
					<g>
						<g>
							<path class="st1" d="M27.6,134.7l4-11.7l9.2-0.3l4.9,11.4l-4.2-0.8c-3.2-0.6-6.6-0.5-9.8,0.3L27.6,134.7z M33,124.8l-2.5,7.2
								l0.8-0.2c3.4-0.9,7.1-1,10.6-0.4l0.8,0.2l-3-7L33,124.8z"/>
						</g>
						<g>
							<path class="st1" d="M33.3,171.4L28.4,160l4.2,0.8c3.2,0.6,6.6,0.5,9.8-0.3l4.1-1.1l-4,11.7L33.3,171.4z M31.5,162.5l3,7
								l6.7-0.2l2.5-7.2l-0.8,0.2c-3.4,0.9-7.1,1-10.6,0.4L31.5,162.5z"/>
						</g>
					</g>
					<g>
						<g>
							<path class="st1" d="M13.5,139.7l4.3-8.1l12.3,1.5l-2.8,3.2c-2.2,2.5-3.7,5.4-4.6,8.6l-1.1,4.1L13.5,139.7z M18.8,133.6
								l-3.1,5.9l5,5.8l0.2-0.8c0.9-3.4,2.6-6.7,5-9.3l0.5-0.6L18.8,133.6z"/>
						</g>
						<g>
							<path class="st1" d="M44,161l2.8-3.2c2.2-2.5,3.7-5.4,4.6-8.6l1.1-4.1l8.1,9.3l-4.3,8.1L44,161z M53.4,148.9l-0.2,0.8
								c-0.9,3.4-2.6,6.7-5,9.3l-0.5,0.6l7.6,0.9l3.1-5.9L53.4,148.9z"/>
						</g>
					</g>
				</g>
				<g>
					<path class="st1" d="M30.4,151.2c-2.3-3.7-1.2-8.5,2.5-10.8s8.5-1.2,10.8,2.5s1.2,8.5-2.5,10.8S32.7,154.9,30.4,151.2z
						 M42.2,143.9c-1.8-2.8-5.5-3.7-8.3-1.9s-3.7,5.5-1.9,8.3s5.5,3.7,8.3,1.9S43.9,146.7,42.2,143.9z"/>
				</g>
			</g>
			<g>
				<g>
					<g>
						<path class="st1" d="M70.7,158c-5.1-4-6-11.4-2.1-16.5c4-5.1,11.4-6,16.5-2.1c5.1,4,6,11.4,2.1,16.5
							C83.3,161.1,75.9,162,70.7,158z M84.4,140.5c-4.5-3.5-11.1-2.7-14.6,1.8s-2.7,11.1,1.8,14.6s11.1,2.7,14.6-1.8
							C89.7,150.6,88.9,144.1,84.4,140.5z"/>
					</g>
					<g>
						<g>
							<path class="st1" d="M78.5,137.4l7.8-4.6l5.3,4.1l-2.6,8.6l-1.5-1.8c-1.8-2.2-4.2-4.1-6.8-5.3L78.5,137.4z M85.1,139.6
								c1.2,0.9,2.3,2,3.2,3.1l1.6-5.3l-3.8-3l-4.8,2.9C82.7,137.9,84,138.7,85.1,139.6z"/>
						</g>
						<g>
							<path class="st1" d="M69.7,164.8l-5.3-4.1l2.6-8.6l2,2.4c1.5,1.9,3.5,3.4,5.6,4.4l2.8,1.3L69.7,164.8z M66,160.2l3.8,3
								l4.8-2.9l-0.5-0.2c-2.4-1.1-4.5-2.7-6.1-4.7l-0.4-0.5L66,160.2z"/>
						</g>
					</g>
					<g>
						<g>
							<path class="st1" d="M68.4,142.6l-0.2-9l6.2-2.5l6.2,6.6l-3.1,0.5c-2.4,0.4-4.6,1.3-6.6,2.7L68.4,142.6z M69.6,134.5l0.1,5.6
								l0.5-0.3c2.1-1.5,4.6-2.5,7.2-2.9l0.6-0.1l-3.8-4.1L69.6,134.5z"/>
						</g>
						<g>
							<path class="st1" d="M81.5,166.4l-6.2-6.6l3.1-0.5c2.4-0.4,4.6-1.3,6.6-2.7l2.6-1.8l0.2,9L81.5,166.4z M78.1,160.8l3.8,4.1
								l4.5-1.8l-0.1-5.6l-0.5,0.3c-2.1,1.5-4.6,2.5-7.2,2.9L78.1,160.8z"/>
						</g>
					</g>
					<g>
						<g>
							<path class="st1" d="M60,149.6l0.9-6.6l8.8-2.1l-1.1,2.9c-0.9,2.2-1.2,4.7-1,7.1l0.3,3.1L60,149.6z M62.1,144.1l-0.7,4.8
								l4.9,2.7l-0.1-0.6c-0.2-2.6,0.1-5.2,1.1-7.7l0.2-0.5L62.1,144.1z"/>
						</g>
						<g>
							<path class="st1" d="M86.3,156.6l1.1-2.9c0.9-2.2,1.2-4.7,1-7.1l-0.3-3.1l7.9,4.4l-0.9,6.6L86.3,156.6z M89.6,145.9l0.1,0.6
								c0.2,2.6-0.1,5.2-1.1,7.7l-0.2,0.5l5.4-1.3l0.7-4.8L89.6,145.9z"/>
						</g>
					</g>
				</g>
				<g>
					<path class="st1" d="M74.5,153.3c-2.5-1.9-2.9-5.5-1-8s5.5-2.9,8-1s2.9,5.5,1,8C80.5,154.8,76.9,155.2,74.5,153.3z M80.7,145.3
						c-1.9-1.5-4.7-1.1-6.2,0.8c-1.5,1.9-1.1,4.7,0.8,6.1c1.9,1.5,4.7,1.1,6.2-0.8C82.9,149.5,82.6,146.8,80.7,145.3z"/>
				</g>
			</g>
		</g>
		<path class="st2" d="M263.3,73.1c0-0.1,0-0.1,0-0.2c0-3.4-2.5-6.2-5.8-6.6c-0.6-6.4-6.1-11.5-12.7-11.5c-6,0-11,4.1-12.4,9.6
			c-5.5,0.2-9.9,4.7-9.9,10.3c0,5.2,3.9,9.5,8.9,10.2c0.4,0.1,0.7,0.1,1.1,0.1h29.2c3.3,0,6-2.7,6-6l0,0
			C267.7,76.1,265.9,73.8,263.3,73.1z"/>
		<g>
			<g>
				<g>
					<ellipse class="st3" cx="543.3" cy="297.2" rx="60.2" ry="60.2"/>
				</g>
			</g>
			<g>
				<g>
					<ellipse class="st3" cx="543.3" cy="297.2" rx="51.9" ry="51.8"/>
					<path class="st1" d="M543.3,351.5c-30,0-54.4-24.4-54.4-54.3c0-30,24.4-54.3,54.4-54.3s54.4,24.4,54.4,54.3
						S573.3,351.5,543.3,351.5z M543.3,247.8c-27.2,0-49.4,22.1-49.4,49.3s22.2,49.3,49.4,49.3s49.4-22.1,49.4-49.3
						S570.5,247.8,543.3,247.8z"/>
				</g>
				<g>
					<ellipse class="st3" cx="543.3" cy="297.2" rx="42.2" ry="42.2"/>
					<path class="st1" d="M543.3,341.9c-24.7,0-44.8-20.1-44.8-44.7s20.1-44.7,44.8-44.7s44.8,20.1,44.8,44.7S568,341.9,543.3,341.9
						z M543.3,257.5c-21.9,0-39.7,17.8-39.7,39.7c0,21.9,17.8,39.7,39.7,39.7s39.7-17.8,39.7-39.7S565.2,257.5,543.3,257.5z"/>
				</g>
				<g>
					
						<ellipse transform="matrix(0.3162 -0.9487 0.9487 0.3162 89.5309 718.7082)" class="st3" cx="543.4" cy="297.2" rx="32.6" ry="32.6"/>
					<path class="st1" d="M543.3,332.2c-19.4,0-35.1-15.7-35.1-35.1c0-19.3,15.8-35.1,35.1-35.1c19.4,0,35.1,15.7,35.1,35.1
						C578.4,316.5,562.6,332.2,543.3,332.2z M543.3,267.1c-16.6,0-30.1,13.5-30.1,30.1s13.5,30.1,30.1,30.1s30.1-13.5,30.1-30.1
						S559.9,267.1,543.3,267.1z"/>
				</g>
				<g>
					<ellipse class="st3" cx="543.3" cy="297.2" rx="23" ry="22.9"/>
					<path class="st1" d="M543.3,322.6c-14,0-25.5-11.4-25.5-25.4s11.4-25.4,25.5-25.4c14,0,25.5,11.4,25.5,25.4
						S557.3,322.6,543.3,322.6z M543.3,276.7c-11.3,0-20.5,9.2-20.5,20.4c0,11.3,9.2,20.4,20.5,20.4s20.5-9.2,20.5-20.4
						S554.6,276.7,543.3,276.7z"/>
				</g>
				<g>
					<ellipse class="st3" cx="543.3" cy="297.2" rx="13.3" ry="13.3"/>
					<path class="st1" d="M543.3,313c-8.7,0-15.8-7.1-15.8-15.8c0-8.7,7.1-15.8,15.8-15.8s15.8,7.1,15.8,15.8S552,313,543.3,313z
						 M543.3,286.4c-6,0-10.8,4.8-10.8,10.8s4.9,10.8,10.8,10.8c6,0,10.8-4.8,10.8-10.8S549.3,286.4,543.3,286.4z"/>
				</g>
				<g>
					<ellipse class="st3" cx="543.3" cy="297.2" rx="3.7" ry="3.7"/>
					<path class="st1" d="M543.3,303.3c-3.4,0-6.2-2.8-6.2-6.2c0-3.4,2.8-6.2,6.2-6.2s6.2,2.8,6.2,6.2
						C549.5,300.6,546.7,303.3,543.3,303.3z M543.3,296c-0.6,0-1.2,0.5-1.2,1.2c0,0.6,0.5,1.2,1.2,1.2c0.6,0,1.2-0.5,1.2-1.2
						S543.9,296,543.3,296z"/>
				</g>
			</g>
		</g>
		<path class="st4" d="M444.4,36.6c0-0.1,0-0.2,0-0.3c0-4-2.7-7.4-6.3-7.9c-0.7-7.7-6.6-13.7-13.8-13.7c-6.5,0-11.9,4.9-13.5,11.5
			c-6,0.2-10.8,5.6-10.8,12.3c0,6.2,4.2,11.3,9.6,12.2c0.4,0.1,0.8,0.1,1.2,0.1h31.8c3.6,0,6.6-3.2,6.6-7.2l0,0
			C449.2,40.2,447.2,37.4,444.4,36.6z"/>
		<g>
			<g>
				<path class="st5" d="M541,298.2c-0.4,0-0.8-0.1-1.1-0.3l-57.4-40.8c-0.8-0.6-1-1.8-0.4-2.6s1.8-1,2.6-0.4l57.4,40.8
					c0.8,0.6,1,1.8,0.4,2.6C542.1,297.9,541.6,298.2,541,298.2z"/>
			</g>
			<g>
				<path class="st5" d="M543.1,297.9c0-0.5-5.8-13.7-5.8-13.7l-8.7,12L543.1,297.9z"/>
			</g>
			<g>
				<path class="st5" d="M492.2,263.5c-0.4,0-0.8-0.1-1.1-0.4l-12-8.8c-0.3-0.2-0.5-0.5-0.6-0.8l-5.5-13.3c-0.3-0.8-0.1-1.7,0.6-2.2
					s1.6-0.5,2.3,0l16,11.7c0.4,0.3,0.7,0.8,0.8,1.3l1.4,10.4c0.1,0.7-0.3,1.5-0.9,1.9C492.8,263.4,492.5,263.5,492.2,263.5z"/>
			</g>
			<g>
				<path class="st5" d="M479.7,265.7c-0.3,0-0.7-0.1-1-0.3l-15.6-9.4c-0.7-0.4-1-1.2-0.9-2c0.2-0.8,0.8-1.4,1.6-1.5l16-1.6
					c0.5,0,0.9,0.1,1.3,0.4l12,8.8c0.6,0.4,0.9,1.2,0.7,1.9c-0.2,0.7-0.8,1.3-1.5,1.4l-12.4,2.2C480,265.7,479.9,265.7,479.7,265.7z
					"/>
			</g>
		</g>
		<g>
			<g>
				<path class="st6" d="M576.3,100.4"/>
				<line class="st7" x1="574.9" y1="100.4" x2="573.4" y2="100.4"/>
			</g>
		</g>
		<path class="st8" d="M621.8,32.6c0,2.2-1.7,3.9-3.9,3.9s-3.9-1.7-3.9-3.9s1.7-3.9,3.9-3.9C620,28.7,621.8,30.4,621.8,32.6z"/>
		
			<ellipse transform="matrix(0.4473 -0.8944 0.8944 0.4473 248.4526 483.8849)" class="st9" cx="515.7" cy="40.9" rx="3.9" ry="3.9"/>
		<path class="st8" d="M742.8,91.5c0,2.2-1.7,3.9-3.9,3.9s-3.9-1.7-3.9-3.9s1.7-3.9,3.9-3.9C741,87.7,742.8,89.4,742.8,91.5z"/>
	</g>
</g>
</svg>
