<?xml version="1.0" encoding="utf-8"?>
<!-- Generator: Adobe Illustrator 27.4.0, SVG Export Plug-In . SVG Version: 6.00 Build 0)  -->
<svg version="1.1" id="Camada_1" xmlns="http://www.w3.org/2000/svg" xmlns:xlink="http://www.w3.org/1999/xlink" x="0px" y="0px"
	 viewBox="0 0 750 500" style="enable-background:new 0 0 750 500;" xml:space="preserve">
<style type="text/css">
	.st0{fill:#679AF8;}
	.st1{fill:#FFFFFF;}
	.st2{fill:none;stroke:#FFFFFF;stroke-width:1.9569;stroke-miterlimit:10;}
	.st3{fill:#F13C7E;}
	.st4{fill:none;stroke:#FFFFFF;stroke-width:2.2315;stroke-miterlimit:10;}
	.st5{fill:#645ABD;}
	.st6{fill:none;stroke:#679AF8;stroke-width:0.7353;stroke-miterlimit:10;stroke-dasharray:2.9414,2.9414;}
	.st7{fill:none;stroke:#679AF8;stroke-width:0.7353;stroke-miterlimit:10;}
	.st8{fill:none;stroke:#FFFFFF;stroke-width:1.957;stroke-linecap:round;stroke-linejoin:round;stroke-miterlimit:10;}
	.st9{fill:none;stroke:#FFFFFF;stroke-width:1.9569;stroke-linecap:round;stroke-linejoin:round;stroke-miterlimit:9.9996;}
	.st10{fill:url(#SVGID_1_);}
	.st11{opacity:0.5;fill:url(#SVGID_00000078045417413715869720000008738154385300448152_);enable-background:new    ;}
	.st12{opacity:0.5;fill:url(#SVGID_00000142145474328272456690000010158206703873359280_);enable-background:new    ;}
	.st13{fill:url(#SVGID_00000075134125518572915490000000290484161461998474_);}
	.st14{fill:url(#SVGID_00000180341826055434680970000002694147305636099238_);}
	.st15{opacity:0.76;fill:url(#SVGID_00000152259963780076632370000014302848231471429787_);enable-background:new    ;}
	.st16{opacity:0.76;fill:url(#SVGID_00000179633138513784327760000005406750937227800741_);enable-background:new    ;}
	.st17{opacity:0.76;fill:url(#SVGID_00000142154238842027935570000000885964420535548578_);enable-background:new    ;}
	.st18{fill:#FE9083;}
	.st19{fill:url(#SVGID_00000079462028736546477570000015311781175963094433_);}
	.st20{opacity:0.5;fill:url(#SVGID_00000157288863863355399780000001558504152366326917_);enable-background:new    ;}
	.st21{fill:url(#SVGID_00000176755826609163624060000012267519880340857273_);}
	.st22{opacity:0.5;fill:url(#SVGID_00000146477449239287895740000017650183805370952601_);enable-background:new    ;}
	.st23{fill:url(#SVGID_00000125593931793137870580000014404113623708310154_);}
	.st24{fill:url(#SVGID_00000083089238177056248020000006553051649161863574_);}
	.st25{fill:#CB4D7A;}
	.st26{fill:#EE8183;}
	.st27{fill:url(#SVGID_00000132783611872505933110000017929066571769184170_);}
	.st28{opacity:0.6;fill:url(#SVGID_00000153702885570341421130000006725047552569956019_);enable-background:new    ;}
	.st29{fill:url(#SVGID_00000041995898203284552310000016192865322935861678_);}
	.st30{fill:#E28183;}
	.st31{opacity:0.91;fill:url(#SVGID_00000086671886843571758080000014232809434831353525_);enable-background:new    ;}
	.st32{fill:url(#SVGID_00000098901220043432632250000002687805361806366633_);}
	.st33{opacity:0.6;fill:url(#SVGID_00000168100206314924590630000003565315500990377109_);enable-background:new    ;}
	.st34{fill:url(#SVGID_00000108990389642179035650000014407548341983130503_);}
	.st35{fill:url(#SVGID_00000096772640621350412340000005434187440941597343_);}
	.st36{opacity:0.91;fill:url(#SVGID_00000000210233746297572720000013652694793555368351_);enable-background:new    ;}
	.st37{opacity:0.5;fill:url(#SVGID_00000134211606766020680330000008200172625000395709_);enable-background:new    ;}
	.st38{opacity:0.5;fill:url(#SVGID_00000085208488440581516010000014200474290144928952_);enable-background:new    ;}
	.st39{opacity:0.5;fill:url(#SVGID_00000034062508507389168070000005580245298432806315_);enable-background:new    ;}
	.st40{opacity:0.5;fill:url(#SVGID_00000124848359405979521490000010436420083356019842_);enable-background:new    ;}
	.st41{opacity:0.5;fill:url(#SVGID_00000023991887701315802360000011366892437024450739_);enable-background:new    ;}
	.st42{opacity:0.5;fill:url(#SVGID_00000036973869434749067040000014049843213900033188_);enable-background:new    ;}
	.st43{opacity:0.5;fill:url(#SVGID_00000083778236915418268300000001467644491156574630_);enable-background:new    ;}
	.st44{opacity:0.5;fill:url(#SVGID_00000002350205863806426080000002227593602588616844_);enable-background:new    ;}
	.st45{opacity:0.5;fill:url(#SVGID_00000005954540920798008790000001409681036561236411_);enable-background:new    ;}
	.st46{opacity:0.76;fill:url(#SVGID_00000179612148134699865790000017017020541222823856_);enable-background:new    ;}
	.st47{opacity:0.5;fill:url(#SVGID_00000014604709031776062880000007892103103114267014_);enable-background:new    ;}
	.st48{opacity:0.3;fill:url(#SVGID_00000042724216865425723690000013149401145585602464_);enable-background:new    ;}
	.st49{opacity:0.5;fill:url(#SVGID_00000065065073698698925380000014109340178634267532_);enable-background:new    ;}
	.st50{opacity:0.5;fill:url(#SVGID_00000116916047565172329640000003377239405639819654_);enable-background:new    ;}
	.st51{opacity:0.5;fill:url(#SVGID_00000176758416386619185830000006610815632856547989_);enable-background:new    ;}
	.st52{opacity:0.5;fill:url(#SVGID_00000170994128217096895180000002154165942535474325_);enable-background:new    ;}
	.st53{fill:url(#SVGID_00000166667936766515281110000000640204373843367060_);}
	.st54{opacity:0.5;fill:url(#SVGID_00000122716214084943909760000007262454762416304271_);enable-background:new    ;}
	.st55{opacity:0.3;fill:url(#SVGID_00000041991844748419182230000011633514671001557890_);enable-background:new    ;}
	.st56{opacity:0.5;fill:url(#SVGID_00000136387121450637409400000003489302795113110203_);enable-background:new    ;}
	.st57{opacity:0.5;fill:url(#SVGID_00000023256472902374120650000011118438832385621949_);enable-background:new    ;}
	.st58{opacity:0.5;fill:url(#SVGID_00000007391153555153849700000006575028691454182277_);enable-background:new    ;}
	.st59{opacity:0.5;fill:#7A4AC0;enable-background:new    ;}
	.st60{fill:url(#SVGID_00000080195477090575151130000000719661997515831957_);}
	.st61{fill:url(#SVGID_00000046316763362051470500000001873766696890015885_);}
	.st62{fill:url(#SVGID_00000155109140131058873650000007980898982819987384_);}
	.st63{opacity:0.6;fill:url(#SVGID_00000155148090046085838560000005144128805128903346_);enable-background:new    ;}
	.st64{fill:#38368E;}
	.st65{fill:url(#SVGID_00000044178738292844402890000008476565200756051892_);}
	.st66{fill:url(#SVGID_00000147905572987843522150000011010043268224108446_);}
	.st67{fill:#FFEBED;}
	.st68{fill:#7F9EC9;}
	.st69{fill:#131163;}
	.st70{fill:#C6659C;}
	.st71{fill:#CB5F7D;}
	.st72{fill:#9F4A8B;}
	.st73{fill:#FFBCAF;}
	.st74{opacity:0.6;fill:url(#SVGID_00000132776877393263357900000007430072341817532313_);enable-background:new    ;}
	.st75{fill:url(#SVGID_00000013879741454746699650000018433497499304285333_);}
	.st76{fill:#D2726C;}
	.st77{opacity:0.6;fill:url(#SVGID_00000181071277413380891050000012536703747998670489_);enable-background:new    ;}
	.st78{opacity:0.6;fill:url(#SVGID_00000064312095849747294080000012534074246271641507_);enable-background:new    ;}
	.st79{opacity:0.5;fill:url(#SVGID_00000080172348715653307130000003290732757962362259_);enable-background:new    ;}
	.st80{fill:url(#SVGID_00000059269853452003044890000004255926349771255732_);}
	.st81{fill:url(#SVGID_00000110440702473584489040000013032331011983021211_);}
	.st82{fill:url(#SVGID_00000135685098001290727310000011704805566620775560_);}
	.st83{opacity:0.8;fill:url(#SVGID_00000152954327079786278320000011204448911657905339_);enable-background:new    ;}
	.st84{opacity:0.8;fill:url(#SVGID_00000034805594710227288260000000822180699195739577_);enable-background:new    ;}
	.st85{fill:#34C7FF;}
	.st86{fill:url(#SVGID_00000166663863292059359380000015346244418344596399_);}
	.st87{fill:url(#SVGID_00000167379980521471262350000007667288714632891539_);}
	.st88{fill:url(#SVGID_00000103968397173434744580000011466845093928932253_);}
</style>
<g id="OBJECTS">
	<g>
		<path class="st0" d="M0,0v287.8c39.3,8.7,98.4,12.1,135.2,1c30-9,44.6-34.1,90.7-32.4c30.8,1.1,45.4,15.8,59.8,27.2
			c26.1,20.7,79.7,37.8,134.8,33.5c64.7-5.1,91.2-27.6,158.3-10.6c31.3,7.9,66,14,102.5,15.2c23.3,0.8,47.4-0.7,68.8-4.5V0H0z"/>
		<g>
			<g>
				<g>
					<g>
						<path class="st1" d="M23.4,155.6c-4.7-7.5-2.4-17.5,5.1-22.2s17.5-2.4,22.2,5.1s2.4,17.5-5.1,22.2
							C38.1,165.4,28.1,163.1,23.4,155.6z M49.2,139.5c-4.2-6.7-13-8.7-19.7-4.5s-8.7,13-4.5,19.7s13,8.7,19.7,4.5
							S53.3,146.2,49.2,139.5z"/>
					</g>
					<g>
						<g>
							<path class="st1" d="M43,132.7l12.1-2.3l4.9,7.8l-7.4,9.9l-1.1-3.1c-1.3-3.7-3.4-7.2-6.2-9.9L43,132.7z M50.6,138.6
								c1.1,1.7,2,3.6,2.7,5.5l4.6-6.1l-3.5-5.6l-7.5,1.4C48.2,135.3,49.5,136.9,50.6,138.6z"/>
						</g>
						<g>
							<path class="st1" d="M18.9,163.8L14,156l7.4-9.9l1.4,4c1.1,3.1,2.9,6,5.2,8.3l3,3L18.9,163.8z M16.3,156.1l3.5,5.6l7.5-1.4
								l-0.6-0.6c-2.5-2.5-4.5-5.6-5.6-9l-0.3-0.8L16.3,156.1z"/>
						</g>
					</g>
					<g>
						<g>
							<path class="st1" d="M27.6,134.7l4-11.7l9.2-0.3l4.9,11.4l-4.2-0.8c-3.2-0.6-6.6-0.5-9.8,0.3L27.6,134.7z M33,124.8l-2.5,7.2
								l0.8-0.2c3.4-0.9,7.1-1,10.6-0.4l0.8,0.2l-3-7L33,124.8z"/>
						</g>
						<g>
							<path class="st1" d="M33.3,171.4L28.4,160l4.2,0.8c3.2,0.6,6.6,0.5,9.8-0.3l4.1-1.1l-4,11.7L33.3,171.4z M31.5,162.5l3,7
								l6.7-0.2l2.5-7.2l-0.8,0.2c-3.4,0.9-7.1,1-10.6,0.4L31.5,162.5z"/>
						</g>
					</g>
					<g>
						<g>
							<path class="st1" d="M13.5,139.7l4.3-8.1l12.3,1.5l-2.8,3.2c-2.2,2.5-3.7,5.4-4.6,8.6l-1.1,4.1L13.5,139.7z M18.8,133.6
								l-3.1,5.9l5,5.8l0.2-0.8c0.9-3.4,2.6-6.7,5-9.3l0.5-0.6L18.8,133.6z"/>
						</g>
						<g>
							<path class="st1" d="M44,161l2.8-3.2c2.2-2.5,3.7-5.4,4.6-8.6l1.1-4.1l8.1,9.3l-4.3,8.1L44,161z M53.4,148.9l-0.2,0.8
								c-0.9,3.4-2.6,6.7-5,9.3l-0.5,0.6l7.6,0.9l3.1-5.9L53.4,148.9z"/>
						</g>
					</g>
				</g>
				<g>
					<path class="st1" d="M30.4,151.2c-2.3-3.7-1.2-8.5,2.5-10.8s8.5-1.2,10.8,2.5s1.2,8.5-2.5,10.8S32.7,154.9,30.4,151.2z
						 M42.2,143.9c-1.8-2.8-5.5-3.7-8.3-1.9s-3.7,5.5-1.9,8.3s5.5,3.7,8.3,1.9S43.9,146.7,42.2,143.9z"/>
				</g>
			</g>
			<g>
				<g>
					<g>
						<path class="st1" d="M70.7,158c-5.1-4-6-11.4-2.1-16.5c4-5.1,11.4-6,16.5-2.1c5.1,4,6,11.4,2.1,16.5
							C83.3,161.1,75.9,162,70.7,158z M84.4,140.5c-4.5-3.5-11.1-2.7-14.6,1.8s-2.7,11.1,1.8,14.6s11.1,2.7,14.6-1.8
							C89.7,150.6,88.9,144.1,84.4,140.5z"/>
					</g>
					<g>
						<g>
							<path class="st1" d="M78.5,137.4l7.8-4.6l5.3,4.1l-2.6,8.6l-1.5-1.8c-1.8-2.2-4.2-4.1-6.8-5.3L78.5,137.4z M85.1,139.6
								c1.2,0.9,2.3,2,3.2,3.1l1.6-5.3l-3.8-3l-4.8,2.9C82.7,137.9,84,138.7,85.1,139.6z"/>
						</g>
						<g>
							<path class="st1" d="M69.7,164.8l-5.3-4.1l2.6-8.6l2,2.4c1.5,1.9,3.5,3.4,5.6,4.4l2.8,1.3L69.7,164.8z M66,160.2l3.8,3
								l4.8-2.9l-0.5-0.2c-2.4-1.1-4.5-2.7-6.1-4.7l-0.4-0.5L66,160.2z"/>
						</g>
					</g>
					<g>
						<g>
							<path class="st1" d="M68.4,142.6l-0.2-9l6.2-2.5l6.2,6.6l-3.1,0.5c-2.4,0.4-4.6,1.3-6.6,2.7L68.4,142.6z M69.6,134.5l0.1,5.6
								l0.5-0.3c2.1-1.5,4.6-2.5,7.2-2.9l0.6-0.1l-3.8-4.1L69.6,134.5z"/>
						</g>
						<g>
							<path class="st1" d="M81.5,166.4l-6.2-6.6l3.1-0.5c2.4-0.4,4.6-1.3,6.6-2.7l2.6-1.8l0.2,9L81.5,166.4z M78.1,160.8l3.8,4.1
								l4.5-1.8l-0.1-5.6l-0.5,0.3c-2.1,1.5-4.6,2.5-7.2,2.9L78.1,160.8z"/>
						</g>
					</g>
					<g>
						<g>
							<path class="st1" d="M60,149.6l0.9-6.6l8.8-2.1l-1.1,2.9c-0.9,2.2-1.2,4.7-1,7.1l0.3,3.1L60,149.6z M62.1,144.1l-0.7,4.8
								l4.9,2.7l-0.1-0.6c-0.2-2.6,0.1-5.2,1.1-7.7l0.2-0.5L62.1,144.1z"/>
						</g>
						<g>
							<path class="st1" d="M86.3,156.6l1.1-2.9c0.9-2.2,1.2-4.7,1-7.1l-0.3-3.1l7.9,4.4l-0.9,6.6L86.3,156.6z M89.6,145.9l0.1,0.6
								c0.2,2.6-0.1,5.2-1.1,7.7l-0.2,0.5l5.4-1.3l0.7-4.8L89.6,145.9z"/>
						</g>
					</g>
				</g>
				<g>
					<path class="st1" d="M74.5,153.3c-2.5-1.9-2.9-5.5-1-8s5.5-2.9,8-1s2.9,5.5,1,8C80.5,154.8,76.9,155.2,74.5,153.3z M80.7,145.3
						c-1.9-1.5-4.7-1.1-6.2,0.8c-1.5,1.9-1.1,4.7,0.8,6.1c1.9,1.5,4.7,1.1,6.2-0.8C82.9,149.5,82.6,146.8,80.7,145.3z"/>
				</g>
			</g>
		</g>
		<path class="st2" d="M263.3,73.1c0-0.1,0-0.1,0-0.2c0-3.4-2.5-6.2-5.8-6.6c-0.6-6.4-6.1-11.5-12.7-11.5c-6,0-11,4.1-12.4,9.6
			c-5.5,0.2-9.9,4.7-9.9,10.3c0,5.2,3.9,9.5,8.9,10.2c0.4,0.1,0.7,0.1,1.1,0.1h29.2c3.3,0,6-2.7,6-6l0,0
			C267.7,76.1,265.9,73.8,263.3,73.1z"/>
		<g>
			<g>
				<g>
					<ellipse class="st3" cx="543.3" cy="297.2" rx="60.2" ry="60.2"/>
				</g>
			</g>
			<g>
				<g>
					<ellipse class="st3" cx="543.3" cy="297.2" rx="51.9" ry="51.8"/>
					<path class="st1" d="M543.3,351.5c-30,0-54.4-24.4-54.4-54.3c0-30,24.4-54.3,54.4-54.3s54.4,24.4,54.4,54.3
						S573.3,351.5,543.3,351.5z M543.3,247.8c-27.2,0-49.4,22.1-49.4,49.3s22.2,49.3,49.4,49.3s49.4-22.1,49.4-49.3
						S570.5,247.8,543.3,247.8z"/>
				</g>
				<g>
					<ellipse class="st3" cx="543.3" cy="297.2" rx="42.2" ry="42.2"/>
					<path class="st1" d="M543.3,341.9c-24.7,0-44.8-20.1-44.8-44.7s20.1-44.7,44.8-44.7s44.8,20.1,44.8,44.7S568,341.9,543.3,341.9
						z M543.3,257.5c-21.9,0-39.7,17.8-39.7,39.7c0,21.9,17.8,39.7,39.7,39.7s39.7-17.8,39.7-39.7S565.2,257.5,543.3,257.5z"/>
				</g>
				<g>
					
						<ellipse transform="matrix(0.3162 -0.9487 0.9487 0.3162 89.5309 718.7082)" class="st3" cx="543.4" cy="297.2" rx="32.6" ry="32.6"/>
					<path class="st1" d="M543.3,332.2c-19.4,0-35.1-15.7-35.1-35.1c0-19.3,15.8-35.1,35.1-35.1c19.4,0,35.1,15.7,35.1,35.1
						C578.4,316.5,562.6,332.2,543.3,332.2z M543.3,267.1c-16.6,0-30.1,13.5-30.1,30.1s13.5,30.1,30.1,30.1s30.1-13.5,30.1-30.1
						S559.9,267.1,543.3,267.1z"/>
				</g>
				<g>
					<ellipse class="st3" cx="543.3" cy="297.2" rx="23" ry="22.9"/>
					<path class="st1" d="M543.3,322.6c-14,0-25.5-11.4-25.5-25.4s11.4-25.4,25.5-25.4c14,0,25.5,11.4,25.5,25.4
						S557.3,322.6,543.3,322.6z M543.3,276.7c-11.3,0-20.5,9.2-20.5,20.4c0,11.3,9.2,20.4,20.5,20.4s20.5-9.2,20.5-20.4
						S554.6,276.7,543.3,276.7z"/>
				</g>
				<g>
					<ellipse class="st3" cx="543.3" cy="297.2" rx="13.3" ry="13.3"/>
					<path class="st1" d="M543.3,313c-8.7,0-15.8-7.1-15.8-15.8c0-8.7,7.1-15.8,15.8-15.8s15.8,7.1,15.8,15.8S552,313,543.3,313z
						 M543.3,286.4c-6,0-10.8,4.8-10.8,10.8s4.9,10.8,10.8,10.8c6,0,10.8-4.8,10.8-10.8S549.3,286.4,543.3,286.4z"/>
				</g>
				<g>
					<ellipse class="st3" cx="543.3" cy="297.2" rx="3.7" ry="3.7"/>
					<path class="st1" d="M543.3,303.3c-3.4,0-6.2-2.8-6.2-6.2c0-3.4,2.8-6.2,6.2-6.2s6.2,2.8,6.2,6.2
						C549.5,300.6,546.7,303.3,543.3,303.3z M543.3,296c-0.6,0-1.2,0.5-1.2,1.2c0,0.6,0.5,1.2,1.2,1.2c0.6,0,1.2-0.5,1.2-1.2
						S543.9,296,543.3,296z"/>
				</g>
			</g>
		</g>
		<path class="st4" d="M444.4,36.6c0-0.1,0-0.2,0-0.3c0-4-2.7-7.4-6.3-7.9c-0.7-7.7-6.6-13.7-13.8-13.7c-6.5,0-11.9,4.9-13.5,11.5
			c-6,0.2-10.8,5.6-10.8,12.3c0,6.2,4.2,11.3,9.6,12.2c0.4,0.1,0.8,0.1,1.2,0.1h31.8c3.6,0,6.6-3.2,6.6-7.2l0,0
			C449.2,40.2,447.2,37.4,444.4,36.6z"/>
		<g>
			<g>
				<path class="st5" d="M541,298.2c-0.4,0-0.8-0.1-1.1-0.3l-57.4-40.8c-0.8-0.6-1-1.8-0.4-2.6s1.8-1,2.6-0.4l57.4,40.8
					c0.8,0.6,1,1.8,0.4,2.6C542.1,297.9,541.6,298.2,541,298.2z"/>
			</g>
			<g>
				<path class="st5" d="M543.1,297.9c0-0.5-5.8-13.7-5.8-13.7l-8.7,12L543.1,297.9z"/>
			</g>
			<g>
				<path class="st5" d="M492.2,263.5c-0.4,0-0.8-0.1-1.1-0.4l-12-8.8c-0.3-0.2-0.5-0.5-0.6-0.8l-5.5-13.3c-0.3-0.8-0.1-1.7,0.6-2.2
					s1.6-0.5,2.3,0l16,11.7c0.4,0.3,0.7,0.8,0.8,1.3l1.4,10.4c0.1,0.7-0.3,1.5-0.9,1.9C492.8,263.4,492.5,263.5,492.2,263.5z"/>
			</g>
			<g>
				<path class="st5" d="M479.7,265.7c-0.3,0-0.7-0.1-1-0.3l-15.6-9.4c-0.7-0.4-1-1.2-0.9-2c0.2-0.8,0.8-1.4,1.6-1.5l16-1.6
					c0.5,0,0.9,0.1,1.3,0.4l12,8.8c0.6,0.4,0.9,1.2,0.7,1.9c-0.2,0.7-0.8,1.3-1.5,1.4l-12.4,2.2C480,265.7,479.9,265.7,479.7,265.7z
					"/>
			</g>
		</g>
		<g>
			<g>
				<path class="st6" d="M576.3,100.4"/>
				<line class="st7" x1="574.9" y1="100.4" x2="573.4" y2="100.4"/>
			</g>
		</g>
		<path class="st8" d="M621.8,32.6c0,2.2-1.7,3.9-3.9,3.9s-3.9-1.7-3.9-3.9s1.7-3.9,3.9-3.9C620,28.7,621.8,30.4,621.8,32.6z"/>
		
			<ellipse transform="matrix(0.4473 -0.8944 0.8944 0.4473 248.4526 483.8849)" class="st9" cx="515.7" cy="40.9" rx="3.9" ry="3.9"/>
		<path class="st8" d="M742.8,91.5c0,2.2-1.7,3.9-3.9,3.9s-3.9-1.7-3.9-3.9s1.7-3.9,3.9-3.9C741,87.7,742.8,89.4,742.8,91.5z"/>
	</g>
	<g>
		<g>
			
				<linearGradient id="SVGID_1_" gradientUnits="userSpaceOnUse" x1="153.8129" y1="-576.0886" x2="153.8129" y2="-486.8886" gradientTransform="matrix(1 0 0 -1 0 -75.8886)">
				<stop  offset="0" style="stop-color:#6456C0"/>
				<stop  offset="1" style="stop-color:#5F2C95"/>
			</linearGradient>
			<path class="st10" d="M219.7,500.2h-47c-4.9-27.3-16.4-62.9-16.4-62.9c-2.8-1.6-8.2,0.4-8.2,0.4l-17.2,62.5H88.1
				c-2.3-38.6,18.8-82.3,18.8-82.3l0,0c-0.1-0.2-0.7-1.5-0.6-2.4c0.1-0.4,0.8-1.1,1.6-1.9c1.2-1.1,2.5-2.1,2.5-2.1l80.1-0.5
				c0,0,0.8,0.4,1.8,1l0,0c1.8,1.1,4.1,2.7,4.1,3.9c0,1.6-0.6,2.7-0.8,3l0,0C212.9,451.3,219.8,500.2,219.7,500.2L219.7,500.2z"/>
			
				<radialGradient id="SVGID_00000035506644193273286540000001027692249480535434_" cx="1209.5486" cy="84.9844" r="27.03" gradientTransform="matrix(0.6431 0.1484 0.3844 -1.6662 -700.6175 428.8005)" gradientUnits="userSpaceOnUse">
				<stop  offset="0" style="stop-color:#4B474B"/>
				<stop  offset="1" style="stop-color:#000000"/>
			</radialGradient>
			<path style="opacity:0.5;fill:url(#SVGID_00000035506644193273286540000001027692249480535434_);enable-background:new    ;" d="
				M92.9,464.1c5.7-24.9,18.2-43.3,27.9-41.1c9.6,2.2,12.8,24.2,7.1,49.2c-5.8,24.8-18.3,43.2-27.9,41C90.3,511,87.2,489,92.9,464.1
				z"/>
			
				<radialGradient id="SVGID_00000060745755356604831610000011119090044149395083_" cx="575.6425" cy="-362.7077" r="27.03" gradientTransform="matrix(0.6355 -0.178 -0.4612 -1.6466 -341.0177 -27.9293)" gradientUnits="userSpaceOnUse">
				<stop  offset="0" style="stop-color:#4B474B"/>
				<stop  offset="1" style="stop-color:#000000"/>
			</radialGradient>
			<path style="opacity:0.5;fill:url(#SVGID_00000060745755356604831610000011119090044149395083_);enable-background:new    ;" d="
				M181.1,423.1c9.5-2.7,22.8,15.1,29.7,39.8c6.9,24.6,4.8,46.8-4.8,49.4c-9.5,2.7-22.8-15.1-29.7-39.8
				C169.4,447.9,171.5,425.8,181.1,423.1z"/>
			
				<linearGradient id="SVGID_00000108282700723992010100000004724160232723720860_" gradientUnits="userSpaceOnUse" x1="124.9" y1="-544.6886" x2="148.3" y2="-544.6886" gradientTransform="matrix(1 0 0 -1 0 -75.8886)">
				<stop  offset="0" style="stop-color:#9E8CEF"/>
				<stop  offset="1" style="stop-color:#CAAFEE"/>
			</linearGradient>
			<path style="fill:url(#SVGID_00000108282700723992010100000004724160232723720860_);" d="M125.4,500.2l-0.5-0.1
				c5.5-32.2,19.3-59.2,19.5-59.5l0.1-0.1l3.5-3.1l0.3,0.4l-3.5,3.1C144.2,442.2,130.8,468.7,125.4,500.2L125.4,500.2z"/>
			
				<linearGradient id="SVGID_00000127022225795744080750000018346861708589893809_" gradientUnits="userSpaceOnUse" x1="-3035.2192" y1="-544.7386" x2="-3011.8191" y2="-544.7386" gradientTransform="matrix(-1 0 0 -1 -2855.6511 -75.8886)">
				<stop  offset="0" style="stop-color:#9E8CEF"/>
				<stop  offset="1" style="stop-color:#CAAFEE"/>
			</linearGradient>
			<path style="fill:url(#SVGID_00000127022225795744080750000018346861708589893809_);" d="M179.1,500.2
				c-5.4-31.5-19.2-58.4-19.8-59.5l-3.1-2.8l0.3-0.4l3.2,2.9c0.1,0.3,14.4,27.5,19.9,59.7L179.1,500.2z"/>
			
				<linearGradient id="SVGID_00000083783441299244817930000009569666969658915971_" gradientUnits="userSpaceOnUse" x1="150.7" y1="-575.9886" x2="150.7" y2="-486.7886" gradientTransform="matrix(1 0 0 -1 0 -75.8886)">
				<stop  offset="0" style="stop-color:#CCCCFF"/>
				<stop  offset="1" style="stop-color:#755CBB"/>
			</linearGradient>
			
				<path style="opacity:0.76;fill:url(#SVGID_00000083783441299244817930000009569666969658915971_);enable-background:new    ;" d="
				M196.5,415.9c0,1.6-0.6,2.7-0.8,3l0,0c-16.7,3.8-29.4,19.3-29.4,19.3c9.1,17.4,24.2,61.9,24.2,61.9h-17.8
				c-4.9-27.3-16.4-62.9-16.4-62.9c-2.8-1.6-8.2,0.4-8.2,0.4l-17.2,62.5h-11c4-26.2,15.7-58.1,15.7-58.1
				c-11.6-13.5-28.7-24.2-28.7-24.2l0,0l-2-1.3l1.5-1.1c7.4,7.1,31.4,16.4,32.1,16.7L108,413.5c1.2-1.1,2.5-2.1,2.5-2.1l80.1-0.5
				c0,0,0.8,0.4,1.8,1l-21.9,12L196.5,415.9L196.5,415.9z"/>
			
				<linearGradient id="SVGID_00000105404291602596137150000009118591956662927291_" gradientUnits="userSpaceOnUse" x1="161.05" y1="-531.4886" x2="161.05" y2="-507.1486" gradientTransform="matrix(1 0 0 -1 0 -75.8886)">
				<stop  offset="0" style="stop-color:#CCCCFF"/>
				<stop  offset="1" style="stop-color:#755CBB"/>
			</linearGradient>
			
				<polygon style="opacity:0.76;fill:url(#SVGID_00000105404291602596137150000009118591956662927291_);enable-background:new    ;" points="
				156.4,437.3 165.7,431.2 163.5,437.3 161.9,455.6 			"/>
			
				<linearGradient id="SVGID_00000001660897680380250610000017788152361072863913_" gradientUnits="userSpaceOnUse" x1="132.9" y1="-522.5154" x2="132.9" y2="-498.6754" gradientTransform="matrix(1 0 0 -1 0 -75.8886)">
				<stop  offset="0" style="stop-color:#CCCCFF"/>
				<stop  offset="1" style="stop-color:#755CBB"/>
			</linearGradient>
			
				<polygon style="opacity:0.76;fill:url(#SVGID_00000001660897680380250610000017788152361072863913_);enable-background:new    ;" points="
				148.2,437.7 138.4,432.2 117.6,422.8 144.1,440.3 145.7,446.6 			"/>
		</g>
		<path class="st18" d="M175,249.8c0.1,0.4,0.1,0.7,0.1,0.7c-0.5,2-1,3.9-1.7,5.7c-2,5.6-4.4,9.6-6.2,12.1c-1.6,2.1-2.7,3.2-2.7,3.2
			c-14.6-4.6-21.8-18.9-24.5-25.9v-0.1c-0.5-1.3-0.9-2.4-1.1-3.1l0,0c-0.2-0.6-0.2-0.9-0.2-0.9c0.1-0.1,0.1-0.2,0.2-0.4V241
			c0.2-0.5,0.5-1,0.7-1.5c1.9-4.2,3.2-8.1,4-11.2c0.7-2.6,1.1-4.6,1.3-5.7c0.1-0.6,0.1-0.9,0.1-0.9l6.8,3.6l23.4,12.4
			c-0.4,2.1-0.5,4.2-0.5,5.9c0,1.2,0,2.4,0.1,3.3c0.1,1.2,0.2,2.1,0.3,2.7l0,0C175,249.7,175,249.8,175,249.8L175,249.8z"/>
		
			<linearGradient id="SVGID_00000099628898880455723260000001498038971126982564_" gradientUnits="userSpaceOnUse" x1="157.1431" y1="-352.4886" x2="157.1431" y2="-316.8886" gradientTransform="matrix(1 0 0 -1 0 -75.8886)">
			<stop  offset="0" style="stop-color:#D5CDF8"/>
			<stop  offset="1" style="stop-color:#F3EDFB"/>
		</linearGradient>
		<path style="fill:url(#SVGID_00000099628898880455723260000001498038971126982564_);" d="M168.5,273c-1.4,1.3-2.9,2.5-4.8,3.5
			c0,0-0.1,0-0.1,0.1c0,0,0,0-0.1-0.1l0,0c-0.5-0.3-2.2-1.4-4.6-3.1c-6.1-4.6-16.3-13.9-19.3-26.5c0,0,0,0,0-0.1
			c-0.3-1.5-0.6-3-0.7-4.6l0,0c0-0.4-0.1-0.8-0.1-1.2c0,0,2,4.8,5.5,9.9c4.1,6.1,10.4,12.7,17.8,12.7c6.4,0,9.7-4.4,11.4-8.4
			c0.7-1.7,1.1-3.4,1.4-4.6l0,0c0.1-0.4,0.1-0.7,0.2-0.9l0,0c0-0.1,0-0.3,0-0.4c0.1-0.4,0.1-0.7,0.1-0.7S177.6,263.9,168.5,273
			L168.5,273z"/>
		
			<linearGradient id="SVGID_00000146477160331819540170000018232585699005663141_" gradientUnits="userSpaceOnUse" x1="138.7" y1="-334.6386" x2="175.3642" y2="-334.6386" gradientTransform="matrix(1 0 0 -1 0 -75.8886)">
			<stop  offset="0" style="stop-color:#CCCCFF"/>
			<stop  offset="1" style="stop-color:#755CBB"/>
		</linearGradient>
		<path style="opacity:0.5;fill:url(#SVGID_00000146477160331819540170000018232585699005663141_);enable-background:new    ;" d="
			M168.5,273c-1.4,1.3-2.9,2.5-4.8,3.5h-0.3l0,0c-0.5-0.3-2.2-1.4-4.6-3.1c-6.1-4.6-16.3-13.9-19.3-26.5c0,0,0,0,0-0.1
			c-0.3-1.5-0.6-3-0.7-4.6l0,0c0-0.4-0.1-0.8-0.1-1.2c0,0,2,4.8,5.5,9.9c0,0,4,11.1,12.8,16.6c4.4,2.8,7.7,2.4,10.1,0.7
			c2.4-1.6,4-4.4,5-6.5c0.9-2.1,1.2-4.1,1.3-5.6c0-0.3,0-0.6,0-0.9c0.7-1.7,1.1-3.4,1.4-4.6l0,0c0.1-0.4,0.1-0.7,0.2-0.9l0,0
			c0-0.1,0-0.3,0-0.4c0.1-0.4,0.1-0.7,0.1-0.7S177.6,263.9,168.5,273L168.5,273z"/>
		
			<linearGradient id="SVGID_00000160913581734772366870000014425358338351705991_" gradientUnits="userSpaceOnUse" x1="146.7281" y1="-494.9556" x2="146.7281" y2="-315.3887" gradientTransform="matrix(1 0 0 -1 0 -75.8886)">
			<stop  offset="0" style="stop-color:#9E8CEF"/>
			<stop  offset="1" style="stop-color:#CAAFEE"/>
		</linearGradient>
		<path style="fill:url(#SVGID_00000160913581734772366870000014425358338351705991_);" d="M224.6,363.7c-0.1,0-0.2,0.1-0.2,0.1
			c-0.8,0.1-3.4-0.5-6.7-3.4l0,0l0,0l0,0c-2.8-2.5-6.2-6.5-9.5-13.2c-6.7-13.4-8.6-22.3-8.9-23.9v-0.2l-3.9,6.2
			c-2.6,8-7.7,41-7.6,42.4s4.5,8.3,4.4,9.2l0,0c-0.1,0.9-2.1,2.8-2.6,4.8c-0.4,1.4,2.3,5.7,4.1,8.9l0,0c1,1.7,1.7,3.1,1.7,3.6
			c0,1.5-4.7,8.9-4.7,8.9v4l-0.1,0.1l-0.2,0.2l-0.2,0.1c-1.8,1.4-9.4,6.1-33.3,7.4c-28.2,1.5-47.1-7.6-47.1-7.6l1.4-3.9
			c0,0-1.3-1.1-1.4-1.7s1-1.9,1-1.9s-2.8-1.5-2.8-3.4s5.7-7.8,5.5-12.8s-4.6-9.5-5.1-12.3s7.4-9.9,7.4-9.9
			c-6.8-21.6-8.1-50.6-8.1-50.6l-1.3-1.5c0,0-8.1,18.6-15.5,27.7c-0.9,1.1-1.8,2.1-2.8,3.2c-2.1,2.2-4.2,4.3-6.4,6.1
			c-5.1,4.5-9.8,7.4-10.9,7.2c-1.9-0.4-9.5-15.4-9.1-30.7c0.2-7.3,4.6-15.5,9.1-22c0.5-0.7,1-1.4,1.5-2.1c3.2-4.4,6.4-7.9,7.8-9.4
			c0.6-0.6,0.9-1,0.9-1s-1-3.4-1.8-6.3c0-0.1,0-0.1-0.1-0.2v-0.1v-0.1c-0.4-1.8-0.7-3.3-0.4-3.7c0.6-1,4.3-2.1,4.9-2.9
			s3.3-13.5,5.3-14.9c1.9-1.3,5.4-2.3,16.7-6.8c0.6-0.2,1.1-0.4,1.7-0.7c12.8-5.1,25.3-11.2,25.3-11.2l4.8-5.9h2.1l-0.7,1.5v0.1
			c0.3,1.5,0.7,3,1.2,4.4v0.1c6.6,20.8,23.6,27.5,23.6,27.5c11.8-8.7,11.6-22.5,11.6-22.5v-1.9l2.2,0.7l1.5,3.6c0,0,2.6,4,12.7,8.4
			c1.8,0.8,3.6,1.7,5.6,2.9c9.3,5.3,19.6,13.4,20.4,15.1c0.1,0.2,0.2,0.5,0.3,0.9l0,0c1.1,4.3,3.3,20.3,5.4,26
			c1.3,3.6,3.4,5.5,4.9,6.6c1,0.7,1,0.7,0,0c1.1,0.8,1.9,1,1.9,1c0.2,0.9,0.3,1.8,0.5,2.6C234.8,343.8,226.5,362.4,224.6,363.7
			L224.6,363.7z"/>
		
			<linearGradient id="SVGID_00000112591488944549319730000001456553088147659412_" gradientUnits="userSpaceOnUse" x1="72.1" y1="-382.9886" x2="115.8" y2="-382.9886" gradientTransform="matrix(1 0 0 -1 0 -75.8886)">
			<stop  offset="0" style="stop-color:#CCCCFF"/>
			<stop  offset="1" style="stop-color:#755CBB"/>
		</linearGradient>
		<path style="opacity:0.5;fill:url(#SVGID_00000112591488944549319730000001456553088147659412_);enable-background:new    ;" d="
			M115.8,311.9l-8.2,2.8l-1.3-1.5c0,0-8.1,18.6-15.5,27.7c-0.9,1.1-1.8,2.1-2.8,3.2c-2.1,2.2-4.2,4.3-6.4,6.1l-6.3-27.1l-3.2-20.5
			c3.2-4.4,6.4-7.9,7.8-9.5c0.6-0.6,0.9-0.9,0.9-0.9s-1-3.4-1.8-6.3c0-0.1,0-0.1-0.1-0.2v-0.1c0-0.1,0-0.1,0-0.1
			c-0.4-1.8-0.7-3.3-0.4-3.7c0.6-1,4.3-2.1,4.9-2.9s3.3-13.5,5.3-14.9c0,0-1.3,12.2,5.7,27.8l3.4,4.8l10,8
			C107.9,304.6,111.7,309.6,115.8,311.9L115.8,311.9z"/>
		
			<linearGradient id="SVGID_00000147926585507765887850000012538251245634345623_" gradientUnits="userSpaceOnUse" x1="70.8088" y1="-433.1886" x2="70.8088" y2="-349.2787" gradientTransform="matrix(1 0 0 -1 0 -75.8886)">
			<stop  offset="0" style="stop-color:#9E8CEF"/>
			<stop  offset="1" style="stop-color:#DAC7F3"/>
		</linearGradient>
		<path style="fill:url(#SVGID_00000147926585507765887850000012538251245634345623_);" d="M92,334.1c-1.8,13.1-21.3,23.2-21.3,23.2
			c-4.4,0-9.2-7.6-13.6-16.9s-4.7-36.2-4.9-37.9c-0.2-1.7-2.7-5-2.9-6.4c-0.1-1.4,4-4.4,4-4.4v-0.1v-0.1c-0.4-0.9-2.9-6.1-2.7-7.1
			s4.8-3.3,4.8-3.3l0.3,5.1c0,0,10.8-2,14.4-10.4l0.6-2.6l1.8,1.2v11c0,0,0.4,1.7,0.9,1.7s4.8-2.1,5.6-1.8c0.9,0.3,1.8,6.2,2.9,6.9
			c1.2,0.8,4.3,2.9,4.8,4c0.2,0.5,0.2,2.2,0.2,4.1c0,2.4,0.1,5.3,0.4,6.9C88.1,310.4,93.7,321,92,334.1L92,334.1z"/>
		
			<linearGradient id="SVGID_00000060016385258601393020000004102812262432032405_" gradientUnits="userSpaceOnUse" x1="215.0392" y1="-409.1354" x2="271.3556" y2="-409.1354" gradientTransform="matrix(1 0 0 -1 0 -75.8886)">
			<stop  offset="0" style="stop-color:#A999F1"/>
			<stop  offset="1" style="stop-color:#DAC7F3"/>
		</linearGradient>
		<path style="fill:url(#SVGID_00000060016385258601393020000004102812262432032405_);" d="M271,322.9c-0.9,1.4-5.3,4.3-6.4,5.4
			s0,4.9,0,4.9c-18.6,19.7-37.9,29.6-39.9,30.5c-0.1,0-0.2,0.1-0.2,0.1c-11.7-7.8-10.7-20.8-6.8-31.6c3.7-10.4,10-19,10.3-19.4l0,0
			l0,0c0.2-0.1,3.5-1.5,5.9-1.6c0.8-0.1,1.5,0.2,2.2,0.7c1.4,0.9,2.6,2.3,3.8,1.7c1.7-0.9,5.5-9.9,8.1-10.1c1.8-0.2,4.3,1.7,6,2.7
			c0.7,0.5,1.3,0.8,1.6,0.7c1-0.2,4.2-4.1,4.4-4.2s1.7,1,1.7,1l-1,1.3c1.6,9.1,6.8,15.2,6.8,15.2l3.5-5.1
			C271,314.9,271.8,321.5,271,322.9L271,322.9z"/>
		<path class="st25" d="M175,249.4c0,0.1,0,0.3,0,0.4c0,0.3-0.1,0.5-0.2,0.8l0,0c-1.2,4.4-6,8.9-12.1,6.8
			c-6.6-2.4-19.2-29.1-19.2-29.1l1.3-5.7l30,24.4l0.3,2.3L175,249.4L175,249.4z"/>
		<g>
			<path class="st26" d="M75.3,244.5c0,0-1.8-10.1-1-17.6s-0.2-15.8-0.2-15.8s-1.8-0.8-3.1,0c-1.3,0.8-4.4,8.5-3,14.7s0.3,21,0.3,21
				h-2.2l-4.6-6.2l-2.2-0.6c0,0-12.7,12-12.5,19.1l1.7,6.4l15.7-0.5l10.2-11.7L75.3,244.5L75.3,244.5z"/>
			
				<linearGradient id="SVGID_00000147902135431140717860000014912692313705780868_" gradientUnits="userSpaceOnUse" x1="52.4" y1="-337.8684" x2="52.4" y2="-315.7621" gradientTransform="matrix(1 0 0 -1 0 -75.8886)">
				<stop  offset="2.000000e-02" style="stop-color:#FFC2A9"/>
				<stop  offset="1" style="stop-color:#FF9595"/>
			</linearGradient>
			<path style="fill:url(#SVGID_00000147902135431140717860000014912692313705780868_);" d="M59.4,239.9c0,0,0.3,8,2.1,14.8
				c0,0-0.3,2.8-3.6,3l-0.8-0.9c0,0-0.6,3.2-3.5,3.4l-2.8-2.8l0.7,2.3c0,0-1,2.4-3.6,2.3c0,0-4.4-3.4-4.6-7.9l4.3-3.6v-2.8l5.1-3.6
				l0.1-2C52.9,242,55.9,239.8,59.4,239.9L59.4,239.9z"/>
			
				<linearGradient id="SVGID_00000123433149716920343550000002480584487280965262_" gradientUnits="userSpaceOnUse" x1="66.2" y1="-337.3554" x2="66.2" y2="-300.7554" gradientTransform="matrix(1 0 0 -1 0 -75.8886)">
				<stop  offset="0" style="stop-color:#FFEADB"/>
				<stop  offset="0.99" style="stop-color:#C27CB6"/>
			</linearGradient>
			<path style="opacity:0.6;fill:url(#SVGID_00000123433149716920343550000002480584487280965262_);enable-background:new    ;" d="
				M74.5,224.8c0,0-0.8,1.9-1.9,2.7s-4.2,1.3-4.2,1.3l-0.1,17.9h-2.2l-4.6-6.2c0,0,2.3,3.6,2.4,6.2l-1.8,0.9l-1.6-5.4l-0.7,3.9
				l0.7,4.8c0,0,2.7-2.3,7.6-2.4l0.7,1.3c0,0-8.8,7.3-10.9,11.6c0,0,4.4-5.5,14.3-11.7l0.9-2.9l1.3-7
				C74.6,239.9,73.5,229.8,74.5,224.8L74.5,224.8z"/>
			
				<linearGradient id="SVGID_00000057854104823124478210000007275871693308098194_" gradientUnits="userSpaceOnUse" x1="65.2256" y1="-362.2886" x2="65.2256" y2="-305.8286" gradientTransform="matrix(1 0 0 -1 0 -75.8886)">
				<stop  offset="2.000000e-02" style="stop-color:#FFC2A9"/>
				<stop  offset="1" style="stop-color:#FF9595"/>
			</linearGradient>
			<path style="fill:url(#SVGID_00000057854104823124478210000007275871693308098194_);" d="M81.9,256c-0.8,2.5-9.4,12.7-10.4,14.9
				c-0.9,2.2-1.5,5.1-1.5,5.1c-4.2,9.1-14.4,10.4-14.4,10.4l-0.5-8.2c0,0-5.5-3.2-6.4-4.9l0,0l-0.1-0.3c-0.3-1.6,0-7.6,0-7.6
				l9.6-3.9c4.2-5.4,14.3-11.6,14.3-11.6l0.5-2.8c-7.3-3.6-6.1-14.4-4.8-15.7c1.2-1.3,3.5-1.3,3.5-1.3s2.7,8.7,4.4,12.8
				C77.6,246.8,82.7,253.5,81.9,256L81.9,256z"/>
			<path class="st30" d="M52.9,242c0,0,1.1,9.9,4.2,14.7c0,0-4-5-4.3-12.6L52.9,242L52.9,242z"/>
			<path class="st30" d="M47.7,247.7c0,0,1,8,6,12.5c0,0-4.4-2.2-6-9.7V247.7L47.7,247.7z"/>
			
				<linearGradient id="SVGID_00000098185541167714925010000012323924059670574515_" gradientUnits="userSpaceOnUse" x1="55.0566" y1="-353.4886" x2="72.8166" y2="-353.4886" gradientTransform="matrix(1 0 0 -1 0 -75.8886)">
				<stop  offset="2.000000e-02" style="stop-color:#D1A1D6"/>
				<stop  offset="0.99" style="stop-color:#BD89C4"/>
			</linearGradient>
			
				<path style="opacity:0.91;fill:url(#SVGID_00000098185541167714925010000012323924059670574515_);enable-background:new    ;" d="
				M72.8,268.8c0,0-10.8,10.5-17.8,9.4l0.5,8.2c0,0,11.4-1,15.1-13C70.6,273.4,72,270,72.8,268.8L72.8,268.8z"/>
		</g>
		<g>
			
				<linearGradient id="SVGID_00000092414291682766016330000014586833169864378511_" gradientUnits="userSpaceOnUse" x1="272.5222" y1="-396.6886" x2="272.5222" y2="-321.1535" gradientTransform="matrix(1 0 0 -1 0 -75.8886)">
				<stop  offset="2.000000e-02" style="stop-color:#FFC2A9"/>
				<stop  offset="1" style="stop-color:#FF9595"/>
			</linearGradient>
			<path style="fill:url(#SVGID_00000092414291682766016330000014586833169864378511_);" d="M301.9,283.1c0,0-10,18.2-21.6,23.8h-4
				l-9.2,13.9c0,0-5.9-3.7-6.4-16c0,0,2.1-2.2,2.6-4.6c0,0-3.3-2.6-4.2-4.5s-1.2-7.6-1.8-9.9s-6-7.2-7.2-7.8s-6.6-1-6.6-1
				s-0.8-2,0-2.9s9.2-4.2,13.8-1.1c0,0,0.3,2.4,0.8,3.7c0.5,1.3,4.5,5.7,5.2,5.7s3.4-2.3,4.5-4s7.3-14.9,8.7-19.3V259
				c0-0.1,0-0.1,0.1-0.2c0-0.1,0-0.1,0-0.1s0,0,0-0.1c1.1-3.9,7.8-11.2,11.3-13.3c0,0,1.5-0.4,2.3,1.5c0,0-2.8,8.1-5.8,12.9
				c-0.5,0.8-1,1.8-1.6,2.8l0,0c-2.5,4.6-5.4,10.7-5.8,11.6v0.1l1.6,0.8l4.3-4l4.4-4.1l10,10.6l-1,1.3l-3.1,4l1.6,0.3l3.7-4.1
				L301.9,283.1L301.9,283.1z"/>
			
				<linearGradient id="SVGID_00000019648206411916442390000015106288789640364169_" gradientUnits="userSpaceOnUse" x1="281.4" y1="-372.4886" x2="281.4" y2="-334.9786" gradientTransform="matrix(1 0 0 -1 0 -75.8886)">
				<stop  offset="0" style="stop-color:#FFEADB"/>
				<stop  offset="0.99" style="stop-color:#C27CB6"/>
			</linearGradient>
			<path style="opacity:0.6;fill:url(#SVGID_00000019648206411916442390000015106288789640364169_);enable-background:new    ;" d="
				M299.5,286.9l-3.2,4.7c0,0-17.5-13.5-21.2-14.6c-3.8-1.1-5.2-0.4-5.2-0.4l-3.9,5c0,0,7.2,6.4,7.8,15c0,0-2.4-10.9-10.5-14.1
				c0.6,0,3.4-2.3,4.5-4s7.3-14.9,8.7-19.3c-0.2,0.8-0.5,2.2,0.2,3.4c0.9,1.6,5.9,0.1,6.2,0l0,0l-5.8,11.6v0.1l1.6,0.8l4.3-4.1
				l-2.1,5l15.6,2.8l-3.1,4l1.6,0.3L299.5,286.9L299.5,286.9z"/>
			
				<linearGradient id="SVGID_00000167398491480124860930000010899834824940463246_" gradientUnits="userSpaceOnUse" x1="288.9" y1="-359.5154" x2="288.9" y2="-342.7105" gradientTransform="matrix(1 0 0 -1 0 -75.8886)">
				<stop  offset="0" style="stop-color:#FFB0B0"/>
				<stop  offset="0.98" style="stop-color:#FFC2A9"/>
			</linearGradient>
			<path style="fill:url(#SVGID_00000167398491480124860930000010899834824940463246_);" d="M287.4,266.8c0,0,3-0.4,5,3.5l-0.4,1.3
				c0,0,3,0.6,5.8,5.4c0,0-2.5,4.6-8.8,6.7c0,0-2.9-0.8-3.4-3.3l0.6-1.6l-2.3,1.7c0,0-2.7,0.8-3.9-3.2L287.4,266.8z"/>
			
				<linearGradient id="SVGID_00000106834824536103297400000002779274004505601464_" gradientUnits="userSpaceOnUse" x1="298.5734" y1="-362.1154" x2="298.5734" y2="-352.8954" gradientTransform="matrix(1 0 0 -1 0 -75.8886)">
				<stop  offset="0" style="stop-color:#FFB0B0"/>
				<stop  offset="0.98" style="stop-color:#FFC2A9"/>
			</linearGradient>
			<path style="fill:url(#SVGID_00000106834824536103297400000002779274004505601464_);" d="M302.8,281.8c0,0,0.6-2.9-2.5-4.8
				l-6,6.6c0,0,0.2,2.1,2.8,2.6C297.1,286.2,301.2,284.8,302.8,281.8z"/>
			
				<linearGradient id="SVGID_00000002353109792296658330000005372202664926737331_" gradientUnits="userSpaceOnUse" x1="259.1" y1="-380.4886" x2="276.25" y2="-380.4886" gradientTransform="matrix(1 0 0 -1 0 -75.8886)">
				<stop  offset="2.000000e-02" style="stop-color:#D1A1D6"/>
				<stop  offset="0.99" style="stop-color:#BD89C4"/>
			</linearGradient>
			
				<path style="opacity:0.91;fill:url(#SVGID_00000002353109792296658330000005372202664926737331_);enable-background:new    ;" d="
				M259.1,295.7c0,0,7,7.8,17.1,11.1l-4.4,6.7l-9.2-11.6l0.6-1.7C263.3,300.2,259.6,297.4,259.1,295.7L259.1,295.7z"/>
			<path class="st30" d="M291.9,271.6c0,0-2.9,4.8-5.8,7.2l-0.6,1.6c0,0,5.6-3.8,7.7-8.2C293.3,272.2,292.6,271.7,291.9,271.6
				L291.9,271.6z"/>
		</g>
		
			<linearGradient id="SVGID_00000008871530389727523220000014926724775376635793_" gradientUnits="userSpaceOnUse" x1="235.3539" y1="-439.7009" x2="235.3539" y2="-355.1886" gradientTransform="matrix(1 0 0 -1 0 -75.8886)">
			<stop  offset="0" style="stop-color:#CCCCFF"/>
			<stop  offset="1" style="stop-color:#755CBB"/>
		</linearGradient>
		<path style="opacity:0.5;fill:url(#SVGID_00000008871530389727523220000014926724775376635793_);enable-background:new    ;" d="
			M271,322.9c-0.9,1.4-5.3,4.3-6.4,5.4s0,4.9,0,4.9c-18.6,19.7-37.9,29.6-39.9,30.5c-0.1,0-0.2,0.1-0.2,0.1
			c-1.5,0.2-8.9-1.9-16.3-16.7c-6.7-13.4-8.6-22.3-8.9-23.9V323l1.6-2.2l2.4-27.3l1.7,5.5c6.4-7.8,12.5-19.7,12.5-19.7l0.3,0.9l0,0
			c1.1,4.3,3.3,20.3,5.4,26c1.3,3.6,3.4,5.5,4.9,6.6l0,0l0,0c-5.9,5.4-8.9,13.2-10.3,19.4c-1.3,5.7-1.4,10-1.4,10s1.6-7.7,6.8-17
			c1.9-3.4,4.6-6.4,7.3-8.9c2-1.9,4.1-3.4,5.7-4.6c1.4,0.9,2.6,2.3,3.8,1.7c-7.8,11.7-7.6,34.9-0.3,30.5s9-13.8,9-13.8
			c-1.7-11.4-1.2-24.3,0.2-26.8c1.7,0.1,6.5,3.4,6.8,3.4c-0.4,13.4,5.9,22.4,5.9,22.4l4.2-6.4c-6.1-10.2-5.6-20.2-5.6-20.2
			c0.2-0.1,1.7,1,1.7,1l-1,1.3c1.6,9.1,6.8,15.2,6.8,15.2l3.5-5.1C271,314.9,271.9,321.5,271,322.9L271,322.9z"/>
		
			<linearGradient id="SVGID_00000011717989944642209900000008103890281842696067_" gradientUnits="userSpaceOnUse" x1="49.3" y1="-422.6721" x2="190.6" y2="-422.6721" gradientTransform="matrix(1 0 0 -1 0 -75.8886)">
			<stop  offset="0" style="stop-color:#CCCCFF"/>
			<stop  offset="1" style="stop-color:#755CBB"/>
		</linearGradient>
		<path style="opacity:0.5;fill:url(#SVGID_00000011717989944642209900000008103890281842696067_);enable-background:new    ;" d="
			M190.6,407v4l-0.1,0.1l-0.2,0.2l-0.2,0.1c-1.8,1.4-9.4,6.1-33.3,7.4c-28.2,1.5-47.1-7.6-47.1-7.6l1.4-3.9c0,0-1.3-1.1-1.4-1.7
			s1-1.9,1-1.9s-2.8-1.5-2.8-3.4c0-1.7,4.6-6.7,5.4-11.3c0.1-0.5,0.1-1,0.1-1.5c-0.2-5-4.5-9.4-5.1-12.3l0,0
			c-0.6-2.8,7.4-9.9,7.4-9.9c-6.8-21.6-8.1-50.6-8.1-50.6l-1.3-1.5c0,0-8.1,18.6-15.5,27.7s-18.2,16.9-20.1,16.5
			c-4.4,0-9.2-7.6-13.6-16.9s-4.7-36.2-4.9-37.9c-0.2-1.7-2.7-5-2.9-6.4c4.7,8.1,12.3,5.8,12.3,5.8c-5.5,0.1-8.3-10.1-8.3-10.1v-0.1
			v-0.1l-2.7-7.1c0.3,0.3,6.6,7.3,12.6,3c6.2-4.4,9.4-13,9.4-13v11c0,0,0.4,1.7,0.9,1.7c-0.4,5.1-1.4,11.2-2.7,17.3
			c-2.8,13.1-6.7,25.8-6.7,25.8s10.4-5.7,14.1-20.1c1.8-6.9,2-12.9,1.9-17.2c-0.1-3.7-0.6-6.3-0.8-7.2c0-0.1,0-0.1-0.1-0.2v-0.1l0,0
			l1,2.1l1.9,4.8c2.2,18.5-2.4,46.3-2.4,46.3c6.7-8.3,8.1-26.8,7.8-31.3c-0.1-2.1-0.3-4.8-0.4-6.9c-0.1-2.4-0.2-4.1-0.2-4.1
			l13.7,8.2l-2.5-8l10,8c0,0,9,10.8,18.2,12.1c9.2,1.3,43.1,0.5,43.1,0.5s-29.4,1.9-38,4.4s-10.5,5.3-10.5,5.3
			c6.2,31.6,40.6,42.2,41.7,42.6c-31.2-4.7-45.7-31.2-45.7-31.2s-0.5,14.9,1.9,20.6s16.6,19.6,34.7,22.5c1.5,0.2,3,0.4,4.5,0.5
			c15.3,0.7,28-7.1,29.3-8c0.1,0,0.1-0.1,0.1-0.1l0,0c-0.5,0.8-6.8,9.6-32.2,10.6c-1.5,0.1-3,0-4.5,0l0,0
			c-23.5-1-35.5-16.7-35.5-16.7s-8.7,4.7-3.1,11.6c0.1,0.1,0.1,0.1,0.2,0.2c1.6,1.9,5.2,4.2,9.5,6.6c0.1,0.1,0.2,0.1,0.4,0.2
			c5.2,2.9,11.2,5.8,15.9,8.2c0,0,0,0,0.1,0c2.9,1.5,5.2,2.8,6.5,3.7l0,0c1.3,1,1.6,1.6,0.3,1.7c-6.6,0.8-31.4-4.7-32.5-3.2
			c-1,1.5,1.2,5.4,1.2,5.4c22.8,11.3,71.7,5.7,73.2,5.6c-40.9,10.5-74.4-2.8-74.4-2.8l1.1,3.9c0,0,18.2,6.3,39.7,6.8s34.9-5,34.9-5
			L190.6,407L190.6,407z"/>
		
			<linearGradient id="SVGID_00000109729701928502241920000011775916704110599842_" gradientUnits="userSpaceOnUse" x1="173.8" y1="-398.9391" x2="200.8" y2="-398.9391" gradientTransform="matrix(1 0 0 -1 0 -75.8886)">
			<stop  offset="0" style="stop-color:#CCEDFF"/>
			<stop  offset="1" style="stop-color:#755CBB"/>
		</linearGradient>
		<path style="opacity:0.5;fill:url(#SVGID_00000109729701928502241920000011775916704110599842_);enable-background:new    ;" d="
			M173.8,317c0,0,16.3,0.9,27,3.7l-5.5,8.4C195.3,329.2,187,321.8,173.8,317L173.8,317z"/>
		
			<linearGradient id="SVGID_00000091003898375292618840000000716588430789238170_" gradientUnits="userSpaceOnUse" x1="149.3" y1="-446.441" x2="189" y2="-446.441" gradientTransform="matrix(1 0 0 -1 0 -75.8886)">
			<stop  offset="0" style="stop-color:#CCEDFF"/>
			<stop  offset="1" style="stop-color:#755CBB"/>
		</linearGradient>
		<path style="opacity:0.5;fill:url(#SVGID_00000091003898375292618840000000716588430789238170_);enable-background:new    ;" d="
			M189,361.9c0,0-10.1,8.5-20.1,12.4s-19.6,4.3-19.6,4.3s5.7,1.7,19.9-0.6c14.1-2.3,19-9.9,19-9.9L189,361.9L189,361.9z"/>
		
			<linearGradient id="SVGID_00000016035068161670595610000014616074667662546832_" gradientUnits="userSpaceOnUse" x1="151.1988" y1="-464.3514" x2="193.6" y2="-464.3514" gradientTransform="matrix(1 0 0 -1 0 -75.8886)">
			<stop  offset="0" style="stop-color:#CCEDFF"/>
			<stop  offset="1" style="stop-color:#755CBB"/>
		</linearGradient>
		<path style="opacity:0.5;fill:url(#SVGID_00000016035068161670595610000014616074667662546832_);enable-background:new    ;" d="
			M193.6,394.5L193.6,394.5c-18.8,4.9-42.6-2.1-42.4-3s6.5,0.4,21.2-2.6c14.2-2.9,19.4-7.9,19.7-8.2c-0.1,0.9-2.1,2.8-2.6,4.8
			C189,386.9,191.7,391.3,193.6,394.5z"/>
		
			<linearGradient id="SVGID_00000132806833039617535350000008742172022501662893_" gradientUnits="userSpaceOnUse" x1="114.7" y1="-419.9254" x2="114.7" y2="-372.3154" gradientTransform="matrix(1 0 0 -1 0 -75.8886)">
			<stop  offset="0" style="stop-color:#CCEDFF"/>
			<stop  offset="1" style="stop-color:#755CBB"/>
		</linearGradient>
		<path style="opacity:0.5;fill:url(#SVGID_00000132806833039617535350000008742172022501662893_);enable-background:new    ;" d="
			M142.6,319.6c-16,1.6-20.4,6.1-20.4,6.1c-4.5,0.6-14.6-11-14.6-11l-1.3-1.5c0,0-8.1,18.6-15.5,27.7c-0.9,1.1-1.8,2.1-2.8,3.2
			l1.1-2.4c0,0,1.7-0.8,2.2-9.9c0.5-9-3.8-22.5-3.8-24.3s-0.7-11.1-0.7-11.1l13.7,8.2l-2.5-8l10,8c0,0,3.9,5.9,13.8,10.8
			C131,320,141.4,319.6,142.6,319.6z"/>
		
			<linearGradient id="SVGID_00000052095913644134517830000008322206026261063316_" gradientUnits="userSpaceOnUse" x1="118.45" y1="-423.9254" x2="118.45" y2="-387.8354" gradientTransform="matrix(1 0 0 -1 0 -75.8886)">
			<stop  offset="0" style="stop-color:#CCEDFF"/>
			<stop  offset="1" style="stop-color:#755CBB"/>
		</linearGradient>
		<path style="opacity:0.5;fill:url(#SVGID_00000052095913644134517830000008322206026261063316_);enable-background:new    ;" d="
			M106.2,313.2l9.6-1.2c0,0,3.8,2.5,11.5,5.6l-6.4,9.4c0,0,2.5,13.4,9.8,21c0,0-19.3-10.7-22-19.8L106.2,313.2L106.2,313.2z"/>
		
			<linearGradient id="SVGID_00000067914758752413234000000008432234456890477967_" gradientUnits="userSpaceOnUse" x1="61.45" y1="-377.7957" x2="61.45" y2="-350.5283" gradientTransform="matrix(1 0 0 -1 0 -75.8886)">
			<stop  offset="0" style="stop-color:#CCEDFF"/>
			<stop  offset="1" style="stop-color:#755CBB"/>
		</linearGradient>
		<path style="opacity:0.5;fill:url(#SVGID_00000067914758752413234000000008432234456890477967_);enable-background:new    ;" d="
			M50.5,284.6l2.7,7.2c0,0,2.8,9.7,8.3,10.1s10.9-16.3,10.9-16.3v-11c0,0-5.9,12.6-12.2,14C53.8,290.1,50.5,284.6,50.5,284.6z"/>
		
			<linearGradient id="SVGID_00000064341993195144623110000005372745875304379033_" gradientUnits="userSpaceOnUse" x1="83.468" y1="-353.7886" x2="94.468" y2="-353.7886" gradientTransform="matrix(1 0 0 -1 0 -75.8886)">
			<stop  offset="0" style="stop-color:#CCEDFF"/>
			<stop  offset="1" style="stop-color:#755CBB"/>
		</linearGradient>
		<path style="opacity:0.5;fill:url(#SVGID_00000064341993195144623110000005372745875304379033_);enable-background:new    ;" d="
			M83.5,278.9c0,0,4.9,9.9,11,12.9c0,0-7.2-17.5-5.7-27.8C88.8,264,86.2,265.6,83.5,278.9L83.5,278.9z"/>
		
			<linearGradient id="SVGID_00000086677062088286471060000009445280489276132003_" gradientUnits="userSpaceOnUse" x1="203" y1="-419.8886" x2="203" y2="-369.3886" gradientTransform="matrix(1 0 0 -1 0 -75.8886)">
			<stop  offset="0" style="stop-color:#CCCCFF"/>
			<stop  offset="1" style="stop-color:#755CBB"/>
		</linearGradient>
		<path style="opacity:0.76;fill:url(#SVGID_00000086677062088286471060000009445280489276132003_);enable-background:new    ;" d="
			M203.3,293.5l1.7,5.5l1.7,45c0,0-4.4-8.6-7.4-20.8l1.6-2.4C200.8,320.8,203.5,303.8,203.3,293.5L203.3,293.5z"/>
		
			<linearGradient id="SVGID_00000156577732673958971620000016636538658900766372_" gradientUnits="userSpaceOnUse" x1="259.7668" y1="-409.0554" x2="259.7668" y2="-382.6554" gradientTransform="matrix(1 0 0 -1 0 -75.8886)">
			<stop  offset="0" style="stop-color:#CCCCFF"/>
			<stop  offset="1" style="stop-color:#755CBB"/>
		</linearGradient>
		<path style="opacity:0.5;fill:url(#SVGID_00000156577732673958971620000016636538658900766372_);enable-background:new    ;" d="
			M255.6,306.8c0,0-1,22.1,8.4,24l0.5,2.4C264.5,333.2,252.3,332.7,255.6,306.8L255.6,306.8z"/>
		
			<linearGradient id="SVGID_00000142893202421786762000000010624710186878001046_" gradientUnits="userSpaceOnUse" x1="229.8" y1="-407.8886" x2="229.8" y2="-387.6886" gradientTransform="matrix(1 0 0 -1 0 -75.8886)">
			<stop  offset="0" style="stop-color:#CCCCFF"/>
			<stop  offset="1" style="stop-color:#755CBB"/>
		</linearGradient>
		<path style="opacity:0.3;fill:url(#SVGID_00000142893202421786762000000010624710186878001046_);enable-background:new    ;" d="
			M239.9,313.5c0,0-0.4,0.8-3.8-1.7c0,0-11.8,8.4-16.4,20.2c0,0,7.3-10.9,11.2-12c3.9-1.2,4.8,3.2,4.8,3.2S237.3,317,239.9,313.5
			L239.9,313.5z"/>
		
			<linearGradient id="SVGID_00000019670077883328503090000000985120127390479518_" gradientUnits="userSpaceOnUse" x1="55.7401" y1="-379.5331" x2="55.7401" y2="-372.0354" gradientTransform="matrix(1 0 0 -1 0 -75.8886)">
			<stop  offset="0" style="stop-color:#CCEDFF"/>
			<stop  offset="1" style="stop-color:#755CBB"/>
		</linearGradient>
		<path style="opacity:0.5;fill:url(#SVGID_00000019670077883328503090000000985120127390479518_);enable-background:new    ;" d="
			M49.2,296.1c0,0,4.6,8.4,13.1,5.8c0,0-5.1,3.4-10.2,0.6C52.1,302.5,48.9,297.1,49.2,296.1z"/>
		
			<linearGradient id="SVGID_00000142896528995529827090000005173133311308980887_" gradientUnits="userSpaceOnUse" x1="75.7304" y1="-402.3886" x2="75.7304" y2="-361.3886" gradientTransform="matrix(1 0 0 -1 0 -75.8886)">
			<stop  offset="0" style="stop-color:#CCCCFF"/>
			<stop  offset="1" style="stop-color:#755CBB"/>
		</linearGradient>
		<path style="opacity:0.5;fill:url(#SVGID_00000142896528995529827090000005173133311308980887_);enable-background:new    ;" d="
			M79,285.5c0,0,6.3,23.4-10.1,41c0,0,10.6-5.4,13-18C84.4,295.9,79,285.5,79,285.5L79,285.5z"/>
		
			<linearGradient id="SVGID_00000124121723472002818480000005997821627967054465_" gradientUnits="userSpaceOnUse" x1="181.1976" y1="-373.5454" x2="181.1976" y2="-342.7054" gradientTransform="matrix(1 0 0 -1 0 -75.8886)">
			<stop  offset="0" style="stop-color:#CCEDFF"/>
			<stop  offset="1" style="stop-color:#755CBB"/>
		</linearGradient>
		<path style="opacity:0.5;fill:url(#SVGID_00000124121723472002818480000005997821627967054465_);enable-background:new    ;" d="
			M191.2,266.8c0,0-0.7,10.6-5.8,18.1c-5.1,7.6-15.1,12.7-15.1,12.7s12.6-4.6,18.4-11.2C194.4,279.9,191.2,266.8,191.2,266.8
			L191.2,266.8z"/>
		
			<linearGradient id="SVGID_00000173147704958055543410000006985519679635163018_" gradientUnits="userSpaceOnUse" x1="140.7017" y1="-369.3854" x2="140.7017" y2="-326.8254" gradientTransform="matrix(1 0 0 -1 0 -75.8886)">
			<stop  offset="0" style="stop-color:#CCEDFF"/>
			<stop  offset="1" style="stop-color:#755CBB"/>
		</linearGradient>
		<path style="opacity:0.5;fill:url(#SVGID_00000173147704958055543410000006985519679635163018_);enable-background:new    ;" d="
			M126.7,250.9c0,0,0,8.8,2.8,17.8s27.5,24.7,27.5,24.7s-25.4-10.6-30.4-20.1C121.6,263.8,126.7,250.9,126.7,250.9z"/>
		
			<linearGradient id="SVGID_00000058585553069904230490000009248878103974014622_" gradientUnits="userSpaceOnUse" x1="126.4" y1="-377.1848" x2="197.5" y2="-377.1848" gradientTransform="matrix(1 0 0 -1 0 -75.8886)">
			<stop  offset="0" style="stop-color:#8642A0"/>
			<stop  offset="1" style="stop-color:#6456C0"/>
		</linearGradient>
		<path style="fill:url(#SVGID_00000058585553069904230490000009248878103974014622_);" d="M126.4,293v14.4c0,0,33.1-0.3,70.2,2.2
			l0.9-12.9C197.5,296.6,165.2,292.8,126.4,293L126.4,293z"/>
		
			<linearGradient id="SVGID_00000039836151298008362720000015487471430887155584_" gradientUnits="userSpaceOnUse" x1="132.5" y1="-336.0386" x2="178.8" y2="-336.0386" gradientTransform="matrix(1 0 0 -1 0 -75.8886)">
			<stop  offset="0" style="stop-color:#CCCCFF"/>
			<stop  offset="1" style="stop-color:#755CBB"/>
		</linearGradient>
		<path style="opacity:0.5;fill:url(#SVGID_00000039836151298008362720000015487471430887155584_);enable-background:new    ;" d="
			M178.8,252.8c-0.8,9.3-3.6,15.8-6.6,20.2c-4.2,6-8.7,8-8.7,8c-4.5-2-8.4-4.4-11.8-7.1c-14.3-11.4-18.9-27.2-19.2-28.5
			c6,14.5,14.9,23.4,21.6,28.3c5.4,4,9.4,5.5,9.4,5.5v-4.6c-1.1-0.4-2.1-0.9-3.1-1.4c-11.8-5.9-18-18.4-20.9-26.4c0,0,0,0,0-0.1
			c-1.6-4.3-2.2-7.4-2.2-7.4h2.1l-0.7,1.5v0.1c0.3,1.5,0.7,3,1.2,4.4v0.1c6.6,20.8,23.6,27.5,23.6,27.5
			c11.8-8.7,11.6-22.5,11.6-22.5v-1.9l2.2,0.7L178.8,252.8L178.8,252.8z"/>
		
			<linearGradient id="SVGID_00000060014129687485025660000012702499463951004320_" gradientUnits="userSpaceOnUse" x1="251.4083" y1="-406.0454" x2="251.4083" y2="-379.2754" gradientTransform="matrix(1 0 0 -1 0 -75.8886)">
			<stop  offset="0" style="stop-color:#CCCCFF"/>
			<stop  offset="1" style="stop-color:#755CBB"/>
		</linearGradient>
		<path style="opacity:0.3;fill:url(#SVGID_00000060014129687485025660000012702499463951004320_);enable-background:new    ;" d="
			M248.8,303.4c0,0-3.2,10.5-0.2,26.8c0,0,1.5-20.6,2.6-22.4s4.3-1,4.3-1S250.6,304,248.8,303.4L248.8,303.4z"/>
		
			<linearGradient id="SVGID_00000105405371726660625550000013695083028192058800_" gradientUnits="userSpaceOnUse" x1="213.7" y1="-436.2886" x2="213.7" y2="-355.2886" gradientTransform="matrix(1 0 0 -1 0 -75.8886)">
			<stop  offset="0" style="stop-color:#CCCCFF"/>
			<stop  offset="1" style="stop-color:#755CBB"/>
		</linearGradient>
		<path style="opacity:0.5;fill:url(#SVGID_00000105405371726660625550000013695083028192058800_);enable-background:new    ;" d="
			M217.7,360.4c-2.8-2.5-6.2-6.5-9.5-13.2c-6.7-13.4-8.6-22.3-8.9-23.9l1.6-2.4l2.1-20.6l2-1.2c0,0,7.1-7.9,12.5-19.7
			c0.1,0.2,0.2,0.5,0.3,0.9l0,0c1.1,4.3,3.3,20.3,5.4,26c1.3,3.6,3.4,5.5,4.9,6.6c0,0-12.3,18.3-12.9,31.3
			C214.6,355.9,217.2,359.8,217.7,360.4L217.7,360.4z"/>
		
			<linearGradient id="SVGID_00000016044178937722639110000004215585855594087850_" gradientUnits="userSpaceOnUse" x1="126.5" y1="-474.3254" x2="126.5" y2="-451.0854" gradientTransform="matrix(1 0 0 -1 0 -75.8886)">
			<stop  offset="0" style="stop-color:#CCCCFF"/>
			<stop  offset="1" style="stop-color:#755CBB"/>
		</linearGradient>
		<path style="opacity:0.5;fill:url(#SVGID_00000016044178937722639110000004215585855594087850_);enable-background:new    ;" d="
			M144.6,398.4c0,0-22.2-3.6-31.2-9.5l0,0c0.1-0.5,0.1-1,0.1-1.5c-0.2-5-4.5-9.4-5.1-12.3c0.1,0.3,0.8,1.8,3.9,4.5
			c2,1.7,5,3.9,9.5,6.6c0.1,0.1,0.2,0.1,0.4,0.2c6.4,3.8,11.9,6.3,15.9,8.2c0,0,0,0,0.1,0C141.6,396.4,144,397.5,144.6,398.4
			L144.6,398.4L144.6,398.4z"/>
		
			<linearGradient id="SVGID_00000038397262136021376600000014307092899485440947_" gradientUnits="userSpaceOnUse" x1="171.65" y1="-467.9415" x2="171.65" y2="-456.6518" gradientTransform="matrix(1 0 0 -1 0 -75.8886)">
			<stop  offset="0" style="stop-color:#CCCCFF"/>
			<stop  offset="1" style="stop-color:#755CBB"/>
		</linearGradient>
		<path style="opacity:0.5;fill:url(#SVGID_00000038397262136021376600000014307092899485440947_);enable-background:new    ;" d="
			M192.1,380.8c-0.1,0.9-2.1,2.8-2.6,4.8c0,0-8.1,8.6-38.3,6c0.2-0.9,6.5,0.4,21.2-2.6C186.6,386.1,191.8,381.1,192.1,380.8z"/>
		<path class="st59" d="M197.1,264.1l-19.3,6.2l-5.6,2.6l0,0h-3.7h-5l-3.1,0.3l-1.6,0.1l-4.7,0.4l-2.4,0.2l-23.1-8.4l-4.1-1.5
			l-19-6.9c0.6-0.2,1.1-0.4,1.7-0.7c12.8-5.1,25.3-11.2,25.3-11.2l4.8-5.9h2.1c1.9-4.2,3.2-8.1,4-11.2l1.3-5.7
			c0.1-0.6,0.1-0.9,0.1-0.9l6.8,3.6l22.9,18.3c0,1.2,0,2.4,0.1,3.3l0.3,2.3c0.1-0.4,0.1-0.7,0.1-0.7l2.2,0.7l1.5,3.6
			c0,0,2.6,4,12.7,8.4C193.3,262.1,195.1,263,197.1,264.1L197.1,264.1z"/>
		<g>
			
				<linearGradient id="SVGID_00000145054282972775109480000012074283741202595992_" gradientUnits="userSpaceOnUse" x1="171.0508" y1="-322.9018" x2="171.0508" y2="-245.6947" gradientTransform="matrix(1 0 0 -1 0 -75.8886)">
				<stop  offset="2.000000e-02" style="stop-color:#FFC2A9"/>
				<stop  offset="1" style="stop-color:#FF9595"/>
			</linearGradient>
			<path style="fill:url(#SVGID_00000145054282972775109480000012074283741202595992_);" d="M182.4,246.6c0,0-9,2-18.9-2.8
				s-18.2-18.9-18.8-22.5c-0.5-3.5,3.8-12.8,3.8-20s-3.5-19.6,2.4-26.3s33.2-7.7,42.1,0.9c0,0,2.7,6.9,2.7,10.8
				c0,0.9-0.2,2.3-0.4,3.9c-0.1,0.6-0.2,1.2-0.3,1.9c-0.8,4.7-1.9,10.5-1.4,13c0.2,0.9,0.5,1.7,0.8,2.5l0,0c1.1,2.5,2.7,4.5,3,6.7
				C197.9,217.5,194,237.7,182.4,246.6L182.4,246.6z"/>
			
				<linearGradient id="SVGID_00000175301182238713684110000009258363757830759069_" gradientUnits="userSpaceOnUse" x1="142.3399" y1="-291.729" x2="142.3399" y2="-268.9654" gradientTransform="matrix(1 0 0 -1 0 -75.8886)">
				<stop  offset="2.000000e-02" style="stop-color:#FFC2A9"/>
				<stop  offset="1" style="stop-color:#FF9595"/>
			</linearGradient>
			<path style="fill:url(#SVGID_00000175301182238713684110000009258363757830759069_);" d="M148.5,199.3c0,0-2.5-6.1-8.6-6.2
				c0,0-3.6,1.4-4.2,4.2c0,0,1.3,9.9,2.8,14.6c1.5,4.6,7.1,4,7.1,4S150.5,208.4,148.5,199.3L148.5,199.3z"/>
			
				<linearGradient id="SVGID_00000001646043554676099820000008558528442583526029_" gradientUnits="userSpaceOnUse" x1="181.7996" y1="-300.3297" x2="182.7496" y2="-295.3595" gradientTransform="matrix(1 0 0 -1 0 -75.8886)">
				<stop  offset="0" style="stop-color:#E1616A"/>
				<stop  offset="1" style="stop-color:#FF8883"/>
			</linearGradient>
			<path style="fill:url(#SVGID_00000001646043554676099820000008558528442583526029_);" d="M172.1,219.6c0,0,2-0.2,2.9,0.5
				s4.1,3.8,8.2,4.6c4.1,0.9,6.8-2.6,7.7-2.8s1.8,1.1,1.8,1.1s-0.4-1.4-2.5-2.1c0,0-0.9,3.3-6.8,2.1c-5.9-1.1-8.4-3.7-8.4-3.7
				l-0.3-0.5C174.8,218.8,173.1,219.1,172.1,219.6L172.1,219.6z"/>
			
				<linearGradient id="SVGID_00000090282803054145996630000015410808666022374313_" gradientUnits="userSpaceOnUse" x1="173.3" y1="-296.5454" x2="173.3" y2="-246.7954" gradientTransform="matrix(1 0 0 -1 0 -75.8886)">
				<stop  offset="0" style="stop-color:#FFEADB"/>
				<stop  offset="0.99" style="stop-color:#C27CB6"/>
			</linearGradient>
			<path style="opacity:0.6;fill:url(#SVGID_00000090282803054145996630000015410808666022374313_);enable-background:new    ;" d="
				M163.4,189l0.1-0.6c0,0,5.9-10.3,17.5-10.6s14.3,7,14.3,7l2.2-3.3l-4.9-10l-34.2-0.6l-8.3,6.7l-1,16.5l3.7,21.7l9,4.8l2.5-2.3
				c-0.9-7.3-6.4-13.9-6.4-13.9l4-2.7c0,0,10.1,4.9,16,3.4c0,0,4.4-12.9,4.1-22.4C182,182.8,166.9,185,163.4,189L163.4,189z"/>
			<path class="st64" d="M162.9,189.7c0,0,0.6-3.7,6.9-5.2c7-1.7,12.7-3.1,12.7-3.1s-1.2,4.1-3.6,5.6c0,0-7.4-0.3-11.1,0.6
				C164,188.5,162.9,189.7,162.9,189.7L162.9,189.7z"/>
			<path class="st64" d="M195.3,184.7c0,0-3.5,2.7-6,9.3c0,0,2.3-3,4.5-3c1.5,0,1.2,1.5,1.2,1.5S196.5,188.6,195.3,184.7
				L195.3,184.7z"/>
			
				<linearGradient id="SVGID_00000141432125000107850450000014811952880667542179_" gradientUnits="userSpaceOnUse" x1="170.8" y1="-276.1554" x2="170.8" y2="-266.3054" gradientTransform="matrix(1 0 0 -1 0 -75.8886)">
				<stop  offset="0" style="stop-color:#CF6074"/>
				<stop  offset="1" style="stop-color:#F37270"/>
			</linearGradient>
			<path style="fill:url(#SVGID_00000141432125000107850450000014811952880667542179_);" d="M165.3,200.3c0,0,0.4-7.9,8-9.8
				c0,0,2.8,3.6,3,7.6C176.3,198,172.3,197.2,165.3,200.3z"/>
			
				<linearGradient id="SVGID_00000018217557832952790310000008292910093242120320_" gradientUnits="userSpaceOnUse" x1="190.4125" y1="-279.2886" x2="190.4125" y2="-270.7187" gradientTransform="matrix(1 0 0 -1 0 -75.8886)">
				<stop  offset="0" style="stop-color:#CF6074"/>
				<stop  offset="1" style="stop-color:#FF817F"/>
			</linearGradient>
			<path style="fill:url(#SVGID_00000018217557832952790310000008292910093242120320_);" d="M187.2,203.4c0,0,0.6-6.3,4.2-8.6
				c0,0,2.5,1.8,2.2,7.1C193.7,201.9,191.5,201.1,187.2,203.4L187.2,203.4z"/>
			<path class="st67" d="M165.3,200.3c0,0,2.5,3.1,9.5,3.7c0,0,1.3-2,1.2-6C175.9,197.9,169.5,197.3,165.3,200.3L165.3,200.3z"/>
			<path class="st67" d="M187.2,203.4v0.9c0,0,1.1,2.2,4.9,2.6c0,0,1.2-1.9,1.4-5.1C193.5,201.9,191.1,201.3,187.2,203.4
				L187.2,203.4z"/>
			<path class="st68" d="M172.7,197.8c0,0-1.8,2.2-1.6,5.6c0,0,2.3,0.6,3.6,0.6c0,0,1.5-2.1,1.2-6
				C175.9,197.9,173.9,197.5,172.7,197.8L172.7,197.8z"/>
			<path class="st68" d="M190.9,202c0,0-1,1.1-1.2,4.4c0,0,1.4,0.6,2.5,0.6c0,0,1.4-2,1.4-5.1C193.5,201.9,192.5,201.5,190.9,202z"
				/>
			<path class="st64" d="M172.1,203.6c0,0-0.6-4.2,1.8-5.9l2,0.2c0,0,0.7,3.4-1.2,6C174.7,203.9,172.8,203.7,172.1,203.6
				L172.1,203.6z"/>
			<path class="st64" d="M191.8,201.8c0,0-0.9,1.9-1.3,4.8c0,0,0.7,0.3,1.7,0.3c0,0,1.4-1.7,1.4-5.1
				C193.5,201.9,192.5,201.6,191.8,201.8z"/>
			<path class="st69" d="M165.3,200.3c0,0,4.6-2.7,12.5-1.2l-1.5-1.1C176.3,198,170.7,196.2,165.3,200.3z"/>
			<path class="st69" d="M187.2,203.4c0,0,3.7-2,8.1-0.9l-1.8-1.3C193.5,201.1,190.6,200.7,187.2,203.4z"/>
			<path class="st1" d="M170.3,200.3c0,0,1.3-0.3,2.4,0.9C172.7,201.1,171.1,201.6,170.3,200.3z"/>
			<path class="st1" d="M188.9,203.9c0,0,2-0.4,2.7,0.5C191.6,204.5,190.5,205.2,188.9,203.9z"/>
			<path class="st70" d="M165.7,200.7c0,0,3.6,3.6,9.4,4.4l0.1-2.1l-0.5,0.9C174.7,203.9,169.2,203.6,165.7,200.7L165.7,200.7z"/>
			<path class="st70" d="M187.2,204.3c0,0,0.6,2.3,5.3,3.4l-0.1-1.1l-0.3,0.4C192.2,206.9,188.8,206.5,187.2,204.3z"/>
			<path class="st71" d="M177.8,213.5c0,0,1.8-0.4,5,0s6.8,1.3,8.8,0c0,0-2.6,2.6-4.9,3c-2.3,0.4-5.8-1.6-5.8-1.6h-1.5
				C179.4,215,178.3,214.4,177.8,213.5L177.8,213.5z"/>
			<path class="st72" d="M179.7,215c0,0,0.8-0.5,1.5-0.4s1.3,1.1,1.3,1.1S181.1,215,179.7,215z"/>
			<path class="st73" d="M191.6,213.5c0.8-0.8-3.5-8.6-5.6-8.9c-2.1-0.3-4,8.7-4,8.7s2.9,0.4,5.7,0.8
				C190.5,214.5,191.6,213.5,191.6,213.5L191.6,213.5z"/>
			
				<linearGradient id="SVGID_00000044168287027733305250000015690954548035062933_" gradientUnits="userSpaceOnUse" x1="191.2681" y1="-284.2754" x2="191.2681" y2="-264.9821" gradientTransform="matrix(1 0 0 -1 0 -75.8886)">
				<stop  offset="0" style="stop-color:#FFEADB"/>
				<stop  offset="0.99" style="stop-color:#C27CB6"/>
			</linearGradient>
			<path style="opacity:0.6;fill:url(#SVGID_00000044168287027733305250000015690954548035062933_);enable-background:new    ;" d="
				M194.7,189.1c-1.2-0.1-5.4,4.9-5.4,4.9s-2.6,8.2-2.1,10.6c0.5,2.4,7,3.7,7,3.7l0.3-0.4l0,0c-0.3-0.8-0.6-1.6-0.8-2.5
				c-0.5-2.5,0.6-8.3,1.4-13c0,0,0.3-1,0.3-1.9C195.4,189.9,195.3,189.2,194.7,189.1L194.7,189.1z"/>
			
				<linearGradient id="SVGID_00000008870206478140975060000001725884316321212343_" gradientUnits="userSpaceOnUse" x1="172.0518" y1="-323.8483" x2="172.0518" y2="-230.2154" gradientTransform="matrix(1 0 0 -1 0 -75.8886)">
				<stop  offset="0" style="stop-color:#2E33A0"/>
				<stop  offset="1" style="stop-color:#0665A5"/>
			</linearGradient>
			<path style="fill:url(#SVGID_00000008870206478140975060000001725884316321212343_);" d="M194.5,222.4c-1.3-2.8-0.5-4.2-12.1-5.7
				c-16.4-2.1-17.8,2.8-20.5,2.1c-0.1,0-0.2-0.1-0.3-0.1c-3-1.2-10.1-8.1-10.3-17.5c-0.2-9.8,6.4-16.7,6.4-16.7
				c-2.4-2-3.3-7.8-0.8-10.2c2.6-2.5,6.9-1.9,17.6-0.8c10.7,1.1,10.7,0.5,10.7,0.5c3.4,0.9,5.4,4.1,5.9,5.1c0.1,0.2,0.2,0.3,0.2,0.3
				l1.3-1.2c3.6,5.2,2.9,10.9,2.9,10.9s5.9-11.9,5.2-13.6c-1.2-3.1-4.6-7.7-4.8-8l0,0c0,0-1-9.1-3.8-9.1s-15,2.7-15,2.7
				c1.3-3.1,1.1-6.7,1.1-6.7v0.1c-4,3.6-7.8,3.9-13.3,6.5c-2.8,1.3-4.1,2.5-5.1,3.7l-0.4,0.4l-0.4,0.5c-0.4,0.5-0.8,1-1.2,1.5
				c0,0,0,0.1-0.1,0.1l0,0c-0.4,0.5-1,1-1.6,1.5c-3.6,2.9-11.5,4.9-12.5,8s1.2,7.3,2.3,11.7s0.6,8.2,0.6,8.2s3.8,4.9,2.5,12
				c-1.1,6.4-3.5,7.4-3.5,7.4c-1.7,3.5-0.9,6.8-0.9,6.8c3.5,13.9,18,22.2,18,22.2c12.9,4.8,21.4,2.7,21.4,2.7l0,0
				c9.4-6.1,12.6-26.3,12.7-27.3C196.6,220.5,194.9,223.2,194.5,222.4L194.5,222.4z M188.8,235.3c-2.3-0.4-2.8-6.1-3.5-6.9
				c-0.8-0.8-4.9-0.4-4.9-0.4s-3.8,4.3-5.3,4.4c-1.5,0.1-9.6-3.2-7.9-8.1c1.7-4.9,7.9-5.6,7.9-5.6s3.2,2.7,7.9,3s6.5-0.6,7-0.8
				c0.6-0.3,3.6,1.1,3.5,5.4C193.5,229.3,191,235.7,188.8,235.3L188.8,235.3z"/>
			<path class="st76" d="M188.2,206.4c0,0,4.1,5.1,3.7,7c-0.4,2.1-5.2,3.2-5.2,3.2s3.8-1.3,4.6-3.2
				C191.3,213.4,190.3,209.5,188.2,206.4L188.2,206.4z"/>
			
				<linearGradient id="SVGID_00000058573631456195058350000008072998455161190291_" gradientUnits="userSpaceOnUse" x1="196.7789" y1="-264.8886" x2="196.7789" y2="-243.2886" gradientTransform="matrix(1 0 0 -1 0 -75.8886)">
				<stop  offset="0" style="stop-color:#FFEADB"/>
				<stop  offset="0.99" style="stop-color:#8860C7"/>
			</linearGradient>
			<path style="opacity:0.6;fill:url(#SVGID_00000058573631456195058350000008072998455161190291_);enable-background:new    ;" d="
				M195.6,189c0,0,0.7-5.7-2.9-10.9c2.9-5.2,3.3-10.7,3.3-10.7l0,0c1,2.4,1.5,7.1,1.5,7.1l3.3,0.9C201.5,177.1,195.6,189,195.6,189z
				"/>
			
				<linearGradient id="SVGID_00000142866845026324676400000003134277937249713299_" gradientUnits="userSpaceOnUse" x1="167.423" y1="-323.8427" x2="167.423" y2="-230.2154" gradientTransform="matrix(1 0 0 -1 0 -75.8886)">
				<stop  offset="0" style="stop-color:#CCC2DB"/>
				<stop  offset="0.99" style="stop-color:#8860C7"/>
			</linearGradient>
			<path style="opacity:0.6;fill:url(#SVGID_00000142866845026324676400000003134277937249713299_);enable-background:new    ;" d="
				M191.2,179c-0.5-1-2.5-4.2-5.9-5.1c0,0,0,0.7-10.7-0.5c-10.7-1.1-15.1-1.7-17.6,0.8c-2.6,2.5-1.6,8.2,0.8,10.2
				c0,0-6.5,6.9-6.4,16.7c0.2,9.4,7.3,16.4,10.3,17.5l-0.1,1c0,0,0.5,21.5,5.8,23.2c5.2,1.7,16.1,0.8,17.1,1.8s-0.1,2.6-0.2,2.8l0,0
				c0,0-8.5,2.1-21.4-2.7c0,0-14.5-8.3-18-22.2c0,0-0.8-3.3,0.9-6.8c0,0,2.4-1,3.5-7.4c1.2-7.1-2.5-12-2.5-12s0.5-3.8-0.6-8.2
				s-3.3-8.6-2.3-11.7c6.1,0.9,10-2.2,10-2.2s1.1-1.5,5.8-2.2c4.7-0.8,23.5,1.1,23.5,1.1s-1.9-1.6-5.9-2.6c-3.8-1-16.6,0.2-18,0.3
				c1.5-0.3,16-2.8,17.7-2.3c1.8,0.5,8.1,3.4,8.1,3.4c-0.6-2.9-6.2-9.8-6.2-9.8s-8,0.1-13.2,1.2c-4.6,1-7.2,3.1-7.7,3.5l1.2-1.5
				l0.4-0.5l0.4-0.4l1.8-0.3l9.1-3.7c3.1-1.6,7-5.7,7.5-6.2v-0.1c0,0,0.2,3.6-1.1,6.7c7.7-0.9,10.3-0.5,10.3-0.5
				C191,165.5,191.2,179,191.2,179L191.2,179z"/>
			
				<linearGradient id="SVGID_00000003072193218594186600000002148005011233109687_" gradientUnits="userSpaceOnUse" x1="173.5915" y1="-323.8275" x2="173.5915" y2="-319.8075" gradientTransform="matrix(1 0 0 -1 0 -75.8886)">
				<stop  offset="0" style="stop-color:#776D7E"/>
				<stop  offset="1" style="stop-color:#9D68C2"/>
			</linearGradient>
			<path style="opacity:0.5;fill:url(#SVGID_00000003072193218594186600000002148005011233109687_);enable-background:new    ;" d="
				M162.7,244.8c0,0,4.7-1.1,11.9-0.8c7.1,0.3,11.2,0.3,9.5,3.6C184.1,247.5,175.1,249.5,162.7,244.8z"/>
			
				<linearGradient id="SVGID_00000061457782002553941110000010985785113057492671_" gradientUnits="userSpaceOnUse" x1="185.4" y1="-236.9354" x2="185.4" y2="-233.9472" gradientTransform="matrix(1 0 0 -1 0 -75.8886)">
				<stop  offset="0" style="stop-color:#1F77D1"/>
				<stop  offset="1" style="stop-color:#0686C9"/>
			</linearGradient>
			<path style="fill:url(#SVGID_00000061457782002553941110000010985785113057492671_);" d="M187.5,160.6c0,0,4.3-1.7,6.1-1.4
				c0,0-0.7-0.9-1.4-1.1c-0.7-0.2-15,3-15,3S186.1,160,187.5,160.6L187.5,160.6z"/>
			
				<linearGradient id="SVGID_00000148621600469438696370000004842690714154815131_" gradientUnits="userSpaceOnUse" x1="166.3" y1="-246.7754" x2="166.3" y2="-237.9382" gradientTransform="matrix(1 0 0 -1 0 -75.8886)">
				<stop  offset="0" style="stop-color:#1F77D1"/>
				<stop  offset="1" style="stop-color:#0686C9"/>
			</linearGradient>
			<path style="fill:url(#SVGID_00000148621600469438696370000004842690714154815131_);" d="M178.7,162.2c0,0-0.3,4.7-1.9,6.4
				l-17.7,2.3l-5.2-0.9c0,0,2-0.9,4.2-3.4C160.4,164,171.9,161.4,178.7,162.2L178.7,162.2z"/>
			
				<linearGradient id="SVGID_00000023968826814238530780000005320995988291051698_" gradientUnits="userSpaceOnUse" x1="198.4" y1="-251.2554" x2="198.4" y2="-243.2854" gradientTransform="matrix(1 0 0 -1 0 -75.8886)">
				<stop  offset="0" style="stop-color:#1F77D1"/>
				<stop  offset="1" style="stop-color:#0686C9"/>
			</linearGradient>
			<path style="fill:url(#SVGID_00000023968826814238530780000005320995988291051698_);" d="M196,167.4c0,0,1.4,4.7,1.5,7.1l3.3,0.9
				C200.8,175.4,199.8,171.8,196,167.4z"/>
			
				<linearGradient id="SVGID_00000039101945647948137640000007949665826023600297_" gradientUnits="userSpaceOnUse" x1="145.6075" y1="-286.3321" x2="135.4103" y2="-273.8454" gradientTransform="matrix(1 0 0 -1 0 -75.8886)">
				<stop  offset="0" style="stop-color:#FFEADB"/>
				<stop  offset="0.99" style="stop-color:#B060F4"/>
			</linearGradient>
			<path style="opacity:0.8;fill:url(#SVGID_00000039101945647948137640000007949665826023600297_);enable-background:new    ;" d="
				M147.8,207.7c0,0-1.2-6-4.3-8.9c-3-2.9-6.5-2-6.5-2s1,11.1,1.9,13.8s2.5,3.4,2.5,3.4s-2.1-1.9-2.4-5.5c-0.3-3.7-0.4-8.8,0.4-9.4
				c0.8-0.6,4.1,1.8,4.1,1.8s-1,1.3-1.6,4.5c-0.6,3.3,1.7,5.6,2.5,5.6s0-3.8,0.1-4.8C144.6,205.2,146.5,205.1,147.8,207.7
				L147.8,207.7z"/>
			
				<linearGradient id="SVGID_00000163040171553143302150000014010218569510677690_" gradientUnits="userSpaceOnUse" x1="146.7019" y1="-284.697" x2="141.6864" y2="-278.5624" gradientTransform="matrix(1 0 0 -1 0 -75.8886)">
				<stop  offset="0" style="stop-color:#FFEADB"/>
				<stop  offset="0.99" style="stop-color:#B060F4"/>
			</linearGradient>
			<path style="opacity:0.8;fill:url(#SVGID_00000163040171553143302150000014010218569510677690_);enable-background:new    ;" d="
				M144.7,200.2c0,0-3.3,2.2-3,6.7c0.4,4.5,2.9,4.3,2.9,3.3c0-0.9-0.5-3.4-0.2-4.7c0.3-1.4,2.5-0.8,2.5-0.8S145.4,201.2,144.7,200.2
				L144.7,200.2z"/>
			<path class="st85" d="M196.8,220.2c0,0-4.1,18.9-12.7,27.3C184.1,247.5,193.9,243.7,196.8,220.2z"/>
			<path class="st85" d="M192.2,158.1c0,0,2.2,1.7,2.6,7.6c0.4,5.9-2.1,12.4-2.1,12.4s3.3-4.9,3.6-10.3
				C196.6,162.5,193.9,158.7,192.2,158.1L192.2,158.1z"/>
		</g>
		
			<linearGradient id="SVGID_00000042696435454758468240000003429684450211823528_" gradientUnits="userSpaceOnUse" x1="165.7266" y1="-247.5553" x2="182.9966" y2="-247.5553" gradientTransform="matrix(1 0 0 -1 0 -75.8886)">
			<stop  offset="0" style="stop-color:#1F77D1"/>
			<stop  offset="1" style="stop-color:#0686C9"/>
		</linearGradient>
		<path style="fill:url(#SVGID_00000042696435454758468240000003429684450211823528_);" d="M165.8,170.4c0,0,5,1.7,10.6,2.2
			c5.5,0.5,6.7,0.6,6.7,0.6s-2.2-2.2-7-2.8C171.3,169.8,165.8,170.4,165.8,170.4z"/>
		
			<linearGradient id="SVGID_00000122710120290688404870000000066980511400167346_" gradientUnits="userSpaceOnUse" x1="190.0866" y1="-299.1213" x2="195.3166" y2="-299.1213" gradientTransform="matrix(1 0 0 -1 0 -75.8886)">
			<stop  offset="0" style="stop-color:#1F77D1"/>
			<stop  offset="1" style="stop-color:#0686C9"/>
		</linearGradient>
		<path style="fill:url(#SVGID_00000122710120290688404870000000066980511400167346_);" d="M190.2,220.6c0,0,2.4,0,3.4,3
			c0.8,2.4,1,4.5,1,4.5l0.9-3.3c0,0-1.1-4.2-2.3-5.2c-0.8-0.7-2.3-1.4-3-1.2L190.2,220.6L190.2,220.6z"/>
		
			<linearGradient id="SVGID_00000014617955183971697980000012461196639295992495_" gradientUnits="userSpaceOnUse" x1="183.6166" y1="-295.2962" x2="189.2666" y2="-295.2962" gradientTransform="matrix(1 0 0 -1 0 -75.8886)">
			<stop  offset="0" style="stop-color:#1F77D1"/>
			<stop  offset="1" style="stop-color:#0686C9"/>
		</linearGradient>
		<path style="fill:url(#SVGID_00000014617955183971697980000012461196639295992495_);" d="M183.6,217.6l0.4,3.6
			c0,0,2.9,0.2,4.9-0.6l0.4-2.2C189.3,218.5,185.5,217.5,183.6,217.6L183.6,217.6z"/>
		<path class="st85" d="M197.1,264.1c0,0,17.2,12.6,19.5,16.9c2.2,4.3,3.1,17.9,6.2,23.8c0,0-2.1-9.6-3.5-17.1
			c-1.5-7.5-1.1-7.6-1.9-9.5S203.6,267.4,197.1,264.1L197.1,264.1z"/>
		<path class="st85" d="M194,334.2c0,0-8.3,35.5-7.9,37.9c0.4,2.4,5.8,7.3,6,8.6c0,0-4.1,5.5-3.9,6.7s7.2,8.9,7,11.3
			c0,0.7-4.6,8.2-4.6,8.2s5.1-7.4,5.4-8.5s-6.3-11-6.5-12c-0.5-2.6,3.3-4.5,3.4-6.2c0.1-1.7-5.1-5.9-5.1-8.6
			C187.7,368.8,194,334.2,194,334.2L194,334.2z"/>
		<path class="st85" d="M195.7,418.9c0,0,18,40.6,24.1,81.3C219.7,500.2,218.7,460.5,195.7,418.9z"/>
		<path class="st73" d="M81.9,256c0,0-4.6-1-6.6-5c-1.9-4.1-0.7-9.9-0.7-9.9s3.6,7,5.4,9.4S82.4,255.5,81.9,256L81.9,256z"/>
	</g>
</g>
<g>
	<g>
		<path class="st85" d="M130.3,304.6c0.6,0.3,1.5,0.6,2.4,0.6c1.4,0,2.2-0.8,2.1-1.8c0-1-0.6-1.5-2-2c-1.7-0.6-2.8-1.4-2.9-2.8
			c0-1.6,1.3-2.9,3.3-2.9c1.1,0,1.9,0.2,2.4,0.5c-0.1,0.4-0.2,0.7-0.4,1.1c-0.3-0.2-1.1-0.5-2-0.4c-1.4,0-2,0.9-1.9,1.6
			c0,1,0.7,1.4,2.1,1.9c1.8,0.6,2.7,1.5,2.7,3c0,1.6-1.1,3-3.6,3.1c-1,0-2.1-0.2-2.7-0.6C130.1,305.3,130.1,305,130.3,304.6z"/>
		<path class="st85" d="M137.9,295.8c0.7-0.1,1.5-0.2,2.6-0.2c1.4,0,2.3,0.3,3,0.8c0.6,0.5,0.9,1.2,0.9,2.2c0,0.9-0.3,1.7-0.8,2.2
			c-0.7,0.7-1.9,1.1-3.2,1.2c-0.4,0-0.8,0-1.1-0.1c0,1.7,0,2.5,0.1,4.1c-0.5,0-0.8,0-1.3,0C138,301.9,138,299.9,137.9,295.8z
			 M139.4,300.8c0.3,0.1,0.7,0.1,1.1,0.1c1.6,0,2.6-0.8,2.6-2.2c0-1.4-1-2-2.5-2c-0.6,0-1,0.1-1.3,0.1
			C139.3,298.4,139.4,299.2,139.4,300.8z"/>
		<path class="st85" d="M151.7,301.1c-1.6,0-2.4,0-4.1,0c0,1.5,0,2.2,0,3.7c1.8,0,2.7,0,4.5,0c0,0.4,0,0.7,0,1.1c-2.3,0-3.5,0-5.8,0
			c0-4.1,0-6.2,0-10.3c2.3,0,3.4,0,5.7,0c0,0.4,0,0.7,0,1.1c-1.7,0-2.6,0-4.3,0c0,1.3,0,2,0,3.3c1.6,0,2.4,0,4.1,0
			C151.7,300.5,151.7,300.7,151.7,301.1z"/>
		<path class="st85" d="M159.4,301.3c-1.6,0-2.4-0.1-4.1-0.1c0,1.5,0,2.2-0.1,3.7c1.8,0,2.7,0,4.5,0.1c0,0.4,0,0.7,0,1.1
			c-2.3-0.1-3.5-0.1-5.8-0.1c0.1-4.1,0.1-6.2,0.2-10.3c2.3,0,3.4,0.1,5.7,0.1c0,0.4,0,0.7,0,1.1c-1.7,0-2.6-0.1-4.3-0.1
			c0,1.3,0,2-0.1,3.3c1.6,0,2.4,0,4.1,0.1C159.4,300.6,159.4,300.8,159.4,301.3z"/>
		<path class="st85" d="M161.8,296c0.8-0.1,1.8-0.2,2.9-0.1c2,0.1,3.3,0.6,4.2,1.5s1.4,2.1,1.3,3.8c-0.1,1.7-0.7,3-1.7,4
			c-1,0.9-2.6,1.4-4.6,1.3c-1,0-1.8-0.1-2.4-0.2C161.6,302.1,161.6,300,161.8,296z M162.8,305.1c0.3,0.1,0.8,0.1,1.4,0.1
			c2.9,0.1,4.5-1.4,4.6-4.2c0.1-2.4-1.2-4.1-4.1-4.2c-0.7,0-1.2,0-1.6,0.1C163,300.2,162.9,301.9,162.8,305.1z"/>
		<path class="st85" d="M171.6,304.9c0.6,0.4,1.4,0.7,2.4,0.8c1.4,0.1,2.2-0.6,2.3-1.6s-0.5-1.6-1.9-2.2c-1.6-0.7-2.7-1.6-2.6-3.1
			c0.1-1.6,1.5-2.7,3.6-2.6c1.1,0.1,1.8,0.3,2.3,0.6c-0.2,0.4-0.3,0.6-0.4,1.1c-0.3-0.2-1-0.6-2-0.6c-1.4-0.1-2,0.7-2.1,1.4
			c0,1,0.6,1.5,2,2.1c1.7,0.8,2.6,1.7,2.5,3.2c-0.1,1.6-1.4,2.9-3.8,2.8c-1-0.1-2.1-0.4-2.6-0.8
			C171.4,305.6,171.4,305.4,171.6,304.9z"/>
		<path class="st85" d="M181.3,296.7c-0.2,2.4-0.2,3.7-0.4,6.1c-0.2,2.3,0.8,3.4,2.2,3.5c1.5,0.1,2.6-0.8,2.8-3.1
			c0.2-2.4,0.3-3.7,0.5-6.1c0.6,0,0.8,0.1,1.4,0.1c-0.2,2.4-0.3,3.6-0.5,6c-0.2,3.2-2,4.3-4.3,4.2c-2.1-0.1-3.6-1.5-3.4-4.7
			c0.2-2.4,0.2-3.6,0.4-6.1C180.5,296.7,180.7,296.7,181.3,296.7z"/>
		<path class="st85" d="M190.1,297.4c0.5,0,0.8,0.1,1.4,0.1c-0.3,3.7-0.5,5.5-0.8,9.2c1.8,0.2,2.7,0.2,4.4,0.4
			c0,0.4-0.1,0.7-0.1,1.1c-2.3-0.2-3.4-0.3-5.7-0.5C189.5,303.6,189.7,301.5,190.1,297.4z"/>
	</g>
</g>
</svg>
