<?xml version="1.0" encoding="utf-8"?>
<!-- Generator: Adobe Illustrator 27.4.0, SVG Export Plug-In . SVG Version: 6.00 Build 0)  -->
<svg version="1.1" xmlns="http://www.w3.org/2000/svg" xmlns:xlink="http://www.w3.org/1999/xlink" x="0px" y="0px"
	 viewBox="0 0 750 500" style="enable-background:new 0 0 750 500;" xml:space="preserve">
<style type="text/css">
	.st0{fill:#FFFFFF;}
	.st1{fill:#679AF8;}
	.st2{fill:#2576A5;}
	.st3{fill:none;stroke:#7CC1EE;stroke-width:2.3231;stroke-miterlimit:10;}
	.st4{fill:#7CC1EE;}
	.st5{fill:#645ABD;}
	.st6{fill:#F7F9FA;}
	.st7{fill:#24293D;}
	.st8{fill:#D7DAFF;}
	.st9{fill:#CCEDFD;}
	.st10{fill:none;stroke:#FFFFFF;stroke-width:1.9569;stroke-miterlimit:10;}
	.st11{fill:#A3A5A8;}
	.st12{fill:#CE9B0D;}
	.st13{fill:#FEC200;}
	.st14{font-family:'Raleway-ExtraBold';}
	.st15{font-size:25.5626px;}
	.st16{fill:#34DBBE;}
	.st17{fill:#9E4CE7;}
	.st18{fill:#FF297A;}
	.st19{fill:#F13C7E;}
	.st20{fill:none;stroke:#FFFFFF;stroke-width:2.2315;stroke-miterlimit:10;}
	.st21{fill:none;stroke:#679AF8;stroke-width:0.7353;stroke-miterlimit:10;}
	.st22{fill:none;stroke:#679AF8;stroke-width:0.7353;stroke-miterlimit:10;stroke-dasharray:2.9274,2.9274;}
	.st23{fill:none;stroke:#679AF8;stroke-width:0.7353;stroke-miterlimit:10;stroke-dasharray:2.9414,2.9414;}
	.st24{fill:none;stroke:#34DBBE;stroke-width:0.8382;stroke-miterlimit:10;}
	.st25{fill:none;stroke:#34DBBE;stroke-width:0.8382;stroke-miterlimit:10;stroke-dasharray:3.4553,3.4553;}
	.st26{fill:none;stroke:#34DBBE;stroke-width:0.8382;stroke-miterlimit:10;stroke-dasharray:2.3432,2.3432;}
	.st27{fill:none;stroke:#FEC200;stroke-miterlimit:10;}
	.st28{fill:none;stroke:#FEC200;stroke-miterlimit:10;stroke-dasharray:4.139,4.139;}
	.st29{fill:none;stroke:#FEC200;stroke-miterlimit:10;stroke-dasharray:2.9667,2.9667;}
	.st30{fill:none;stroke:#FFFFFF;stroke-width:1.957;stroke-linecap:round;stroke-linejoin:round;stroke-miterlimit:10;}
	.st31{fill:none;stroke:#FFFFFF;stroke-width:1.9569;stroke-linecap:round;stroke-linejoin:round;stroke-miterlimit:10;}
	.st32{fill:url(#SVGID_1_);}
	.st33{opacity:0.5;fill:url(#SVGID_00000173860659570240206180000000468695139044483495_);enable-background:new    ;}
	.st34{opacity:0.5;fill:url(#SVGID_00000159456061621626807020000017012877546356449428_);enable-background:new    ;}
	.st35{fill:url(#SVGID_00000091726476977341687750000000983487575706704013_);}
	.st36{fill:url(#SVGID_00000062871585936642182430000017472326105860501155_);}
	.st37{opacity:0.76;fill:url(#SVGID_00000057869934610994417530000000800713080569028272_);enable-background:new    ;}
	.st38{opacity:0.76;fill:url(#SVGID_00000061442341248585538460000015269708866814162076_);enable-background:new    ;}
	.st39{opacity:0.76;fill:url(#SVGID_00000049194008204226003410000004042072178321273749_);enable-background:new    ;}
	.st40{fill:#FE9083;}
	.st41{fill:url(#SVGID_00000088103285995843681990000017813325513458413236_);}
	.st42{opacity:0.5;fill:url(#SVGID_00000142880891813209440860000006757808697050941590_);enable-background:new    ;}
	.st43{fill:url(#SVGID_00000068643174128195812740000017762648247593771421_);}
	.st44{opacity:0.5;fill:url(#SVGID_00000129905504958120328050000010059856483533137336_);enable-background:new    ;}
	.st45{fill:url(#SVGID_00000039828941516428748360000003273645360901417148_);}
	.st46{fill:url(#SVGID_00000171722183837165237330000006066650746135781275_);}
	.st47{fill:#CB4D7A;}
	.st48{fill:#EE8183;}
	.st49{fill:url(#SVGID_00000148645956664794792000000000443017934153642383_);}
	.st50{opacity:0.6;fill:url(#SVGID_00000168835900971061578830000008618002441965139610_);enable-background:new    ;}
	.st51{fill:url(#SVGID_00000057852345471310007070000012115120936753030833_);}
	.st52{fill:#E28183;}
	.st53{opacity:0.91;fill:url(#SVGID_00000033334769588406537800000017042117758105997754_);enable-background:new    ;}
	.st54{fill:url(#SVGID_00000023258510529126266890000005356998241847058363_);}
	.st55{opacity:0.6;fill:url(#SVGID_00000010293943066334591150000002730957683962098829_);enable-background:new    ;}
	.st56{fill:url(#SVGID_00000128455006997989044580000001050862309682292363_);}
	.st57{fill:url(#SVGID_00000127004766379795851790000000710494340863423399_);}
	.st58{opacity:0.91;fill:url(#SVGID_00000064320793475774120470000011141051227972667780_);enable-background:new    ;}
	.st59{opacity:0.5;fill:url(#SVGID_00000100369344981581093180000017977974961770922915_);enable-background:new    ;}
	.st60{opacity:0.5;fill:url(#SVGID_00000096744102751096201080000017608434886574342303_);enable-background:new    ;}
	.st61{opacity:0.5;fill:url(#SVGID_00000004541074004232242800000004673075121868906428_);enable-background:new    ;}
	.st62{opacity:0.5;fill:url(#SVGID_00000089568459775408378560000012478965914026632071_);enable-background:new    ;}
	.st63{opacity:0.5;fill:url(#SVGID_00000172399835536019524750000017107102910766414012_);enable-background:new    ;}
	.st64{opacity:0.5;fill:url(#SVGID_00000088123317791086845740000008818226316468278943_);enable-background:new    ;}
	.st65{opacity:0.5;fill:url(#SVGID_00000002380246624597118640000007618542716919678143_);enable-background:new    ;}
	.st66{opacity:0.5;fill:url(#SVGID_00000168103238487543663790000000826003419318284711_);enable-background:new    ;}
	.st67{opacity:0.5;fill:url(#SVGID_00000174584423899276133720000008964426773778423441_);enable-background:new    ;}
	.st68{opacity:0.76;fill:url(#SVGID_00000071550432257988418920000012736954291311238817_);enable-background:new    ;}
	.st69{opacity:0.5;fill:url(#SVGID_00000062186564219065126750000005036103092374268346_);enable-background:new    ;}
	.st70{opacity:0.3;fill:url(#SVGID_00000161626946206007151460000012197309450095736983_);enable-background:new    ;}
	.st71{opacity:0.5;fill:url(#SVGID_00000181800379889891548360000001473255602319170432_);enable-background:new    ;}
	.st72{opacity:0.5;fill:url(#SVGID_00000149346650302282515140000007053201450416676012_);enable-background:new    ;}
	.st73{opacity:0.5;fill:url(#SVGID_00000070092151798005799170000010228247778488580029_);enable-background:new    ;}
	.st74{opacity:0.5;fill:url(#SVGID_00000044884153564539403800000011342647137657385626_);enable-background:new    ;}
	.st75{fill:url(#SVGID_00000045579376874026196710000007000508410231535271_);}
	.st76{fill:#EBEFFF;}
	.st77{opacity:0.5;fill:url(#SVGID_00000078742876651035587800000007964207854777945986_);enable-background:new    ;}
	.st78{opacity:0.3;fill:url(#SVGID_00000165210217729181632620000018064023264740169641_);enable-background:new    ;}
	.st79{opacity:0.5;fill:url(#SVGID_00000055684364858056711130000006441280222479490719_);enable-background:new    ;}
	.st80{opacity:0.5;fill:url(#SVGID_00000134950069062876044000000016296025927430821017_);enable-background:new    ;}
	.st81{opacity:0.5;fill:url(#SVGID_00000086660161940337641910000011831177675572241286_);enable-background:new    ;}
	.st82{opacity:0.5;fill:#7A4AC0;enable-background:new    ;}
	.st83{fill:url(#SVGID_00000150084369560198646250000014033935072333204622_);}
	.st84{fill:url(#SVGID_00000048481658554755864250000016381430572380392887_);}
	.st85{fill:url(#SVGID_00000160148214957317752040000002067536704458048698_);}
	.st86{opacity:0.6;fill:url(#SVGID_00000134228562526176377910000010673145861515808408_);enable-background:new    ;}
	.st87{fill:#38368E;}
	.st88{fill:url(#SVGID_00000150097293842640409530000010729883793258155441_);}
	.st89{fill:url(#SVGID_00000145745684239737534820000017050140445863720078_);}
	.st90{fill:#FFEBED;}
	.st91{fill:#7F9EC9;}
	.st92{fill:#131163;}
	.st93{fill:#C6659C;}
	.st94{fill:#CB5F7D;}
	.st95{fill:#9F4A8B;}
	.st96{fill:#FFBCAF;}
	.st97{opacity:0.6;fill:url(#SVGID_00000052783611014460571000000008679061229641620376_);enable-background:new    ;}
	.st98{fill:url(#SVGID_00000143595440011795746440000011286764235599100344_);}
	.st99{fill:#D2726C;}
	.st100{opacity:0.6;fill:url(#SVGID_00000165934911967451766940000009523040125270959025_);enable-background:new    ;}
	.st101{opacity:0.6;fill:url(#SVGID_00000121960326343670096730000014634396885284033196_);enable-background:new    ;}
	.st102{opacity:0.5;fill:url(#SVGID_00000057853950793730293090000003421156495123317396_);enable-background:new    ;}
	.st103{fill:url(#SVGID_00000022548958499699698000000009919542230280860079_);}
	.st104{fill:url(#SVGID_00000016758299755891872350000003972146978161417603_);}
	.st105{fill:url(#SVGID_00000020368323998754191170000016691972447033494682_);}
	.st106{opacity:0.8;fill:url(#SVGID_00000081620411389383809480000012453333229077753523_);enable-background:new    ;}
	.st107{opacity:0.8;fill:url(#SVGID_00000074424949345367435120000006668741118020994713_);enable-background:new    ;}
	.st108{fill:#34C7FF;}
	.st109{fill:url(#SVGID_00000148655620209619909050000015487805449639209640_);}
	.st110{fill:url(#SVGID_00000046341363477950707030000014592828924293910915_);}
	.st111{fill:url(#SVGID_00000078046595456658123650000015311859262363490451_);}
</style>
<g id="BACKGROUND">
	<g>
		<rect y="0" class="st0" width="750" height="500"/>
	</g>
</g>
<g id="OBJECTS">
	<g>
		<path class="st1" d="M0,0v287.8c39.3,8.7,98.4,12.1,135.2,1c30-9,44.6-34.1,90.7-32.4c30.8,1.1,45.4,15.8,59.8,27.2
			c26.1,20.7,79.7,37.8,134.8,33.5c64.7-5.1,91.2-27.6,158.3-10.6c31.3,7.9,66,14,102.5,15.2c23.3,0.8,47.4-0.7,68.8-4.5V0H0z"/>
		<ellipse class="st2" cx="617.9" cy="208.2" rx="131.1" ry="7.5"/>
		<g>
			<g>
				<polygon class="st0" points="723.1,123.4 642.6,123.4 642.6,30.7 714.4,30.7 718.4,34.9 723.1,39.1 				"/>
				<g>
					<line class="st3" x1="648.7" y1="48.5" x2="716.5" y2="48.5"/>
					<line class="st3" x1="648.7" y1="55.6" x2="716.5" y2="55.6"/>
					<line class="st3" x1="648.7" y1="62.7" x2="716.5" y2="62.7"/>
				</g>
				<rect x="649.5" y="34.9" class="st4" width="12.2" height="8.4"/>
				<g>
					<line class="st3" x1="648.7" y1="81.6" x2="716.5" y2="81.6"/>
					<line class="st3" x1="648.7" y1="88.6" x2="716.5" y2="88.6"/>
					<line class="st3" x1="648.7" y1="95.7" x2="716.5" y2="95.7"/>
				</g>
				<rect x="649.5" y="67.9" class="st4" width="12.2" height="8.4"/>
			</g>
			<polygon class="st4" points="714.4,30.7 714.4,39.1 723.1,39.1 718.4,34.9 			"/>
		</g>
		<g>
			<g>
				<g>
					<g>
						<path class="st0" d="M545.6,70.2c-4.7-7.5-2.4-17.5,5.1-22.2c7.5-4.7,17.5-2.4,22.2,5.1c4.7,7.5,2.4,17.5-5.1,22.2
							C560.3,80,550.3,77.7,545.6,70.2z M571.4,54.1c-4.2-6.7-13-8.7-19.7-4.5c-6.7,4.2-8.7,13-4.5,19.7c4.2,6.7,13,8.7,19.7,4.5
							S575.5,60.8,571.4,54.1z"/>
					</g>
					<g>
						<g>
							<path class="st0" d="M565.2,47.3l12.1-2.3l4.9,7.8l-7.4,9.9l-1.1-3.1c-1.3-3.7-3.4-7.2-6.2-9.9L565.2,47.3z M572.8,53.2
								c1.1,1.7,2,3.6,2.7,5.5l4.6-6.1l-3.5-5.6l-7.5,1.4C570.4,49.9,571.7,51.5,572.8,53.2z"/>
						</g>
						<g>
							<path class="st0" d="M541.1,78.4l-4.9-7.8l7.4-9.9l1.4,4c1.1,3.1,2.9,6,5.2,8.3l3,3L541.1,78.4z M538.5,70.7l3.5,5.6l7.5-1.4
								l-0.6-0.6c-2.5-2.5-4.5-5.6-5.6-9l-0.3-0.8L538.5,70.7z"/>
						</g>
					</g>
					<g>
						<g>
							<path class="st0" d="M549.8,49.3l4-11.7l9.2-0.3l4.9,11.4l-4.2-0.8c-3.2-0.6-6.6-0.5-9.8,0.3L549.8,49.3z M555.2,39.4
								l-2.5,7.2l0.8-0.2c3.4-0.9,7.1-1,10.6-0.4l0.8,0.2l-3-7L555.2,39.4z"/>
						</g>
						<g>
							<path class="st0" d="M555.5,86l-4.9-11.4l4.2,0.8c3.2,0.6,6.6,0.5,9.8-0.3l4.1-1.1l-4,11.7L555.5,86z M553.7,77.1l3,7
								l6.7-0.2l2.5-7.2l-0.8,0.2c-3.4,0.9-7.1,1-10.6,0.4L553.7,77.1z"/>
						</g>
					</g>
					<g>
						<g>
							<path class="st0" d="M535.7,54.3l4.3-8.1l12.3,1.5l-2.8,3.2c-2.2,2.5-3.7,5.4-4.6,8.6l-1.1,4.1L535.7,54.3z M541,48.2
								l-3.1,5.9l5,5.8l0.2-0.8c0.9-3.4,2.6-6.7,5-9.3l0.5-0.6L541,48.2z"/>
						</g>
						<g>
							<path class="st0" d="M566.2,75.6l2.8-3.2c2.2-2.5,3.7-5.4,4.6-8.6l1.1-4.1l8.1,9.3l-4.3,8.1L566.2,75.6z M575.6,63.5
								l-0.2,0.8c-0.9,3.4-2.6,6.7-5,9.3l-0.5,0.6l7.6,0.9l3.1-5.9L575.6,63.5z"/>
						</g>
					</g>
				</g>
				<g>
					<path class="st0" d="M552.6,65.8c-2.3-3.7-1.2-8.5,2.5-10.8c3.7-2.3,8.5-1.2,10.8,2.5c2.3,3.7,1.2,8.5-2.5,10.8
						S554.9,69.5,552.6,65.8z M564.4,58.5c-1.8-2.8-5.5-3.7-8.3-1.9c-2.8,1.8-3.7,5.5-1.9,8.3c1.8,2.8,5.5,3.7,8.3,1.9
						S566.1,61.3,564.4,58.5z"/>
				</g>
			</g>
			<g>
				<g>
					<g>
						<path class="st0" d="M592.9,72.6c-5.1-4-6-11.4-2.1-16.5c4-5.1,11.4-6,16.5-2.1c5.1,4,6,11.4,2.1,16.5
							C605.5,75.7,598.1,76.6,592.9,72.6z M606.6,55.1c-4.5-3.5-11.1-2.7-14.6,1.8c-3.5,4.5-2.7,11.1,1.8,14.6
							c4.5,3.5,11.1,2.7,14.6-1.8C611.9,65.2,611.1,58.7,606.6,55.1z"/>
					</g>
					<g>
						<g>
							<path class="st0" d="M600.7,52l7.8-4.6l5.3,4.1l-2.6,8.6l-1.5-1.8c-1.8-2.2-4.2-4.1-6.8-5.3L600.7,52z M607.3,54.2
								c1.2,0.9,2.3,2,3.2,3.1l1.6-5.3l-3.8-3l-4.8,2.9C604.9,52.5,606.2,53.3,607.3,54.2z"/>
						</g>
						<g>
							<path class="st0" d="M591.9,79.4l-5.3-4.1l2.6-8.6l2,2.4c1.5,1.9,3.5,3.4,5.6,4.4l2.8,1.3L591.9,79.4z M588.2,74.8l3.8,3
								l4.8-2.9l-0.5-0.2c-2.4-1.1-4.5-2.7-6.1-4.7l-0.4-0.5L588.2,74.8z"/>
						</g>
					</g>
					<g>
						<g>
							<path class="st0" d="M590.6,57.2l-0.2-9l6.2-2.5l6.2,6.6l-3.1,0.5c-2.4,0.4-4.6,1.3-6.6,2.7L590.6,57.2z M591.8,49.1l0.1,5.6
								l0.5-0.3c2.1-1.5,4.6-2.5,7.2-2.9l0.6-0.1l-3.8-4.1L591.8,49.1z"/>
						</g>
						<g>
							<path class="st0" d="M603.7,81l-6.2-6.6l3.1-0.5c2.4-0.4,4.6-1.3,6.6-2.7l2.6-1.8l0.2,9L603.7,81z M600.3,75.4l3.8,4.1
								l4.5-1.8l-0.1-5.6l-0.5,0.3c-2.1,1.5-4.6,2.5-7.2,2.9L600.3,75.4z"/>
						</g>
					</g>
					<g>
						<g>
							<path class="st0" d="M582.2,64.2l0.9-6.6l8.8-2.1l-1.1,2.9c-0.9,2.2-1.2,4.7-1,7.1l0.3,3.1L582.2,64.2z M584.3,58.7l-0.7,4.8
								l4.9,2.7l-0.1-0.6c-0.2-2.6,0.1-5.2,1.1-7.7l0.2-0.5L584.3,58.7z"/>
						</g>
						<g>
							<path class="st0" d="M608.5,71.2l1.1-2.9c0.9-2.2,1.2-4.7,1-7.1l-0.3-3.1l7.9,4.4l-0.9,6.6L608.5,71.2z M611.8,60.5l0.1,0.6
								c0.2,2.6-0.1,5.2-1.1,7.7l-0.2,0.5l5.4-1.3l0.7-4.8L611.8,60.5z"/>
						</g>
					</g>
				</g>
				<g>
					<path class="st0" d="M596.7,67.9c-2.5-1.9-2.9-5.5-1-8c1.9-2.5,5.5-2.9,8-1c2.5,1.9,2.9,5.5,1,8
						C602.7,69.4,599.1,69.8,596.7,67.9z M602.9,59.9c-1.9-1.5-4.7-1.1-6.2,0.8c-1.5,1.9-1.1,4.7,0.8,6.1c1.9,1.5,4.7,1.1,6.2-0.8
						C605.1,64.1,604.8,61.4,602.9,59.9z"/>
				</g>
			</g>
		</g>
		<g>
			<g>
				<path class="st5" d="M659.2,261.4h-70.5c-3.3,0-6-2.7-6-6l0,0c0-3.3,2.7-6,6-6h70.5c3.3,0,6,2.7,6,6l0,0
					C665.1,258.7,662.4,261.4,659.2,261.4z"/>
				<path class="st6" d="M663.5,255.4c0,2.7-2.2,4.8-4.8,4.8c-2.7,0-4.8-2.2-4.8-4.8c0-2.7,2.2-4.8,4.8-4.8
					C661.4,250.6,663.5,252.8,663.5,255.4z"/>
			</g>
		</g>
		<g>
			<path class="st7" d="M698.5,194.4H538.9v-95c0-5.8,4.7-10.4,10.5-10.4h138.7c5.8,0,10.5,4.7,10.5,10.4V194.4z"/>
			<rect x="519.6" y="194.1" class="st8" width="198.2" height="10.3"/>
			<path class="st2" d="M618.7,204.4h-99.1l1.4,0.8c7.4,4.3,15.9,6.6,24.5,6.6h73.2h73.2c8.6,0,17.1-2.3,24.5-6.6l1.4-0.8H618.7z"/>
			<path class="st2" d="M622.4,194.1H615h-15.8l0.1,0.2c1,2.2,3.2,3.5,5.6,3.5H615h7.4h10.1c2.4,0,4.6-1.4,5.6-3.5l0.1-0.2H622.4z"
				/>
			<path class="st9" d="M688.3,191.4H548.6c-2.2,0-4-1.8-4-4v-86c0-2.2,1.8-4,4-4h139.7c2.2,0,4,1.8,4,4v86
				C692.3,189.6,690.5,191.4,688.3,191.4z"/>
		</g>
		<path class="st10" d="M263.3,73.1c0-0.1,0-0.1,0-0.2c0-3.4-2.5-6.2-5.8-6.6c-0.6-6.4-6.1-11.5-12.7-11.5c-6,0-11,4.1-12.4,9.6
			c-5.5,0.2-9.9,4.7-9.9,10.3c0,5.2,3.9,9.5,8.9,10.2c0.4,0.1,0.7,0.1,1.1,0.1h29.2c3.3,0,6-2.7,6-6l0,0
			C267.7,76.1,265.9,73.8,263.3,73.1z"/>
		<rect x="552.9" y="106.8" class="st0" width="131.6" height="84.6"/>
		<g>
			<g>
				<g>
					<rect x="655.1" y="128.3" class="st11" width="24.6" height="1.3"/>
				</g>
				<g>
					<rect x="655.1" y="132.4" class="st11" width="24.6" height="1.3"/>
				</g>
				<g>
					<rect x="655.1" y="136.4" class="st11" width="24.6" height="1.3"/>
				</g>
				<g>
					<rect x="655.1" y="140.4" class="st11" width="24.6" height="1.3"/>
				</g>
				<g>
					<rect x="655.1" y="144.4" class="st11" width="24.6" height="1.3"/>
				</g>
			</g>
			<rect x="655.1" y="111.4" class="st11" width="13.8" height="13.8"/>
		</g>
		<g>
			<g>
				<g>
					<rect x="655.1" y="169.9" class="st11" width="24.6" height="1.3"/>
				</g>
				<g>
					<rect x="655.1" y="174" class="st11" width="24.6" height="1.3"/>
				</g>
				<g>
					<rect x="655.1" y="178" class="st11" width="24.6" height="1.3"/>
				</g>
				<g>
					<rect x="655.1" y="182" class="st11" width="24.6" height="1.3"/>
				</g>
				<g>
					<rect x="655.1" y="186" class="st11" width="24.6" height="1.3"/>
				</g>
			</g>
			<rect x="655.1" y="152.9" class="st11" width="13.8" height="13.8"/>
		</g>
		<g>
			<ellipse class="st12" cx="698.5" cy="123.2" rx="21.2" ry="21.2"/>
			<ellipse class="st13" cx="698.5" cy="119.7" rx="21.2" ry="21.2"/>
			<text transform="matrix(1.0012 0 0 1 690.3425 127.0936)" class="st0 st14 st15">$</text>
		</g>
		<g>
			<path class="st16" d="M613.2,184.9c20.8,0,37.6-16.8,37.6-37.5h-37.6V184.9z"/>
			<path class="st13" d="M610.6,149.8v30.2c-16.7,0-30.2-13.5-30.2-30.2c0-8.3,3.4-15.9,8.8-21.3"/>
			<path class="st17" d="M611.1,146.6v-35.3c-9.8,0-18.6,4-25,10.3L611.1,146.6z"/>
			<path class="st18" d="M642.4,144.3c0-16.1-13.1-29.1-29.2-29.1v29.1H642.4z"/>
		</g>
		<g>
			<g>
				<g>
					<ellipse class="st19" cx="540.2" cy="333.9" rx="60.2" ry="60.2"/>
				</g>
			</g>
			<g>
				<g>
					<ellipse class="st19" cx="540.2" cy="333.9" rx="51.9" ry="51.8"/>
					<path class="st0" d="M540.2,388.2c-30,0-54.4-24.4-54.4-54.3c0-30,24.4-54.3,54.4-54.3c30,0,54.4,24.4,54.4,54.3
						C594.6,363.8,570.2,388.2,540.2,388.2z M540.2,284.5c-27.2,0-49.4,22.1-49.4,49.3s22.2,49.3,49.4,49.3
						c27.2,0,49.4-22.1,49.4-49.3S567.4,284.5,540.2,284.5z"/>
				</g>
				<g>
					<ellipse class="st19" cx="540.2" cy="333.9" rx="42.2" ry="42.2"/>
					<path class="st0" d="M540.2,378.6c-24.7,0-44.8-20.1-44.8-44.7s20.1-44.7,44.8-44.7c24.7,0,44.8,20.1,44.8,44.7
						S564.9,378.6,540.2,378.6z M540.2,294.2c-21.9,0-39.7,17.8-39.7,39.7c0,21.9,17.8,39.7,39.7,39.7c21.9,0,39.7-17.8,39.7-39.7
						C579.9,312,562.1,294.2,540.2,294.2z"/>
				</g>
				<g>
					<ellipse class="st19" cx="540.2" cy="333.9" rx="32.6" ry="32.6"/>
					<path class="st0" d="M540.2,368.9c-19.4,0-35.1-15.7-35.1-35.1c0-19.3,15.8-35.1,35.1-35.1c19.4,0,35.1,15.7,35.1,35.1
						C575.3,353.2,559.5,368.9,540.2,368.9z M540.2,303.8c-16.6,0-30.1,13.5-30.1,30.1s13.5,30.1,30.1,30.1
						c16.6,0,30.1-13.5,30.1-30.1S556.8,303.8,540.2,303.8z"/>
				</g>
				<g>
					<ellipse class="st19" cx="540.2" cy="333.9" rx="23" ry="22.9"/>
					<path class="st0" d="M540.2,359.3c-14,0-25.5-11.4-25.5-25.4s11.4-25.4,25.5-25.4c14,0,25.5,11.4,25.5,25.4
						S554.2,359.3,540.2,359.3z M540.2,313.4c-11.3,0-20.5,9.2-20.5,20.4c0,11.3,9.2,20.4,20.5,20.4c11.3,0,20.5-9.2,20.5-20.4
						C560.7,322.6,551.5,313.4,540.2,313.4z"/>
				</g>
				<g>
					<ellipse class="st19" cx="540.2" cy="333.9" rx="13.3" ry="13.3"/>
					<path class="st0" d="M540.2,349.7c-8.7,0-15.8-7.1-15.8-15.8c0-8.7,7.1-15.8,15.8-15.8c8.7,0,15.8,7.1,15.8,15.8
						C556,342.6,548.9,349.7,540.2,349.7z M540.2,323.1c-6,0-10.8,4.8-10.8,10.8s4.9,10.8,10.8,10.8c6,0,10.8-4.8,10.8-10.8
						S546.2,323.1,540.2,323.1z"/>
				</g>
				<g>
					<ellipse class="st19" cx="540.2" cy="333.9" rx="3.7" ry="3.7"/>
					<path class="st0" d="M540.2,340c-3.4,0-6.2-2.8-6.2-6.2c0-3.4,2.8-6.2,6.2-6.2c3.4,0,6.2,2.8,6.2,6.2
						C546.4,337.3,543.6,340,540.2,340z M540.2,332.7c-0.6,0-1.2,0.5-1.2,1.2c0,0.6,0.5,1.2,1.2,1.2c0.6,0,1.2-0.5,1.2-1.2
						C541.4,333.2,540.8,332.7,540.2,332.7z"/>
				</g>
			</g>
		</g>
		<path class="st20" d="M444.4,36.6c0-0.1,0-0.2,0-0.3c0-4-2.7-7.4-6.3-7.9c-0.7-7.7-6.6-13.7-13.8-13.7c-6.5,0-11.9,4.9-13.5,11.5
			c-6,0.2-10.8,5.6-10.8,12.3c0,6.2,4.2,11.3,9.6,12.2c0.4,0.1,0.8,0.1,1.2,0.1h31.8c3.6,0,6.6-3.2,6.6-7.2l0,0
			C449.2,40.2,447.2,37.4,444.4,36.6z"/>
		<g>
			<g>
				<path class="st5" d="M538.8,334.1c-0.4,0-0.8-0.1-1.1-0.3l-57.4-40.8c-0.8-0.6-1-1.8-0.4-2.6c0.6-0.8,1.8-1,2.6-0.4l57.4,40.8
					c0.8,0.6,1,1.8,0.4,2.6C539.9,333.8,539.4,334.1,538.8,334.1z"/>
			</g>
			<g>
				<path class="st5" d="M540.9,333.8c0-0.5-5.8-13.7-5.8-13.7l-8.7,12L540.9,333.8z"/>
			</g>
			<g>
				<path class="st5" d="M490,299.4c-0.4,0-0.8-0.1-1.1-0.4l-12-8.8c-0.3-0.2-0.5-0.5-0.6-0.8l-5.5-13.3c-0.3-0.8-0.1-1.7,0.6-2.2
					c0.7-0.5,1.6-0.5,2.3,0l16,11.7c0.4,0.3,0.7,0.8,0.8,1.3l1.4,10.4c0.1,0.7-0.3,1.5-0.9,1.9C490.6,299.3,490.3,299.4,490,299.4z"
					/>
			</g>
			<g>
				<path class="st5" d="M477.5,301.6c-0.3,0-0.7-0.1-1-0.3l-15.6-9.4c-0.7-0.4-1-1.2-0.9-2c0.2-0.8,0.8-1.4,1.6-1.5l16-1.6
					c0.5,0,0.9,0.1,1.3,0.4l12,8.8c0.6,0.4,0.9,1.2,0.7,1.9c-0.2,0.7-0.8,1.3-1.5,1.4l-12.4,2.2
					C477.8,301.6,477.7,301.6,477.5,301.6z"/>
			</g>
		</g>
		<g>
			<g>
				<line class="st21" x1="602.8" y1="129.7" x2="602.8" y2="128.2"/>
				<line class="st22" x1="602.8" y1="125.3" x2="602.8" y2="103.4"/>
				<polyline class="st21" points="602.8,101.9 602.8,100.4 601.3,100.4 				"/>
				<line class="st23" x1="598.4" y1="100.4" x2="576.3" y2="100.4"/>
				<line class="st21" x1="574.9" y1="100.4" x2="573.4" y2="100.4"/>
			</g>
		</g>
		<g>
			<g>
				<line class="st24" x1="627.1" y1="129.9" x2="627.1" y2="128.3"/>
				<line class="st25" x1="627.1" y1="124.8" x2="627.1" y2="64.3"/>
				<polyline class="st24" points="627.1,62.6 627.1,60.9 628.8,60.9 				"/>
				<line class="st26" x1="631.1" y1="60.9" x2="634.6" y2="60.9"/>
				<line class="st24" x1="635.8" y1="60.9" x2="637.5" y2="60.9"/>
			</g>
		</g>
		<g>
			<g>
				<line class="st27" x1="627.8" y1="159.5" x2="629.8" y2="159.5"/>
				<line class="st28" x1="633.9" y1="159.5" x2="698.1" y2="159.5"/>
				<polyline class="st27" points="700.1,159.5 702.1,159.5 702.1,157.5 				"/>
				<line class="st29" x1="702.1" y1="154.5" x2="702.1" y2="150.1"/>
				<line class="st27" x1="702.1" y1="148.6" x2="702.1" y2="146.6"/>
			</g>
		</g>
		<polygon class="st17" points="519.1,215.7 474.8,227.8 484.9,243.4 		"/>
		<polygon class="st18" points="526.7,220.3 513.8,244.6 523.1,246.6 		"/>
		<path class="st30" d="M631.7,239.6c0,2.2-1.7,3.9-3.9,3.9s-3.9-1.7-3.9-3.9c0-2.2,1.7-3.9,3.9-3.9S631.7,237.5,631.7,239.6z"/>
		<path class="st30" d="M621.8,32.6c0,2.2-1.7,3.9-3.9,3.9c-2.2,0-3.9-1.7-3.9-3.9c0-2.2,1.7-3.9,3.9-3.9
			C620,28.7,621.8,30.4,621.8,32.6z"/>
		<ellipse class="st30" cx="515.7" cy="40.9" rx="3.9" ry="3.9"/>
		<path class="st30" d="M742.8,91.5c0,2.2-1.7,3.9-3.9,3.9c-2.2,0-3.9-1.7-3.9-3.9s1.7-3.9,3.9-3.9C741,87.7,742.8,89.4,742.8,91.5z
			"/>
		<line class="st31" x1="686.7" y1="237.4" x2="694.4" y2="237.4"/>
		<line class="st30" x1="665" y1="237.4" x2="679.7" y2="237.4"/>
		<g>
			<line class="st30" x1="705.5" y1="243.4" x2="716.7" y2="243.4"/>
			<g>
				<line class="st30" x1="703" y1="234.2" x2="716.7" y2="234.2"/>
				<line class="st30" x1="668" y1="243.4" x2="688.9" y2="243.4"/>
				<line class="st30" x1="696.5" y1="252.7" x2="716.7" y2="252.7"/>
				<line class="st30" x1="668" y1="252.7" x2="686" y2="252.7"/>
			</g>
		</g>
		<g>
			<line class="st30" x1="544" y1="229" x2="585.7" y2="229"/>
			<line class="st30" x1="574.4" y1="234.5" x2="594" y2="234.5"/>
			<line class="st30" x1="582.6" y1="241" x2="556" y2="241"/>
		</g>
	</g>
	<g>
		<g>
			
				<linearGradient id="SVGID_1_" gradientUnits="userSpaceOnUse" x1="130.7225" y1="1.9346" x2="130.7225" y2="91.1446" gradientTransform="matrix(1 0 0 -1 0 502.1114)">
				<stop  offset="0" style="stop-color:#6456C0"/>
				<stop  offset="1" style="stop-color:#5F2C95"/>
			</linearGradient>
			<path class="st32" d="M196.6,500.2h-47c-4.9-27.3-16.4-62.9-16.4-62.9c-2.8-1.6-8.2,0.4-8.2,0.4l-17.2,62.5H65
				c-2.3-38.6,18.8-82.3,18.8-82.3l0,0c-0.1-0.2-0.7-1.5-0.6-2.4c0.1-0.4,0.8-1.1,1.6-1.9c1.2-1.1,2.5-2.1,2.5-2.1l80.1-0.5
				c0,0,0.8,0.4,1.8,1h0c1.8,1.1,4.1,2.7,4.1,3.9c0,1.6-0.6,2.7-0.8,3l0,0C189.8,451.3,196.7,500.2,196.6,500.2L196.6,500.2z"/>
			
				<radialGradient id="SVGID_00000055683264076866514380000015679996320497166769_" cx="422.2205" cy="257.7303" r="27.03" gradientTransform="matrix(0.6431 0.1484 0.3844 -1.6662 -283.7583 833.4693)" gradientUnits="userSpaceOnUse">
				<stop  offset="0" style="stop-color:#4B474B"/>
				<stop  offset="1" style="stop-color:#000000"/>
			</radialGradient>
			<path style="opacity:0.5;fill:url(#SVGID_00000055683264076866514380000015679996320497166769_);enable-background:new    ;" d="
				M69.8,464.1c5.7-24.9,18.2-43.3,27.9-41.1c9.6,2.2,12.8,24.2,7.1,49.2C99,497,86.5,515.4,76.9,513.2
				C67.2,511,64.1,489,69.8,464.1z"/>
			
				<radialGradient id="SVGID_00000016044992734255878760000015537465739264731838_" cx="241.9792" cy="150.6508" r="27.03" gradientTransform="matrix(0.6355 -0.178 -0.4612 -1.6466 84.7183 757.9747)" gradientUnits="userSpaceOnUse">
				<stop  offset="0" style="stop-color:#4B474B"/>
				<stop  offset="1" style="stop-color:#000000"/>
			</radialGradient>
			<path style="opacity:0.5;fill:url(#SVGID_00000016044992734255878760000015537465739264731838_);enable-background:new    ;" d="
				M158,423.1c9.5-2.7,22.8,15.1,29.7,39.8c6.9,24.6,4.8,46.8-4.8,49.4c-9.5,2.7-22.8-15.1-29.7-39.8
				C146.3,447.9,148.4,425.8,158,423.1z"/>
			
				<linearGradient id="SVGID_00000066489693075439455630000017918604379052665730_" gradientUnits="userSpaceOnUse" x1="101.8486" y1="33.2396" x2="125.2486" y2="33.2396" gradientTransform="matrix(1 0 0 -1 0 502.1114)">
				<stop  offset="0" style="stop-color:#9E8CEF"/>
				<stop  offset="1" style="stop-color:#CAAFEE"/>
			</linearGradient>
			<path style="fill:url(#SVGID_00000066489693075439455630000017918604379052665730_);" d="M102.3,500.2l-0.5-0.1
				c5.5-32.2,19.3-59.2,19.5-59.5l0.1-0.1l3.5-3.1l0.3,0.4l-3.5,3.1C121.1,442.2,107.7,468.7,102.3,500.2L102.3,500.2z"/>
			
				<linearGradient id="SVGID_00000052813830583626863760000013781880492248332456_" gradientUnits="userSpaceOnUse" x1="-676.1698" y1="33.2546" x2="-652.7698" y2="33.2546" gradientTransform="matrix(-1 0 0 -1 -519.6512 502.1114)">
				<stop  offset="0" style="stop-color:#9E8CEF"/>
				<stop  offset="1" style="stop-color:#CAAFEE"/>
			</linearGradient>
			<path style="fill:url(#SVGID_00000052813830583626863760000013781880492248332456_);" d="M156,500.2
				c-5.4-31.5-19.2-58.4-19.8-59.5l-3.1-2.8l0.3-0.4l3.2,2.9c0.1,0.3,14.4,27.5,19.9,59.7L156,500.2z"/>
			
				<linearGradient id="SVGID_00000000927088533567138230000001019449438607345847_" gradientUnits="userSpaceOnUse" x1="127.5886" y1="1.9346" x2="127.5886" y2="91.1446" gradientTransform="matrix(1 0 0 -1 0 502.1114)">
				<stop  offset="0" style="stop-color:#CCCCFF"/>
				<stop  offset="1" style="stop-color:#755CBB"/>
			</linearGradient>
			
				<path style="opacity:0.76;fill:url(#SVGID_00000000927088533567138230000001019449438607345847_);enable-background:new    ;" d="
				M173.4,415.9c0,1.6-0.6,2.7-0.8,3l0,0c-16.7,3.8-29.4,19.3-29.4,19.3c9.1,17.4,24.2,61.9,24.2,61.9h-17.8
				c-4.9-27.3-16.4-62.9-16.4-62.9c-2.8-1.6-8.2,0.4-8.2,0.4l-17.2,62.5H96.8c4-26.2,15.7-58.1,15.7-58.1
				c-11.6-13.5-28.7-24.2-28.7-24.2l0,0l-2-1.3l1.5-1.1c7.4,7.1,31.4,16.4,32.1,16.7l-30.5-18.6c1.2-1.1,2.5-2.1,2.5-2.1l80.1-0.5
				c0,0,0.8,0.4,1.8,1l-21.9,12L173.4,415.9L173.4,415.9z"/>
			
				<linearGradient id="SVGID_00000093899000170846106600000004631393477798219180_" gradientUnits="userSpaceOnUse" x1="137.9636" y1="46.5346" x2="137.9636" y2="70.8746" gradientTransform="matrix(1 0 0 -1 0 502.1114)">
				<stop  offset="0" style="stop-color:#CCCCFF"/>
				<stop  offset="1" style="stop-color:#755CBB"/>
			</linearGradient>
			
				<polygon style="opacity:0.76;fill:url(#SVGID_00000093899000170846106600000004631393477798219180_);enable-background:new    ;" points="
				133.3,437.3 142.6,431.2 140.4,437.3 138.8,455.6 			"/>
			
				<linearGradient id="SVGID_00000101078566074249137140000002804277100669890219_" gradientUnits="userSpaceOnUse" x1="109.7836" y1="55.4846" x2="109.7836" y2="79.3246" gradientTransform="matrix(1 0 0 -1 0 502.1114)">
				<stop  offset="0" style="stop-color:#CCCCFF"/>
				<stop  offset="1" style="stop-color:#755CBB"/>
			</linearGradient>
			
				<polygon style="opacity:0.76;fill:url(#SVGID_00000101078566074249137140000002804277100669890219_);enable-background:new    ;" points="
				125.1,437.7 115.3,432.2 94.5,422.8 121,440.3 122.6,446.6 			"/>
		</g>
		<path class="st40" d="M151.9,249.8c0.1,0.4,0.1,0.7,0.1,0.7c-0.5,2-1,3.9-1.7,5.7c-2,5.6-4.4,9.6-6.2,12.1
			c-1.6,2.1-2.7,3.2-2.7,3.2c-14.6-4.6-21.8-18.9-24.5-25.9c0,0,0-0.1,0-0.1c-0.5-1.3-0.9-2.4-1.1-3.1l0,0c-0.2-0.6-0.2-0.9-0.2-0.9
			c0.1-0.1,0.1-0.2,0.2-0.4l0-0.1c0.2-0.5,0.5-1,0.7-1.5c1.9-4.2,3.2-8.1,4-11.2c0.7-2.6,1.1-4.6,1.3-5.7c0.1-0.6,0.1-0.9,0.1-0.9
			l6.8,3.6l23.4,12.4c-0.4,2.1-0.5,4.2-0.5,5.9c0,1.2,0,2.4,0.1,3.3c0.1,1.2,0.2,2.1,0.3,2.7l0,0
			C151.9,249.7,151.9,249.8,151.9,249.8L151.9,249.8z"/>
		
			<linearGradient id="SVGID_00000034069953631702469210000000900655700674193074_" gradientUnits="userSpaceOnUse" x1="133.9707" y1="225.4846" x2="133.9707" y2="261.0946" gradientTransform="matrix(1 0 0 -1 0 502.1114)">
			<stop  offset="0" style="stop-color:#D5CDF8"/>
			<stop  offset="1" style="stop-color:#F3EDFB"/>
		</linearGradient>
		<path style="fill:url(#SVGID_00000034069953631702469210000000900655700674193074_);" d="M145.4,273c-1.4,1.3-2.9,2.5-4.8,3.5
			c0,0-0.1,0-0.1,0.1c0,0,0,0-0.1-0.1l0,0c-0.5-0.3-2.2-1.4-4.6-3.1c-6.1-4.6-16.3-13.9-19.3-26.5c0,0,0,0,0-0.1
			c-0.3-1.5-0.6-3-0.7-4.6l0,0c0-0.4-0.1-0.8-0.1-1.2c0,0,2,4.8,5.5,9.9c4.1,6.1,10.4,12.7,17.8,12.7c6.4,0,9.7-4.4,11.4-8.4
			c0.7-1.7,1.1-3.4,1.4-4.6c0,0,0,0,0,0c0.1-0.4,0.1-0.7,0.2-0.9l0,0c0-0.1,0-0.3,0-0.4c0.1-0.4,0.1-0.7,0.1-0.7
			S154.5,263.9,145.4,273L145.4,273z"/>
		
			<linearGradient id="SVGID_00000031901118176021476780000007444289009184883338_" gradientUnits="userSpaceOnUse" x1="115.6386" y1="243.3246" x2="152.3028" y2="243.3246" gradientTransform="matrix(1 0 0 -1 0 502.1114)">
			<stop  offset="0" style="stop-color:#CCCCFF"/>
			<stop  offset="1" style="stop-color:#755CBB"/>
		</linearGradient>
		<path style="opacity:0.5;fill:url(#SVGID_00000031901118176021476780000007444289009184883338_);enable-background:new    ;" d="
			M145.4,273c-1.4,1.3-2.9,2.5-4.8,3.5h-0.3v0c-0.5-0.3-2.2-1.4-4.6-3.1c-6.1-4.6-16.3-13.9-19.3-26.5c0,0,0,0,0-0.1
			c-0.3-1.5-0.6-3-0.7-4.6l0,0c0-0.4-0.1-0.8-0.1-1.2c0,0,2,4.8,5.5,9.9c0,0,4,11.1,12.8,16.6c4.4,2.8,7.7,2.4,10.1,0.7
			c2.4-1.6,4-4.4,5-6.5c0.9-2.1,1.2-4.1,1.3-5.6c0-0.3,0-0.6,0-0.9c0.7-1.7,1.1-3.4,1.4-4.6c0,0,0,0,0,0c0.1-0.4,0.1-0.7,0.2-0.9
			l0,0c0-0.1,0-0.3,0-0.4c0.1-0.4,0.1-0.7,0.1-0.7S154.5,263.9,145.4,273L145.4,273z"/>
		
			<linearGradient id="SVGID_00000044157975646297580080000014909098020049403016_" gradientUnits="userSpaceOnUse" x1="123.4768" y1="83.2054" x2="123.4768" y2="262.6447" gradientTransform="matrix(1 0 0 -1 0 502.1114)">
			<stop  offset="0" style="stop-color:#9E8CEF"/>
			<stop  offset="1" style="stop-color:#CAAFEE"/>
		</linearGradient>
		<path style="fill:url(#SVGID_00000044157975646297580080000014909098020049403016_);" d="M201.5,363.7c-0.1,0-0.2,0.1-0.2,0.1
			c-0.8,0.1-3.4-0.5-6.7-3.4h0c0,0,0,0,0,0c0,0,0,0,0,0c-2.8-2.5-6.2-6.5-9.5-13.2c-6.7-13.4-8.6-22.3-8.9-23.9l0-0.2l-3.9,6.2
			c-2.6,8-7.7,41-7.6,42.4s4.5,8.3,4.4,9.2c0,0,0,0,0,0c-0.1,0.9-2.1,2.8-2.6,4.8c-0.4,1.4,2.3,5.7,4.1,8.9l0,0
			c1,1.7,1.7,3.1,1.7,3.6c0,1.5-4.7,8.9-4.7,8.9v4l-0.1,0.1l-0.2,0.2l-0.2,0.1c-1.8,1.4-9.4,6.1-33.3,7.4
			c-28.2,1.5-47.1-7.6-47.1-7.6l1.4-3.9c0,0-1.3-1.1-1.4-1.7c-0.1-0.6,1-1.9,1-1.9s-2.8-1.5-2.8-3.4s5.7-7.8,5.5-12.8
			c-0.2-5-4.6-9.5-5.1-12.3s7.4-9.9,7.4-9.9c-6.8-21.6-8.1-50.6-8.1-50.6l-1.3-1.5c0,0-8.1,18.6-15.5,27.7c-0.9,1.1-1.8,2.1-2.8,3.2
			c-2.1,2.2-4.2,4.3-6.4,6.1c-5.1,4.5-9.8,7.4-10.9,7.2c-1.9-0.4-9.5-15.4-9.1-30.7c0.2-7.3,4.6-15.5,9.1-22c0.5-0.7,1-1.4,1.5-2.1
			c3.2-4.4,6.4-7.9,7.8-9.4c0.6-0.6,0.9-1,0.9-1s-1-3.4-1.8-6.3c0-0.1,0-0.1-0.1-0.2c0,0,0-0.1,0-0.1c0,0,0-0.1,0-0.1
			c-0.4-1.8-0.7-3.3-0.4-3.7c0.6-1,4.3-2.1,4.9-2.9c0.6-0.8,3.3-13.5,5.3-14.9c1.9-1.3,5.4-2.3,16.7-6.8c0.6-0.2,1.1-0.4,1.7-0.7
			c12.8-5.1,25.3-11.2,25.3-11.2l4.8-5.9h2.1l-0.7,1.5l0,0.1c0.3,1.5,0.7,3,1.2,4.4c0,0,0,0.1,0,0.1c6.6,20.8,23.6,27.5,23.6,27.5
			c11.8-8.7,11.6-22.5,11.6-22.5v-1.9l2.2,0.7l1.5,3.6c0,0,2.6,4,12.7,8.4c1.8,0.8,3.6,1.7,5.6,2.9c9.3,5.3,19.6,13.4,20.4,15.1
			c0.1,0.2,0.2,0.5,0.3,0.9l0,0c1.1,4.3,3.3,20.3,5.4,26c1.3,3.6,3.4,5.5,4.9,6.6c1,0.7,1,0.7,0,0c1.1,0.8,1.9,1,1.9,1
			c0.2,0.9,0.3,1.8,0.5,2.6C211.7,343.8,203.4,362.4,201.5,363.7L201.5,363.7z"/>
		
			<linearGradient id="SVGID_00000062176799555541151290000012029262551008409487_" gradientUnits="userSpaceOnUse" x1="49.0086" y1="195.0196" x2="92.7086" y2="195.0196" gradientTransform="matrix(1 0 0 -1 0 502.1114)">
			<stop  offset="0" style="stop-color:#CCCCFF"/>
			<stop  offset="1" style="stop-color:#755CBB"/>
		</linearGradient>
		<path style="opacity:0.5;fill:url(#SVGID_00000062176799555541151290000012029262551008409487_);enable-background:new    ;" d="
			M92.7,311.9l-8.2,2.8l-1.3-1.5c0,0-8.1,18.6-15.5,27.7c-0.9,1.1-1.8,2.1-2.8,3.2c-2.1,2.2-4.2,4.3-6.4,6.1l-6.3-27.1L49,302.6
			c3.2-4.4,6.4-7.9,7.8-9.5c0.6-0.6,0.9-0.9,0.9-0.9s-1-3.4-1.8-6.3c0-0.1,0-0.1-0.1-0.2c0,0,0-0.1,0-0.1c0-0.1,0-0.1,0-0.1
			c-0.4-1.8-0.7-3.3-0.4-3.7c0.6-1,4.3-2.1,4.9-2.9c0.6-0.8,3.3-13.5,5.3-14.9c0,0-1.3,12.2,5.7,27.8l3.4,4.8l10,8
			C84.8,304.6,88.6,309.6,92.7,311.9L92.7,311.9z"/>
		
			<linearGradient id="SVGID_00000025417943982520709900000007526041911864469427_" gradientUnits="userSpaceOnUse" x1="47.657" y1="144.7646" x2="47.657" y2="228.6746" gradientTransform="matrix(1 0 0 -1 0 502.1114)">
			<stop  offset="0" style="stop-color:#9E8CEF"/>
			<stop  offset="1" style="stop-color:#DAC7F3"/>
		</linearGradient>
		<path style="fill:url(#SVGID_00000025417943982520709900000007526041911864469427_);" d="M68.9,334.1
			c-1.8,13.1-21.3,23.2-21.3,23.2c-4.4,0-9.2-7.6-13.6-16.9c-4.4-9.3-4.7-36.2-4.9-37.9c-0.2-1.7-2.7-5-2.9-6.4
			c-0.1-1.4,4-4.4,4-4.4l0-0.1l0-0.1c-0.4-0.9-2.9-6.1-2.7-7.1c0.2-1,4.8-3.3,4.8-3.3l0.3,5.1c0,0,10.8-2,14.4-10.4l0.6-2.6l1.8,1.2
			v11c0,0,0.4,1.7,0.9,1.7s4.8-2.1,5.6-1.8c0.9,0.3,1.8,6.2,2.9,6.9c1.2,0.8,4.3,2.9,4.8,4c0.2,0.5,0.2,2.2,0.2,4.1
			c0,2.4,0.1,5.3,0.4,6.9C65,310.4,70.6,321,68.9,334.1L68.9,334.1z"/>
		
			<linearGradient id="SVGID_00000121981039075073740070000007119912168696608671_" gradientUnits="userSpaceOnUse" x1="191.9487" y1="168.9486" x2="248.2542" y2="168.9486" gradientTransform="matrix(1 0 0 -1 0 502.1114)">
			<stop  offset="0" style="stop-color:#A999F1"/>
			<stop  offset="1" style="stop-color:#DAC7F3"/>
		</linearGradient>
		<path style="fill:url(#SVGID_00000121981039075073740070000007119912168696608671_);" d="M247.9,322.9c-0.9,1.4-5.3,4.3-6.4,5.4
			c-1.1,1.1,0,4.9,0,4.9c-18.6,19.7-37.9,29.6-39.9,30.5c-0.1,0-0.2,0.1-0.2,0.1c-11.7-7.8-10.7-20.8-6.8-31.6
			c3.7-10.4,10-19,10.3-19.4h0c0,0,0,0,0,0c0.2-0.1,3.5-1.5,5.9-1.6c0.8-0.1,1.5,0.2,2.2,0.7c1.4,0.9,2.6,2.3,3.8,1.7
			c1.7-0.9,5.5-9.9,8.1-10.1c1.8-0.2,4.3,1.7,6,2.7c0.7,0.5,1.3,0.8,1.6,0.7c1-0.2,4.2-4.1,4.4-4.2c0.2-0.1,1.7,1,1.7,1l-1,1.3
			c1.6,9.1,6.8,15.2,6.8,15.2l3.5-5.1C247.9,314.9,248.7,321.5,247.9,322.9L247.9,322.9z"/>
		<path class="st47" d="M151.9,249.4c0,0.1,0,0.3,0,0.4c0,0.3-0.1,0.5-0.2,0.8c0,0,0,0,0,0c-1.2,4.4-6,8.9-12.1,6.8
			c-6.6-2.4-19.2-29.1-19.2-29.1l1.3-5.7l30,24.4l0.3,2.3L151.9,249.4L151.9,249.4z"/>
		<g>
			<path class="st48" d="M52.2,244.5c0,0-1.8-10.1-1-17.6S51,211.1,51,211.1s-1.8-0.8-3.1,0c-1.3,0.8-4.4,8.5-3,14.7
				c1.4,6.2,0.3,21,0.3,21H43l-4.6-6.2l-2.2-0.6c0,0-12.7,12-12.5,19.1l1.7,6.4l15.7-0.5l10.2-11.7L52.2,244.5L52.2,244.5z"/>
			
				<linearGradient id="SVGID_00000029740120326165356220000004713467331231104904_" gradientUnits="userSpaceOnUse" x1="29.3286" y1="240.1316" x2="29.3286" y2="262.2554" gradientTransform="matrix(1 0 0 -1 0 502.1114)">
				<stop  offset="2.000000e-02" style="stop-color:#FFC2A9"/>
				<stop  offset="1" style="stop-color:#FF9595"/>
			</linearGradient>
			<path style="fill:url(#SVGID_00000029740120326165356220000004713467331231104904_);" d="M36.3,239.9c0,0,0.3,8,2.1,14.8
				c0,0-0.3,2.8-3.6,3l-0.8-0.9c0,0-0.6,3.2-3.5,3.4l-2.8-2.8l0.7,2.3c0,0-1,2.4-3.6,2.3c0,0-4.4-3.4-4.6-7.9l4.3-3.6v-2.8l5.1-3.6
				l0.1-2C29.8,242,32.8,239.8,36.3,239.9L36.3,239.9z"/>
			
				<linearGradient id="SVGID_00000163760152956340817010000010885717810334956688_" gradientUnits="userSpaceOnUse" x1="43.2886" y1="240.6446" x2="43.2886" y2="277.2646" gradientTransform="matrix(1 0 0 -1 0 502.1114)">
				<stop  offset="0" style="stop-color:#FFEADB"/>
				<stop  offset="0.99" style="stop-color:#C27CB6"/>
			</linearGradient>
			<path style="opacity:0.6;fill:url(#SVGID_00000163760152956340817010000010885717810334956688_);enable-background:new    ;" d="
				M51.4,224.8c0,0-0.8,1.9-1.9,2.7c-1.1,0.8-4.2,1.3-4.2,1.3l-0.1,17.9H43l-4.6-6.2c0,0,2.3,3.6,2.4,6.2l-1.8,0.9l-1.6-5.4
				l-0.7,3.9l0.7,4.8c0,0,2.7-2.3,7.6-2.4l0.7,1.3c0,0-8.8,7.3-10.9,11.6c0,0,4.4-5.5,14.3-11.7l0.9-2.9l1.3-7
				C51.5,239.9,50.4,229.8,51.4,224.8L51.4,224.8z"/>
			
				<linearGradient id="SVGID_00000134970418028858428260000015007639502670580926_" gradientUnits="userSpaceOnUse" x1="42.0854" y1="215.7246" x2="42.0854" y2="272.1846" gradientTransform="matrix(1 0 0 -1 0 502.1114)">
				<stop  offset="2.000000e-02" style="stop-color:#FFC2A9"/>
				<stop  offset="1" style="stop-color:#FF9595"/>
			</linearGradient>
			<path style="fill:url(#SVGID_00000134970418028858428260000015007639502670580926_);" d="M58.8,256c-0.8,2.5-9.4,12.7-10.4,14.9
				c-0.9,2.2-1.5,5.1-1.5,5.1c-4.2,9.1-14.4,10.4-14.4,10.4l-0.5-8.2c0,0-5.5-3.2-6.4-4.9v0l-0.1-0.3c-0.3-1.6,0-7.6,0-7.6l9.6-3.9
				c4.2-5.4,14.3-11.6,14.3-11.6l0.5-2.8c-7.3-3.6-6.1-14.4-4.8-15.7c1.2-1.3,3.5-1.3,3.5-1.3s2.7,8.7,4.4,12.8
				C54.5,246.8,59.6,253.5,58.8,256L58.8,256z"/>
			<path class="st52" d="M29.8,242c0,0,1.1,9.9,4.2,14.7c0,0-4-5-4.3-12.6L29.8,242L29.8,242z"/>
			<path class="st52" d="M24.6,247.7c0,0,1,8,6,12.5c0,0-4.4-2.2-6-9.7V247.7L24.6,247.7z"/>
			
				<linearGradient id="SVGID_00000165937928356472348500000012388835906140463019_" gradientUnits="userSpaceOnUse" x1="31.9886" y1="224.5346" x2="49.7486" y2="224.5346" gradientTransform="matrix(1 0 0 -1 0 502.1114)">
				<stop  offset="2.000000e-02" style="stop-color:#D1A1D6"/>
				<stop  offset="0.99" style="stop-color:#BD89C4"/>
			</linearGradient>
			
				<path style="opacity:0.91;fill:url(#SVGID_00000165937928356472348500000012388835906140463019_);enable-background:new    ;" d="
				M49.7,268.8c0,0-10.8,10.5-17.8,9.4l0.5,8.2c0,0,11.4-1,15.1-13C47.5,273.4,48.9,270,49.7,268.8L49.7,268.8z"/>
		</g>
		<g>
			
				<linearGradient id="SVGID_00000022518793585002163070000013953689309590940036_" gradientUnits="userSpaceOnUse" x1="249.4147" y1="181.3346" x2="249.4147" y2="256.8358" gradientTransform="matrix(1 0 0 -1 0 502.1114)">
				<stop  offset="2.000000e-02" style="stop-color:#FFC2A9"/>
				<stop  offset="1" style="stop-color:#FF9595"/>
			</linearGradient>
			<path style="fill:url(#SVGID_00000022518793585002163070000013953689309590940036_);" d="M278.8,283.1c0,0-10,18.2-21.6,23.8h-4
				l-9.2,13.9c0,0-5.9-3.7-6.4-16c0,0,2.1-2.2,2.6-4.6c0,0-3.3-2.6-4.2-4.5c-0.9-1.9-1.2-7.6-1.8-9.9s-6-7.2-7.2-7.8s-6.6-1-6.6-1
				s-0.8-2,0-2.9c0.8-0.9,9.2-4.2,13.8-1.1c0,0,0.3,2.4,0.8,3.7c0.5,1.3,4.5,5.7,5.2,5.7s3.4-2.3,4.5-4c1.1-1.7,7.3-14.9,8.7-19.3
				c0,0,0-0.1,0-0.1c0-0.1,0-0.1,0.1-0.2c0-0.1,0-0.1,0-0.1c0,0,0,0,0-0.1c1.1-3.9,7.8-11.2,11.3-13.3c0,0,1.5-0.4,2.3,1.5
				c0,0-2.8,8.1-5.8,12.9c-0.5,0.8-1,1.8-1.6,2.8h0c-2.5,4.6-5.4,10.7-5.8,11.6l0,0.1l1.6,0.8l4.3-4l4.4-4.1l10,10.6l-1,1.3l-3.1,4
				l1.6,0.3l3.7-4.1L278.8,283.1L278.8,283.1z"/>
			
				<linearGradient id="SVGID_00000014599861141933248870000001789632666173818282_" gradientUnits="userSpaceOnUse" x1="258.3336" y1="205.5246" x2="258.3336" y2="243.0346" gradientTransform="matrix(1 0 0 -1 0 502.1114)">
				<stop  offset="0" style="stop-color:#FFEADB"/>
				<stop  offset="0.99" style="stop-color:#C27CB6"/>
			</linearGradient>
			<path style="opacity:0.6;fill:url(#SVGID_00000014599861141933248870000001789632666173818282_);enable-background:new    ;" d="
				M276.4,286.9l-3.2,4.7c0,0-17.5-13.5-21.2-14.6c-3.8-1.1-5.2-0.4-5.2-0.4l-3.9,5c0,0,7.2,6.4,7.8,15c0,0-2.4-10.9-10.5-14.1
				c0.6,0,3.4-2.3,4.5-4c1.1-1.7,7.3-14.9,8.7-19.3c-0.2,0.8-0.5,2.2,0.2,3.4c0.9,1.6,5.9,0.1,6.2,0h0l-5.8,11.6l0,0.1l1.6,0.8
				l4.3-4.1l-2.1,5l15.6,2.8l-3.1,4l1.6,0.3L276.4,286.9L276.4,286.9z"/>
			
				<linearGradient id="SVGID_00000166672189539305306630000002930667062374126008_" gradientUnits="userSpaceOnUse" x1="265.7336" y1="218.4846" x2="265.7336" y2="235.2895" gradientTransform="matrix(1 0 0 -1 0 502.1114)">
				<stop  offset="0" style="stop-color:#FFB0B0"/>
				<stop  offset="0.98" style="stop-color:#FFC2A9"/>
			</linearGradient>
			<path style="fill:url(#SVGID_00000166672189539305306630000002930667062374126008_);" d="M264.3,266.8c0,0,3-0.4,5,3.5l-0.4,1.3
				c0,0,3,0.6,5.8,5.4c0,0-2.5,4.6-8.8,6.7c0,0-2.9-0.8-3.4-3.3l0.6-1.6l-2.3,1.7c0,0-2.7,0.8-3.9-3.2L264.3,266.8z"/>
			
				<linearGradient id="SVGID_00000168084681211040867280000001301663835565775005_" gradientUnits="userSpaceOnUse" x1="275.485" y1="215.8846" x2="275.485" y2="225.1046" gradientTransform="matrix(1 0 0 -1 0 502.1114)">
				<stop  offset="0" style="stop-color:#FFB0B0"/>
				<stop  offset="0.98" style="stop-color:#FFC2A9"/>
			</linearGradient>
			<path style="fill:url(#SVGID_00000168084681211040867280000001301663835565775005_);" d="M279.7,281.8c0,0,0.6-2.9-2.5-4.8
				l-6,6.6c0,0,0.2,2.1,2.8,2.6C274,286.2,278.1,284.8,279.7,281.8z"/>
			
				<linearGradient id="SVGID_00000174562871554164005190000006096376012961787061_" gradientUnits="userSpaceOnUse" x1="236.0486" y1="197.5046" x2="253.1986" y2="197.5046" gradientTransform="matrix(1 0 0 -1 0 502.1114)">
				<stop  offset="2.000000e-02" style="stop-color:#D1A1D6"/>
				<stop  offset="0.99" style="stop-color:#BD89C4"/>
			</linearGradient>
			
				<path style="opacity:0.91;fill:url(#SVGID_00000174562871554164005190000006096376012961787061_);enable-background:new    ;" d="
				M236,295.7c0,0,7,7.8,17.1,11.1l-4.4,6.7l-9.2-11.6l0.6-1.7C240.2,300.2,236.5,297.4,236,295.7L236,295.7z"/>
			<path class="st52" d="M268.8,271.6c0,0-2.9,4.8-5.8,7.2l-0.6,1.6c0,0,5.6-3.8,7.7-8.2C270.2,272.2,269.5,271.7,268.8,271.6
				L268.8,271.6z"/>
		</g>
		
			<linearGradient id="SVGID_00000118361932316864647720000017314043721693168799_" gradientUnits="userSpaceOnUse" x1="212.1864" y1="138.3134" x2="212.1864" y2="222.8246" gradientTransform="matrix(1 0 0 -1 0 502.1114)">
			<stop  offset="0" style="stop-color:#CCCCFF"/>
			<stop  offset="1" style="stop-color:#755CBB"/>
		</linearGradient>
		<path style="opacity:0.5;fill:url(#SVGID_00000118361932316864647720000017314043721693168799_);enable-background:new    ;" d="
			M247.9,322.9c-0.9,1.4-5.3,4.3-6.4,5.4c-1.1,1.1,0,4.9,0,4.9c-18.6,19.7-37.9,29.6-39.9,30.5c-0.1,0-0.2,0.1-0.2,0.1
			c-1.5,0.2-8.9-1.9-16.3-16.7c-6.7-13.4-8.6-22.3-8.9-23.9l0-0.2l1.6-2.2l2.4-27.3l1.7,5.5c6.4-7.8,12.5-19.7,12.5-19.7l0.3,0.9
			l0,0c1.1,4.3,3.3,20.3,5.4,26c1.3,3.6,3.4,5.5,4.9,6.6v0v0c-5.9,5.4-8.9,13.2-10.3,19.4c-1.3,5.7-1.4,10-1.4,10s1.6-7.7,6.8-17
			c1.9-3.4,4.6-6.4,7.3-8.9c2-1.9,4.1-3.4,5.7-4.6c1.4,0.9,2.6,2.3,3.8,1.7c-7.8,11.7-7.6,34.9-0.3,30.5c7.3-4.4,9-13.8,9-13.8
			c-1.7-11.4-1.2-24.3,0.2-26.8c1.7,0.1,6.5,3.4,6.8,3.4c-0.4,13.4,5.9,22.4,5.9,22.4l4.2-6.4c-6.1-10.2-5.6-20.2-5.6-20.2
			c0.2-0.1,1.7,1,1.7,1l-1,1.3c1.6,9.1,6.8,15.2,6.8,15.2l3.5-5.1C247.9,314.9,248.8,321.5,247.9,322.9L247.9,322.9z"/>
		
			<linearGradient id="SVGID_00000111188596238641825460000011444429382119247019_" gradientUnits="userSpaceOnUse" x1="26.1186" y1="155.34" x2="167.4686" y2="155.34" gradientTransform="matrix(1 0 0 -1 0 502.1114)">
			<stop  offset="0" style="stop-color:#CCCCFF"/>
			<stop  offset="1" style="stop-color:#755CBB"/>
		</linearGradient>
		<path style="opacity:0.5;fill:url(#SVGID_00000111188596238641825460000011444429382119247019_);enable-background:new    ;" d="
			M167.5,407v4l-0.1,0.1l-0.2,0.2l-0.2,0.1c-1.8,1.4-9.4,6.1-33.3,7.4c-28.2,1.5-47.1-7.6-47.1-7.6l1.4-3.9c0,0-1.3-1.1-1.4-1.7
			c-0.1-0.6,1-1.9,1-1.9s-2.8-1.5-2.8-3.4c0-1.7,4.6-6.7,5.4-11.3c0.1-0.5,0.1-1,0.1-1.5c-0.2-5-4.5-9.4-5.1-12.3c0,0,0,0,0,0
			c-0.6-2.8,7.4-9.9,7.4-9.9c-6.8-21.6-8.1-50.6-8.1-50.6l-1.3-1.5c0,0-8.1,18.6-15.5,27.7c-7.4,9.1-18.2,16.9-20.1,16.5
			c-4.4,0-9.2-7.6-13.6-16.9c-4.4-9.3-4.7-36.2-4.9-37.9c-0.2-1.7-2.7-5-2.9-6.4c4.7,8.1,12.3,5.8,12.3,5.8
			c-5.5,0.1-8.3-10.1-8.3-10.1l0-0.1l0-0.1l-2.7-7.1c0.3,0.3,6.6,7.3,12.6,3c6.2-4.4,9.4-13,9.4-13v11c0,0,0.4,1.7,0.9,1.7
			c-0.4,5.1-1.4,11.2-2.7,17.3c-2.8,13.1-6.7,25.8-6.7,25.8s10.4-5.7,14.1-20.1c1.8-6.9,2-12.9,1.9-17.2c-0.1-3.7-0.6-6.3-0.8-7.2
			c0-0.1,0-0.1-0.1-0.2c0,0,0-0.1,0-0.1c0,0,0,0,0,0l1,2.1l1.9,4.8c2.2,18.5-2.4,46.3-2.4,46.3c6.7-8.3,8.1-26.8,7.8-31.3
			c-0.1-2.1-0.3-4.8-0.4-6.9c-0.1-2.4-0.2-4.1-0.2-4.1l13.7,8.2l-2.5-8l10,8c0,0,9,10.8,18.2,12.1c9.2,1.3,43.1,0.5,43.1,0.5
			s-29.4,1.9-38,4.4S97.8,327,97.8,327c6.2,31.6,40.6,42.2,41.7,42.6c-31.2-4.7-45.7-31.2-45.7-31.2s-0.5,14.9,1.9,20.6
			s16.6,19.6,34.7,22.5c1.5,0.2,3,0.4,4.5,0.5c15.3,0.7,28-7.1,29.3-8c0.1,0,0.1-0.1,0.1-0.1s0,0,0,0c-0.5,0.8-6.8,9.6-32.2,10.6
			c-1.5,0.1-3,0-4.5,0h0c-23.5-1-35.5-16.7-35.5-16.7s-8.7,4.7-3.1,11.6c0.1,0.1,0.1,0.1,0.2,0.2c1.6,1.9,5.2,4.2,9.5,6.6
			c0.1,0.1,0.2,0.1,0.4,0.2c5.2,2.9,11.2,5.8,15.9,8.2c0,0,0,0,0.1,0c2.9,1.5,5.2,2.8,6.5,3.7c0,0,0,0,0,0c1.3,1,1.6,1.6,0.3,1.7
			c-6.6,0.8-31.4-4.7-32.5-3.2c-1,1.5,1.2,5.4,1.2,5.4c22.8,11.3,71.7,5.7,73.2,5.6c-40.9,10.5-74.4-2.8-74.4-2.8l1.1,3.9
			c0,0,18.2,6.3,39.7,6.8c21.5,0.5,34.9-5,34.9-5L167.5,407L167.5,407z"/>
		
			<linearGradient id="SVGID_00000081640433260814645120000007837257816359118763_" gradientUnits="userSpaceOnUse" x1="150.7286" y1="178.9946" x2="177.7486" y2="178.9946" gradientTransform="matrix(1 0 0 -1 0 502.1114)">
			<stop  offset="0" style="stop-color:#CCEDFF"/>
			<stop  offset="1" style="stop-color:#755CBB"/>
		</linearGradient>
		<path style="opacity:0.5;fill:url(#SVGID_00000081640433260814645120000007837257816359118763_);enable-background:new    ;" d="
			M150.7,317c0,0,16.3,0.9,27,3.7l-5.5,8.4C172.2,329.2,163.9,321.8,150.7,317L150.7,317z"/>
		
			<linearGradient id="SVGID_00000056425872770098844780000011698095813868964502_" gradientUnits="userSpaceOnUse" x1="126.2186" y1="131.5868" x2="165.9286" y2="131.5868" gradientTransform="matrix(1 0 0 -1 0 502.1114)">
			<stop  offset="0" style="stop-color:#CCEDFF"/>
			<stop  offset="1" style="stop-color:#755CBB"/>
		</linearGradient>
		<path style="opacity:0.5;fill:url(#SVGID_00000056425872770098844780000011698095813868964502_);enable-background:new    ;" d="
			M165.9,361.9c0,0-10.1,8.5-20.1,12.4c-10,3.9-19.6,4.3-19.6,4.3s5.7,1.7,19.9-0.6c14.1-2.3,19-9.9,19-9.9L165.9,361.9L165.9,361.9
			z"/>
		
			<linearGradient id="SVGID_00000070798777531404249980000012423747014256167095_" gradientUnits="userSpaceOnUse" x1="128.0574" y1="113.6249" x2="170.4786" y2="113.6249" gradientTransform="matrix(1 0 0 -1 0 502.1114)">
			<stop  offset="0" style="stop-color:#CCEDFF"/>
			<stop  offset="1" style="stop-color:#755CBB"/>
		</linearGradient>
		<path style="opacity:0.5;fill:url(#SVGID_00000070798777531404249980000012423747014256167095_);enable-background:new    ;" d="
			M170.5,394.5L170.5,394.5c-18.8,4.9-42.6-2.1-42.4-3s6.5,0.4,21.2-2.6c14.2-2.9,19.4-7.9,19.7-8.2c-0.1,0.9-2.1,2.8-2.6,4.8
			C165.9,386.9,168.6,391.3,170.5,394.5z"/>
		
			<linearGradient id="SVGID_00000178193700187494025950000007382973392790213504_" gradientUnits="userSpaceOnUse" x1="91.5486" y1="158.0746" x2="91.5486" y2="205.6846" gradientTransform="matrix(1 0 0 -1 0 502.1114)">
			<stop  offset="0" style="stop-color:#CCEDFF"/>
			<stop  offset="1" style="stop-color:#755CBB"/>
		</linearGradient>
		<path style="opacity:0.5;fill:url(#SVGID_00000178193700187494025950000007382973392790213504_);enable-background:new    ;" d="
			M119.5,319.6c-16,1.6-20.4,6.1-20.4,6.1c-4.5,0.6-14.6-11-14.6-11l-1.3-1.5c0,0-8.1,18.6-15.5,27.7c-0.9,1.1-1.8,2.1-2.8,3.2
			l1.1-2.4c0,0,1.7-0.8,2.2-9.9c0.5-9-3.8-22.5-3.8-24.3c0-1.8-0.7-11.1-0.7-11.1l13.7,8.2l-2.5-8l10,8c0,0,3.9,5.9,13.8,10.8
			C107.9,320,118.3,319.6,119.5,319.6z"/>
		
			<linearGradient id="SVGID_00000090995994313579016000000008026432367178338714_" gradientUnits="userSpaceOnUse" x1="95.3886" y1="154.0746" x2="95.3886" y2="190.1646" gradientTransform="matrix(1 0 0 -1 0 502.1114)">
			<stop  offset="0" style="stop-color:#CCEDFF"/>
			<stop  offset="1" style="stop-color:#755CBB"/>
		</linearGradient>
		<path style="opacity:0.5;fill:url(#SVGID_00000090995994313579016000000008026432367178338714_);enable-background:new    ;" d="
			M83.1,313.2l9.6-1.2c0,0,3.8,2.5,11.5,5.6l-6.4,9.4c0,0,2.5,13.4,9.8,21c0,0-19.3-10.7-22-19.8L83.1,313.2L83.1,313.2z"/>
		
			<linearGradient id="SVGID_00000174583011839631815550000000580311504866086284_" gradientUnits="userSpaceOnUse" x1="38.3436" y1="200.2072" x2="38.3436" y2="227.4746" gradientTransform="matrix(1 0 0 -1 0 502.1114)">
			<stop  offset="0" style="stop-color:#CCEDFF"/>
			<stop  offset="1" style="stop-color:#755CBB"/>
		</linearGradient>
		<path style="opacity:0.5;fill:url(#SVGID_00000174583011839631815550000000580311504866086284_);enable-background:new    ;" d="
			M27.4,284.6l2.7,7.2c0,0,2.8,9.7,8.3,10.1s10.9-16.3,10.9-16.3v-11c0,0-5.9,12.6-12.2,14C30.7,290.1,27.4,284.6,27.4,284.6z"/>
		
			<linearGradient id="SVGID_00000145052173286739903200000005503215378230195597_" gradientUnits="userSpaceOnUse" x1="60.4086" y1="224.2196" x2="71.3986" y2="224.2196" gradientTransform="matrix(1 0 0 -1 0 502.1114)">
			<stop  offset="0" style="stop-color:#CCEDFF"/>
			<stop  offset="1" style="stop-color:#755CBB"/>
		</linearGradient>
		<path style="opacity:0.5;fill:url(#SVGID_00000145052173286739903200000005503215378230195597_);enable-background:new    ;" d="
			M60.4,278.9c0,0,4.9,9.9,11,12.9c0,0-7.2-17.5-5.7-27.8C65.7,264,63.1,265.6,60.4,278.9L60.4,278.9z"/>
		
			<linearGradient id="SVGID_00000063632720635271841880000007459514284845401271_" gradientUnits="userSpaceOnUse" x1="179.8636" y1="158.0746" x2="179.8636" y2="208.6146" gradientTransform="matrix(1 0 0 -1 0 502.1114)">
			<stop  offset="0" style="stop-color:#CCCCFF"/>
			<stop  offset="1" style="stop-color:#755CBB"/>
		</linearGradient>
		<path style="opacity:0.76;fill:url(#SVGID_00000063632720635271841880000007459514284845401271_);enable-background:new    ;" d="
			M180.2,293.5l1.7,5.5l1.7,45c0,0-4.4-8.6-7.4-20.8l1.6-2.4C177.7,320.8,180.4,303.8,180.2,293.5L180.2,293.5z"/>
		
			<linearGradient id="SVGID_00000022549806644178926460000003971136268706362781_" gradientUnits="userSpaceOnUse" x1="236.6862" y1="168.9446" x2="236.6862" y2="195.3546" gradientTransform="matrix(1 0 0 -1 0 502.1114)">
			<stop  offset="0" style="stop-color:#CCCCFF"/>
			<stop  offset="1" style="stop-color:#755CBB"/>
		</linearGradient>
		<path style="opacity:0.5;fill:url(#SVGID_00000022549806644178926460000003971136268706362781_);enable-background:new    ;" d="
			M232.5,306.8c0,0-1,22.1,8.4,24l0.5,2.4C241.4,333.2,229.2,332.7,232.5,306.8L232.5,306.8z"/>
		
			<linearGradient id="SVGID_00000151504662991919282730000002280274590591541417_" gradientUnits="userSpaceOnUse" x1="206.7336" y1="170.1246" x2="206.7336" y2="190.3146" gradientTransform="matrix(1 0 0 -1 0 502.1114)">
			<stop  offset="0" style="stop-color:#CCCCFF"/>
			<stop  offset="1" style="stop-color:#755CBB"/>
		</linearGradient>
		<path style="opacity:0.3;fill:url(#SVGID_00000151504662991919282730000002280274590591541417_);enable-background:new    ;" d="
			M216.8,313.5c0,0-0.4,0.8-3.8-1.7c0,0-11.8,8.4-16.4,20.2c0,0,7.3-10.9,11.2-12c3.9-1.2,4.8,3.2,4.8,3.2S214.2,317,216.8,313.5
			L216.8,313.5z"/>
		
			<linearGradient id="SVGID_00000072267199739653871510000008430317888545940902_" gradientUnits="userSpaceOnUse" x1="32.6366" y1="198.4669" x2="32.6366" y2="205.9646" gradientTransform="matrix(1 0 0 -1 0 502.1114)">
			<stop  offset="0" style="stop-color:#CCEDFF"/>
			<stop  offset="1" style="stop-color:#755CBB"/>
		</linearGradient>
		<path style="opacity:0.5;fill:url(#SVGID_00000072267199739653871510000008430317888545940902_);enable-background:new    ;" d="
			M26.1,296.1c0,0,4.6,8.4,13.1,5.8c0,0-5.1,3.4-10.2,0.6C29,302.5,25.8,297.1,26.1,296.1z"/>
		
			<linearGradient id="SVGID_00000114060316247269838540000009629213521880225188_" gradientUnits="userSpaceOnUse" x1="52.6655" y1="175.6046" x2="52.6655" y2="216.5846" gradientTransform="matrix(1 0 0 -1 0 502.1114)">
			<stop  offset="0" style="stop-color:#CCCCFF"/>
			<stop  offset="1" style="stop-color:#755CBB"/>
		</linearGradient>
		<path style="opacity:0.5;fill:url(#SVGID_00000114060316247269838540000009629213521880225188_);enable-background:new    ;" d="
			M55.9,285.5c0,0,6.3,23.4-10.1,41c0,0,10.6-5.4,13-18C61.3,295.9,55.9,285.5,55.9,285.5L55.9,285.5z"/>
		
			<linearGradient id="SVGID_00000170275571566191714100000011050913322064919719_" gradientUnits="userSpaceOnUse" x1="158.0898" y1="204.4546" x2="158.0898" y2="235.2946" gradientTransform="matrix(1 0 0 -1 0 502.1114)">
			<stop  offset="0" style="stop-color:#CCEDFF"/>
			<stop  offset="1" style="stop-color:#755CBB"/>
		</linearGradient>
		<path style="opacity:0.5;fill:url(#SVGID_00000170275571566191714100000011050913322064919719_);enable-background:new    ;" d="
			M168.1,266.8c0,0-0.7,10.6-5.8,18.1c-5.1,7.6-15.1,12.7-15.1,12.7s12.6-4.6,18.4-11.2C171.3,279.9,168.1,266.8,168.1,266.8
			L168.1,266.8z"/>
		
			<linearGradient id="SVGID_00000076564565420369121080000014709727129386845073_" gradientUnits="userSpaceOnUse" x1="117.6903" y1="208.6146" x2="117.6903" y2="251.1746" gradientTransform="matrix(1 0 0 -1 0 502.1114)">
			<stop  offset="0" style="stop-color:#CCEDFF"/>
			<stop  offset="1" style="stop-color:#755CBB"/>
		</linearGradient>
		<path style="opacity:0.5;fill:url(#SVGID_00000076564565420369121080000014709727129386845073_);enable-background:new    ;" d="
			M103.6,250.9c0,0,0,8.8,2.8,17.8s27.5,24.7,27.5,24.7s-25.4-10.6-30.4-20.1S103.6,250.9,103.6,250.9z"/>
		
			<linearGradient id="SVGID_00000155834721572266968560000007438849150612151445_" gradientUnits="userSpaceOnUse" x1="103.3186" y1="200.8384" x2="174.4086" y2="200.8384" gradientTransform="matrix(1 0 0 -1 0 502.1114)">
			<stop  offset="0" style="stop-color:#8642A0"/>
			<stop  offset="1" style="stop-color:#6456C0"/>
		</linearGradient>
		<path style="fill:url(#SVGID_00000155834721572266968560000007438849150612151445_);" d="M103.3,293v14.4c0,0,33.1-0.3,70.2,2.2
			l0.9-12.9C174.4,296.6,142.1,292.8,103.3,293L103.3,293z"/>
		<g>
			<path class="st76" d="M109.5,296.3c0-0.2,0.1-0.4,0.4-0.4l6.7,0.2c0.7,0,1.2,0.1,1.7,0.3c0.5,0.2,0.8,0.4,1.1,0.8
				s0.5,0.7,0.6,1.1c0.1,0.4,0.2,0.9,0.1,1.5l-0.1,1.8c0,0.5-0.1,1-0.2,1.5c-0.1,0.4-0.4,0.8-0.7,1.1c-0.3,0.3-0.7,0.5-1.1,0.7
				c-0.5,0.1-1,0.2-1.7,0.2l-3.6-0.1l-0.8-2.1h-0.1l-0.1,2.1l-2.5-0.1L109.5,296.3L109.5,296.3z M111.8,302.6l4.3,0.1
				c0.5,0,0.8-0.1,1-0.3c0.2-0.2,0.3-0.6,0.3-1.1l0-1.5c0-0.6-0.1-0.9-0.3-1.1c-0.2-0.2-0.5-0.3-1-0.3l-4.1-0.1c-0.1,0-0.1,0-0.1,0
				c0,0,0,0.1,0,0.1L111.8,302.6L111.8,302.6z"/>
			<path class="st76" d="M123.7,300.1L123.7,300.1l-0.2,2.7c0,0.1,0,0.2,0.2,0.2l7.5,0.2l-0.1,2.3l-9.9-0.3c-0.2,0-0.4-0.1-0.4-0.4
				l0.2-8.2c0-0.2,0.1-0.4,0.4-0.4l9.6,0.3c0.2,0,0.4,0.1,0.4,0.4l-0.1,2.3l-2.4,0.8H129l0-1.2c0-0.1,0-0.1-0.1-0.1l-5.1-0.1
				c-0.1,0-0.1,0-0.1,0c0,0,0,0.1,0,0.1l0,1.1l4.2,0.1l-0.1,1.8l-3.5-0.1L123.7,300.1L123.7,300.1z"/>
			<path class="st76" d="M140.5,299.9h-0.1l0-1c0-0.1,0-0.1-0.1-0.1l-4.7-0.1c-0.2,0-0.3,0-0.4,0.1c-0.1,0.1-0.1,0.2-0.1,0.3v0.2
				c0,0.2,0,0.3,0.1,0.3c0.1,0.1,0.2,0.1,0.3,0.1l5.5,0.9c0.4,0.1,0.6,0.1,0.9,0.2c0.2,0.1,0.4,0.2,0.6,0.4c0.1,0.2,0.2,0.4,0.3,0.6
				s0.1,0.5,0.1,0.9l0,0.7c0,0.4-0.1,0.7-0.2,1s-0.2,0.5-0.5,0.7s-0.5,0.3-0.8,0.4c-0.3,0.1-0.8,0.1-1.2,0.1l-8-0.2l0.1-2.3l7.1,0.2
				c0.2,0,0.4,0,0.4-0.1c0.1-0.1,0.1-0.2,0.1-0.4v-0.2c0-0.2,0-0.3-0.1-0.3s-0.1-0.1-0.3-0.1l-5.3-0.8c-0.4-0.1-0.7-0.1-0.9-0.2
				c-0.2-0.1-0.5-0.2-0.6-0.4c-0.2-0.2-0.3-0.4-0.3-0.6c-0.1-0.2-0.1-0.5-0.1-0.9l0-0.6c0-0.6,0.2-1.1,0.6-1.5
				c0.4-0.4,0.9-0.5,1.7-0.5l8,0.2c0.2,0,0.4,0.1,0.4,0.4l-0.1,1.8L140.5,299.9L140.5,299.9z"/>
			<path class="st76" d="M143.8,305.9l0.3-8.9l2.5,0.1l-0.3,8.9L143.8,305.9z"/>
			<path class="st76" d="M155.7,302.4c0-0.1,0-0.3,0-0.4c0-0.1,0-0.3,0-0.4v-0.1l2.5,0.1l-0.1,4.4c0,0.2-0.1,0.3-0.3,0.3l-6.7-0.2
				c-0.7,0-1.2-0.1-1.7-0.3s-0.8-0.4-1.1-0.8s-0.5-0.7-0.6-1.1c-0.1-0.4-0.2-0.9-0.1-1.5l0.1-1.8c0-0.5,0.1-1,0.2-1.5
				c0.1-0.4,0.4-0.8,0.7-1.1c0.3-0.3,0.7-0.5,1.1-0.7c0.5-0.1,1-0.2,1.7-0.2l6.7,0.2c0.2,0,0.4,0.1,0.4,0.4l-0.1,1.9l-2.4,0.8h-0.1
				l0-0.9c0-0.1,0-0.1-0.1-0.1l-4.3-0.1c-0.2,0-0.5,0-0.6,0c-0.2,0-0.3,0.1-0.4,0.2c-0.1,0.1-0.2,0.2-0.2,0.4c0,0.2-0.1,0.4-0.1,0.7
				l0,1.6c0,0.5,0.1,0.9,0.3,1.1c0.2,0.2,0.5,0.3,1,0.4l4.2,0.1c0.1,0,0.1,0,0.1-0.1L155.7,302.4L155.7,302.4z"/>
			<path class="st76" d="M163.6,297.5c0.2,0,0.3,0,0.4,0.1s0.1,0.1,0.2,0.3l3.2,6.5c0,0.1,0.1,0.1,0.2,0.1h0.1c0.1,0,0.2,0,0.2-0.2
				l0.2-6.7l2.3,0.1l-0.3,8.6c0,0.2-0.1,0.4-0.4,0.3l-3.6-0.1c-0.2,0-0.3,0-0.4-0.1c-0.1,0-0.2-0.1-0.2-0.3l-3.3-6.5
				c0-0.1-0.1-0.1-0.2-0.1h-0.1c-0.1,0-0.2,0.1-0.2,0.2l-0.2,6.7l-2.3-0.1l0.3-8.6c0-0.2,0.1-0.4,0.4-0.4L163.6,297.5L163.6,297.5z"
				/>
		</g>
		
			<linearGradient id="SVGID_00000119805534592449380450000003013801498799729572_" gradientUnits="userSpaceOnUse" x1="109.4486" y1="241.8546" x2="155.7086" y2="241.8546" gradientTransform="matrix(1 0 0 -1 0 502.1114)">
			<stop  offset="0" style="stop-color:#CCCCFF"/>
			<stop  offset="1" style="stop-color:#755CBB"/>
		</linearGradient>
		<path style="opacity:0.5;fill:url(#SVGID_00000119805534592449380450000003013801498799729572_);enable-background:new    ;" d="
			M155.7,252.8c-0.8,9.3-3.6,15.8-6.6,20.2c-4.2,6-8.7,8-8.7,8c-4.5-2-8.4-4.4-11.8-7.1c-14.3-11.4-18.9-27.2-19.2-28.5
			c6,14.5,14.9,23.4,21.6,28.3c5.4,4,9.4,5.5,9.4,5.5v-4.6c-1.1-0.4-2.1-0.9-3.1-1.4c-11.8-5.9-18-18.4-20.9-26.4c0,0,0,0,0-0.1
			c-1.6-4.3-2.2-7.4-2.2-7.4h2.1l-0.7,1.5l0,0.1c0.3,1.5,0.7,3,1.2,4.4c0,0,0,0.1,0,0.1c6.6,20.8,23.6,27.5,23.6,27.5
			c11.8-8.7,11.6-22.5,11.6-22.5v-1.9l2.2,0.7L155.7,252.8L155.7,252.8z"/>
		
			<linearGradient id="SVGID_00000093883010146225389680000013565878791514983606_" gradientUnits="userSpaceOnUse" x1="228.3629" y1="171.9546" x2="228.3629" y2="198.7246" gradientTransform="matrix(1 0 0 -1 0 502.1114)">
			<stop  offset="0" style="stop-color:#CCCCFF"/>
			<stop  offset="1" style="stop-color:#755CBB"/>
		</linearGradient>
		<path style="opacity:0.3;fill:url(#SVGID_00000093883010146225389680000013565878791514983606_);enable-background:new    ;" d="
			M225.7,303.4c0,0-3.2,10.5-0.2,26.8c0,0,1.5-20.6,2.6-22.4c1.1-1.8,4.3-1,4.3-1S227.5,304,225.7,303.4L225.7,303.4z"/>
		
			<linearGradient id="SVGID_00000060021451839947107330000006225543569866921106_" gradientUnits="userSpaceOnUse" x1="190.5286" y1="141.7546" x2="190.5286" y2="222.8246" gradientTransform="matrix(1 0 0 -1 0 502.1114)">
			<stop  offset="0" style="stop-color:#CCCCFF"/>
			<stop  offset="1" style="stop-color:#755CBB"/>
		</linearGradient>
		<path style="opacity:0.5;fill:url(#SVGID_00000060021451839947107330000006225543569866921106_);enable-background:new    ;" d="
			M194.6,360.4c-2.8-2.5-6.2-6.5-9.5-13.2c-6.7-13.4-8.6-22.3-8.9-23.9l1.6-2.4l2.1-20.6l2-1.2c0,0,7.1-7.9,12.5-19.7
			c0.1,0.2,0.2,0.5,0.3,0.9l0,0c1.1,4.3,3.3,20.3,5.4,26c1.3,3.6,3.4,5.5,4.9,6.6c0,0-12.3,18.3-12.9,31.3
			C191.5,355.9,194.1,359.8,194.6,360.4L194.6,360.4z"/>
		
			<linearGradient id="SVGID_00000049211999437391206900000015098794395371811732_" gradientUnits="userSpaceOnUse" x1="103.3686" y1="103.6746" x2="103.3686" y2="126.9146" gradientTransform="matrix(1 0 0 -1 0 502.1114)">
			<stop  offset="0" style="stop-color:#CCCCFF"/>
			<stop  offset="1" style="stop-color:#755CBB"/>
		</linearGradient>
		<path style="opacity:0.5;fill:url(#SVGID_00000049211999437391206900000015098794395371811732_);enable-background:new    ;" d="
			M121.5,398.4c0,0-22.2-3.6-31.2-9.5c0,0,0,0,0,0c0.1-0.5,0.1-1,0.1-1.5c-0.2-5-4.5-9.4-5.1-12.3c0.1,0.3,0.8,1.8,3.9,4.5
			c2,1.7,5,3.9,9.5,6.6c0.1,0.1,0.2,0.1,0.4,0.2c6.4,3.8,11.9,6.3,15.9,8.2c0,0,0,0,0.1,0C118.5,396.4,120.9,397.5,121.5,398.4
			C121.5,398.4,121.5,398.4,121.5,398.4L121.5,398.4z"/>
		
			<linearGradient id="SVGID_00000005224996006626140000000012016837990947798939_" gradientUnits="userSpaceOnUse" x1="148.5136" y1="110.0585" x2="148.5136" y2="121.3446" gradientTransform="matrix(1 0 0 -1 0 502.1114)">
			<stop  offset="0" style="stop-color:#CCCCFF"/>
			<stop  offset="1" style="stop-color:#755CBB"/>
		</linearGradient>
		<path style="opacity:0.5;fill:url(#SVGID_00000005224996006626140000000012016837990947798939_);enable-background:new    ;" d="
			M169,380.8c-0.1,0.9-2.1,2.8-2.6,4.8c0,0-8.1,8.6-38.3,6c0.2-0.9,6.5,0.4,21.2-2.6C163.5,386.1,168.7,381.1,169,380.8z"/>
		<path class="st82" d="M174,264.1l-19.3,6.2l-5.6,2.6h0l-3.7,0h-5l-3.1,0.3l-1.6,0.1l-4.7,0.4l-2.4,0.2l-23.1-8.4l-4.1-1.5l-19-6.9
			c0.6-0.2,1.1-0.4,1.7-0.7c12.8-5.1,25.3-11.2,25.3-11.2l4.8-5.9h2.1c1.9-4.2,3.2-8.1,4-11.2l1.3-5.7c0.1-0.6,0.1-0.9,0.1-0.9
			l6.8,3.6l22.9,18.3c0,1.2,0,2.4,0.1,3.3l0.3,2.3c0.1-0.4,0.1-0.7,0.1-0.7l2.2,0.7l1.5,3.6c0,0,2.6,4,12.7,8.4
			C170.2,262.1,172,263,174,264.1L174,264.1z"/>
		<g>
			
				<linearGradient id="SVGID_00000173844716319456098340000017785291311221673900_" gradientUnits="userSpaceOnUse" x1="148.0161" y1="255.1227" x2="148.0161" y2="332.3297" gradientTransform="matrix(1 0 0 -1 0 502.1114)">
				<stop  offset="2.000000e-02" style="stop-color:#FFC2A9"/>
				<stop  offset="1" style="stop-color:#FF9595"/>
			</linearGradient>
			<path style="fill:url(#SVGID_00000173844716319456098340000017785291311221673900_);" d="M159.3,246.6c0,0-9,2-18.9-2.8
				s-18.2-18.9-18.8-22.5c-0.5-3.5,3.8-12.8,3.8-20s-3.5-19.6,2.4-26.3c5.9-6.7,33.2-7.7,42.1,0.9c0,0,2.7,6.9,2.7,10.8
				c0,0.9-0.2,2.3-0.4,3.9c-0.1,0.6-0.2,1.2-0.3,1.9c-0.8,4.7-1.9,10.5-1.4,13c0.2,0.9,0.5,1.7,0.8,2.5l0,0c1.1,2.5,2.7,4.5,3,6.7
				C174.8,217.5,170.9,237.7,159.3,246.6L159.3,246.6z"/>
			
				<linearGradient id="SVGID_00000150809083910125128240000014398335885015958460_" gradientUnits="userSpaceOnUse" x1="119.2315" y1="286.271" x2="119.2315" y2="309.0346" gradientTransform="matrix(1 0 0 -1 0 502.1114)">
				<stop  offset="2.000000e-02" style="stop-color:#FFC2A9"/>
				<stop  offset="1" style="stop-color:#FF9595"/>
			</linearGradient>
			<path style="fill:url(#SVGID_00000150809083910125128240000014398335885015958460_);" d="M125.4,199.3c0,0-2.5-6.1-8.6-6.2
				c0,0-3.6,1.4-4.2,4.2c0,0,1.3,9.9,2.8,14.6c1.5,4.6,7.1,4,7.1,4S127.4,208.4,125.4,199.3L125.4,199.3z"/>
			
				<linearGradient id="SVGID_00000014630263587917801460000018299083502581384612_" gradientUnits="userSpaceOnUse" x1="158.7362" y1="277.667" x2="159.6862" y2="282.637" gradientTransform="matrix(1 0 0 -1 0 502.1114)">
				<stop  offset="0" style="stop-color:#E1616A"/>
				<stop  offset="1" style="stop-color:#FF8883"/>
			</linearGradient>
			<path style="fill:url(#SVGID_00000014630263587917801460000018299083502581384612_);" d="M149,219.6c0,0,2-0.2,2.9,0.5
				s4.1,3.8,8.2,4.6c4.1,0.9,6.8-2.6,7.7-2.8c0.9-0.2,1.8,1.1,1.8,1.1s-0.4-1.4-2.5-2.1c0,0-0.9,3.3-6.8,2.1
				c-5.9-1.1-8.4-3.7-8.4-3.7l-0.3-0.5C151.7,218.8,150,219.1,149,219.6L149,219.6z"/>
			
				<linearGradient id="SVGID_00000089532235945179622310000005074581720342115003_" gradientUnits="userSpaceOnUse" x1="150.1236" y1="281.4546" x2="150.1236" y2="331.2046" gradientTransform="matrix(1 0 0 -1 0 502.1114)">
				<stop  offset="0" style="stop-color:#FFEADB"/>
				<stop  offset="0.99" style="stop-color:#C27CB6"/>
			</linearGradient>
			<path style="opacity:0.6;fill:url(#SVGID_00000089532235945179622310000005074581720342115003_);enable-background:new    ;" d="
				M140.3,189l0.1-0.6c0,0,5.9-10.3,17.5-10.6s14.3,7,14.3,7l2.2-3.3l-4.9-10l-34.2-0.6l-8.3,6.7l-1,16.5l3.7,21.7l9,4.8l2.5-2.3
				c-0.9-7.3-6.4-13.9-6.4-13.9l4-2.7c0,0,10.1,4.9,16,3.4c0,0,4.4-12.9,4.1-22.4C158.9,182.8,143.8,185,140.3,189L140.3,189z"/>
			<path class="st87" d="M139.8,189.7c0,0,0.6-3.7,6.9-5.2c7-1.7,12.7-3.1,12.7-3.1s-1.2,4.1-3.6,5.6c0,0-7.4-0.3-11.1,0.6
				C140.9,188.5,139.8,189.7,139.8,189.7L139.8,189.7z"/>
			<path class="st87" d="M172.2,184.7c0,0-3.5,2.7-6,9.3c0,0,2.3-3,4.5-3c1.5,0,1.2,1.5,1.2,1.5S173.4,188.6,172.2,184.7
				L172.2,184.7z"/>
			
				<linearGradient id="SVGID_00000175301907913231092030000010511292412789458864_" gradientUnits="userSpaceOnUse" x1="147.7086" y1="301.8446" x2="147.7086" y2="311.6946" gradientTransform="matrix(1 0 0 -1 0 502.1114)">
				<stop  offset="0" style="stop-color:#CF6074"/>
				<stop  offset="1" style="stop-color:#F37270"/>
			</linearGradient>
			<path style="fill:url(#SVGID_00000175301907913231092030000010511292412789458864_);" d="M142.2,200.3c0,0,0.4-7.9,8-9.8
				c0,0,2.8,3.6,3,7.6C153.2,198,149.2,197.2,142.2,200.3z"/>
			
				<linearGradient id="SVGID_00000165194908974399783250000004765813914204373658_" gradientUnits="userSpaceOnUse" x1="167.3676" y1="298.7146" x2="167.3676" y2="307.2846" gradientTransform="matrix(1 0 0 -1 0 502.1114)">
				<stop  offset="0" style="stop-color:#CF6074"/>
				<stop  offset="1" style="stop-color:#FF817F"/>
			</linearGradient>
			<path style="fill:url(#SVGID_00000165194908974399783250000004765813914204373658_);" d="M164.1,203.4c0,0,0.6-6.3,4.2-8.6
				c0,0,2.5,1.8,2.2,7.1C170.6,201.9,168.4,201.1,164.1,203.4L164.1,203.4z"/>
			<path class="st90" d="M142.2,200.3c0,0,2.5,3.1,9.5,3.7c0,0,1.3-2,1.2-6C152.8,197.9,146.4,197.3,142.2,200.3L142.2,200.3z"/>
			<path class="st90" d="M164.1,203.4v0.9c0,0,1.1,2.2,4.9,2.6c0,0,1.2-1.9,1.4-5.1C170.4,201.9,168,201.3,164.1,203.4L164.1,203.4z
				"/>
			<path class="st91" d="M149.6,197.8c0,0-1.8,2.2-1.6,5.6c0,0,2.3,0.6,3.6,0.6c0,0,1.5-2.1,1.2-6
				C152.8,197.9,150.8,197.5,149.6,197.8L149.6,197.8z"/>
			<path class="st91" d="M167.8,202c0,0-1,1.1-1.2,4.4c0,0,1.4,0.6,2.5,0.6c0,0,1.4-2,1.4-5.1C170.4,201.9,169.4,201.5,167.8,202z"
				/>
			<path class="st87" d="M149,203.6c0,0-0.6-4.2,1.8-5.9l2,0.2c0,0,0.7,3.4-1.2,6C151.6,203.9,149.7,203.7,149,203.6L149,203.6z"/>
			<path class="st87" d="M168.7,201.8c0,0-0.9,1.9-1.3,4.8c0,0,0.7,0.3,1.7,0.3c0,0,1.4-1.7,1.4-5.1
				C170.4,201.9,169.4,201.6,168.7,201.8z"/>
			<path class="st92" d="M142.2,200.3c0,0,4.6-2.7,12.5-1.2l-1.5-1.1C153.2,198,147.6,196.2,142.2,200.3z"/>
			<path class="st92" d="M164.1,203.4c0,0,3.7-2,8.1-0.9l-1.8-1.3C170.4,201.1,167.5,200.7,164.1,203.4z"/>
			<path class="st0" d="M147.2,200.3c0,0,1.3-0.3,2.4,0.9C149.6,201.1,148,201.6,147.2,200.3z"/>
			<path class="st0" d="M165.8,203.9c0,0,2-0.4,2.7,0.5C168.5,204.5,167.4,205.2,165.8,203.9z"/>
			<path class="st93" d="M142.6,200.7c0,0,3.6,3.6,9.4,4.4l0.1-2.1l-0.5,0.9C151.6,203.9,146.1,203.6,142.6,200.7L142.6,200.7z"/>
			<path class="st93" d="M164.1,204.3c0,0,0.6,2.3,5.3,3.4l-0.1-1.1l-0.3,0.4C169.1,206.9,165.7,206.5,164.1,204.3z"/>
			<path class="st94" d="M154.7,213.5c0,0,1.8-0.4,5,0c3.2,0.4,6.8,1.3,8.8,0c0,0-2.6,2.6-4.9,3c-2.3,0.4-5.8-1.6-5.8-1.6l-1.5,0
				C156.3,215,155.2,214.4,154.7,213.5L154.7,213.5z"/>
			<path class="st95" d="M156.6,215c0,0,0.8-0.5,1.5-0.4c0.7,0.1,1.3,1.1,1.3,1.1S158,215,156.6,215z"/>
			<path class="st96" d="M168.5,213.5c0.8-0.8-3.5-8.6-5.6-8.9c-2.1-0.3-4,8.7-4,8.7s2.9,0.4,5.7,0.8
				C167.4,214.5,168.5,213.5,168.5,213.5L168.5,213.5z"/>
			
				<linearGradient id="SVGID_00000145774697934520186630000010766624483146975880_" gradientUnits="userSpaceOnUse" x1="168.167" y1="293.7246" x2="168.167" y2="313.0179" gradientTransform="matrix(1 0 0 -1 0 502.1114)">
				<stop  offset="0" style="stop-color:#FFEADB"/>
				<stop  offset="0.99" style="stop-color:#C27CB6"/>
			</linearGradient>
			<path style="opacity:0.6;fill:url(#SVGID_00000145774697934520186630000010766624483146975880_);enable-background:new    ;" d="
				M171.6,189.1c-1.2-0.1-5.4,4.9-5.4,4.9s-2.6,8.2-2.1,10.6c0.5,2.4,7,3.7,7,3.7l0.3-0.4l0,0c-0.3-0.8-0.6-1.6-0.8-2.5
				c-0.5-2.5,0.6-8.3,1.4-13c0,0,0.3-1,0.3-1.9C172.3,189.9,172.2,189.2,171.6,189.1L171.6,189.1z"/>
			
				<linearGradient id="SVGID_00000033343879080572749620000006520888014386762170_" gradientUnits="userSpaceOnUse" x1="149.0522" y1="254.1517" x2="149.0522" y2="347.7846" gradientTransform="matrix(1 0 0 -1 0 502.1114)">
				<stop  offset="0" style="stop-color:#2E33A0"/>
				<stop  offset="1" style="stop-color:#0665A5"/>
			</linearGradient>
			<path style="fill:url(#SVGID_00000033343879080572749620000006520888014386762170_);" d="M171.4,222.4c-1.3-2.8-0.5-4.2-12.1-5.7
				c-16.4-2.1-17.8,2.8-20.5,2.1c-0.1,0-0.2-0.1-0.3-0.1c-3-1.2-10.1-8.1-10.3-17.5c-0.2-9.8,6.4-16.7,6.4-16.7
				c-2.4-2-3.3-7.8-0.8-10.2c2.6-2.5,6.9-1.9,17.6-0.8c10.7,1.1,10.7,0.5,10.7,0.5c3.4,0.9,5.4,4.1,5.9,5.1c0.1,0.2,0.2,0.3,0.2,0.3
				l1.3-1.2c3.6,5.2,2.9,10.9,2.9,10.9s5.9-11.9,5.2-13.6c-1.2-3.1-4.6-7.7-4.8-8h0c0,0-1-9.1-3.8-9.1s-15,2.7-15,2.7
				c1.3-3.1,1.1-6.7,1.1-6.7l0,0.1c-4,3.6-7.8,3.9-13.3,6.5c-2.8,1.3-4.1,2.5-5.1,3.7l-0.4,0.4l-0.4,0.5c-0.4,0.5-0.8,1-1.2,1.5
				c0,0,0,0.1-0.1,0.1l0,0c-0.4,0.5-1,1-1.6,1.5c-3.6,2.9-11.5,4.9-12.5,8c-1,3.1,1.2,7.3,2.3,11.7c1.1,4.4,0.6,8.2,0.6,8.2
				s3.8,4.9,2.5,12c-1.1,6.4-3.5,7.4-3.5,7.4c-1.7,3.5-0.9,6.8-0.9,6.8c3.5,13.9,18,22.2,18,22.2c12.9,4.8,21.4,2.7,21.4,2.7l0,0
				c9.4-6.1,12.6-26.3,12.7-27.3C173.5,220.5,171.8,223.2,171.4,222.4L171.4,222.4z M165.7,235.3c-2.3-0.4-2.8-6.1-3.5-6.9
				c-0.8-0.8-4.9-0.4-4.9-0.4s-3.8,4.3-5.3,4.4c-1.5,0.1-9.6-3.2-7.9-8.1c1.7-4.9,7.9-5.6,7.9-5.6s3.2,2.7,7.9,3
				c4.7,0.3,6.5-0.6,7-0.8c0.6-0.3,3.6,1.1,3.5,5.4C170.4,229.3,167.9,235.7,165.7,235.3L165.7,235.3z"/>
			<path class="st99" d="M165.1,206.4c0,0,4.1,5.1,3.7,7c-0.4,2.1-5.2,3.2-5.2,3.2s3.8-1.3,4.6-3.2
				C168.2,213.4,167.2,209.5,165.1,206.4L165.1,206.4z"/>
			
				<linearGradient id="SVGID_00000057831813967145186140000012922995026523186317_" gradientUnits="userSpaceOnUse" x1="173.6453" y1="313.1146" x2="173.6453" y2="334.7146" gradientTransform="matrix(1 0 0 -1 0 502.1114)">
				<stop  offset="0" style="stop-color:#FFEADB"/>
				<stop  offset="0.99" style="stop-color:#8860C7"/>
			</linearGradient>
			<path style="opacity:0.6;fill:url(#SVGID_00000057831813967145186140000012922995026523186317_);enable-background:new    ;" d="
				M172.5,189c0,0,0.7-5.7-2.9-10.9c2.9-5.2,3.3-10.7,3.3-10.7h0c1,2.4,1.5,7.1,1.5,7.1l3.3,0.9C178.4,177.1,172.5,189,172.5,189z"
				/>
			
				<linearGradient id="SVGID_00000059304676019447533620000015412749163489864603_" gradientUnits="userSpaceOnUse" x1="144.2207" y1="254.1573" x2="144.2207" y2="347.7846" gradientTransform="matrix(1 0 0 -1 0 502.1114)">
				<stop  offset="0" style="stop-color:#CCC2DB"/>
				<stop  offset="0.99" style="stop-color:#8860C7"/>
			</linearGradient>
			<path style="opacity:0.6;fill:url(#SVGID_00000059304676019447533620000015412749163489864603_);enable-background:new    ;" d="
				M168.1,179c-0.5-1-2.5-4.2-5.9-5.1c0,0,0,0.7-10.7-0.5c-10.7-1.1-15.1-1.7-17.6,0.8c-2.6,2.5-1.6,8.2,0.8,10.2
				c0,0-6.5,6.9-6.4,16.7c0.2,9.4,7.3,16.4,10.3,17.5l-0.1,1c0,0,0.5,21.5,5.8,23.2c5.2,1.7,16.1,0.8,17.1,1.8s-0.1,2.6-0.2,2.8l0,0
				c0,0-8.5,2.1-21.4-2.7c0,0-14.5-8.3-18-22.2c0,0-0.8-3.3,0.9-6.8c0,0,2.4-1,3.5-7.4c1.2-7.1-2.5-12-2.5-12s0.5-3.8-0.6-8.2
				c-1.1-4.4-3.3-8.6-2.3-11.7c6.1,0.9,10-2.2,10-2.2s1.1-1.5,5.8-2.2c4.7-0.8,23.5,1.1,23.5,1.1s-1.9-1.6-5.9-2.6
				c-3.8-1-16.6,0.2-18,0.3c1.5-0.3,16-2.8,17.7-2.3c1.8,0.5,8.1,3.4,8.1,3.4c-0.6-2.9-6.2-9.8-6.2-9.8s-8,0.1-13.2,1.2
				c-4.6,1-7.2,3.1-7.7,3.5l1.2-1.5l0.4-0.5l0.4-0.4l1.8-0.3l9.1-3.7c3.1-1.6,7-5.7,7.5-6.2l0-0.1c0,0,0.2,3.6-1.1,6.7
				c7.7-0.9,10.3-0.5,10.3-0.5C167.9,165.5,168.1,179,168.1,179L168.1,179z"/>
			
				<linearGradient id="SVGID_00000093143384828289163620000010127344221647070899_" gradientUnits="userSpaceOnUse" x1="150.4886" y1="254.1725" x2="150.4886" y2="258.1925" gradientTransform="matrix(1 0 0 -1 0 502.1114)">
				<stop  offset="0" style="stop-color:#776D7E"/>
				<stop  offset="1" style="stop-color:#9D68C2"/>
			</linearGradient>
			<path style="opacity:0.5;fill:url(#SVGID_00000093143384828289163620000010127344221647070899_);enable-background:new    ;" d="
				M139.6,244.8c0,0,4.7-1.1,11.9-0.8c7.1,0.3,11.2,0.3,9.5,3.6C161,247.5,152,249.5,139.6,244.8z"/>
			
				<linearGradient id="SVGID_00000014613129213825407950000017282466683649554616_" gradientUnits="userSpaceOnUse" x1="162.2936" y1="341.0646" x2="162.2936" y2="344.0528" gradientTransform="matrix(1 0 0 -1 0 502.1114)">
				<stop  offset="0" style="stop-color:#1F77D1"/>
				<stop  offset="1" style="stop-color:#0686C9"/>
			</linearGradient>
			<path style="fill:url(#SVGID_00000014613129213825407950000017282466683649554616_);" d="M164.4,160.6c0,0,4.3-1.7,6.1-1.4
				c0,0-0.7-0.9-1.4-1.1c-0.7-0.2-15,3-15,3S163,160,164.4,160.6L164.4,160.6z"/>
			
				<linearGradient id="SVGID_00000165227124180261868210000003787796702933940147_" gradientUnits="userSpaceOnUse" x1="143.2586" y1="331.2246" x2="143.2586" y2="340.0618" gradientTransform="matrix(1 0 0 -1 0 502.1114)">
				<stop  offset="0" style="stop-color:#1F77D1"/>
				<stop  offset="1" style="stop-color:#0686C9"/>
			</linearGradient>
			<path style="fill:url(#SVGID_00000165227124180261868210000003787796702933940147_);" d="M155.6,162.2c0,0-0.3,4.7-1.9,6.4
				l-17.7,2.3l-5.2-0.9c0,0,2-0.9,4.2-3.4C137.3,164,148.8,161.4,155.6,162.2L155.6,162.2z"/>
			
				<linearGradient id="SVGID_00000003815680289359640650000018407072672899541684_" gradientUnits="userSpaceOnUse" x1="175.2736" y1="326.7446" x2="175.2736" y2="334.7146" gradientTransform="matrix(1 0 0 -1 0 502.1114)">
				<stop  offset="0" style="stop-color:#1F77D1"/>
				<stop  offset="1" style="stop-color:#0686C9"/>
			</linearGradient>
			<path style="fill:url(#SVGID_00000003815680289359640650000018407072672899541684_);" d="M172.9,167.4c0,0,1.4,4.7,1.5,7.1
				l3.3,0.9C177.7,175.4,176.7,171.8,172.9,167.4z"/>
			
				<linearGradient id="SVGID_00000110435077196743825630000013215784085721879223_" gradientUnits="userSpaceOnUse" x1="122.5542" y1="291.6799" x2="112.357" y2="304.1665" gradientTransform="matrix(1 0 0 -1 0 502.1114)">
				<stop  offset="0" style="stop-color:#FFEADB"/>
				<stop  offset="0.99" style="stop-color:#B060F4"/>
			</linearGradient>
			<path style="opacity:0.8;fill:url(#SVGID_00000110435077196743825630000013215784085721879223_);enable-background:new    ;" d="
				M124.7,207.7c0,0-1.2-6-4.3-8.9c-3-2.9-6.5-2-6.5-2s1,11.1,1.9,13.8s2.5,3.4,2.5,3.4s-2.1-1.9-2.4-5.5c-0.3-3.7-0.4-8.8,0.4-9.4
				c0.8-0.6,4.1,1.8,4.1,1.8s-1,1.3-1.6,4.5c-0.6,3.3,1.7,5.6,2.5,5.6s0-3.8,0.1-4.8S123.4,205.1,124.7,207.7L124.7,207.7z"/>
			
				<linearGradient id="SVGID_00000098211607367215860960000010133146335549779592_" gradientUnits="userSpaceOnUse" x1="123.6111" y1="293.2843" x2="118.5956" y2="299.4189" gradientTransform="matrix(1 0 0 -1 0 502.1114)">
				<stop  offset="0" style="stop-color:#FFEADB"/>
				<stop  offset="0.99" style="stop-color:#B060F4"/>
			</linearGradient>
			<path style="opacity:0.8;fill:url(#SVGID_00000098211607367215860960000010133146335549779592_);enable-background:new    ;" d="
				M121.6,200.2c0,0-3.3,2.2-3,6.7c0.4,4.5,2.9,4.3,2.9,3.3c0-0.9-0.5-3.4-0.2-4.7c0.3-1.4,2.5-0.8,2.5-0.8S122.3,201.2,121.6,200.2
				L121.6,200.2z"/>
			<path class="st108" d="M173.7,220.2c0,0-4.1,18.9-12.7,27.3C161,247.5,170.8,243.7,173.7,220.2z"/>
			<path class="st108" d="M169.1,158.1c0,0,2.2,1.7,2.6,7.6c0.4,5.9-2.1,12.4-2.1,12.4s3.3-4.9,3.6-10.3
				C173.5,162.5,170.8,158.7,169.1,158.1L169.1,158.1z"/>
		</g>
		
			<linearGradient id="SVGID_00000110438095680522592870000005429737582714889622_" gradientUnits="userSpaceOnUse" x1="142.6586" y1="330.4341" x2="159.9286" y2="330.4341" gradientTransform="matrix(1 0 0 -1 0 502.1114)">
			<stop  offset="0" style="stop-color:#1F77D1"/>
			<stop  offset="1" style="stop-color:#0686C9"/>
		</linearGradient>
		<path style="fill:url(#SVGID_00000110438095680522592870000005429737582714889622_);" d="M142.7,170.4c0,0,5,1.7,10.6,2.2
			c5.5,0.5,6.7,0.6,6.7,0.6s-2.2-2.2-7-2.8C148.2,169.8,142.7,170.4,142.7,170.4z"/>
		
			<linearGradient id="SVGID_00000042015703166208025480000018363401255835963789_" gradientUnits="userSpaceOnUse" x1="167.0186" y1="278.8013" x2="172.2486" y2="278.8013" gradientTransform="matrix(1 0 0 -1 0 502.1114)">
			<stop  offset="0" style="stop-color:#1F77D1"/>
			<stop  offset="1" style="stop-color:#0686C9"/>
		</linearGradient>
		<path style="fill:url(#SVGID_00000042015703166208025480000018363401255835963789_);" d="M167.1,220.6c0,0,2.4,0,3.4,3
			c0.8,2.4,1,4.5,1,4.5l0.9-3.3c0,0-1.1-4.2-2.3-5.2c-0.8-0.7-2.3-1.4-3-1.2L167.1,220.6L167.1,220.6z"/>
		
			<linearGradient id="SVGID_00000127001799340830670180000015762833682104671403_" gradientUnits="userSpaceOnUse" x1="160.5486" y1="282.6917" x2="166.1986" y2="282.6917" gradientTransform="matrix(1 0 0 -1 0 502.1114)">
			<stop  offset="0" style="stop-color:#1F77D1"/>
			<stop  offset="1" style="stop-color:#0686C9"/>
		</linearGradient>
		<path style="fill:url(#SVGID_00000127001799340830670180000015762833682104671403_);" d="M160.5,217.6l0.4,3.6
			c0,0,2.9,0.2,4.9-0.6l0.4-2.2C166.2,218.5,162.4,217.5,160.5,217.6L160.5,217.6z"/>
		<path class="st108" d="M174,264.1c0,0,17.2,12.6,19.5,16.9c2.2,4.3,3.1,17.9,6.2,23.8c0,0-2.1-9.6-3.5-17.1
			c-1.5-7.5-1.1-7.6-1.9-9.5S180.5,267.4,174,264.1L174,264.1z"/>
		<path class="st108" d="M170.9,334.2c0,0-8.3,35.5-7.9,37.9c0.4,2.4,5.8,7.3,6,8.6c0,0-4.1,5.5-3.9,6.7s7.2,8.9,7,11.3
			c0,0.7-4.6,8.2-4.6,8.2s5.1-7.4,5.4-8.5s-6.3-11-6.5-12c-0.5-2.6,3.3-4.5,3.4-6.2c0.1-1.7-5.1-5.9-5.1-8.6
			C164.6,368.8,170.9,334.2,170.9,334.2L170.9,334.2z"/>
		<path class="st108" d="M172.6,418.9c0,0,18,40.6,24.1,81.3C196.6,500.2,195.6,460.5,172.6,418.9z"/>
		<path class="st96" d="M58.8,256c0,0-4.6-1-6.6-5c-1.9-4.1-0.7-9.9-0.7-9.9s3.6,7,5.4,9.4S59.3,255.5,58.8,256L58.8,256z"/>
	</g>
</g>
</svg>
