<?xml version="1.0" encoding="utf-8"?>
<!-- Generator: Adobe Illustrator 27.0.1, SVG Export Plug-In . SVG Version: 6.00 Build 0)  -->
<svg version="1.1" id="Camada_1" xmlns="http://www.w3.org/2000/svg" xmlns:xlink="http://www.w3.org/1999/xlink" x="0px" y="0px"
	 width="750px" height="500px" viewBox="0 0 750 500" style="enable-background:new 0 0 750 500;" xml:space="preserve">
<style type="text/css">
	.st0{fill:#FFFFFF;}
	.st1{fill:#679AF8;}
	.st2{fill:none;stroke:#FFFFFF;stroke-width:1.9569;stroke-miterlimit:10;}
	.st3{fill:#F13C7E;}
	.st4{fill:none;stroke:#FFFFFF;stroke-width:2.2315;stroke-miterlimit:10;}
	.st5{fill:#645ABD;}
	.st6{fill:none;stroke:#679AF8;stroke-width:0.7353;stroke-miterlimit:10;stroke-dasharray:2.9414,2.9414;}
	.st7{fill:none;stroke:#679AF8;stroke-width:0.7353;stroke-miterlimit:10;}
	.st8{fill:none;stroke:#FFFFFF;stroke-width:1.957;stroke-linecap:round;stroke-linejoin:round;stroke-miterlimit:10;}
	.st9{fill:url(#SVGID_1_);}
	.st10{opacity:0.5;fill:url(#SVGID_00000050656815869444633830000001812069860937743288_);enable-background:new    ;}
	.st11{opacity:0.5;fill:url(#SVGID_00000151529885216360512230000009330197113758071432_);enable-background:new    ;}
	.st12{fill:url(#SVGID_00000054226541973573942810000010882418081351221640_);}
	.st13{fill:url(#SVGID_00000013912504777343332260000010724881509183383224_);}
	.st14{opacity:0.76;fill:url(#SVGID_00000106855104551113187630000012459493369103132339_);enable-background:new    ;}
	.st15{opacity:0.76;fill:url(#SVGID_00000151541169690898446650000001239251911791701681_);enable-background:new    ;}
	.st16{opacity:0.76;fill:url(#SVGID_00000010992360829566120610000008862800006323292345_);enable-background:new    ;}
	.st17{fill:#FE9083;}
	.st18{fill:url(#SVGID_00000173124161761803648930000004399733256421244826_);}
	.st19{opacity:0.5;fill:url(#SVGID_00000136408451140581769260000000187590694148599694_);enable-background:new    ;}
	.st20{fill:url(#SVGID_00000150103989806701757840000003806012756959988153_);}
	.st21{opacity:0.5;fill:url(#SVGID_00000078766262070019375760000003723907481005239974_);enable-background:new    ;}
	.st22{fill:url(#SVGID_00000010990316543495338060000012173587149358430129_);}
	.st23{fill:url(#SVGID_00000170241212992142236640000012650425581628145545_);}
	.st24{fill:#CB4D7A;}
	.st25{fill:#EE8183;}
	.st26{fill:url(#SVGID_00000045579942099724044150000003720318944298933179_);}
	.st27{opacity:0.6;fill:url(#SVGID_00000165202857928304793250000009896188377334173353_);enable-background:new    ;}
	.st28{fill:url(#SVGID_00000171706203771737495210000012963120367893886114_);}
	.st29{fill:#E28183;}
	.st30{opacity:0.91;fill:url(#SVGID_00000068678092978593715680000012549933451722850479_);enable-background:new    ;}
	.st31{fill:url(#SVGID_00000182521174610433590100000010757223992878425771_);}
	.st32{opacity:0.6;fill:url(#SVGID_00000078750226109201272730000012502556933772268168_);enable-background:new    ;}
	.st33{fill:url(#SVGID_00000042703301444662268500000011233662254175231885_);}
	.st34{fill:url(#SVGID_00000038375702156573050270000003875272641722252440_);}
	.st35{opacity:0.91;fill:url(#SVGID_00000142863178166187056300000005319842184779783852_);enable-background:new    ;}
	.st36{opacity:0.5;fill:url(#SVGID_00000127723449756458159890000011944990456736973233_);enable-background:new    ;}
	.st37{opacity:0.5;fill:url(#SVGID_00000019660634555872468550000006890634671690088835_);enable-background:new    ;}
	.st38{opacity:0.5;fill:url(#SVGID_00000138548985324000024420000009728694291285744784_);enable-background:new    ;}
	.st39{opacity:0.5;fill:url(#SVGID_00000145044729172508706880000014438187682246293672_);enable-background:new    ;}
	.st40{opacity:0.5;fill:url(#SVGID_00000027573246044395400650000017859670327342307210_);enable-background:new    ;}
	.st41{opacity:0.5;fill:url(#SVGID_00000126304365247233380330000010407173100370491286_);enable-background:new    ;}
	.st42{opacity:0.5;fill:url(#SVGID_00000121987910774444571250000010894824683289611932_);enable-background:new    ;}
	.st43{opacity:0.5;fill:url(#SVGID_00000091705277091365902740000017103532773698349702_);enable-background:new    ;}
	.st44{opacity:0.5;fill:url(#SVGID_00000168104656982903147890000004016344134429480861_);enable-background:new    ;}
	.st45{opacity:0.76;fill:url(#SVGID_00000183960974419448896680000016211294586995003783_);enable-background:new    ;}
	.st46{opacity:0.5;fill:url(#SVGID_00000103962372252113636770000009796925303428072365_);enable-background:new    ;}
	.st47{opacity:0.3;fill:url(#SVGID_00000016764011839337881130000000845404011096253067_);enable-background:new    ;}
	.st48{opacity:0.5;fill:url(#SVGID_00000035504526682751871750000014192599442365299367_);enable-background:new    ;}
	.st49{opacity:0.5;fill:url(#SVGID_00000062150936364676250980000006210154521327427729_);enable-background:new    ;}
	.st50{opacity:0.5;fill:url(#SVGID_00000106866093974841194040000005677680154003709328_);enable-background:new    ;}
	.st51{opacity:0.5;fill:url(#SVGID_00000001636233741311965650000002417840465823868827_);enable-background:new    ;}
	.st52{fill:url(#SVGID_00000100374303717818692840000015417364272796354457_);}
	.st53{opacity:0.5;fill:url(#SVGID_00000096053327107659514000000004095533985657861304_);enable-background:new    ;}
	.st54{opacity:0.3;fill:url(#SVGID_00000007421416965388816810000005096315985545833124_);enable-background:new    ;}
	.st55{opacity:0.5;fill:url(#SVGID_00000113330730905799842140000014695507241974706592_);enable-background:new    ;}
	.st56{opacity:0.5;fill:url(#SVGID_00000016075659094166636800000002933321415892101034_);enable-background:new    ;}
	.st57{opacity:0.5;fill:url(#SVGID_00000062882331509587722440000016992602012582619573_);enable-background:new    ;}
	.st58{opacity:0.5;fill:#7A4AC0;enable-background:new    ;}
	.st59{fill:url(#SVGID_00000089573529601267551050000006566623843169226883_);}
	.st60{fill:url(#SVGID_00000044137729512814967060000002570243365266948007_);}
	.st61{fill:url(#SVGID_00000112592073027238808260000016735471546034691725_);}
	.st62{opacity:0.6;fill:url(#SVGID_00000059284781049830419580000005982341169873349002_);enable-background:new    ;}
	.st63{fill:#38368E;}
	.st64{fill:url(#SVGID_00000039818848642394090250000015684891571094248080_);}
	.st65{fill:url(#SVGID_00000109726807535599075510000005249762691967090563_);}
	.st66{fill:#FFEBED;}
	.st67{fill:#7F9EC9;}
	.st68{fill:#131163;}
	.st69{fill:#C6659C;}
	.st70{fill:#CB5F7D;}
	.st71{fill:#9F4A8B;}
	.st72{fill:#FFBCAF;}
	.st73{opacity:0.6;fill:url(#SVGID_00000096059193728943294740000008029367189068081800_);enable-background:new    ;}
	.st74{fill:url(#SVGID_00000121999609766926082080000001921750019572925831_);}
	.st75{fill:#D2726C;}
	.st76{opacity:0.6;fill:url(#SVGID_00000039817765758181506660000006634529809924142997_);enable-background:new    ;}
	.st77{opacity:0.6;fill:url(#SVGID_00000099662962981189830970000008086836403538933149_);enable-background:new    ;}
	.st78{opacity:0.5;fill:url(#SVGID_00000064336500747577658210000017230404910307056527_);enable-background:new    ;}
	.st79{fill:url(#SVGID_00000176019373950804204880000006274409806725630110_);}
	.st80{fill:url(#SVGID_00000173150790545125327120000018166733276782934423_);}
	.st81{fill:url(#SVGID_00000085232965312265537510000015264138008090129561_);}
	.st82{opacity:0.8;fill:url(#SVGID_00000078766771011843705290000014211390349503264427_);enable-background:new    ;}
	.st83{opacity:0.8;fill:url(#SVGID_00000178175865785480490130000012981841705069916597_);enable-background:new    ;}
	.st84{fill:#34C7FF;}
	.st85{fill:url(#SVGID_00000112626102449174423700000016189564014660622728_);}
	.st86{fill:url(#SVGID_00000011719776350528423390000007935426028419091346_);}
	.st87{fill:url(#SVGID_00000048462579615803626390000005806720289970511770_);}
</style>
<g id="BACKGROUND">
	<g>
		<rect class="st0" width="750" height="500"/>
	</g>
</g>
<g id="OBJECTS">
	<g>
		<path class="st1" d="M0,0v287.8c39.3,8.7,98.4,12.1,135.2,1c30-9,44.6-34.1,90.7-32.4c30.8,1.1,45.4,15.8,59.8,27.2
			c26.1,20.7,79.7,37.8,134.8,33.5c64.7-5.1,91.2-27.6,158.3-10.6c31.3,7.9,66,14,102.5,15.2c23.3,0.8,47.4-0.7,68.8-4.5V0H0z"/>
		<g>
			<g>
				<g>
					<g>
						<path class="st0" d="M23.4,155.6c-4.7-7.5-2.4-17.5,5.1-22.2c7.5-4.7,17.5-2.4,22.2,5.1s2.4,17.5-5.1,22.2
							C38.1,165.4,28.1,163.1,23.4,155.6z M49.2,139.5c-4.2-6.7-13-8.7-19.7-4.5c-6.7,4.2-8.7,13-4.5,19.7c4.2,6.7,13,8.7,19.7,4.5
							S53.3,146.2,49.2,139.5z"/>
					</g>
					<g>
						<g>
							<path class="st0" d="M43,132.7l12.1-2.3l4.9,7.8l-7.4,9.9l-1.1-3.1c-1.3-3.7-3.4-7.2-6.2-9.9L43,132.7z M50.6,138.6
								c1.1,1.7,2,3.6,2.7,5.5l4.6-6.1l-3.5-5.6l-7.5,1.4C48.2,135.3,49.5,136.9,50.6,138.6z"/>
						</g>
						<g>
							<path class="st0" d="M18.9,163.8L14,156l7.4-9.9l1.4,4c1.1,3.1,2.9,6,5.2,8.3l3,3L18.9,163.8z M16.3,156.1l3.5,5.6l7.5-1.4
								l-0.6-0.6c-2.5-2.5-4.5-5.6-5.6-9l-0.3-0.8L16.3,156.1z"/>
						</g>
					</g>
					<g>
						<g>
							<path class="st0" d="M27.6,134.7l4-11.7l9.2-0.3l4.9,11.4l-4.2-0.8c-3.2-0.6-6.6-0.5-9.8,0.3L27.6,134.7z M33,124.8l-2.5,7.2
								l0.8-0.2c3.4-0.9,7.1-1,10.6-0.4l0.8,0.2l-3-7L33,124.8z"/>
						</g>
						<g>
							<path class="st0" d="M33.3,171.4L28.4,160l4.2,0.8c3.2,0.6,6.6,0.5,9.8-0.3l4.1-1.1l-4,11.7L33.3,171.4z M31.5,162.5l3,7
								l6.7-0.2l2.5-7.2l-0.8,0.2c-3.4,0.9-7.1,1-10.6,0.4L31.5,162.5z"/>
						</g>
					</g>
					<g>
						<g>
							<path class="st0" d="M13.5,139.7l4.3-8.1l12.3,1.5l-2.8,3.2c-2.2,2.5-3.7,5.4-4.6,8.6l-1.1,4.1L13.5,139.7z M18.8,133.6
								l-3.1,5.9l5,5.8l0.2-0.8c0.9-3.4,2.6-6.7,5-9.3l0.5-0.6L18.8,133.6z"/>
						</g>
						<g>
							<path class="st0" d="M44,161l2.8-3.2c2.2-2.5,3.7-5.4,4.6-8.6l1.1-4.1l8.1,9.3l-4.3,8.1L44,161z M53.4,148.9l-0.2,0.8
								c-0.9,3.4-2.6,6.7-5,9.3l-0.5,0.6l7.6,0.9l3.1-5.9L53.4,148.9z"/>
						</g>
					</g>
				</g>
				<g>
					<path class="st0" d="M30.4,151.2c-2.3-3.7-1.2-8.5,2.5-10.8s8.5-1.2,10.8,2.5s1.2,8.5-2.5,10.8S32.7,154.9,30.4,151.2z
						 M42.2,143.9c-1.8-2.8-5.5-3.7-8.3-1.9c-2.8,1.8-3.7,5.5-1.9,8.3s5.5,3.7,8.3,1.9C43.1,150.4,43.9,146.7,42.2,143.9z"/>
				</g>
			</g>
			<g>
				<g>
					<g>
						<path class="st0" d="M70.7,158c-5.1-4-6-11.4-2.1-16.5c4-5.1,11.4-6,16.5-2.1c5.1,4,6,11.4,2.1,16.5
							C83.3,161.1,75.9,162,70.7,158z M84.4,140.5c-4.5-3.5-11.1-2.7-14.6,1.8s-2.7,11.1,1.8,14.6s11.1,2.7,14.6-1.8
							C89.7,150.6,88.9,144.1,84.4,140.5z"/>
					</g>
					<g>
						<g>
							<path class="st0" d="M78.5,137.4l7.8-4.6l5.3,4.1l-2.6,8.6l-1.5-1.8c-1.8-2.2-4.2-4.1-6.8-5.3L78.5,137.4z M85.1,139.6
								c1.2,0.9,2.3,2,3.2,3.1l1.6-5.3l-3.8-3l-4.8,2.9C82.7,137.9,84,138.7,85.1,139.6z"/>
						</g>
						<g>
							<path class="st0" d="M69.7,164.8l-5.3-4.1l2.6-8.6l2,2.4c1.5,1.9,3.5,3.4,5.6,4.4l2.8,1.3L69.7,164.8z M66,160.2l3.8,3
								l4.8-2.9l-0.5-0.2c-2.4-1.1-4.5-2.7-6.1-4.7l-0.4-0.5L66,160.2z"/>
						</g>
					</g>
					<g>
						<g>
							<path class="st0" d="M68.4,142.6l-0.2-9l6.2-2.5l6.2,6.6l-3.1,0.5c-2.4,0.4-4.6,1.3-6.6,2.7L68.4,142.6z M69.6,134.5l0.1,5.6
								l0.5-0.3c2.1-1.5,4.6-2.5,7.2-2.9l0.6-0.1l-3.8-4.1L69.6,134.5z"/>
						</g>
						<g>
							<path class="st0" d="M81.5,166.4l-6.2-6.6l3.1-0.5c2.4-0.4,4.6-1.3,6.6-2.7l2.6-1.8l0.2,9L81.5,166.4z M78.1,160.8l3.8,4.1
								l4.5-1.8l-0.1-5.6l-0.5,0.3c-2.1,1.5-4.6,2.5-7.2,2.9L78.1,160.8z"/>
						</g>
					</g>
					<g>
						<g>
							<path class="st0" d="M60,149.6l0.9-6.6l8.8-2.1l-1.1,2.9c-0.9,2.2-1.2,4.7-1,7.1l0.3,3.1L60,149.6z M62.1,144.1l-0.7,4.8
								l4.9,2.7l-0.1-0.6c-0.2-2.6,0.1-5.2,1.1-7.7l0.2-0.5L62.1,144.1z"/>
						</g>
						<g>
							<path class="st0" d="M86.3,156.6l1.1-2.9c0.9-2.2,1.2-4.7,1-7.1l-0.3-3.1l7.9,4.4l-0.9,6.6L86.3,156.6z M89.6,145.9l0.1,0.6
								c0.2,2.6-0.1,5.2-1.1,7.7l-0.2,0.5l5.4-1.3l0.7-4.8L89.6,145.9z"/>
						</g>
					</g>
				</g>
				<g>
					<path class="st0" d="M74.5,153.3c-2.5-1.9-2.9-5.5-1-8s5.5-2.9,8-1c2.5,1.9,2.9,5.5,1,8C80.5,154.8,76.9,155.2,74.5,153.3z
						 M80.7,145.3c-1.9-1.5-4.7-1.1-6.2,0.8c-1.5,1.9-1.1,4.7,0.8,6.1c1.9,1.5,4.7,1.1,6.2-0.8C82.9,149.5,82.6,146.8,80.7,145.3z"
						/>
				</g>
			</g>
		</g>
		<path class="st2" d="M263.3,73.1c0-0.1,0-0.1,0-0.2c0-3.4-2.5-6.2-5.8-6.6c-0.6-6.4-6.1-11.5-12.7-11.5c-6,0-11,4.1-12.4,9.6
			c-5.5,0.2-9.9,4.7-9.9,10.3c0,5.2,3.9,9.5,8.9,10.2c0.4,0.1,0.7,0.1,1.1,0.1h29.2c3.3,0,6-2.7,6-6l0,0
			C267.7,76.1,265.9,73.8,263.3,73.1z"/>
		<g>
			<g>
				<g>
					<ellipse class="st3" cx="543.3" cy="297.2" rx="60.2" ry="60.2"/>
				</g>
			</g>
			<g>
				<g>
					<ellipse class="st3" cx="543.3" cy="297.2" rx="51.9" ry="51.8"/>
					<path class="st0" d="M543.3,351.5c-30,0-54.4-24.4-54.4-54.3c0-30,24.4-54.3,54.4-54.3s54.4,24.4,54.4,54.3
						C597.7,327.1,573.3,351.5,543.3,351.5z M543.3,247.8c-27.2,0-49.4,22.1-49.4,49.3s22.2,49.3,49.4,49.3s49.4-22.1,49.4-49.3
						S570.5,247.8,543.3,247.8z"/>
				</g>
				<g>
					<ellipse class="st3" cx="543.3" cy="297.2" rx="42.2" ry="42.2"/>
					<path class="st0" d="M543.3,341.9c-24.7,0-44.8-20.1-44.8-44.7s20.1-44.7,44.8-44.7s44.8,20.1,44.8,44.7S568,341.9,543.3,341.9
						z M543.3,257.5c-21.9,0-39.7,17.8-39.7,39.7c0,21.9,17.8,39.7,39.7,39.7s39.7-17.8,39.7-39.7S565.2,257.5,543.3,257.5z"/>
				</g>
				<g>
					
						<ellipse transform="matrix(0.1602 -0.9871 0.9871 0.1602 162.948 785.9243)" class="st3" cx="543.3" cy="297.2" rx="32.6" ry="32.6"/>
					<path class="st0" d="M543.3,332.2c-19.4,0-35.1-15.7-35.1-35.1c0-19.3,15.8-35.1,35.1-35.1c19.4,0,35.1,15.7,35.1,35.1
						C578.4,316.5,562.6,332.2,543.3,332.2z M543.3,267.1c-16.6,0-30.1,13.5-30.1,30.1s13.5,30.1,30.1,30.1
						c16.6,0,30.1-13.5,30.1-30.1S559.9,267.1,543.3,267.1z"/>
				</g>
				<g>
					<ellipse class="st3" cx="543.3" cy="297.2" rx="23" ry="22.9"/>
					<path class="st0" d="M543.3,322.6c-14,0-25.5-11.4-25.5-25.4s11.4-25.4,25.5-25.4c14,0,25.5,11.4,25.5,25.4
						S557.3,322.6,543.3,322.6z M543.3,276.7c-11.3,0-20.5,9.2-20.5,20.4c0,11.3,9.2,20.4,20.5,20.4s20.5-9.2,20.5-20.4
						S554.6,276.7,543.3,276.7z"/>
				</g>
				<g>
					<ellipse class="st3" cx="543.3" cy="297.2" rx="13.3" ry="13.3"/>
					<path class="st0" d="M543.3,313c-8.7,0-15.8-7.1-15.8-15.8c0-8.7,7.1-15.8,15.8-15.8s15.8,7.1,15.8,15.8S552,313,543.3,313z
						 M543.3,286.4c-6,0-10.8,4.8-10.8,10.8s4.9,10.8,10.8,10.8c6,0,10.8-4.8,10.8-10.8S549.3,286.4,543.3,286.4z"/>
				</g>
				<g>
					<ellipse class="st3" cx="543.3" cy="297.2" rx="3.7" ry="3.7"/>
					<path class="st0" d="M543.3,303.3c-3.4,0-6.2-2.8-6.2-6.2c0-3.4,2.8-6.2,6.2-6.2s6.2,2.8,6.2,6.2
						C549.5,300.6,546.7,303.3,543.3,303.3z M543.3,296c-0.6,0-1.2,0.5-1.2,1.2c0,0.6,0.5,1.2,1.2,1.2c0.6,0,1.2-0.5,1.2-1.2
						S543.9,296,543.3,296z"/>
				</g>
			</g>
		</g>
		<path class="st4" d="M444.4,36.6c0-0.1,0-0.2,0-0.3c0-4-2.7-7.4-6.3-7.9c-0.7-7.7-6.6-13.7-13.8-13.7c-6.5,0-11.9,4.9-13.5,11.5
			c-6,0.2-10.8,5.6-10.8,12.3c0,6.2,4.2,11.3,9.6,12.2c0.4,0.1,0.8,0.1,1.2,0.1h31.8c3.6,0,6.6-3.2,6.6-7.2l0,0
			C449.2,40.2,447.2,37.4,444.4,36.6z"/>
		<g>
			<g>
				<path class="st5" d="M541,298.2c-0.4,0-0.8-0.1-1.1-0.3l-57.4-40.8c-0.8-0.6-1-1.8-0.4-2.6c0.6-0.8,1.8-1,2.6-0.4l57.4,40.8
					c0.8,0.6,1,1.8,0.4,2.6C542.1,297.9,541.6,298.2,541,298.2z"/>
			</g>
			<g>
				<path class="st5" d="M543.1,297.9c0-0.5-5.8-13.7-5.8-13.7l-8.7,12L543.1,297.9z"/>
			</g>
			<g>
				<path class="st5" d="M492.2,263.5c-0.4,0-0.8-0.1-1.1-0.4l-12-8.8c-0.3-0.2-0.5-0.5-0.6-0.8l-5.5-13.3c-0.3-0.8-0.1-1.7,0.6-2.2
					s1.6-0.5,2.3,0l16,11.7c0.4,0.3,0.7,0.8,0.8,1.3l1.4,10.4c0.1,0.7-0.3,1.5-0.9,1.9C492.8,263.4,492.5,263.5,492.2,263.5z"/>
			</g>
			<g>
				<path class="st5" d="M479.7,265.7c-0.3,0-0.7-0.1-1-0.3l-15.6-9.4c-0.7-0.4-1-1.2-0.9-2c0.2-0.8,0.8-1.4,1.6-1.5l16-1.6
					c0.5,0,0.9,0.1,1.3,0.4l12,8.8c0.6,0.4,0.9,1.2,0.7,1.9c-0.2,0.7-0.8,1.3-1.5,1.4l-12.4,2.2C480,265.7,479.9,265.7,479.7,265.7z
					"/>
			</g>
		</g>
		<g>
			<g>
				<path class="st6" d="M576.3,100.4"/>
				<line class="st7" x1="574.9" y1="100.4" x2="573.4" y2="100.4"/>
			</g>
		</g>
		<path class="st8" d="M621.8,32.6c0,2.2-1.7,3.9-3.9,3.9s-3.9-1.7-3.9-3.9s1.7-3.9,3.9-3.9C620,28.7,621.8,30.4,621.8,32.6z"/>
		
			<ellipse transform="matrix(0.2298 -0.9732 0.9732 0.2298 357.4106 533.4077)" class="st8" cx="515.7" cy="40.9" rx="3.9" ry="3.9"/>
		<path class="st8" d="M742.8,91.5c0,2.2-1.7,3.9-3.9,3.9s-3.9-1.7-3.9-3.9s1.7-3.9,3.9-3.9C741,87.7,742.8,89.4,742.8,91.5z"/>
	</g>
	<g>
		<g>
			
				<linearGradient id="SVGID_1_" gradientUnits="userSpaceOnUse" x1="153.7809" y1="1078.0886" x2="153.7809" y2="988.8887" gradientTransform="matrix(1 0 0 1 0 -577.8886)">
				<stop  offset="0" style="stop-color:#6456C0"/>
				<stop  offset="1" style="stop-color:#5F2C95"/>
			</linearGradient>
			<path class="st9" d="M219.7,500.2h-47c-4.9-27.3-16.4-62.9-16.4-62.9c-2.8-1.6-8.2,0.4-8.2,0.4l-17.2,62.5H88.1
				c-2.3-38.6,18.8-82.3,18.8-82.3l0,0c-0.1-0.2-0.7-1.5-0.6-2.4c0.1-0.4,0.8-1.1,1.6-1.9c1.2-1.1,2.5-2.1,2.5-2.1l80.1-0.5
				c0,0,0.8,0.4,1.8,1l0,0c1.8,1.1,4.1,2.7,4.1,3.9c0,1.6-0.6,2.7-0.8,3l0,0C212.9,451.3,219.8,500.2,219.7,500.2L219.7,500.2z"/>
			
				<radialGradient id="SVGID_00000179630596731609830950000002876310299901799091_" cx="832.913" cy="618.126" r="27.03" gradientTransform="matrix(0.6431 0.1484 -0.3844 1.6662 -188.1275 -686.8293)" gradientUnits="userSpaceOnUse">
				<stop  offset="0" style="stop-color:#4B474B"/>
				<stop  offset="1" style="stop-color:#000000"/>
			</radialGradient>
			<path style="opacity:0.5;fill:url(#SVGID_00000179630596731609830950000002876310299901799091_);enable-background:new    ;" d="
				M92.9,464.1c5.7-24.9,18.2-43.3,27.9-41.1c9.6,2.2,12.8,24.2,7.1,49.2c-5.8,24.8-18.3,43.2-27.9,41C90.3,511,87.2,489,92.9,464.1
				z"/>
			
				<radialGradient id="SVGID_00000080909476074927212320000016527919563286704521_" cx="425.64" cy="898.8477" r="27.03" gradientTransform="matrix(0.6355 -0.178 0.4612 1.6466 -492.9589 -937.4379)" gradientUnits="userSpaceOnUse">
				<stop  offset="0" style="stop-color:#4B474B"/>
				<stop  offset="1" style="stop-color:#000000"/>
			</radialGradient>
			<path style="opacity:0.5;fill:url(#SVGID_00000080909476074927212320000016527919563286704521_);enable-background:new    ;" d="
				M181.1,423.1c9.5-2.7,22.8,15.1,29.7,39.8c6.9,24.6,4.8,46.8-4.8,49.4c-9.5,2.7-22.8-15.1-29.7-39.8
				C169.4,447.9,171.5,425.8,181.1,423.1z"/>
			
				<linearGradient id="SVGID_00000052791810041646668110000006396876597654590364_" gradientUnits="userSpaceOnUse" x1="124.9166" y1="1046.6886" x2="148.3166" y2="1046.6886" gradientTransform="matrix(1 0 0 1 0 -577.8886)">
				<stop  offset="0" style="stop-color:#9E8CEF"/>
				<stop  offset="1" style="stop-color:#CAAFEE"/>
			</linearGradient>
			<path style="fill:url(#SVGID_00000052791810041646668110000006396876597654590364_);" d="M125.4,500.2l-0.5-0.1
				c5.5-32.2,19.3-59.2,19.5-59.5l0.1-0.1l3.5-3.1l0.3,0.4l-3.5,3.1C144.2,442.2,130.8,468.7,125.4,500.2L125.4,500.2z"/>
			
				<linearGradient id="SVGID_00000041272565969632465460000014281104041761720735_" gradientUnits="userSpaceOnUse" x1="-1867.2191" y1="1046.7386" x2="-1843.8191" y2="1046.7386" gradientTransform="matrix(-1 0 0 1 -1687.6511 -577.8886)">
				<stop  offset="0" style="stop-color:#9E8CEF"/>
				<stop  offset="1" style="stop-color:#CAAFEE"/>
			</linearGradient>
			<path style="fill:url(#SVGID_00000041272565969632465460000014281104041761720735_);" d="M179.1,500.2
				c-5.4-31.5-19.2-58.4-19.8-59.5l-3.1-2.8l0.3-0.4l3.2,2.9c0.1,0.3,14.4,27.5,19.9,59.7L179.1,500.2z"/>
			
				<linearGradient id="SVGID_00000091012171231551567000000005568615302671242144_" gradientUnits="userSpaceOnUse" x1="150.668" y1="1077.9885" x2="150.668" y2="988.7886" gradientTransform="matrix(1 0 0 1 0 -577.8886)">
				<stop  offset="0" style="stop-color:#CCCCFF"/>
				<stop  offset="1" style="stop-color:#755CBB"/>
			</linearGradient>
			
				<path style="opacity:0.76;fill:url(#SVGID_00000091012171231551567000000005568615302671242144_);enable-background:new    ;" d="
				M196.5,415.9c0,1.6-0.6,2.7-0.8,3l0,0c-16.7,3.8-29.4,19.3-29.4,19.3c9.1,17.4,24.2,61.9,24.2,61.9h-17.8
				c-4.9-27.3-16.4-62.9-16.4-62.9c-2.8-1.6-8.2,0.4-8.2,0.4l-17.2,62.5h-11c4-26.2,15.7-58.1,15.7-58.1
				c-11.6-13.5-28.7-24.2-28.7-24.2l0,0l-2-1.3l1.5-1.1c7.4,7.1,31.4,16.4,32.1,16.7L108,413.5c1.2-1.1,2.5-2.1,2.5-2.1l80.1-0.5
				c0,0,0.8,0.4,1.8,1l-21.9,12L196.5,415.9L196.5,415.9z"/>
			
				<linearGradient id="SVGID_00000028295242551804604070000004392992094869937312_" gradientUnits="userSpaceOnUse" x1="161.018" y1="1033.4886" x2="161.018" y2="1009.1486" gradientTransform="matrix(1 0 0 1 0 -577.8886)">
				<stop  offset="0" style="stop-color:#CCCCFF"/>
				<stop  offset="1" style="stop-color:#755CBB"/>
			</linearGradient>
			
				<polygon style="opacity:0.76;fill:url(#SVGID_00000028295242551804604070000004392992094869937312_);enable-background:new    ;" points="
				156.4,437.3 165.7,431.2 163.5,437.3 161.9,455.6 			"/>
			
				<linearGradient id="SVGID_00000077326712281662374240000000480116664950715534_" gradientUnits="userSpaceOnUse" x1="132.868" y1="1024.5154" x2="132.868" y2="1000.6754" gradientTransform="matrix(1 0 0 1 0 -577.8886)">
				<stop  offset="0" style="stop-color:#CCCCFF"/>
				<stop  offset="1" style="stop-color:#755CBB"/>
			</linearGradient>
			
				<polygon style="opacity:0.76;fill:url(#SVGID_00000077326712281662374240000000480116664950715534_);enable-background:new    ;" points="
				148.2,437.7 138.4,432.2 117.6,422.8 144.1,440.3 145.7,446.6 			"/>
		</g>
		<path class="st17" d="M175,249.8c0.1,0.4,0.1,0.7,0.1,0.7c-0.5,2-1,3.9-1.7,5.7c-2,5.6-4.4,9.6-6.2,12.1c-1.6,2.1-2.7,3.2-2.7,3.2
			c-14.6-4.6-21.8-18.9-24.5-25.9v-0.1c-0.5-1.3-0.9-2.4-1.1-3.1l0,0c-0.2-0.6-0.2-0.9-0.2-0.9c0.1-0.1,0.1-0.2,0.2-0.4V241
			c0.2-0.5,0.5-1,0.7-1.5c1.9-4.2,3.2-8.1,4-11.2c0.7-2.6,1.1-4.6,1.3-5.7c0.1-0.6,0.1-0.9,0.1-0.9l6.8,3.6l23.4,12.4
			c-0.4,2.1-0.5,4.2-0.5,5.9c0,1.2,0,2.4,0.1,3.3c0.1,1.2,0.2,2.1,0.3,2.7l0,0C175,249.7,175,249.8,175,249.8L175,249.8z"/>
		
			<linearGradient id="SVGID_00000085953488207340519780000004653529900578418057_" gradientUnits="userSpaceOnUse" x1="157.111" y1="854.4886" x2="157.111" y2="818.8886" gradientTransform="matrix(1 0 0 1 0 -577.8886)">
			<stop  offset="0" style="stop-color:#D5CDF8"/>
			<stop  offset="1" style="stop-color:#F3EDFB"/>
		</linearGradient>
		<path style="fill:url(#SVGID_00000085953488207340519780000004653529900578418057_);" d="M168.5,273c-1.4,1.3-2.9,2.5-4.8,3.5
			c0,0-0.1,0-0.1,0.1c0,0,0,0-0.1-0.1l0,0c-0.5-0.3-2.2-1.4-4.6-3.1c-6.1-4.6-16.3-13.9-19.3-26.5c0,0,0,0,0-0.1
			c-0.3-1.5-0.6-3-0.7-4.6l0,0c0-0.4-0.1-0.8-0.1-1.2c0,0,2,4.8,5.5,9.9c4.1,6.1,10.4,12.7,17.8,12.7c6.4,0,9.7-4.4,11.4-8.4
			c0.7-1.7,1.1-3.4,1.4-4.6l0,0c0.1-0.4,0.1-0.7,0.2-0.9l0,0c0-0.1,0-0.3,0-0.4c0.1-0.4,0.1-0.7,0.1-0.7S177.6,263.9,168.5,273
			L168.5,273z"/>
		
			<linearGradient id="SVGID_00000177460277907561500720000001299086055112118659_" gradientUnits="userSpaceOnUse" x1="138.7066" y1="836.6386" x2="175.3708" y2="836.6386" gradientTransform="matrix(1 0 0 1 0 -577.8886)">
			<stop  offset="0" style="stop-color:#CCCCFF"/>
			<stop  offset="1" style="stop-color:#755CBB"/>
		</linearGradient>
		<path style="opacity:0.5;fill:url(#SVGID_00000177460277907561500720000001299086055112118659_);enable-background:new    ;" d="
			M168.5,273c-1.4,1.3-2.9,2.5-4.8,3.5h-0.3l0,0c-0.5-0.3-2.2-1.4-4.6-3.1c-6.1-4.6-16.3-13.9-19.3-26.5c0,0,0,0,0-0.1
			c-0.3-1.5-0.6-3-0.7-4.6l0,0c0-0.4-0.1-0.8-0.1-1.2c0,0,2,4.8,5.5,9.9c0,0,4,11.1,12.8,16.6c4.4,2.8,7.7,2.4,10.1,0.7
			c2.4-1.6,4-4.4,5-6.5c0.9-2.1,1.2-4.1,1.3-5.6c0-0.3,0-0.6,0-0.9c0.7-1.7,1.1-3.4,1.4-4.6l0,0c0.1-0.4,0.1-0.7,0.2-0.9l0,0
			c0-0.1,0-0.3,0-0.4c0.1-0.4,0.1-0.7,0.1-0.7S177.6,263.9,168.5,273L168.5,273z"/>
		
			<linearGradient id="SVGID_00000096031968917280818050000003868017700011012231_" gradientUnits="userSpaceOnUse" x1="146.696" y1="996.9556" x2="146.696" y2="817.3887" gradientTransform="matrix(1 0 0 1 0 -577.8886)">
			<stop  offset="0" style="stop-color:#9E8CEF"/>
			<stop  offset="1" style="stop-color:#CAAFEE"/>
		</linearGradient>
		<path style="fill:url(#SVGID_00000096031968917280818050000003868017700011012231_);" d="M224.6,363.7c-0.1,0-0.2,0.1-0.2,0.1
			c-0.8,0.1-3.4-0.5-6.7-3.4l0,0l0,0l0,0c-2.8-2.5-6.2-6.5-9.5-13.2c-6.7-13.4-8.6-22.3-8.9-23.9v-0.2l-3.9,6.2
			c-2.6,8-7.7,41-7.6,42.4s4.5,8.3,4.4,9.2l0,0c-0.1,0.9-2.1,2.8-2.6,4.8c-0.4,1.4,2.3,5.7,4.1,8.9l0,0c1,1.7,1.7,3.1,1.7,3.6
			c0,1.5-4.7,8.9-4.7,8.9v4l-0.1,0.1l-0.2,0.2l-0.2,0.1c-1.8,1.4-9.4,6.1-33.3,7.4c-28.2,1.5-47.1-7.6-47.1-7.6l1.4-3.9
			c0,0-1.3-1.1-1.4-1.7s1-1.9,1-1.9s-2.8-1.5-2.8-3.4s5.7-7.8,5.5-12.8s-4.6-9.5-5.1-12.3s7.4-9.9,7.4-9.9
			c-6.8-21.6-8.1-50.6-8.1-50.6l-1.3-1.5c0,0-8.1,18.6-15.5,27.7c-0.9,1.1-1.8,2.1-2.8,3.2c-2.1,2.2-4.2,4.3-6.4,6.1
			c-5.1,4.5-9.8,7.4-10.9,7.2c-1.9-0.4-9.5-15.4-9.1-30.7c0.2-7.3,4.6-15.5,9.1-22c0.5-0.7,1-1.4,1.5-2.1c3.2-4.4,6.4-7.9,7.8-9.4
			c0.6-0.6,0.9-1,0.9-1s-1-3.4-1.8-6.3c0-0.1,0-0.1-0.1-0.2v-0.1v-0.1c-0.4-1.8-0.7-3.3-0.4-3.7c0.6-1,4.3-2.1,4.9-2.9
			c0.6-0.8,3.3-13.5,5.3-14.9c1.9-1.3,5.4-2.3,16.7-6.8c0.6-0.2,1.1-0.4,1.7-0.7c12.8-5.1,25.3-11.2,25.3-11.2l4.8-5.9h2.1l-0.7,1.5
			v0.1c0.3,1.5,0.7,3,1.2,4.4v0.1c6.6,20.8,23.6,27.5,23.6,27.5c11.8-8.7,11.6-22.5,11.6-22.5v-1.9l2.2,0.7l1.5,3.6
			c0,0,2.6,4,12.7,8.4c1.8,0.8,3.6,1.7,5.6,2.9c9.3,5.3,19.6,13.4,20.4,15.1c0.1,0.2,0.2,0.5,0.3,0.9l0,0c1.1,4.3,3.3,20.3,5.4,26
			c1.3,3.6,3.4,5.5,4.9,6.6c1,0.7,1,0.7,0,0c1.1,0.8,1.9,1,1.9,1c0.2,0.9,0.3,1.8,0.5,2.6C234.8,343.8,226.5,362.4,224.6,363.7
			L224.6,363.7z"/>
		
			<linearGradient id="SVGID_00000169524491133848689210000001490438872277370767_" gradientUnits="userSpaceOnUse" x1="72.068" y1="884.9886" x2="115.768" y2="884.9886" gradientTransform="matrix(1 0 0 1 0 -577.8886)">
			<stop  offset="0" style="stop-color:#CCCCFF"/>
			<stop  offset="1" style="stop-color:#755CBB"/>
		</linearGradient>
		<path style="opacity:0.5;fill:url(#SVGID_00000169524491133848689210000001490438872277370767_);enable-background:new    ;" d="
			M115.8,311.9l-8.2,2.8l-1.3-1.5c0,0-8.1,18.6-15.5,27.7c-0.9,1.1-1.8,2.1-2.8,3.2c-2.1,2.2-4.2,4.3-6.4,6.1l-6.3-27.1l-3.2-20.5
			c3.2-4.4,6.4-7.9,7.8-9.5c0.6-0.6,0.9-0.9,0.9-0.9s-1-3.4-1.8-6.3c0-0.1,0-0.1-0.1-0.2v-0.1c0-0.1,0-0.1,0-0.1
			c-0.4-1.8-0.7-3.3-0.4-3.7c0.6-1,4.3-2.1,4.9-2.9c0.6-0.8,3.3-13.5,5.3-14.9c0,0-1.3,12.2,5.7,27.8l3.4,4.8l10,8
			C107.9,304.6,111.7,309.6,115.8,311.9L115.8,311.9z"/>
		
			<linearGradient id="SVGID_00000028300718785056674110000005501740325923372971_" gradientUnits="userSpaceOnUse" x1="70.7768" y1="935.1886" x2="70.7768" y2="851.2786" gradientTransform="matrix(1 0 0 1 0 -577.8886)">
			<stop  offset="0" style="stop-color:#9E8CEF"/>
			<stop  offset="1" style="stop-color:#DAC7F3"/>
		</linearGradient>
		<path style="fill:url(#SVGID_00000028300718785056674110000005501740325923372971_);" d="M92,334.1c-1.8,13.1-21.3,23.2-21.3,23.2
			c-4.4,0-9.2-7.6-13.6-16.9s-4.7-36.2-4.9-37.9c-0.2-1.7-2.7-5-2.9-6.4c-0.1-1.4,4-4.4,4-4.4v-0.1v-0.1c-0.4-0.9-2.9-6.1-2.7-7.1
			s4.8-3.3,4.8-3.3l0.3,5.1c0,0,10.8-2,14.4-10.4l0.6-2.6l1.8,1.2v11c0,0,0.4,1.7,0.9,1.7s4.8-2.1,5.6-1.8c0.9,0.3,1.8,6.2,2.9,6.9
			c1.2,0.8,4.3,2.9,4.8,4c0.2,0.5,0.2,2.2,0.2,4.1c0,2.4,0.1,5.3,0.4,6.9C88.1,310.4,93.7,321,92,334.1L92,334.1z"/>
		
			<linearGradient id="SVGID_00000036243252338344034900000008944187491352799902_" gradientUnits="userSpaceOnUse" x1="215.0072" y1="911.1354" x2="271.3235" y2="911.1354" gradientTransform="matrix(1 0 0 1 0 -577.8886)">
			<stop  offset="0" style="stop-color:#A999F1"/>
			<stop  offset="1" style="stop-color:#DAC7F3"/>
		</linearGradient>
		<path style="fill:url(#SVGID_00000036243252338344034900000008944187491352799902_);" d="M271,322.9c-0.9,1.4-5.3,4.3-6.4,5.4
			c-1.1,1.1,0,4.9,0,4.9c-18.6,19.7-37.9,29.6-39.9,30.5c-0.1,0-0.2,0.1-0.2,0.1c-11.7-7.8-10.7-20.8-6.8-31.6
			c3.7-10.4,10-19,10.3-19.4l0,0l0,0c0.2-0.1,3.5-1.5,5.9-1.6c0.8-0.1,1.5,0.2,2.2,0.7c1.4,0.9,2.6,2.3,3.8,1.7
			c1.7-0.9,5.5-9.9,8.1-10.1c1.8-0.2,4.3,1.7,6,2.7c0.7,0.5,1.3,0.8,1.6,0.7c1-0.2,4.2-4.1,4.4-4.2c0.2-0.1,1.7,1,1.7,1l-1,1.3
			c1.6,9.1,6.8,15.2,6.8,15.2l3.5-5.1C271,314.9,271.8,321.5,271,322.9L271,322.9z"/>
		<path class="st24" d="M175,249.4c0,0.1,0,0.3,0,0.4c0,0.3-0.1,0.5-0.2,0.8l0,0c-1.2,4.4-6,8.9-12.1,6.8
			c-6.6-2.4-19.2-29.1-19.2-29.1l1.3-5.7l30,24.4l0.3,2.3L175,249.4L175,249.4z"/>
		<g>
			<path class="st25" d="M75.3,244.5c0,0-1.8-10.1-1-17.6c0.8-7.5-0.2-15.8-0.2-15.8s-1.8-0.8-3.1,0c-1.3,0.8-4.4,8.5-3,14.7
				s0.3,21,0.3,21h-2.2l-4.6-6.2l-2.2-0.6c0,0-12.7,12-12.5,19.1l1.7,6.4l15.7-0.5l10.2-11.7L75.3,244.5L75.3,244.5z"/>
			
				<linearGradient id="SVGID_00000003087978348612128540000007629067501274100129_" gradientUnits="userSpaceOnUse" x1="52.368" y1="839.8684" x2="52.368" y2="817.762" gradientTransform="matrix(1 0 0 1 0 -577.8886)">
				<stop  offset="2.000000e-02" style="stop-color:#FFC2A9"/>
				<stop  offset="1" style="stop-color:#FF9595"/>
			</linearGradient>
			<path style="fill:url(#SVGID_00000003087978348612128540000007629067501274100129_);" d="M59.4,239.9c0,0,0.3,8,2.1,14.8
				c0,0-0.3,2.8-3.6,3l-0.8-0.9c0,0-0.6,3.2-3.5,3.4l-2.8-2.8l0.7,2.3c0,0-1,2.4-3.6,2.3c0,0-4.4-3.4-4.6-7.9l4.3-3.6v-2.8l5.1-3.6
				l0.1-2C52.9,242,55.9,239.8,59.4,239.9L59.4,239.9z"/>
			
				<linearGradient id="SVGID_00000147940334187938240560000011557717774423344037_" gradientUnits="userSpaceOnUse" x1="66.168" y1="839.3554" x2="66.168" y2="802.7554" gradientTransform="matrix(1 0 0 1 0 -577.8886)">
				<stop  offset="0" style="stop-color:#FFEADB"/>
				<stop  offset="0.99" style="stop-color:#C27CB6"/>
			</linearGradient>
			<path style="opacity:0.6;fill:url(#SVGID_00000147940334187938240560000011557717774423344037_);enable-background:new    ;" d="
				M74.5,224.8c0,0-0.8,1.9-1.9,2.7s-4.2,1.3-4.2,1.3l-0.1,17.9h-2.2l-4.6-6.2c0,0,2.3,3.6,2.4,6.2l-1.8,0.9l-1.6-5.4l-0.7,3.9
				l0.7,4.8c0,0,2.7-2.3,7.6-2.4l0.7,1.3c0,0-8.8,7.3-10.9,11.6c0,0,4.4-5.5,14.3-11.7l0.9-2.9l1.3-7
				C74.6,239.9,73.5,229.8,74.5,224.8L74.5,224.8z"/>
			
				<linearGradient id="SVGID_00000021834124619804707800000001474647945673737634_" gradientUnits="userSpaceOnUse" x1="65.1936" y1="864.2886" x2="65.1936" y2="807.8286" gradientTransform="matrix(1 0 0 1 0 -577.8886)">
				<stop  offset="2.000000e-02" style="stop-color:#FFC2A9"/>
				<stop  offset="1" style="stop-color:#FF9595"/>
			</linearGradient>
			<path style="fill:url(#SVGID_00000021834124619804707800000001474647945673737634_);" d="M81.9,256c-0.8,2.5-9.4,12.7-10.4,14.9
				c-0.9,2.2-1.5,5.1-1.5,5.1c-4.2,9.1-14.4,10.4-14.4,10.4l-0.5-8.2c0,0-5.5-3.2-6.4-4.9l0,0l-0.1-0.3c-0.3-1.6,0-7.6,0-7.6
				l9.6-3.9c4.2-5.4,14.3-11.6,14.3-11.6l0.5-2.8c-7.3-3.6-6.1-14.4-4.8-15.7c1.2-1.3,3.5-1.3,3.5-1.3s2.7,8.7,4.4,12.8
				C77.6,246.8,82.7,253.5,81.9,256L81.9,256z"/>
			<path class="st29" d="M52.9,242c0,0,1.1,9.9,4.2,14.7c0,0-4-5-4.3-12.6L52.9,242L52.9,242z"/>
			<path class="st29" d="M47.7,247.7c0,0,1,8,6,12.5c0,0-4.4-2.2-6-9.7V247.7L47.7,247.7z"/>
			
				<linearGradient id="SVGID_00000047761605865630248680000000730139658465591199_" gradientUnits="userSpaceOnUse" x1="55.0566" y1="855.4886" x2="72.8166" y2="855.4886" gradientTransform="matrix(1 0 0 1 0 -577.8886)">
				<stop  offset="2.000000e-02" style="stop-color:#D1A1D6"/>
				<stop  offset="0.99" style="stop-color:#BD89C4"/>
			</linearGradient>
			
				<path style="opacity:0.91;fill:url(#SVGID_00000047761605865630248680000000730139658465591199_);enable-background:new    ;" d="
				M72.8,268.8c0,0-10.8,10.5-17.8,9.4l0.5,8.2c0,0,11.4-1,15.1-13C70.6,273.4,72,270,72.8,268.8L72.8,268.8z"/>
		</g>
		<g>
			
				<linearGradient id="SVGID_00000140727394419917459040000010317643463051417994_" gradientUnits="userSpaceOnUse" x1="272.4902" y1="898.6886" x2="272.4902" y2="823.1535" gradientTransform="matrix(1 0 0 1 0 -577.8886)">
				<stop  offset="2.000000e-02" style="stop-color:#FFC2A9"/>
				<stop  offset="1" style="stop-color:#FF9595"/>
			</linearGradient>
			<path style="fill:url(#SVGID_00000140727394419917459040000010317643463051417994_);" d="M301.9,283.1c0,0-10,18.2-21.6,23.8h-4
				l-9.2,13.9c0,0-5.9-3.7-6.4-16c0,0,2.1-2.2,2.6-4.6c0,0-3.3-2.6-4.2-4.5s-1.2-7.6-1.8-9.9s-6-7.2-7.2-7.8s-6.6-1-6.6-1
				s-0.8-2,0-2.9s9.2-4.2,13.8-1.1c0,0,0.3,2.4,0.8,3.7c0.5,1.3,4.5,5.7,5.2,5.7c0.7,0,3.4-2.3,4.5-4s7.3-14.9,8.7-19.3V259
				c0-0.1,0-0.1,0.1-0.2c0-0.1,0-0.1,0-0.1s0,0,0-0.1c1.1-3.9,7.8-11.2,11.3-13.3c0,0,1.5-0.4,2.3,1.5c0,0-2.8,8.1-5.8,12.9
				c-0.5,0.8-1,1.8-1.6,2.8l0,0c-2.5,4.6-5.4,10.7-5.8,11.6v0.1l1.6,0.8l4.3-4l4.4-4.1l10,10.6l-1,1.3l-3.1,4l1.6,0.3l3.7-4.1
				L301.9,283.1L301.9,283.1z"/>
			
				<linearGradient id="SVGID_00000176741149872826689570000013184034971463478921_" gradientUnits="userSpaceOnUse" x1="281.368" y1="874.4886" x2="281.368" y2="836.9786" gradientTransform="matrix(1 0 0 1 0 -577.8886)">
				<stop  offset="0" style="stop-color:#FFEADB"/>
				<stop  offset="0.99" style="stop-color:#C27CB6"/>
			</linearGradient>
			<path style="opacity:0.6;fill:url(#SVGID_00000176741149872826689570000013184034971463478921_);enable-background:new    ;" d="
				M299.5,286.9l-3.2,4.7c0,0-17.5-13.5-21.2-14.6c-3.8-1.1-5.2-0.4-5.2-0.4l-3.9,5c0,0,7.2,6.4,7.8,15c0,0-2.4-10.9-10.5-14.1
				c0.6,0,3.4-2.3,4.5-4s7.3-14.9,8.7-19.3c-0.2,0.8-0.5,2.2,0.2,3.4c0.9,1.6,5.9,0.1,6.2,0l0,0l-5.8,11.6v0.1l1.6,0.8l4.3-4.1
				l-2.1,5l15.6,2.8l-3.1,4l1.6,0.3L299.5,286.9L299.5,286.9z"/>
			
				<linearGradient id="SVGID_00000027593779726872716590000002318738331270006445_" gradientUnits="userSpaceOnUse" x1="288.868" y1="861.5154" x2="288.868" y2="844.7105" gradientTransform="matrix(1 0 0 1 0 -577.8886)">
				<stop  offset="0" style="stop-color:#FFB0B0"/>
				<stop  offset="0.98" style="stop-color:#FFC2A9"/>
			</linearGradient>
			<path style="fill:url(#SVGID_00000027593779726872716590000002318738331270006445_);" d="M287.4,266.8c0,0,3-0.4,5,3.5l-0.4,1.3
				c0,0,3,0.6,5.8,5.4c0,0-2.5,4.6-8.8,6.7c0,0-2.9-0.8-3.4-3.3l0.6-1.6l-2.3,1.7c0,0-2.7,0.8-3.9-3.2L287.4,266.8z"/>
			
				<linearGradient id="SVGID_00000005237308814365513890000014040975292645982371_" gradientUnits="userSpaceOnUse" x1="298.5414" y1="864.1154" x2="298.5414" y2="854.8954" gradientTransform="matrix(1 0 0 1 0 -577.8886)">
				<stop  offset="0" style="stop-color:#FFB0B0"/>
				<stop  offset="0.98" style="stop-color:#FFC2A9"/>
			</linearGradient>
			<path style="fill:url(#SVGID_00000005237308814365513890000014040975292645982371_);" d="M302.8,281.8c0,0,0.6-2.9-2.5-4.8
				l-6,6.6c0,0,0.2,2.1,2.8,2.6C297.1,286.2,301.2,284.8,302.8,281.8z"/>
			
				<linearGradient id="SVGID_00000018924377199077254070000008327506692826426293_" gradientUnits="userSpaceOnUse" x1="259.1165" y1="882.4886" x2="276.2665" y2="882.4886" gradientTransform="matrix(1 0 0 1 0 -577.8886)">
				<stop  offset="2.000000e-02" style="stop-color:#D1A1D6"/>
				<stop  offset="0.99" style="stop-color:#BD89C4"/>
			</linearGradient>
			
				<path style="opacity:0.91;fill:url(#SVGID_00000018924377199077254070000008327506692826426293_);enable-background:new    ;" d="
				M259.1,295.7c0,0,7,7.8,17.1,11.1l-4.4,6.7l-9.2-11.6l0.6-1.7C263.3,300.2,259.6,297.4,259.1,295.7L259.1,295.7z"/>
			<path class="st29" d="M291.9,271.6c0,0-2.9,4.8-5.8,7.2l-0.6,1.6c0,0,5.6-3.8,7.7-8.2C293.3,272.2,292.6,271.7,291.9,271.6
				L291.9,271.6z"/>
		</g>
		
			<linearGradient id="SVGID_00000032632325935891326430000010418774867319609272_" gradientUnits="userSpaceOnUse" x1="235.3219" y1="941.7009" x2="235.3219" y2="857.1886" gradientTransform="matrix(1 0 0 1 0 -577.8886)">
			<stop  offset="0" style="stop-color:#CCCCFF"/>
			<stop  offset="1" style="stop-color:#755CBB"/>
		</linearGradient>
		<path style="opacity:0.5;fill:url(#SVGID_00000032632325935891326430000010418774867319609272_);enable-background:new    ;" d="
			M271,322.9c-0.9,1.4-5.3,4.3-6.4,5.4c-1.1,1.1,0,4.9,0,4.9c-18.6,19.7-37.9,29.6-39.9,30.5c-0.1,0-0.2,0.1-0.2,0.1
			c-1.5,0.2-8.9-1.9-16.3-16.7c-6.7-13.4-8.6-22.3-8.9-23.9V323l1.6-2.2l2.4-27.3l1.7,5.5c6.4-7.8,12.5-19.7,12.5-19.7l0.3,0.9l0,0
			c1.1,4.3,3.3,20.3,5.4,26c1.3,3.6,3.4,5.5,4.9,6.6l0,0l0,0c-5.9,5.4-8.9,13.2-10.3,19.4c-1.3,5.7-1.4,10-1.4,10s1.6-7.7,6.8-17
			c1.9-3.4,4.6-6.4,7.3-8.9c2-1.9,4.1-3.4,5.7-4.6c1.4,0.9,2.6,2.3,3.8,1.7c-7.8,11.7-7.6,34.9-0.3,30.5s9-13.8,9-13.8
			c-1.7-11.4-1.2-24.3,0.2-26.8c1.7,0.1,6.5,3.4,6.8,3.4c-0.4,13.4,5.9,22.4,5.9,22.4l4.2-6.4c-6.1-10.2-5.6-20.2-5.6-20.2
			c0.2-0.1,1.7,1,1.7,1l-1,1.3c1.6,9.1,6.8,15.2,6.8,15.2l3.5-5.1C271,314.9,271.9,321.5,271,322.9L271,322.9z"/>
		
			<linearGradient id="SVGID_00000047767672964141348250000001017502288901456061_" gradientUnits="userSpaceOnUse" x1="49.268" y1="924.6721" x2="190.568" y2="924.6721" gradientTransform="matrix(1 0 0 1 0 -577.8886)">
			<stop  offset="0" style="stop-color:#CCCCFF"/>
			<stop  offset="1" style="stop-color:#755CBB"/>
		</linearGradient>
		<path style="opacity:0.5;fill:url(#SVGID_00000047767672964141348250000001017502288901456061_);enable-background:new    ;" d="
			M190.6,407v4l-0.1,0.1l-0.2,0.2l-0.2,0.1c-1.8,1.4-9.4,6.1-33.3,7.4c-28.2,1.5-47.1-7.6-47.1-7.6l1.4-3.9c0,0-1.3-1.1-1.4-1.7
			s1-1.9,1-1.9s-2.8-1.5-2.8-3.4c0-1.7,4.6-6.7,5.4-11.3c0.1-0.5,0.1-1,0.1-1.5c-0.2-5-4.5-9.4-5.1-12.3l0,0
			c-0.6-2.8,7.4-9.9,7.4-9.9c-6.8-21.6-8.1-50.6-8.1-50.6l-1.3-1.5c0,0-8.1,18.6-15.5,27.7s-18.2,16.9-20.1,16.5
			c-4.4,0-9.2-7.6-13.6-16.9s-4.7-36.2-4.9-37.9c-0.2-1.7-2.7-5-2.9-6.4c4.7,8.1,12.3,5.8,12.3,5.8c-5.5,0.1-8.3-10.1-8.3-10.1v-0.1
			v-0.1l-2.7-7.1c0.3,0.3,6.6,7.3,12.6,3c6.2-4.4,9.4-13,9.4-13v11c0,0,0.4,1.7,0.9,1.7c-0.4,5.1-1.4,11.2-2.7,17.3
			c-2.8,13.1-6.7,25.8-6.7,25.8s10.4-5.7,14.1-20.1c1.8-6.9,2-12.9,1.9-17.2c-0.1-3.7-0.6-6.3-0.8-7.2c0-0.1,0-0.1-0.1-0.2v-0.1l0,0
			l1,2.1l1.9,4.8c2.2,18.5-2.4,46.3-2.4,46.3c6.7-8.3,8.1-26.8,7.8-31.3c-0.1-2.1-0.3-4.8-0.4-6.9c-0.1-2.4-0.2-4.1-0.2-4.1
			l13.7,8.2l-2.5-8l10,8c0,0,9,10.8,18.2,12.1c9.2,1.3,43.1,0.5,43.1,0.5s-29.4,1.9-38,4.4s-10.5,5.3-10.5,5.3
			c6.2,31.6,40.6,42.2,41.7,42.6c-31.2-4.7-45.7-31.2-45.7-31.2s-0.5,14.9,1.9,20.6s16.6,19.6,34.7,22.5c1.5,0.2,3,0.4,4.5,0.5
			c15.3,0.7,28-7.1,29.3-8c0.1,0,0.1-0.1,0.1-0.1l0,0c-0.5,0.8-6.8,9.6-32.2,10.6c-1.5,0.1-3,0-4.5,0l0,0
			c-23.5-1-35.5-16.7-35.5-16.7s-8.7,4.7-3.1,11.6c0.1,0.1,0.1,0.1,0.2,0.2c1.6,1.9,5.2,4.2,9.5,6.6c0.1,0.1,0.2,0.1,0.4,0.2
			c5.2,2.9,11.2,5.8,15.9,8.2c0,0,0,0,0.1,0c2.9,1.5,5.2,2.8,6.5,3.7l0,0c1.3,1,1.6,1.6,0.3,1.7c-6.6,0.8-31.4-4.7-32.5-3.2
			c-1,1.5,1.2,5.4,1.2,5.4c22.8,11.3,71.7,5.7,73.2,5.6c-40.9,10.5-74.4-2.8-74.4-2.8l1.1,3.9c0,0,18.2,6.3,39.7,6.8s34.9-5,34.9-5
			L190.6,407L190.6,407z"/>
		
			<linearGradient id="SVGID_00000059283138060130882090000000651218059820032165_" gradientUnits="userSpaceOnUse" x1="173.7966" y1="900.9391" x2="200.7966" y2="900.9391" gradientTransform="matrix(1 0 0 1 0 -577.8886)">
			<stop  offset="0" style="stop-color:#CCEDFF"/>
			<stop  offset="1" style="stop-color:#755CBB"/>
		</linearGradient>
		<path style="opacity:0.5;fill:url(#SVGID_00000059283138060130882090000000651218059820032165_);enable-background:new    ;" d="
			M173.8,317c0,0,16.3,0.9,27,3.7l-5.5,8.4C195.3,329.2,187,321.8,173.8,317L173.8,317z"/>
		
			<linearGradient id="SVGID_00000167393281068808823910000011979619588322439584_" gradientUnits="userSpaceOnUse" x1="149.2679" y1="948.441" x2="188.968" y2="948.441" gradientTransform="matrix(1 0 0 1 0 -577.8886)">
			<stop  offset="0" style="stop-color:#CCEDFF"/>
			<stop  offset="1" style="stop-color:#755CBB"/>
		</linearGradient>
		<path style="opacity:0.5;fill:url(#SVGID_00000167393281068808823910000011979619588322439584_);enable-background:new    ;" d="
			M189,361.9c0,0-10.1,8.5-20.1,12.4s-19.6,4.3-19.6,4.3s5.7,1.7,19.9-0.6c14.1-2.3,19-9.9,19-9.9L189,361.9L189,361.9z"/>
		
			<linearGradient id="SVGID_00000027567274901876160260000012663749644852304270_" gradientUnits="userSpaceOnUse" x1="151.1667" y1="966.3514" x2="193.568" y2="966.3514" gradientTransform="matrix(1 0 0 1 0 -577.8886)">
			<stop  offset="0" style="stop-color:#CCEDFF"/>
			<stop  offset="1" style="stop-color:#755CBB"/>
		</linearGradient>
		<path style="opacity:0.5;fill:url(#SVGID_00000027567274901876160260000012663749644852304270_);enable-background:new    ;" d="
			M193.6,394.5L193.6,394.5c-18.8,4.9-42.6-2.1-42.4-3s6.5,0.4,21.2-2.6c14.2-2.9,19.4-7.9,19.7-8.2c-0.1,0.9-2.1,2.8-2.6,4.8
			C189,386.9,191.7,391.3,193.6,394.5z"/>
		
			<linearGradient id="SVGID_00000142165399356675220770000006940441877132605857_" gradientUnits="userSpaceOnUse" x1="114.668" y1="921.9254" x2="114.668" y2="874.3154" gradientTransform="matrix(1 0 0 1 0 -577.8886)">
			<stop  offset="0" style="stop-color:#CCEDFF"/>
			<stop  offset="1" style="stop-color:#755CBB"/>
		</linearGradient>
		<path style="opacity:0.5;fill:url(#SVGID_00000142165399356675220770000006940441877132605857_);enable-background:new    ;" d="
			M142.6,319.6c-16,1.6-20.4,6.1-20.4,6.1c-4.5,0.6-14.6-11-14.6-11l-1.3-1.5c0,0-8.1,18.6-15.5,27.7c-0.9,1.1-1.8,2.1-2.8,3.2
			l1.1-2.4c0,0,1.7-0.8,2.2-9.9c0.5-9-3.8-22.5-3.8-24.3s-0.7-11.1-0.7-11.1l13.7,8.2l-2.5-8l10,8c0,0,3.9,5.9,13.8,10.8
			C131,320,141.4,319.6,142.6,319.6z"/>
		
			<linearGradient id="SVGID_00000104679298144574282040000001828908341549223069_" gradientUnits="userSpaceOnUse" x1="118.418" y1="925.9254" x2="118.418" y2="889.8354" gradientTransform="matrix(1 0 0 1 0 -577.8886)">
			<stop  offset="0" style="stop-color:#CCEDFF"/>
			<stop  offset="1" style="stop-color:#755CBB"/>
		</linearGradient>
		<path style="opacity:0.5;fill:url(#SVGID_00000104679298144574282040000001828908341549223069_);enable-background:new    ;" d="
			M106.2,313.2l9.6-1.2c0,0,3.8,2.5,11.5,5.6l-6.4,9.4c0,0,2.5,13.4,9.8,21c0,0-19.3-10.7-22-19.8L106.2,313.2L106.2,313.2z"/>
		
			<linearGradient id="SVGID_00000039820105801847147050000003591657881970041480_" gradientUnits="userSpaceOnUse" x1="61.418" y1="879.7957" x2="61.418" y2="852.5283" gradientTransform="matrix(1 0 0 1 0 -577.8886)">
			<stop  offset="0" style="stop-color:#CCEDFF"/>
			<stop  offset="1" style="stop-color:#755CBB"/>
		</linearGradient>
		<path style="opacity:0.5;fill:url(#SVGID_00000039820105801847147050000003591657881970041480_);enable-background:new    ;" d="
			M50.5,284.6l2.7,7.2c0,0,2.8,9.7,8.3,10.1s10.9-16.3,10.9-16.3v-11c0,0-5.9,12.6-12.2,14C53.8,290.1,50.5,284.6,50.5,284.6z"/>
		
			<linearGradient id="SVGID_00000152950298967586305590000006631668452841979036_" gradientUnits="userSpaceOnUse" x1="83.468" y1="855.7886" x2="94.468" y2="855.7886" gradientTransform="matrix(1 0 0 1 0 -577.8886)">
			<stop  offset="0" style="stop-color:#CCEDFF"/>
			<stop  offset="1" style="stop-color:#755CBB"/>
		</linearGradient>
		<path style="opacity:0.5;fill:url(#SVGID_00000152950298967586305590000006631668452841979036_);enable-background:new    ;" d="
			M83.5,278.9c0,0,4.9,9.9,11,12.9c0,0-7.2-17.5-5.7-27.8C88.8,264,86.2,265.6,83.5,278.9L83.5,278.9z"/>
		
			<linearGradient id="SVGID_00000089541271015509988950000016903567148176071610_" gradientUnits="userSpaceOnUse" x1="202.968" y1="921.8886" x2="202.968" y2="871.3886" gradientTransform="matrix(1 0 0 1 0 -577.8886)">
			<stop  offset="0" style="stop-color:#CCCCFF"/>
			<stop  offset="1" style="stop-color:#755CBB"/>
		</linearGradient>
		<path style="opacity:0.76;fill:url(#SVGID_00000089541271015509988950000016903567148176071610_);enable-background:new    ;" d="
			M203.3,293.5l1.7,5.5l1.7,45c0,0-4.4-8.6-7.4-20.8l1.6-2.4C200.8,320.8,203.5,303.8,203.3,293.5L203.3,293.5z"/>
		
			<linearGradient id="SVGID_00000042701488423823136960000018332138643575906445_" gradientUnits="userSpaceOnUse" x1="259.7348" y1="911.0554" x2="259.7348" y2="884.6554" gradientTransform="matrix(1 0 0 1 0 -577.8886)">
			<stop  offset="0" style="stop-color:#CCCCFF"/>
			<stop  offset="1" style="stop-color:#755CBB"/>
		</linearGradient>
		<path style="opacity:0.5;fill:url(#SVGID_00000042701488423823136960000018332138643575906445_);enable-background:new    ;" d="
			M255.6,306.8c0,0-1,22.1,8.4,24l0.5,2.4C264.5,333.2,252.3,332.7,255.6,306.8L255.6,306.8z"/>
		
			<linearGradient id="SVGID_00000106143138958013038030000007015854323192915364_" gradientUnits="userSpaceOnUse" x1="229.768" y1="909.8886" x2="229.768" y2="889.6886" gradientTransform="matrix(1 0 0 1 0 -577.8886)">
			<stop  offset="0" style="stop-color:#CCCCFF"/>
			<stop  offset="1" style="stop-color:#755CBB"/>
		</linearGradient>
		<path style="opacity:0.3;fill:url(#SVGID_00000106143138958013038030000007015854323192915364_);enable-background:new    ;" d="
			M239.9,313.5c0,0-0.4,0.8-3.8-1.7c0,0-11.8,8.4-16.4,20.2c0,0,7.3-10.9,11.2-12c3.9-1.2,4.8,3.2,4.8,3.2S237.3,317,239.9,313.5
			L239.9,313.5z"/>
		
			<linearGradient id="SVGID_00000163794695180028848210000000585279263791412120_" gradientUnits="userSpaceOnUse" x1="55.708" y1="881.5331" x2="55.708" y2="874.0354" gradientTransform="matrix(1 0 0 1 0 -577.8886)">
			<stop  offset="0" style="stop-color:#CCEDFF"/>
			<stop  offset="1" style="stop-color:#755CBB"/>
		</linearGradient>
		<path style="opacity:0.5;fill:url(#SVGID_00000163794695180028848210000000585279263791412120_);enable-background:new    ;" d="
			M49.2,296.1c0,0,4.6,8.4,13.1,5.8c0,0-5.1,3.4-10.2,0.6C52.1,302.5,48.9,297.1,49.2,296.1z"/>
		
			<linearGradient id="SVGID_00000082344280961893602330000016713998151568341938_" gradientUnits="userSpaceOnUse" x1="75.6983" y1="904.3886" x2="75.6983" y2="863.3886" gradientTransform="matrix(1 0 0 1 0 -577.8886)">
			<stop  offset="0" style="stop-color:#CCCCFF"/>
			<stop  offset="1" style="stop-color:#755CBB"/>
		</linearGradient>
		<path style="opacity:0.5;fill:url(#SVGID_00000082344280961893602330000016713998151568341938_);enable-background:new    ;" d="
			M79,285.5c0,0,6.3,23.4-10.1,41c0,0,10.6-5.4,13-18C84.4,295.9,79,285.5,79,285.5L79,285.5z"/>
		
			<linearGradient id="SVGID_00000066510112497634955670000016037006607987889547_" gradientUnits="userSpaceOnUse" x1="181.1656" y1="875.5454" x2="181.1656" y2="844.7054" gradientTransform="matrix(1 0 0 1 0 -577.8886)">
			<stop  offset="0" style="stop-color:#CCEDFF"/>
			<stop  offset="1" style="stop-color:#755CBB"/>
		</linearGradient>
		<path style="opacity:0.5;fill:url(#SVGID_00000066510112497634955670000016037006607987889547_);enable-background:new    ;" d="
			M191.2,266.8c0,0-0.7,10.6-5.8,18.1c-5.1,7.6-15.1,12.7-15.1,12.7s12.6-4.6,18.4-11.2C194.4,279.9,191.2,266.8,191.2,266.8
			L191.2,266.8z"/>
		
			<linearGradient id="SVGID_00000059284648779635667630000000243205906820119229_" gradientUnits="userSpaceOnUse" x1="140.6697" y1="871.3854" x2="140.6697" y2="828.8254" gradientTransform="matrix(1 0 0 1 0 -577.8886)">
			<stop  offset="0" style="stop-color:#CCEDFF"/>
			<stop  offset="1" style="stop-color:#755CBB"/>
		</linearGradient>
		<path style="opacity:0.5;fill:url(#SVGID_00000059284648779635667630000000243205906820119229_);enable-background:new    ;" d="
			M126.7,250.9c0,0,0,8.8,2.8,17.8c2.8,9,27.5,24.7,27.5,24.7s-25.4-10.6-30.4-20.1C121.6,263.8,126.7,250.9,126.7,250.9z"/>
		
			<linearGradient id="SVGID_00000044177745397700812990000015598849931626146225_" gradientUnits="userSpaceOnUse" x1="126.368" y1="879.1848" x2="197.468" y2="879.1848" gradientTransform="matrix(1 0 0 1 0 -577.8886)">
			<stop  offset="0" style="stop-color:#8642A0"/>
			<stop  offset="1" style="stop-color:#6456C0"/>
		</linearGradient>
		<path style="fill:url(#SVGID_00000044177745397700812990000015598849931626146225_);" d="M126.4,293v14.4c0,0,33.1-0.3,70.2,2.2
			l0.9-12.9C197.5,296.6,165.2,292.8,126.4,293L126.4,293z"/>
		
			<linearGradient id="SVGID_00000029765361273431445290000005362396822686096772_" gradientUnits="userSpaceOnUse" x1="132.5166" y1="838.0386" x2="178.8166" y2="838.0386" gradientTransform="matrix(1 0 0 1 0 -577.8886)">
			<stop  offset="0" style="stop-color:#CCCCFF"/>
			<stop  offset="1" style="stop-color:#755CBB"/>
		</linearGradient>
		<path style="opacity:0.5;fill:url(#SVGID_00000029765361273431445290000005362396822686096772_);enable-background:new    ;" d="
			M178.8,252.8c-0.8,9.3-3.6,15.8-6.6,20.2c-4.2,6-8.7,8-8.7,8c-4.5-2-8.4-4.4-11.8-7.1c-14.3-11.4-18.9-27.2-19.2-28.5
			c6,14.5,14.9,23.4,21.6,28.3c5.4,4,9.4,5.5,9.4,5.5v-4.6c-1.1-0.4-2.1-0.9-3.1-1.4c-11.8-5.9-18-18.4-20.9-26.4c0,0,0,0,0-0.1
			c-1.6-4.3-2.2-7.4-2.2-7.4h2.1l-0.7,1.5v0.1c0.3,1.5,0.7,3,1.2,4.4v0.1c6.6,20.8,23.6,27.5,23.6,27.5
			c11.8-8.7,11.6-22.5,11.6-22.5v-1.9l2.2,0.7L178.8,252.8L178.8,252.8z"/>
		
			<linearGradient id="SVGID_00000017515696929064839870000016598718234503498173_" gradientUnits="userSpaceOnUse" x1="251.3763" y1="908.0454" x2="251.3763" y2="881.2754" gradientTransform="matrix(1 0 0 1 0 -577.8886)">
			<stop  offset="0" style="stop-color:#CCCCFF"/>
			<stop  offset="1" style="stop-color:#755CBB"/>
		</linearGradient>
		<path style="opacity:0.3;fill:url(#SVGID_00000017515696929064839870000016598718234503498173_);enable-background:new    ;" d="
			M248.8,303.4c0,0-3.2,10.5-0.2,26.8c0,0,1.5-20.6,2.6-22.4s4.3-1,4.3-1S250.6,304,248.8,303.4L248.8,303.4z"/>
		
			<linearGradient id="SVGID_00000039099311073296634170000016762767729565838254_" gradientUnits="userSpaceOnUse" x1="213.668" y1="938.2886" x2="213.668" y2="857.2886" gradientTransform="matrix(1 0 0 1 0 -577.8886)">
			<stop  offset="0" style="stop-color:#CCCCFF"/>
			<stop  offset="1" style="stop-color:#755CBB"/>
		</linearGradient>
		<path style="opacity:0.5;fill:url(#SVGID_00000039099311073296634170000016762767729565838254_);enable-background:new    ;" d="
			M217.7,360.4c-2.8-2.5-6.2-6.5-9.5-13.2c-6.7-13.4-8.6-22.3-8.9-23.9l1.6-2.4l2.1-20.6l2-1.2c0,0,7.1-7.9,12.5-19.7
			c0.1,0.2,0.2,0.5,0.3,0.9l0,0c1.1,4.3,3.3,20.3,5.4,26c1.3,3.6,3.4,5.5,4.9,6.6c0,0-12.3,18.3-12.9,31.3
			C214.6,355.9,217.2,359.8,217.7,360.4L217.7,360.4z"/>
		
			<linearGradient id="SVGID_00000116923974682582140380000003981827661629972099_" gradientUnits="userSpaceOnUse" x1="126.468" y1="976.3254" x2="126.468" y2="953.0854" gradientTransform="matrix(1 0 0 1 0 -577.8886)">
			<stop  offset="0" style="stop-color:#CCCCFF"/>
			<stop  offset="1" style="stop-color:#755CBB"/>
		</linearGradient>
		<path style="opacity:0.5;fill:url(#SVGID_00000116923974682582140380000003981827661629972099_);enable-background:new    ;" d="
			M144.6,398.4c0,0-22.2-3.6-31.2-9.5l0,0c0.1-0.5,0.1-1,0.1-1.5c-0.2-5-4.5-9.4-5.1-12.3c0.1,0.3,0.8,1.8,3.9,4.5
			c2,1.7,5,3.9,9.5,6.6c0.1,0.1,0.2,0.1,0.4,0.2c6.4,3.8,11.9,6.3,15.9,8.2c0,0,0,0,0.1,0C141.6,396.4,144,397.5,144.6,398.4
			L144.6,398.4L144.6,398.4z"/>
		
			<linearGradient id="SVGID_00000053511142956626607340000009391972530375184259_" gradientUnits="userSpaceOnUse" x1="171.618" y1="969.9415" x2="171.618" y2="958.6518" gradientTransform="matrix(1 0 0 1 0 -577.8886)">
			<stop  offset="0" style="stop-color:#CCCCFF"/>
			<stop  offset="1" style="stop-color:#755CBB"/>
		</linearGradient>
		<path style="opacity:0.5;fill:url(#SVGID_00000053511142956626607340000009391972530375184259_);enable-background:new    ;" d="
			M192.1,380.8c-0.1,0.9-2.1,2.8-2.6,4.8c0,0-8.1,8.6-38.3,6c0.2-0.9,6.5,0.4,21.2-2.6C186.6,386.1,191.8,381.1,192.1,380.8z"/>
		<path class="st58" d="M197.1,264.1l-19.3,6.2l-5.6,2.6l0,0h-3.7h-5l-3.1,0.3l-1.6,0.1l-4.7,0.4l-2.4,0.2l-23.1-8.4l-4.1-1.5
			l-19-6.9c0.6-0.2,1.1-0.4,1.7-0.7c12.8-5.1,25.3-11.2,25.3-11.2l4.8-5.9h2.1c1.9-4.2,3.2-8.1,4-11.2l1.3-5.7
			c0.1-0.6,0.1-0.9,0.1-0.9l6.8,3.6l22.9,18.3c0,1.2,0,2.4,0.1,3.3l0.3,2.3c0.1-0.4,0.1-0.7,0.1-0.7l2.2,0.7l1.5,3.6
			c0,0,2.6,4,12.7,8.4C193.3,262.1,195.1,263,197.1,264.1L197.1,264.1z"/>
		<g>
			
				<linearGradient id="SVGID_00000033339662226047582940000003902303682707580305_" gradientUnits="userSpaceOnUse" x1="171.0188" y1="824.9019" x2="171.0188" y2="747.6948" gradientTransform="matrix(1 0 0 1 0 -577.8886)">
				<stop  offset="2.000000e-02" style="stop-color:#FFC2A9"/>
				<stop  offset="1" style="stop-color:#FF9595"/>
			</linearGradient>
			<path style="fill:url(#SVGID_00000033339662226047582940000003902303682707580305_);" d="M182.4,246.6c0,0-9,2-18.9-2.8
				s-18.2-18.9-18.8-22.5c-0.5-3.5,3.8-12.8,3.8-20s-3.5-19.6,2.4-26.3c5.9-6.7,33.2-7.7,42.1,0.9c0,0,2.7,6.9,2.7,10.8
				c0,0.9-0.2,2.3-0.4,3.9c-0.1,0.6-0.2,1.2-0.3,1.9c-0.8,4.7-1.9,10.5-1.4,13c0.2,0.9,0.5,1.7,0.8,2.5l0,0c1.1,2.5,2.7,4.5,3,6.7
				C197.9,217.5,194,237.7,182.4,246.6L182.4,246.6z"/>
			
				<linearGradient id="SVGID_00000039813772036135804720000011728200998604891550_" gradientUnits="userSpaceOnUse" x1="142.3078" y1="793.729" x2="142.3078" y2="770.9654" gradientTransform="matrix(1 0 0 1 0 -577.8886)">
				<stop  offset="2.000000e-02" style="stop-color:#FFC2A9"/>
				<stop  offset="1" style="stop-color:#FF9595"/>
			</linearGradient>
			<path style="fill:url(#SVGID_00000039813772036135804720000011728200998604891550_);" d="M148.5,199.3c0,0-2.5-6.1-8.6-6.2
				c0,0-3.6,1.4-4.2,4.2c0,0,1.3,9.9,2.8,14.6c1.5,4.6,7.1,4,7.1,4S150.5,208.4,148.5,199.3L148.5,199.3z"/>
			
				<linearGradient id="SVGID_00000083806238767532873040000006740089687126196102_" gradientUnits="userSpaceOnUse" x1="181.7687" y1="802.3237" x2="182.7187" y2="797.3536" gradientTransform="matrix(1 0 0 1 0 -577.8886)">
				<stop  offset="0" style="stop-color:#E1616A"/>
				<stop  offset="1" style="stop-color:#FF8883"/>
			</linearGradient>
			<path style="fill:url(#SVGID_00000083806238767532873040000006740089687126196102_);" d="M172.1,219.6c0,0,2-0.2,2.9,0.5
				s4.1,3.8,8.2,4.6c4.1,0.9,6.8-2.6,7.7-2.8s1.8,1.1,1.8,1.1s-0.4-1.4-2.5-2.1c0,0-0.9,3.3-6.8,2.1c-5.9-1.1-8.4-3.7-8.4-3.7
				l-0.3-0.5C174.8,218.8,173.1,219.1,172.1,219.6L172.1,219.6z"/>
			
				<linearGradient id="SVGID_00000105395397134963567900000001489061034049657248_" gradientUnits="userSpaceOnUse" x1="173.268" y1="798.5454" x2="173.268" y2="748.7954" gradientTransform="matrix(1 0 0 1 0 -577.8886)">
				<stop  offset="0" style="stop-color:#FFEADB"/>
				<stop  offset="0.99" style="stop-color:#C27CB6"/>
			</linearGradient>
			<path style="opacity:0.6;fill:url(#SVGID_00000105395397134963567900000001489061034049657248_);enable-background:new    ;" d="
				M163.4,189l0.1-0.6c0,0,5.9-10.3,17.5-10.6s14.3,7,14.3,7l2.2-3.3l-4.9-10l-34.2-0.6l-8.3,6.7l-1,16.5l3.7,21.7l9,4.8l2.5-2.3
				c-0.9-7.3-6.4-13.9-6.4-13.9l4-2.7c0,0,10.1,4.9,16,3.4c0,0,4.4-12.9,4.1-22.4C182,182.8,166.9,185,163.4,189L163.4,189z"/>
			<path class="st63" d="M162.9,189.7c0,0,0.6-3.7,6.9-5.2c7-1.7,12.7-3.1,12.7-3.1s-1.2,4.1-3.6,5.6c0,0-7.4-0.3-11.1,0.6
				C164,188.5,162.9,189.7,162.9,189.7L162.9,189.7z"/>
			<path class="st63" d="M195.3,184.7c0,0-3.5,2.7-6,9.3c0,0,2.3-3,4.5-3c1.5,0,1.2,1.5,1.2,1.5S196.5,188.6,195.3,184.7
				L195.3,184.7z"/>
			
				<linearGradient id="SVGID_00000127012559371598948800000013059986190625096101_" gradientUnits="userSpaceOnUse" x1="170.768" y1="778.1554" x2="170.768" y2="768.3054" gradientTransform="matrix(1 0 0 1 0 -577.8886)">
				<stop  offset="0" style="stop-color:#CF6074"/>
				<stop  offset="1" style="stop-color:#F37270"/>
			</linearGradient>
			<path style="fill:url(#SVGID_00000127012559371598948800000013059986190625096101_);" d="M165.3,200.3c0,0,0.4-7.9,8-9.8
				c0,0,2.8,3.6,3,7.6C176.3,198,172.3,197.2,165.3,200.3z"/>
			
				<linearGradient id="SVGID_00000070083840021127707380000016260473175247626648_" gradientUnits="userSpaceOnUse" x1="190.3805" y1="781.2886" x2="190.3805" y2="772.7186" gradientTransform="matrix(1 0 0 1 0 -577.8886)">
				<stop  offset="0" style="stop-color:#CF6074"/>
				<stop  offset="1" style="stop-color:#FF817F"/>
			</linearGradient>
			<path style="fill:url(#SVGID_00000070083840021127707380000016260473175247626648_);" d="M187.2,203.4c0,0,0.6-6.3,4.2-8.6
				c0,0,2.5,1.8,2.2,7.1C193.7,201.9,191.5,201.1,187.2,203.4L187.2,203.4z"/>
			<path class="st66" d="M165.3,200.3c0,0,2.5,3.1,9.5,3.7c0,0,1.3-2,1.2-6C175.9,197.9,169.5,197.3,165.3,200.3L165.3,200.3z"/>
			<path class="st66" d="M187.2,203.4v0.9c0,0,1.1,2.2,4.9,2.6c0,0,1.2-1.9,1.4-5.1C193.5,201.9,191.1,201.3,187.2,203.4
				L187.2,203.4z"/>
			<path class="st67" d="M172.7,197.8c0,0-1.8,2.2-1.6,5.6c0,0,2.3,0.6,3.6,0.6c0,0,1.5-2.1,1.2-6
				C175.9,197.9,173.9,197.5,172.7,197.8L172.7,197.8z"/>
			<path class="st67" d="M190.9,202c0,0-1,1.1-1.2,4.4c0,0,1.4,0.6,2.5,0.6c0,0,1.4-2,1.4-5.1C193.5,201.9,192.5,201.5,190.9,202z"
				/>
			<path class="st63" d="M172.1,203.6c0,0-0.6-4.2,1.8-5.9l2,0.2c0,0,0.7,3.4-1.2,6C174.7,203.9,172.8,203.7,172.1,203.6
				L172.1,203.6z"/>
			<path class="st63" d="M191.8,201.8c0,0-0.9,1.9-1.3,4.8c0,0,0.7,0.3,1.7,0.3c0,0,1.4-1.7,1.4-5.1
				C193.5,201.9,192.5,201.6,191.8,201.8z"/>
			<path class="st68" d="M165.3,200.3c0,0,4.6-2.7,12.5-1.2l-1.5-1.1C176.3,198,170.7,196.2,165.3,200.3z"/>
			<path class="st68" d="M187.2,203.4c0,0,3.7-2,8.1-0.9l-1.8-1.3C193.5,201.1,190.6,200.7,187.2,203.4z"/>
			<path class="st0" d="M170.3,200.3c0,0,1.3-0.3,2.4,0.9C172.7,201.1,171.1,201.6,170.3,200.3z"/>
			<path class="st0" d="M188.9,203.9c0,0,2-0.4,2.7,0.5C191.6,204.5,190.5,205.2,188.9,203.9z"/>
			<path class="st69" d="M165.7,200.7c0,0,3.6,3.6,9.4,4.4l0.1-2.1l-0.5,0.9C174.7,203.9,169.2,203.6,165.7,200.7L165.7,200.7z"/>
			<path class="st69" d="M187.2,204.3c0,0,0.6,2.3,5.3,3.4l-0.1-1.1l-0.3,0.4C192.2,206.9,188.8,206.5,187.2,204.3z"/>
			<path class="st70" d="M177.8,213.5c0,0,1.8-0.4,5,0s6.8,1.3,8.8,0c0,0-2.6,2.6-4.9,3c-2.3,0.4-5.8-1.6-5.8-1.6h-1.5
				C179.4,215,178.3,214.4,177.8,213.5L177.8,213.5z"/>
			<path class="st71" d="M179.7,215c0,0,0.8-0.5,1.5-0.4s1.3,1.1,1.3,1.1S181.1,215,179.7,215z"/>
			<path class="st72" d="M191.6,213.5c0.8-0.8-3.5-8.6-5.6-8.9c-2.1-0.3-4,8.7-4,8.7s2.9,0.4,5.7,0.8
				C190.5,214.5,191.6,213.5,191.6,213.5L191.6,213.5z"/>
			
				<linearGradient id="SVGID_00000101788250162144031820000003399585887248256678_" gradientUnits="userSpaceOnUse" x1="191.236" y1="786.2754" x2="191.236" y2="766.9821" gradientTransform="matrix(1 0 0 1 0 -577.8886)">
				<stop  offset="0" style="stop-color:#FFEADB"/>
				<stop  offset="0.99" style="stop-color:#C27CB6"/>
			</linearGradient>
			<path style="opacity:0.6;fill:url(#SVGID_00000101788250162144031820000003399585887248256678_);enable-background:new    ;" d="
				M194.7,189.1c-1.2-0.1-5.4,4.9-5.4,4.9s-2.6,8.2-2.1,10.6c0.5,2.4,7,3.7,7,3.7l0.3-0.4l0,0c-0.3-0.8-0.6-1.6-0.8-2.5
				c-0.5-2.5,0.6-8.3,1.4-13c0,0,0.3-1,0.3-1.9C195.4,189.9,195.3,189.2,194.7,189.1L194.7,189.1z"/>
			
				<linearGradient id="SVGID_00000075861244669274531480000018004833076802862997_" gradientUnits="userSpaceOnUse" x1="172.0197" y1="825.8483" x2="172.0197" y2="732.2154" gradientTransform="matrix(1 0 0 1 0 -577.8886)">
				<stop  offset="0" style="stop-color:#2E33A0"/>
				<stop  offset="1" style="stop-color:#0665A5"/>
			</linearGradient>
			<path style="fill:url(#SVGID_00000075861244669274531480000018004833076802862997_);" d="M194.5,222.4c-1.3-2.8-0.5-4.2-12.1-5.7
				c-16.4-2.1-17.8,2.8-20.5,2.1c-0.1,0-0.2-0.1-0.3-0.1c-3-1.2-10.1-8.1-10.3-17.5c-0.2-9.8,6.4-16.7,6.4-16.7
				c-2.4-2-3.3-7.8-0.8-10.2c2.6-2.5,6.9-1.9,17.6-0.8c10.7,1.1,10.7,0.5,10.7,0.5c3.4,0.9,5.4,4.1,5.9,5.1c0.1,0.2,0.2,0.3,0.2,0.3
				l1.3-1.2c3.6,5.2,2.9,10.9,2.9,10.9s5.9-11.9,5.2-13.6c-1.2-3.1-4.6-7.7-4.8-8l0,0c0,0-1-9.1-3.8-9.1s-15,2.7-15,2.7
				c1.3-3.1,1.1-6.7,1.1-6.7v0.1c-4,3.6-7.8,3.9-13.3,6.5c-2.8,1.3-4.1,2.5-5.1,3.7l-0.4,0.4l-0.4,0.5c-0.4,0.5-0.8,1-1.2,1.5
				c0,0,0,0.1-0.1,0.1l0,0c-0.4,0.5-1,1-1.6,1.5c-3.6,2.9-11.5,4.9-12.5,8s1.2,7.3,2.3,11.7c1.1,4.4,0.6,8.2,0.6,8.2s3.8,4.9,2.5,12
				c-1.1,6.4-3.5,7.4-3.5,7.4c-1.7,3.5-0.9,6.8-0.9,6.8c3.5,13.9,18,22.2,18,22.2c12.9,4.8,21.4,2.7,21.4,2.7l0,0
				c9.4-6.1,12.6-26.3,12.7-27.3C196.6,220.5,194.9,223.2,194.5,222.4L194.5,222.4z M188.8,235.3c-2.3-0.4-2.8-6.1-3.5-6.9
				c-0.8-0.8-4.9-0.4-4.9-0.4s-3.8,4.3-5.3,4.4c-1.5,0.1-9.6-3.2-7.9-8.1c1.7-4.9,7.9-5.6,7.9-5.6s3.2,2.7,7.9,3s6.5-0.6,7-0.8
				c0.6-0.3,3.6,1.1,3.5,5.4C193.5,229.3,191,235.7,188.8,235.3L188.8,235.3z"/>
			<path class="st75" d="M188.2,206.4c0,0,4.1,5.1,3.7,7c-0.4,2.1-5.2,3.2-5.2,3.2s3.8-1.3,4.6-3.2
				C191.3,213.4,190.3,209.5,188.2,206.4L188.2,206.4z"/>
			
				<linearGradient id="SVGID_00000032613481353156867900000000451277675542041986_" gradientUnits="userSpaceOnUse" x1="196.7468" y1="766.8886" x2="196.7468" y2="745.2886" gradientTransform="matrix(1 0 0 1 0 -577.8886)">
				<stop  offset="0" style="stop-color:#FFEADB"/>
				<stop  offset="0.99" style="stop-color:#8860C7"/>
			</linearGradient>
			<path style="opacity:0.6;fill:url(#SVGID_00000032613481353156867900000000451277675542041986_);enable-background:new    ;" d="
				M195.6,189c0,0,0.7-5.7-2.9-10.9c2.9-5.2,3.3-10.7,3.3-10.7l0,0c1,2.4,1.5,7.1,1.5,7.1l3.3,0.9C201.5,177.1,195.6,189,195.6,189z
				"/>
			
				<linearGradient id="SVGID_00000167381083721966522160000001580827785160493462_" gradientUnits="userSpaceOnUse" x1="167.3909" y1="825.8427" x2="167.3909" y2="732.2154" gradientTransform="matrix(1 0 0 1 0 -577.8886)">
				<stop  offset="0" style="stop-color:#CCC2DB"/>
				<stop  offset="0.99" style="stop-color:#8860C7"/>
			</linearGradient>
			<path style="opacity:0.6;fill:url(#SVGID_00000167381083721966522160000001580827785160493462_);enable-background:new    ;" d="
				M191.2,179c-0.5-1-2.5-4.2-5.9-5.1c0,0,0,0.7-10.7-0.5c-10.7-1.1-15.1-1.7-17.6,0.8c-2.6,2.5-1.6,8.2,0.8,10.2
				c0,0-6.5,6.9-6.4,16.7c0.2,9.4,7.3,16.4,10.3,17.5l-0.1,1c0,0,0.5,21.5,5.8,23.2c5.2,1.7,16.1,0.8,17.1,1.8s-0.1,2.6-0.2,2.8l0,0
				c0,0-8.5,2.1-21.4-2.7c0,0-14.5-8.3-18-22.2c0,0-0.8-3.3,0.9-6.8c0,0,2.4-1,3.5-7.4c1.2-7.1-2.5-12-2.5-12s0.5-3.8-0.6-8.2
				c-1.1-4.4-3.3-8.6-2.3-11.7c6.1,0.9,10-2.2,10-2.2s1.1-1.5,5.8-2.2c4.7-0.8,23.5,1.1,23.5,1.1s-1.9-1.6-5.9-2.6
				c-3.8-1-16.6,0.2-18,0.3c1.5-0.3,16-2.8,17.7-2.3c1.8,0.5,8.1,3.4,8.1,3.4c-0.6-2.9-6.2-9.8-6.2-9.8s-8,0.1-13.2,1.2
				c-4.6,1-7.2,3.1-7.7,3.5l1.2-1.5l0.4-0.5l0.4-0.4l1.8-0.3l9.1-3.7c3.1-1.6,7-5.7,7.5-6.2v-0.1c0,0,0.2,3.6-1.1,6.7
				c7.7-0.9,10.3-0.5,10.3-0.5C191,165.5,191.2,179,191.2,179L191.2,179z"/>
			
				<linearGradient id="SVGID_00000114034416631226853890000016937030773684246968_" gradientUnits="userSpaceOnUse" x1="173.5595" y1="825.8275" x2="173.5595" y2="821.8075" gradientTransform="matrix(1 0 0 1 0 -577.8886)">
				<stop  offset="0" style="stop-color:#776D7E"/>
				<stop  offset="1" style="stop-color:#9D68C2"/>
			</linearGradient>
			<path style="opacity:0.5;fill:url(#SVGID_00000114034416631226853890000016937030773684246968_);enable-background:new    ;" d="
				M162.7,244.8c0,0,4.7-1.1,11.9-0.8c7.1,0.3,11.2,0.3,9.5,3.6C184.1,247.5,175.1,249.5,162.7,244.8z"/>
			
				<linearGradient id="SVGID_00000011713139371658567850000012701771895625592997_" gradientUnits="userSpaceOnUse" x1="185.368" y1="738.9354" x2="185.368" y2="735.9472" gradientTransform="matrix(1 0 0 1 0 -577.8886)">
				<stop  offset="0" style="stop-color:#1F77D1"/>
				<stop  offset="1" style="stop-color:#0686C9"/>
			</linearGradient>
			<path style="fill:url(#SVGID_00000011713139371658567850000012701771895625592997_);" d="M187.5,160.6c0,0,4.3-1.7,6.1-1.4
				c0,0-0.7-0.9-1.4-1.1c-0.7-0.2-15,3-15,3S186.1,160,187.5,160.6L187.5,160.6z"/>
			
				<linearGradient id="SVGID_00000024003741563044880030000011364665742653163150_" gradientUnits="userSpaceOnUse" x1="166.268" y1="748.7754" x2="166.268" y2="739.9382" gradientTransform="matrix(1 0 0 1 0 -577.8886)">
				<stop  offset="0" style="stop-color:#1F77D1"/>
				<stop  offset="1" style="stop-color:#0686C9"/>
			</linearGradient>
			<path style="fill:url(#SVGID_00000024003741563044880030000011364665742653163150_);" d="M178.7,162.2c0,0-0.3,4.7-1.9,6.4
				l-17.7,2.3l-5.2-0.9c0,0,2-0.9,4.2-3.4C160.4,164,171.9,161.4,178.7,162.2L178.7,162.2z"/>
			
				<linearGradient id="SVGID_00000166645281868760606170000008926129296410204058_" gradientUnits="userSpaceOnUse" x1="198.368" y1="753.2554" x2="198.368" y2="745.2854" gradientTransform="matrix(1 0 0 1 0 -577.8886)">
				<stop  offset="0" style="stop-color:#1F77D1"/>
				<stop  offset="1" style="stop-color:#0686C9"/>
			</linearGradient>
			<path style="fill:url(#SVGID_00000166645281868760606170000008926129296410204058_);" d="M196,167.4c0,0,1.4,4.7,1.5,7.1l3.3,0.9
				C200.8,175.4,199.8,171.8,196,167.4z"/>
			
				<linearGradient id="SVGID_00000044141077691905730050000002718223875360284827_" gradientUnits="userSpaceOnUse" x1="145.5883" y1="788.3478" x2="135.3911" y2="775.8611" gradientTransform="matrix(1 0 0 1 0 -577.8886)">
				<stop  offset="0" style="stop-color:#FFEADB"/>
				<stop  offset="0.99" style="stop-color:#B060F4"/>
			</linearGradient>
			<path style="opacity:0.8;fill:url(#SVGID_00000044141077691905730050000002718223875360284827_);enable-background:new    ;" d="
				M147.8,207.7c0,0-1.2-6-4.3-8.9c-3-2.9-6.5-2-6.5-2s1,11.1,1.9,13.8c0.9,2.7,2.5,3.4,2.5,3.4s-2.1-1.9-2.4-5.5
				c-0.3-3.7-0.4-8.8,0.4-9.4c0.8-0.6,4.1,1.8,4.1,1.8s-1,1.3-1.6,4.5c-0.6,3.3,1.7,5.6,2.5,5.6s0-3.8,0.1-4.8
				C144.6,205.2,146.5,205.1,147.8,207.7L147.8,207.7z"/>
			
				<linearGradient id="SVGID_00000103265083572950633690000008855481449880222615_" gradientUnits="userSpaceOnUse" x1="146.6827" y1="786.7127" x2="141.6672" y2="780.5781" gradientTransform="matrix(1 0 0 1 0 -577.8886)">
				<stop  offset="0" style="stop-color:#FFEADB"/>
				<stop  offset="0.99" style="stop-color:#B060F4"/>
			</linearGradient>
			<path style="opacity:0.8;fill:url(#SVGID_00000103265083572950633690000008855481449880222615_);enable-background:new    ;" d="
				M144.7,200.2c0,0-3.3,2.2-3,6.7c0.4,4.5,2.9,4.3,2.9,3.3c0-0.9-0.5-3.4-0.2-4.7c0.3-1.4,2.5-0.8,2.5-0.8S145.4,201.2,144.7,200.2
				L144.7,200.2z"/>
			<path class="st84" d="M196.8,220.2c0,0-4.1,18.9-12.7,27.3C184.1,247.5,193.9,243.7,196.8,220.2z"/>
			<path class="st84" d="M192.2,158.1c0,0,2.2,1.7,2.6,7.6c0.4,5.9-2.1,12.4-2.1,12.4s3.3-4.9,3.6-10.3
				C196.6,162.5,193.9,158.7,192.2,158.1L192.2,158.1z"/>
		</g>
		
			<linearGradient id="SVGID_00000063634983376090316880000009954538538347822269_" gradientUnits="userSpaceOnUse" x1="165.7266" y1="749.5553" x2="182.9966" y2="749.5553" gradientTransform="matrix(1 0 0 1 0 -577.8886)">
			<stop  offset="0" style="stop-color:#1F77D1"/>
			<stop  offset="1" style="stop-color:#0686C9"/>
		</linearGradient>
		<path style="fill:url(#SVGID_00000063634983376090316880000009954538538347822269_);" d="M165.8,170.4c0,0,5,1.7,10.6,2.2
			c5.5,0.5,6.7,0.6,6.7,0.6s-2.2-2.2-7-2.8C171.3,169.8,165.8,170.4,165.8,170.4z"/>
		
			<linearGradient id="SVGID_00000137105771277992617270000007055936872144966305_" gradientUnits="userSpaceOnUse" x1="190.0866" y1="801.1213" x2="195.3166" y2="801.1213" gradientTransform="matrix(1 0 0 1 0 -577.8886)">
			<stop  offset="0" style="stop-color:#1F77D1"/>
			<stop  offset="1" style="stop-color:#0686C9"/>
		</linearGradient>
		<path style="fill:url(#SVGID_00000137105771277992617270000007055936872144966305_);" d="M190.2,220.6c0,0,2.4,0,3.4,3
			c0.8,2.4,1,4.5,1,4.5l0.9-3.3c0,0-1.1-4.2-2.3-5.2c-0.8-0.7-2.3-1.4-3-1.2L190.2,220.6L190.2,220.6z"/>
		
			<linearGradient id="SVGID_00000172430496686129694630000017463431106351204773_" gradientUnits="userSpaceOnUse" x1="183.6166" y1="797.2962" x2="189.2666" y2="797.2962" gradientTransform="matrix(1 0 0 1 0 -577.8886)">
			<stop  offset="0" style="stop-color:#1F77D1"/>
			<stop  offset="1" style="stop-color:#0686C9"/>
		</linearGradient>
		<path style="fill:url(#SVGID_00000172430496686129694630000017463431106351204773_);" d="M183.6,217.6l0.4,3.6
			c0,0,2.9,0.2,4.9-0.6l0.4-2.2C189.3,218.5,185.5,217.5,183.6,217.6L183.6,217.6z"/>
		<path class="st84" d="M197.1,264.1c0,0,17.2,12.6,19.5,16.9c2.2,4.3,3.1,17.9,6.2,23.8c0,0-2.1-9.6-3.5-17.1
			c-1.5-7.5-1.1-7.6-1.9-9.5S203.6,267.4,197.1,264.1L197.1,264.1z"/>
		<path class="st84" d="M194,334.2c0,0-8.3,35.5-7.9,37.9c0.4,2.4,5.8,7.3,6,8.6c0,0-4.1,5.5-3.9,6.7s7.2,8.9,7,11.3
			c0,0.7-4.6,8.2-4.6,8.2s5.1-7.4,5.4-8.5s-6.3-11-6.5-12c-0.5-2.6,3.3-4.5,3.4-6.2c0.1-1.7-5.1-5.9-5.1-8.6
			C187.7,368.8,194,334.2,194,334.2L194,334.2z"/>
		<path class="st84" d="M195.7,418.9c0,0,18,40.6,24.1,81.3C219.7,500.2,218.7,460.5,195.7,418.9z"/>
		<path class="st72" d="M81.9,256c0,0-4.6-1-6.6-5c-1.9-4.1-0.7-9.9-0.7-9.9s3.6,7,5.4,9.4S82.4,255.5,81.9,256L81.9,256z"/>
	</g>
</g>
<g>
	<g>
		<path class="st84" d="M130.3,304.6c0.6,0.3,1.5,0.6,2.4,0.6c1.4,0,2.2-0.8,2.1-1.8c0-1-0.6-1.5-2-2c-1.7-0.6-2.8-1.4-2.9-2.8
			c0-1.6,1.3-2.9,3.3-2.9c1.1,0,1.9,0.2,2.4,0.5c-0.1,0.4-0.2,0.7-0.4,1.1c-0.3-0.2-1.1-0.5-2-0.4c-1.4,0-2,0.9-1.9,1.6
			c0,1,0.7,1.4,2.1,1.9c1.8,0.6,2.7,1.5,2.7,3c0,1.6-1.1,3-3.6,3.1c-1,0-2.1-0.2-2.7-0.6C130.1,305.3,130.1,305,130.3,304.6z"/>
		<path class="st84" d="M137.9,295.8c0.7-0.1,1.5-0.2,2.6-0.2c1.4,0,2.3,0.3,3,0.8c0.6,0.5,0.9,1.2,0.9,2.2c0,0.9-0.3,1.7-0.8,2.2
			c-0.7,0.7-1.9,1.1-3.2,1.2c-0.4,0-0.8,0-1.1-0.1c0,1.7,0,2.5,0.1,4.1c-0.5,0-0.8,0-1.3,0C138,301.9,138,299.9,137.9,295.8z
			 M139.4,300.8c0.3,0.1,0.7,0.1,1.1,0.1c1.6,0,2.6-0.8,2.6-2.2c0-1.4-1-2-2.5-2c-0.6,0-1,0.1-1.3,0.1
			C139.3,298.4,139.4,299.2,139.4,300.8z"/>
		<path class="st84" d="M151.7,301.1c-1.6,0-2.4,0-4.1,0c0,1.5,0,2.2,0,3.7c1.8,0,2.7,0,4.5,0c0,0.4,0,0.7,0,1.1c-2.3,0-3.5,0-5.8,0
			c0-4.1,0-6.2,0-10.3c2.3,0,3.4,0,5.7,0c0,0.4,0,0.7,0,1.1c-1.7,0-2.6,0-4.3,0c0,1.3,0,2,0,3.3c1.6,0,2.4,0,4.1,0
			C151.7,300.5,151.7,300.7,151.7,301.1z"/>
		<path class="st84" d="M159.4,301.3c-1.6,0-2.4-0.1-4.1-0.1c0,1.5,0,2.2-0.1,3.7c1.8,0,2.7,0,4.5,0.1c0,0.4,0,0.7,0,1.1
			c-2.3-0.1-3.5-0.1-5.8-0.1c0.1-4.1,0.1-6.2,0.2-10.3c2.3,0,3.4,0.1,5.7,0.1c0,0.4,0,0.7,0,1.1c-1.7,0-2.6-0.1-4.3-0.1
			c0,1.3,0,2-0.1,3.3c1.6,0,2.4,0,4.1,0.1C159.4,300.6,159.4,300.8,159.4,301.3z"/>
		<path class="st84" d="M161.8,296c0.8-0.1,1.8-0.2,2.9-0.1c2,0.1,3.3,0.6,4.2,1.5c0.9,0.9,1.4,2.1,1.3,3.8c-0.1,1.7-0.7,3-1.7,4
			c-1,0.9-2.6,1.4-4.6,1.3c-1,0-1.8-0.1-2.4-0.2C161.6,302.1,161.6,300,161.8,296z M162.8,305.1c0.3,0.1,0.8,0.1,1.4,0.1
			c2.9,0.1,4.5-1.4,4.6-4.2c0.1-2.4-1.2-4.1-4.1-4.2c-0.7,0-1.2,0-1.6,0.1C163,300.2,162.9,301.9,162.8,305.1z"/>
		<path class="st84" d="M171.6,304.9c0.6,0.4,1.4,0.7,2.4,0.8c1.4,0.1,2.2-0.6,2.3-1.6c0.1-1-0.5-1.6-1.9-2.2
			c-1.6-0.7-2.7-1.6-2.6-3.1c0.1-1.6,1.5-2.7,3.6-2.6c1.1,0.1,1.8,0.3,2.3,0.6c-0.2,0.4-0.3,0.6-0.4,1.1c-0.3-0.2-1-0.6-2-0.6
			c-1.4-0.1-2,0.7-2.1,1.4c0,1,0.6,1.5,2,2.1c1.7,0.8,2.6,1.7,2.5,3.2c-0.1,1.6-1.4,2.9-3.8,2.8c-1-0.1-2.1-0.4-2.6-0.8
			C171.4,305.6,171.4,305.4,171.6,304.9z"/>
		<path class="st84" d="M181.3,296.7c-0.2,2.4-0.2,3.7-0.4,6.1c-0.2,2.3,0.8,3.4,2.2,3.5c1.5,0.1,2.6-0.8,2.8-3.1
			c0.2-2.4,0.3-3.7,0.5-6.1c0.6,0,0.8,0.1,1.4,0.1c-0.2,2.4-0.3,3.6-0.5,6c-0.2,3.2-2,4.3-4.3,4.2c-2.1-0.1-3.6-1.5-3.4-4.7
			c0.2-2.4,0.2-3.6,0.4-6.1C180.5,296.7,180.7,296.7,181.3,296.7z"/>
		<path class="st84" d="M190.1,297.4c0.5,0,0.8,0.1,1.4,0.1c-0.3,3.7-0.5,5.5-0.8,9.2c1.8,0.2,2.7,0.2,4.4,0.4
			c0,0.4-0.1,0.7-0.1,1.1c-2.3-0.2-3.4-0.3-5.7-0.5C189.5,303.6,189.7,301.5,190.1,297.4z"/>
	</g>
</g>
</svg>
