<?xml version="1.0" encoding="utf-8"?>
<!-- Generator: Adobe Illustrator 27.4.0, SVG Export Plug-In . SVG Version: 6.00 Build 0)  -->
<svg version="1.1" id="Camada_1" xmlns="http://www.w3.org/2000/svg" xmlns:xlink="http://www.w3.org/1999/xlink" x="0px" y="0px"
	 viewBox="0 0 750 500" style="enable-background:new 0 0 750 500;" xml:space="preserve">
<style type="text/css">
	.st0{fill:#679AF8;}
	.st1{fill:#FFFFFF;}
	.st2{fill:none;stroke:#FFFFFF;stroke-width:1.9569;stroke-miterlimit:10;}
	.st3{fill:none;stroke:#FFFFFF;stroke-width:2.2315;stroke-miterlimit:10;}
	.st4{fill:none;stroke:#679AF8;stroke-width:0.7353;stroke-miterlimit:10;stroke-dasharray:2.9414,2.9414;}
	.st5{fill:none;stroke:#679AF8;stroke-width:0.7353;stroke-miterlimit:10;}
	.st6{fill:none;stroke:#FFFFFF;stroke-width:1.957;stroke-linecap:round;stroke-linejoin:round;stroke-miterlimit:10;}
	.st7{fill:none;stroke:#FFFFFF;stroke-width:1.9569;stroke-linecap:round;stroke-linejoin:round;stroke-miterlimit:9.9996;}
	.st8{fill:url(#SVGID_1_);}
	.st9{opacity:0.5;fill:url(#SVGID_00000000209609450603755890000008719810563937174179_);enable-background:new    ;}
	.st10{opacity:0.5;fill:url(#SVGID_00000044137771074396060700000017686898253897688714_);enable-background:new    ;}
	.st11{fill:url(#SVGID_00000084519701525605429030000012704864121014015127_);}
	.st12{fill:url(#SVGID_00000152224785070574430200000007418101701348517034_);}
	.st13{opacity:0.76;fill:url(#SVGID_00000083087220753243715430000009985752063581557425_);enable-background:new    ;}
	.st14{opacity:0.76;fill:url(#SVGID_00000156573874532721432430000005472461990667078543_);enable-background:new    ;}
	.st15{opacity:0.76;fill:url(#SVGID_00000095332945320711055820000003337811210931015304_);enable-background:new    ;}
	.st16{fill:#FE9083;}
	.st17{fill:url(#SVGID_00000084499250273677705610000001185178975108093348_);}
	.st18{opacity:0.5;fill:url(#SVGID_00000141415137411156696710000004214274204031857818_);enable-background:new    ;}
	.st19{fill:url(#SVGID_00000004508982812016720620000001359666387257518216_);}
	.st20{opacity:0.5;fill:url(#SVGID_00000077318691429515595980000010309021544684882879_);enable-background:new    ;}
	.st21{fill:url(#SVGID_00000065766876193403005630000001130968344521087656_);}
	.st22{fill:url(#SVGID_00000062879412155002620630000000637398696916495768_);}
	.st23{fill:#CB4D7A;}
	.st24{fill:#EE8183;}
	.st25{fill:url(#SVGID_00000119086362159872464500000004320730497937640606_);}
	.st26{opacity:0.6;fill:url(#SVGID_00000150785215455652217720000006521126362191971225_);enable-background:new    ;}
	.st27{fill:url(#SVGID_00000044139126350041372800000006641933629494493099_);}
	.st28{fill:#E28183;}
	.st29{opacity:0.91;fill:url(#SVGID_00000183935660339928260080000011305527556849380011_);enable-background:new    ;}
	.st30{fill:url(#SVGID_00000021101896287990214980000010730315648570987172_);}
	.st31{opacity:0.6;fill:url(#SVGID_00000032634880358985292920000000520833532463119273_);enable-background:new    ;}
	.st32{fill:url(#SVGID_00000109028926527186984890000006777077710165741963_);}
	.st33{fill:url(#SVGID_00000151533086803663090560000007650632045440389055_);}
	.st34{opacity:0.91;fill:url(#SVGID_00000023272582839562689960000012044779060821322670_);enable-background:new    ;}
	.st35{opacity:0.5;fill:url(#SVGID_00000039838726924839035770000013961143518752645518_);enable-background:new    ;}
	.st36{opacity:0.5;fill:url(#SVGID_00000049903881925812120550000010611562782257258662_);enable-background:new    ;}
	.st37{opacity:0.5;fill:url(#SVGID_00000156546432199173444090000007813157847087496612_);enable-background:new    ;}
	.st38{opacity:0.5;fill:url(#SVGID_00000063630455752093181180000003781846021810791860_);enable-background:new    ;}
	.st39{opacity:0.5;fill:url(#SVGID_00000104695935453295887670000017755736007732202156_);enable-background:new    ;}
	.st40{opacity:0.5;fill:url(#SVGID_00000084502831568074785480000001486704743590278308_);enable-background:new    ;}
	.st41{opacity:0.5;fill:url(#SVGID_00000106129757640111859130000018304133999002183867_);enable-background:new    ;}
	.st42{opacity:0.5;fill:url(#SVGID_00000160163957819181363490000011361086916110188707_);enable-background:new    ;}
	.st43{opacity:0.5;fill:url(#SVGID_00000054230530164574177370000005527068915806527408_);enable-background:new    ;}
	.st44{opacity:0.76;fill:url(#SVGID_00000060730788366249742460000008816685851765233294_);enable-background:new    ;}
	.st45{opacity:0.5;fill:url(#SVGID_00000130621817023261844870000001512417142052566692_);enable-background:new    ;}
	.st46{opacity:0.3;fill:url(#SVGID_00000077305739595542680230000009848300923767984813_);enable-background:new    ;}
	.st47{opacity:0.5;fill:url(#SVGID_00000059308730623094226570000009881293720734331064_);enable-background:new    ;}
	.st48{opacity:0.5;fill:url(#SVGID_00000054261791065955633210000008519874684948353947_);enable-background:new    ;}
	.st49{opacity:0.5;fill:url(#SVGID_00000129176481100922371150000017197134554399648940_);enable-background:new    ;}
	.st50{opacity:0.5;fill:url(#SVGID_00000098207980532674726100000005831596500510224289_);enable-background:new    ;}
	.st51{fill:url(#SVGID_00000045579961462886102900000006908288327759765162_);}
	.st52{opacity:0.5;fill:url(#SVGID_00000005258215210618167610000014133217136000832661_);enable-background:new    ;}
	.st53{opacity:0.3;fill:url(#SVGID_00000023277562810236551390000009720812468209622417_);enable-background:new    ;}
	.st54{opacity:0.5;fill:url(#SVGID_00000160178413721126087100000013961248562056874171_);enable-background:new    ;}
	.st55{opacity:0.5;fill:url(#SVGID_00000118366665765329233590000016320174047926850958_);enable-background:new    ;}
	.st56{opacity:0.5;fill:url(#SVGID_00000088115365996813490020000015506931913920370334_);enable-background:new    ;}
	.st57{opacity:0.5;fill:#7A4AC0;enable-background:new    ;}
	.st58{fill:url(#SVGID_00000044858931881993278320000003168477330272421050_);}
	.st59{fill:url(#SVGID_00000064346176892141880590000001624929915333494423_);}
	.st60{fill:url(#SVGID_00000057107255948297413170000002304384105234503350_);}
	.st61{opacity:0.6;fill:url(#SVGID_00000167362845316308710500000004614798003858131875_);enable-background:new    ;}
	.st62{fill:#38368E;}
	.st63{fill:url(#SVGID_00000092425524008689217350000001987462295667643560_);}
	.st64{fill:url(#SVGID_00000084510002034345472640000011133748761608485768_);}
	.st65{fill:#FFEBED;}
	.st66{fill:#7F9EC9;}
	.st67{fill:#131163;}
	.st68{fill:#C6659C;}
	.st69{fill:#CB5F7D;}
	.st70{fill:#9F4A8B;}
	.st71{fill:#FFBCAF;}
	.st72{opacity:0.6;fill:url(#SVGID_00000024682396645071201910000014689375507396683704_);enable-background:new    ;}
	.st73{fill:url(#SVGID_00000163071513786254966870000007569554702346805180_);}
	.st74{fill:#D2726C;}
	.st75{opacity:0.6;fill:url(#SVGID_00000007420764680059255980000007805685607898554782_);enable-background:new    ;}
	.st76{opacity:0.6;fill:url(#SVGID_00000074415634406522172870000010832992951332539288_);enable-background:new    ;}
	.st77{opacity:0.5;fill:url(#SVGID_00000181058753823119571320000016656816050201176213_);enable-background:new    ;}
	.st78{fill:url(#SVGID_00000079462813792613531690000016108796156397636266_);}
	.st79{fill:url(#SVGID_00000099644211226295839500000013585452957927792560_);}
	.st80{fill:url(#SVGID_00000136411811372216462210000003414279054181297584_);}
	.st81{opacity:0.8;fill:url(#SVGID_00000158015983438563265000000014212814282436148121_);enable-background:new    ;}
	.st82{opacity:0.8;fill:url(#SVGID_00000140723519546036420700000001185237170137781418_);enable-background:new    ;}
	.st83{fill:#34C7FF;}
	.st84{fill:url(#SVGID_00000099624263858266174640000007648442505303529355_);}
	.st85{fill:url(#SVGID_00000000220128937207460010000016753784186195831212_);}
	.st86{fill:url(#SVGID_00000176037092105199582390000010667927338519581099_);}
	.st87{fill:#F13C7E;}
	.st88{fill:#645ABD;}
</style>
<g id="BACKGROUND">
</g>
<g>
	<path class="st0" d="M0,0v287.8c39.3,8.7,98.4,12.1,135.2,1c30-9,44.6-34.1,90.7-32.4c30.8,1.1,45.4,15.8,59.8,27.2
		c26.1,20.7,79.7,37.8,134.8,33.5c64.7-5.1,91.2-27.6,158.3-10.6c31.3,7.9,66,14,102.5,15.2c23.3,0.8,47.4-0.7,68.8-4.5V0H0z"/>
	<g>
		<g>
			<g>
				<g>
					<path class="st1" d="M23.4,155.6c-4.7-7.5-2.4-17.5,5.1-22.2s17.5-2.4,22.2,5.1s2.4,17.5-5.1,22.2
						C38.1,165.4,28.1,163.1,23.4,155.6z M49.2,139.5c-4.2-6.7-13-8.7-19.7-4.5s-8.7,13-4.5,19.7s13,8.7,19.7,4.5
						S53.3,146.2,49.2,139.5z"/>
				</g>
				<g>
					<g>
						<path class="st1" d="M43,132.7l12.1-2.3l4.9,7.8l-7.4,9.9l-1.1-3.1c-1.3-3.7-3.4-7.2-6.2-9.9L43,132.7z M50.6,138.6
							c1.1,1.7,2,3.6,2.7,5.5l4.6-6.1l-3.5-5.6l-7.5,1.4C48.2,135.3,49.5,136.9,50.6,138.6z"/>
					</g>
					<g>
						<path class="st1" d="M18.9,163.8L14,156l7.4-9.9l1.4,4c1.1,3.1,2.9,6,5.2,8.3l3,3L18.9,163.8z M16.3,156.1l3.5,5.6l7.5-1.4
							l-0.6-0.6c-2.5-2.5-4.5-5.6-5.6-9l-0.3-0.8L16.3,156.1z"/>
					</g>
				</g>
				<g>
					<g>
						<path class="st1" d="M27.6,134.7l4-11.7l9.2-0.3l4.9,11.4l-4.2-0.8c-3.2-0.6-6.6-0.5-9.8,0.3L27.6,134.7z M33,124.8l-2.5,7.2
							l0.8-0.2c3.4-0.9,7.1-1,10.6-0.4l0.8,0.2l-3-7L33,124.8z"/>
					</g>
					<g>
						<path class="st1" d="M33.3,171.4L28.4,160l4.2,0.8c3.2,0.6,6.6,0.5,9.8-0.3l4.1-1.1l-4,11.7L33.3,171.4z M31.5,162.5l3,7
							l6.7-0.2l2.5-7.2l-0.8,0.2c-3.4,0.9-7.1,1-10.6,0.4L31.5,162.5z"/>
					</g>
				</g>
				<g>
					<g>
						<path class="st1" d="M13.5,139.7l4.3-8.1l12.3,1.5l-2.8,3.2c-2.2,2.5-3.7,5.4-4.6,8.6l-1.1,4.1L13.5,139.7z M18.8,133.6
							l-3.1,5.9l5,5.8l0.2-0.8c0.9-3.4,2.6-6.7,5-9.3l0.5-0.6L18.8,133.6z"/>
					</g>
					<g>
						<path class="st1" d="M44,161l2.8-3.2c2.2-2.5,3.7-5.4,4.6-8.6l1.1-4.1l8.1,9.3l-4.3,8.1L44,161z M53.4,148.9l-0.2,0.8
							c-0.9,3.4-2.6,6.7-5,9.3l-0.5,0.6l7.6,0.9l3.1-5.9L53.4,148.9z"/>
					</g>
				</g>
			</g>
			<g>
				<path class="st1" d="M30.4,151.2c-2.3-3.7-1.2-8.5,2.5-10.8s8.5-1.2,10.8,2.5s1.2,8.5-2.5,10.8S32.7,154.9,30.4,151.2z
					 M42.2,143.9c-1.8-2.8-5.5-3.7-8.3-1.9s-3.7,5.5-1.9,8.3s5.5,3.7,8.3,1.9S43.9,146.7,42.2,143.9z"/>
			</g>
		</g>
		<g>
			<g>
				<g>
					<path class="st1" d="M70.7,158c-5.1-4-6-11.4-2.1-16.5c4-5.1,11.4-6,16.5-2.1c5.1,4,6,11.4,2.1,16.5
						C83.3,161.1,75.9,162,70.7,158z M84.4,140.5c-4.5-3.5-11.1-2.7-14.6,1.8s-2.7,11.1,1.8,14.6s11.1,2.7,14.6-1.8
						C89.7,150.6,88.9,144.1,84.4,140.5z"/>
				</g>
				<g>
					<g>
						<path class="st1" d="M78.5,137.4l7.8-4.6l5.3,4.1l-2.6,8.6l-1.5-1.8c-1.8-2.2-4.2-4.1-6.8-5.3L78.5,137.4z M85.1,139.6
							c1.2,0.9,2.3,2,3.2,3.1l1.6-5.3l-3.8-3l-4.8,2.9C82.7,137.9,84,138.7,85.1,139.6z"/>
					</g>
					<g>
						<path class="st1" d="M69.7,164.8l-5.3-4.1l2.6-8.6l2,2.4c1.5,1.9,3.5,3.4,5.6,4.4l2.8,1.3L69.7,164.8z M66,160.2l3.8,3
							l4.8-2.9l-0.5-0.2c-2.4-1.1-4.5-2.7-6.1-4.7l-0.4-0.5L66,160.2z"/>
					</g>
				</g>
				<g>
					<g>
						<path class="st1" d="M68.4,142.6l-0.2-9l6.2-2.5l6.2,6.6l-3.1,0.5c-2.4,0.4-4.6,1.3-6.6,2.7L68.4,142.6z M69.6,134.5l0.1,5.6
							l0.5-0.3c2.1-1.5,4.6-2.5,7.2-2.9l0.6-0.1l-3.8-4.1L69.6,134.5z"/>
					</g>
					<g>
						<path class="st1" d="M81.5,166.4l-6.2-6.6l3.1-0.5c2.4-0.4,4.6-1.3,6.6-2.7l2.6-1.8l0.2,9L81.5,166.4z M78.1,160.8l3.8,4.1
							l4.5-1.8l-0.1-5.6l-0.5,0.3c-2.1,1.5-4.6,2.5-7.2,2.9L78.1,160.8z"/>
					</g>
				</g>
				<g>
					<g>
						<path class="st1" d="M60,149.6l0.9-6.6l8.8-2.1l-1.1,2.9c-0.9,2.2-1.2,4.7-1,7.1l0.3,3.1L60,149.6z M62.1,144.1l-0.7,4.8
							l4.9,2.7l-0.1-0.6c-0.2-2.6,0.1-5.2,1.1-7.7l0.2-0.5L62.1,144.1z"/>
					</g>
					<g>
						<path class="st1" d="M86.3,156.6l1.1-2.9c0.9-2.2,1.2-4.7,1-7.1l-0.3-3.1l7.9,4.4l-0.9,6.6L86.3,156.6z M89.6,145.9l0.1,0.6
							c0.2,2.6-0.1,5.2-1.1,7.7l-0.2,0.5l5.4-1.3l0.7-4.8L89.6,145.9z"/>
					</g>
				</g>
			</g>
			<g>
				<path class="st1" d="M74.5,153.3c-2.5-1.9-2.9-5.5-1-8s5.5-2.9,8-1s2.9,5.5,1,8C80.5,154.8,76.9,155.2,74.5,153.3z M80.7,145.3
					c-1.9-1.5-4.7-1.1-6.2,0.8c-1.5,1.9-1.1,4.7,0.8,6.1c1.9,1.5,4.7,1.1,6.2-0.8C82.9,149.5,82.6,146.8,80.7,145.3z"/>
			</g>
		</g>
	</g>
	<path class="st2" d="M263.3,73.1c0-0.1,0-0.1,0-0.2c0-3.4-2.5-6.2-5.8-6.6c-0.6-6.4-6.1-11.5-12.7-11.5c-6,0-11,4.1-12.4,9.6
		c-5.5,0.2-9.9,4.7-9.9,10.3c0,5.2,3.9,9.5,8.9,10.2c0.4,0.1,0.7,0.1,1.1,0.1h29.2c3.3,0,6-2.7,6-6l0,0
		C267.7,76.1,265.9,73.8,263.3,73.1z"/>
	<path class="st3" d="M444.4,36.6c0-0.1,0-0.2,0-0.3c0-4-2.7-7.4-6.3-7.9c-0.7-7.7-6.6-13.7-13.8-13.7c-6.5,0-11.9,4.9-13.5,11.5
		c-6,0.2-10.8,5.6-10.8,12.3c0,6.2,4.2,11.3,9.6,12.2c0.4,0.1,0.8,0.1,1.2,0.1h31.8c3.6,0,6.6-3.2,6.6-7.2l0,0
		C449.2,40.2,447.2,37.4,444.4,36.6z"/>
	<g>
		<g>
			<path class="st4" d="M576.3,100.4"/>
			<line class="st5" x1="574.9" y1="100.4" x2="573.4" y2="100.4"/>
		</g>
	</g>
	<path class="st6" d="M621.8,32.6c0,2.2-1.7,3.9-3.9,3.9s-3.9-1.7-3.9-3.9s1.7-3.9,3.9-3.9C620,28.7,621.8,30.4,621.8,32.6z"/>
	
		<ellipse transform="matrix(0.4473 -0.8944 0.8944 0.4473 248.4526 483.8849)" class="st7" cx="515.7" cy="40.9" rx="3.9" ry="3.9"/>
	<path class="st6" d="M742.8,91.5c0,2.2-1.7,3.9-3.9,3.9s-3.9-1.7-3.9-3.9s1.7-3.9,3.9-3.9C741,87.7,742.8,89.4,742.8,91.5z"/>
</g>
<g>
	<g>
		
			<linearGradient id="SVGID_1_" gradientUnits="userSpaceOnUse" x1="341.1129" y1="-444.6886" x2="341.1129" y2="-355.4886" gradientTransform="matrix(1 0 0 -1 0 -75.8886)">
			<stop  offset="0" style="stop-color:#6456C0"/>
			<stop  offset="1" style="stop-color:#5F2C95"/>
		</linearGradient>
		<path class="st8" d="M407,368.8h-47c-4.9-27.3-16.4-62.9-16.4-62.9c-2.8-1.6-8.2,0.4-8.2,0.4l-17.2,62.5h-42.8
			c-2.3-38.6,18.8-82.3,18.8-82.3l0,0c-0.1-0.2-0.7-1.5-0.6-2.4c0.1-0.4,0.8-1.1,1.6-1.9c1.2-1.1,2.5-2.1,2.5-2.1l80.1-0.5
			c0,0,0.8,0.4,1.8,1l0,0c1.8,1.1,4.1,2.7,4.1,3.9c0,1.6-0.6,2.7-0.8,3l0,0C400.2,319.9,407.1,368.8,407,368.8L407,368.8z"/>
		
			<radialGradient id="SVGID_00000103260269066254342310000016427362236889840280_" cx="1441.3701" cy="184.5041" r="27.03" gradientTransform="matrix(0.6431 0.1484 0.3844 -1.6662 -700.6175 428.8005)" gradientUnits="userSpaceOnUse">
			<stop  offset="0" style="stop-color:#4B474B"/>
			<stop  offset="1" style="stop-color:#000000"/>
		</radialGradient>
		<path style="opacity:0.5;fill:url(#SVGID_00000103260269066254342310000016427362236889840280_);enable-background:new    ;" d="
			M280.2,332.7c5.7-24.9,18.2-43.3,27.9-41.1c9.6,2.2,12.8,24.2,7.1,49.2c-5.8,24.8-18.3,43.2-27.9,41
			C277.6,379.6,274.5,357.6,280.2,332.7z"/>
		
			<radialGradient id="SVGID_00000060741397946115974140000014828897649151748766_" cx="902.6968" cy="-318.2514" r="27.03" gradientTransform="matrix(0.6355 -0.178 -0.4612 -1.6466 -341.0177 -27.9293)" gradientUnits="userSpaceOnUse">
			<stop  offset="0" style="stop-color:#4B474B"/>
			<stop  offset="1" style="stop-color:#000000"/>
		</radialGradient>
		<path style="opacity:0.5;fill:url(#SVGID_00000060741397946115974140000014828897649151748766_);enable-background:new    ;" d="
			M368.4,291.7c9.5-2.7,22.8,15.1,29.7,39.8c6.9,24.6,4.8,46.8-4.8,49.4c-9.5,2.7-22.8-15.1-29.7-39.8
			C356.7,316.5,358.8,294.4,368.4,291.7z"/>
		
			<linearGradient id="SVGID_00000106142040453284307600000012706172630176790190_" gradientUnits="userSpaceOnUse" x1="312.2564" y1="-413.2886" x2="335.6564" y2="-413.2886" gradientTransform="matrix(1 0 0 -1 0 -75.8886)">
			<stop  offset="0" style="stop-color:#9E8CEF"/>
			<stop  offset="1" style="stop-color:#CAAFEE"/>
		</linearGradient>
		<path style="fill:url(#SVGID_00000106142040453284307600000012706172630176790190_);" d="M312.7,368.8l-0.5-0.1
			c5.5-32.2,19.3-59.2,19.5-59.5l0.1-0.1l3.5-3.1l0.3,0.4l-3.5,3.1C331.5,310.8,318.1,337.3,312.7,368.8L312.7,368.8z"/>
		
			<linearGradient id="SVGID_00000026136939434461876540000016051787162760358036_" gradientUnits="userSpaceOnUse" x1="-3222.551" y1="-413.3386" x2="-3199.1511" y2="-413.3386" gradientTransform="matrix(-1 0 0 -1 -2855.6511 -75.8886)">
			<stop  offset="0" style="stop-color:#9E8CEF"/>
			<stop  offset="1" style="stop-color:#CAAFEE"/>
		</linearGradient>
		<path style="fill:url(#SVGID_00000026136939434461876540000016051787162760358036_);" d="M366.4,368.8
			c-5.4-31.5-19.2-58.4-19.8-59.5l-3.1-2.8l0.3-0.4l3.2,2.9c0.1,0.3,14.4,27.5,19.9,59.7L366.4,368.8z"/>
		
			<linearGradient id="SVGID_00000183226553937287229300000002359362191603343750_" gradientUnits="userSpaceOnUse" x1="338" y1="-444.5886" x2="338" y2="-355.3886" gradientTransform="matrix(1 0 0 -1 0 -75.8886)">
			<stop  offset="0" style="stop-color:#CCCCFF"/>
			<stop  offset="1" style="stop-color:#755CBB"/>
		</linearGradient>
		<path style="opacity:0.76;fill:url(#SVGID_00000183226553937287229300000002359362191603343750_);enable-background:new    ;" d="
			M383.8,284.5c0,1.6-0.6,2.7-0.8,3l0,0c-16.7,3.8-29.4,19.3-29.4,19.3c9.1,17.4,24.2,61.9,24.2,61.9H360
			c-4.9-27.3-16.4-62.9-16.4-62.9c-2.8-1.6-8.2,0.4-8.2,0.4l-17.2,62.5h-11c4-26.2,15.7-58.1,15.7-58.1
			c-11.6-13.5-28.7-24.2-28.7-24.2l0,0l-2-1.3l1.5-1.1c7.4,7.1,31.4,16.4,32.1,16.7l-30.5-18.6c1.2-1.1,2.5-2.1,2.5-2.1l80.1-0.5
			c0,0,0.8,0.4,1.8,1l-21.9,12L383.8,284.5L383.8,284.5z"/>
		
			<linearGradient id="SVGID_00000036211628634879889550000000959569993357716663_" gradientUnits="userSpaceOnUse" x1="348.35" y1="-400.0886" x2="348.35" y2="-375.7485" gradientTransform="matrix(1 0 0 -1 0 -75.8886)">
			<stop  offset="0" style="stop-color:#CCCCFF"/>
			<stop  offset="1" style="stop-color:#755CBB"/>
		</linearGradient>
		
			<polygon style="opacity:0.76;fill:url(#SVGID_00000036211628634879889550000000959569993357716663_);enable-background:new    ;" points="
			343.7,305.9 353,299.8 350.8,305.9 349.2,324.2 		"/>
		
			<linearGradient id="SVGID_00000049216349270897166070000001903973145270696860_" gradientUnits="userSpaceOnUse" x1="320.2" y1="-391.0886" x2="320.2" y2="-367.2486" gradientTransform="matrix(1 0 0 -1 0 -75.8886)">
			<stop  offset="0" style="stop-color:#CCCCFF"/>
			<stop  offset="1" style="stop-color:#755CBB"/>
		</linearGradient>
		
			<polygon style="opacity:0.76;fill:url(#SVGID_00000049216349270897166070000001903973145270696860_);enable-background:new    ;" points="
			335.5,306.3 325.7,300.8 304.9,291.4 331.4,308.9 333,315.2 		"/>
	</g>
	<path class="st16" d="M362.3,118.4c0.1,0.4,0.1,0.7,0.1,0.7c-0.5,2-1,3.9-1.7,5.7c-2,5.6-4.4,9.6-6.2,12.1
		c-1.6,2.1-2.7,3.2-2.7,3.2c-14.6-4.6-21.8-18.9-24.5-25.9v-0.1c-0.5-1.3-0.9-2.4-1.1-3.1l0,0c-0.2-0.6-0.2-0.9-0.2-0.9
		c0.1-0.1,0.1-0.2,0.2-0.4v-0.1c0.2-0.5,0.5-1,0.7-1.5c1.9-4.2,3.2-8.1,4-11.2c0.7-2.6,1.1-4.6,1.3-5.7c0.1-0.6,0.1-0.9,0.1-0.9
		l6.8,3.6l23.4,12.4c-0.4,2.1-0.5,4.2-0.5,5.9c0,1.2,0,2.4,0.1,3.3c0.1,1.2,0.2,2.1,0.3,2.7l0,0
		C362.3,118.3,362.3,118.4,362.3,118.4L362.3,118.4z"/>
	
		<linearGradient id="SVGID_00000075147302047516871890000018019169124485020557_" gradientUnits="userSpaceOnUse" x1="344.4431" y1="-221.0886" x2="344.4431" y2="-185.4886" gradientTransform="matrix(1 0 0 -1 0 -75.8886)">
		<stop  offset="0" style="stop-color:#D5CDF8"/>
		<stop  offset="1" style="stop-color:#F3EDFB"/>
	</linearGradient>
	<path style="fill:url(#SVGID_00000075147302047516871890000018019169124485020557_);" d="M355.8,141.6c-1.4,1.3-2.9,2.5-4.8,3.5
		c0,0-0.1,0-0.1,0.1c0,0,0,0-0.1-0.1l0,0c-0.5-0.3-2.2-1.4-4.6-3.1c-6.1-4.6-16.3-13.9-19.3-26.5c0,0,0,0,0-0.1
		c-0.3-1.5-0.6-3-0.7-4.6l0,0c0-0.4-0.1-0.8-0.1-1.2c0,0,2,4.8,5.5,9.9c4.1,6.1,10.4,12.7,17.8,12.7c6.4,0,9.7-4.4,11.4-8.4
		c0.7-1.7,1.1-3.4,1.4-4.6l0,0c0.1-0.4,0.1-0.7,0.2-0.9l0,0c0-0.1,0-0.3,0-0.4c0.1-0.4,0.1-0.7,0.1-0.7S364.9,132.5,355.8,141.6
		L355.8,141.6z"/>
	
		<linearGradient id="SVGID_00000045576502424033853710000010143950491706083508_" gradientUnits="userSpaceOnUse" x1="326.0464" y1="-203.2386" x2="362.7106" y2="-203.2386" gradientTransform="matrix(1 0 0 -1 0 -75.8886)">
		<stop  offset="0" style="stop-color:#CCCCFF"/>
		<stop  offset="1" style="stop-color:#755CBB"/>
	</linearGradient>
	<path style="opacity:0.5;fill:url(#SVGID_00000045576502424033853710000010143950491706083508_);enable-background:new    ;" d="
		M355.8,141.6c-1.4,1.3-2.9,2.5-4.8,3.5h-0.3l0,0c-0.5-0.3-2.2-1.4-4.6-3.1c-6.1-4.6-16.3-13.9-19.3-26.5c0,0,0,0,0-0.1
		c-0.3-1.5-0.6-3-0.7-4.6l0,0c0-0.4-0.1-0.8-0.1-1.2c0,0,2,4.8,5.5,9.9c0,0,4,11.1,12.8,16.6c4.4,2.8,7.7,2.4,10.1,0.7
		c2.4-1.6,4-4.4,5-6.5c0.9-2.1,1.2-4.1,1.3-5.6c0-0.3,0-0.6,0-0.9c0.7-1.7,1.1-3.4,1.4-4.6l0,0c0.1-0.4,0.1-0.7,0.2-0.9l0,0
		c0-0.1,0-0.3,0-0.4c0.1-0.4,0.1-0.7,0.1-0.7S364.9,132.5,355.8,141.6L355.8,141.6z"/>
	
		<linearGradient id="SVGID_00000052100005559976054650000002775925586883067057_" gradientUnits="userSpaceOnUse" x1="334.028" y1="-363.5556" x2="334.028" y2="-183.9887" gradientTransform="matrix(1 0 0 -1 0 -75.8886)">
		<stop  offset="0" style="stop-color:#9E8CEF"/>
		<stop  offset="1" style="stop-color:#CAAFEE"/>
	</linearGradient>
	<path style="fill:url(#SVGID_00000052100005559976054650000002775925586883067057_);" d="M411.9,232.3c-0.1,0-0.2,0.1-0.2,0.1
		c-0.8,0.1-3.4-0.5-6.7-3.4l0,0l0,0l0,0c-2.8-2.5-6.2-6.5-9.5-13.2c-6.7-13.4-8.6-22.3-8.9-23.9v-0.2l-3.9,6.2
		c-2.6,8-7.7,41-7.6,42.4s4.5,8.3,4.4,9.2l0,0c-0.1,0.9-2.1,2.8-2.6,4.8c-0.4,1.4,2.3,5.7,4.1,8.9l0,0c1,1.7,1.7,3.1,1.7,3.6
		c0,1.5-4.7,8.9-4.7,8.9v4l-0.1,0.1l-0.2,0.2l-0.2,0.1c-1.8,1.4-9.4,6.1-33.3,7.4c-28.2,1.5-47.1-7.6-47.1-7.6l1.4-3.9
		c0,0-1.3-1.1-1.4-1.7s1-1.9,1-1.9s-2.8-1.5-2.8-3.4s5.7-7.8,5.5-12.8s-4.6-9.5-5.1-12.3s7.4-9.9,7.4-9.9
		c-6.8-21.6-8.1-50.6-8.1-50.6l-1.3-1.5c0,0-8.1,18.6-15.5,27.7c-0.9,1.1-1.8,2.1-2.8,3.2c-2.1,2.2-4.2,4.3-6.4,6.1
		c-5.1,4.5-9.8,7.4-10.9,7.2c-1.9-0.4-9.5-15.4-9.1-30.7c0.2-7.3,4.6-15.5,9.1-22c0.5-0.7,1-1.4,1.5-2.1c3.2-4.4,6.4-7.9,7.8-9.4
		c0.6-0.6,0.9-1,0.9-1s-1-3.4-1.8-6.3c0-0.1,0-0.1-0.1-0.2v-0.1v-0.1c-0.4-1.8-0.7-3.3-0.4-3.7c0.6-1,4.3-2.1,4.9-2.9
		c0.6-0.8,3.3-13.5,5.3-14.9c1.9-1.3,5.4-2.3,16.7-6.8c0.6-0.2,1.1-0.4,1.7-0.7c12.8-5.1,25.3-11.2,25.3-11.2l4.8-5.9h2.1l-0.7,1.5
		v0.1c0.3,1.5,0.7,3,1.2,4.4v0.1c6.6,20.8,23.6,27.5,23.6,27.5c11.8-8.7,11.6-22.5,11.6-22.5v-1.9l2.2,0.7l1.5,3.6
		c0,0,2.6,4,12.7,8.4c1.8,0.8,3.6,1.7,5.6,2.9c9.3,5.3,19.6,13.4,20.4,15.1c0.1,0.2,0.2,0.5,0.3,0.9l0,0c1.1,4.3,3.3,20.3,5.4,26
		c1.3,3.6,3.4,5.5,4.9,6.6c1,0.7,1,0.7,0,0c1.1,0.8,1.9,1,1.9,1c0.2,0.9,0.3,1.8,0.5,2.6C422.1,212.4,413.8,231,411.9,232.3
		L411.9,232.3z"/>
	
		<linearGradient id="SVGID_00000062185889657222076370000017152583811477165216_" gradientUnits="userSpaceOnUse" x1="259.4" y1="-251.5886" x2="303.1" y2="-251.5886" gradientTransform="matrix(1 0 0 -1 0 -75.8886)">
		<stop  offset="0" style="stop-color:#CCCCFF"/>
		<stop  offset="1" style="stop-color:#755CBB"/>
	</linearGradient>
	<path style="opacity:0.5;fill:url(#SVGID_00000062185889657222076370000017152583811477165216_);enable-background:new    ;" d="
		M303.1,180.5l-8.2,2.8l-1.3-1.5c0,0-8.1,18.6-15.5,27.7c-0.9,1.1-1.8,2.1-2.8,3.2c-2.1,2.2-4.2,4.3-6.4,6.1l-6.3-27.1l-3.2-20.5
		c3.2-4.4,6.4-7.9,7.8-9.5c0.6-0.6,0.9-0.9,0.9-0.9s-1-3.4-1.8-6.3c0-0.1,0-0.1-0.1-0.2v-0.1c0-0.1,0-0.1,0-0.1
		c-0.4-1.8-0.7-3.3-0.4-3.7c0.6-1,4.3-2.1,4.9-2.9s3.3-13.5,5.3-14.9c0,0-1.3,12.2,5.7,27.8l3.4,4.8l10,8
		C295.2,173.2,299,178.2,303.1,180.5L303.1,180.5z"/>
	
		<linearGradient id="SVGID_00000127725663143147398390000015623065834594311066_" gradientUnits="userSpaceOnUse" x1="258.1088" y1="-301.7886" x2="258.1088" y2="-217.8785" gradientTransform="matrix(1 0 0 -1 0 -75.8886)">
		<stop  offset="0" style="stop-color:#9E8CEF"/>
		<stop  offset="1" style="stop-color:#DAC7F3"/>
	</linearGradient>
	<path style="fill:url(#SVGID_00000127725663143147398390000015623065834594311066_);" d="M279.3,202.7
		c-1.8,13.1-21.3,23.2-21.3,23.2c-4.4,0-9.2-7.6-13.6-16.9c-4.4-9.3-4.7-36.2-4.9-37.9s-2.7-5-2.9-6.4c-0.1-1.4,4-4.4,4-4.4v-0.1
		v-0.1c-0.4-0.9-2.9-6.1-2.7-7.1s4.8-3.3,4.8-3.3l0.3,5.1c0,0,10.8-2,14.4-10.4l0.6-2.6l1.8,1.2v11c0,0,0.4,1.7,0.9,1.7
		s4.8-2.1,5.6-1.8c0.9,0.3,1.8,6.2,2.9,6.9c1.2,0.8,4.3,2.9,4.8,4c0.2,0.5,0.2,2.2,0.2,4.1c0,2.4,0.1,5.3,0.4,6.9
		C275.4,179,281,189.6,279.3,202.7L279.3,202.7z"/>
	
		<linearGradient id="SVGID_00000139285655692143018850000005609503635321937323_" gradientUnits="userSpaceOnUse" x1="402.3392" y1="-277.7354" x2="458.6555" y2="-277.7354" gradientTransform="matrix(1 0 0 -1 0 -75.8886)">
		<stop  offset="0" style="stop-color:#A999F1"/>
		<stop  offset="1" style="stop-color:#DAC7F3"/>
	</linearGradient>
	<path style="fill:url(#SVGID_00000139285655692143018850000005609503635321937323_);" d="M458.3,191.5c-0.9,1.4-5.3,4.3-6.4,5.4
		c-1.1,1.1,0,4.9,0,4.9c-18.6,19.7-37.9,29.6-39.9,30.5c-0.1,0-0.2,0.1-0.2,0.1c-11.7-7.8-10.7-20.8-6.8-31.6
		c3.7-10.4,10-19,10.3-19.4l0,0l0,0c0.2-0.1,3.5-1.5,5.9-1.6c0.8-0.1,1.5,0.2,2.2,0.7c1.4,0.9,2.6,2.3,3.8,1.7
		c1.7-0.9,5.5-9.9,8.1-10.1c1.8-0.2,4.3,1.7,6,2.7c0.7,0.5,1.3,0.8,1.6,0.7c1-0.2,4.2-4.1,4.4-4.2c0.2-0.1,1.7,1,1.7,1l-1,1.3
		c1.6,9.1,6.8,15.2,6.8,15.2l3.5-5.1C458.3,183.5,459.1,190.1,458.3,191.5L458.3,191.5z"/>
	<path class="st23" d="M362.3,118c0,0.1,0,0.3,0,0.4c0,0.3-0.1,0.5-0.2,0.8l0,0c-1.2,4.4-6,8.9-12.1,6.8
		c-6.6-2.4-19.2-29.1-19.2-29.1l1.3-5.7l30,24.4L362.3,118L362.3,118L362.3,118z"/>
	<g>
		<path class="st24" d="M262.6,113.1c0,0-1.8-10.1-1-17.6s-0.2-15.8-0.2-15.8s-1.8-0.8-3.1,0s-4.4,8.5-3,14.7s0.3,21,0.3,21h-2.2
			l-4.6-6.2l-2.2-0.6c0,0-12.7,12-12.5,19.1l1.7,6.4l15.7-0.5l10.2-11.7L262.6,113.1L262.6,113.1z"/>
		
			<linearGradient id="SVGID_00000072273871309443566910000002928578332838092960_" gradientUnits="userSpaceOnUse" x1="239.7" y1="-206.4509" x2="239.7" y2="-184.3446" gradientTransform="matrix(1 0 0 -1 0 -75.8886)">
			<stop  offset="2.000000e-02" style="stop-color:#FFC2A9"/>
			<stop  offset="1" style="stop-color:#FF9595"/>
		</linearGradient>
		<path style="fill:url(#SVGID_00000072273871309443566910000002928578332838092960_);" d="M246.7,108.5c0,0,0.3,8,2.1,14.8
			c0,0-0.3,2.8-3.6,3l-0.8-0.9c0,0-0.6,3.2-3.5,3.4l-2.8-2.8l0.7,2.3c0,0-1,2.4-3.6,2.3c0,0-4.4-3.4-4.6-7.9l4.3-3.6v-2.8l5.1-3.6
			l0.1-2C240.2,110.6,243.2,108.4,246.7,108.5L246.7,108.5z"/>
		
			<linearGradient id="SVGID_00000078749090832721406100000002973628555443607229_" gradientUnits="userSpaceOnUse" x1="253.5" y1="-205.9379" x2="253.5" y2="-169.3379" gradientTransform="matrix(1 0 0 -1 0 -75.8886)">
			<stop  offset="0" style="stop-color:#FFEADB"/>
			<stop  offset="0.99" style="stop-color:#C27CB6"/>
		</linearGradient>
		<path style="opacity:0.6;fill:url(#SVGID_00000078749090832721406100000002973628555443607229_);enable-background:new    ;" d="
			M261.8,93.4c0,0-0.8,1.9-1.9,2.7s-4.2,1.3-4.2,1.3l-0.1,17.9h-2.2l-4.6-6.2c0,0,2.3,3.6,2.4,6.2l-1.8,0.9l-1.6-5.4l-0.7,3.9
			l0.7,4.8c0,0,2.7-2.3,7.6-2.4l0.7,1.3c0,0-8.8,7.3-10.9,11.6c0,0,4.4-5.5,14.3-11.7l0.9-2.9l1.3-7
			C261.9,108.5,260.8,98.4,261.8,93.4L261.8,93.4z"/>
		
			<linearGradient id="SVGID_00000000219944480704356110000004581544193664218002_" gradientUnits="userSpaceOnUse" x1="252.5257" y1="-230.8886" x2="252.5257" y2="-174.4285" gradientTransform="matrix(1 0 0 -1 0 -75.8886)">
			<stop  offset="2.000000e-02" style="stop-color:#FFC2A9"/>
			<stop  offset="1" style="stop-color:#FF9595"/>
		</linearGradient>
		<path style="fill:url(#SVGID_00000000219944480704356110000004581544193664218002_);" d="M269.2,124.6
			c-0.8,2.5-9.4,12.7-10.4,14.9c-0.9,2.2-1.5,5.1-1.5,5.1c-4.2,9.1-14.4,10.4-14.4,10.4l-0.5-8.2c0,0-5.5-3.2-6.4-4.9l0,0l-0.1-0.3
			c-0.3-1.6,0-7.6,0-7.6l9.6-3.9c4.2-5.4,14.3-11.6,14.3-11.6l0.5-2.8c-7.3-3.6-6.1-14.4-4.8-15.7c1.2-1.3,3.5-1.3,3.5-1.3
			s2.7,8.7,4.4,12.8C264.9,115.4,270,122.1,269.2,124.6L269.2,124.6z"/>
		<path class="st28" d="M240.2,110.6c0,0,1.1,9.9,4.2,14.7c0,0-4-5-4.3-12.6L240.2,110.6L240.2,110.6z"/>
		<path class="st28" d="M235,116.3c0,0,1,8,6,12.5c0,0-4.4-2.2-6-9.7V116.3L235,116.3z"/>
		
			<linearGradient id="SVGID_00000052790957201899977700000008689642159441384116_" gradientUnits="userSpaceOnUse" x1="242.3964" y1="-222.0886" x2="260.1564" y2="-222.0886" gradientTransform="matrix(1 0 0 -1 0 -75.8886)">
			<stop  offset="2.000000e-02" style="stop-color:#D1A1D6"/>
			<stop  offset="0.99" style="stop-color:#BD89C4"/>
		</linearGradient>
		<path style="opacity:0.91;fill:url(#SVGID_00000052790957201899977700000008689642159441384116_);enable-background:new    ;" d="
			M260.1,137.4c0,0-10.8,10.5-17.8,9.4l0.5,8.2c0,0,11.4-1,15.1-13C257.9,142,259.3,138.6,260.1,137.4L260.1,137.4z"/>
	</g>
	<g>
		
			<linearGradient id="SVGID_00000177444767737536713370000005862947701672852874_" gradientUnits="userSpaceOnUse" x1="459.8222" y1="-265.2886" x2="459.8222" y2="-189.7535" gradientTransform="matrix(1 0 0 -1 0 -75.8886)">
			<stop  offset="2.000000e-02" style="stop-color:#FFC2A9"/>
			<stop  offset="1" style="stop-color:#FF9595"/>
		</linearGradient>
		<path style="fill:url(#SVGID_00000177444767737536713370000005862947701672852874_);" d="M489.2,151.7c0,0-10,18.2-21.6,23.8h-4
			l-9.2,13.9c0,0-5.9-3.7-6.4-16c0,0,2.1-2.2,2.6-4.6c0,0-3.3-2.6-4.2-4.5s-1.2-7.6-1.8-9.9s-6-7.2-7.2-7.8s-6.6-1-6.6-1
			s-0.8-2,0-2.9s9.2-4.2,13.8-1.1c0,0,0.3,2.4,0.8,3.7s4.5,5.7,5.2,5.7s3.4-2.3,4.5-4s7.3-14.9,8.7-19.3v-0.1c0-0.1,0-0.1,0.1-0.2
			c0-0.1,0-0.1,0-0.1s0,0,0-0.1c1.1-3.9,7.8-11.2,11.3-13.3c0,0,1.5-0.4,2.3,1.5c0,0-2.8,8.1-5.8,12.9c-0.5,0.8-1,1.8-1.6,2.8l0,0
			c-2.5,4.6-5.4,10.7-5.8,11.6v0.1l1.6,0.8l4.3-4l4.4-4.1l10,10.6l-1,1.3l-3.1,4l1.6,0.3l3.7-4.1L489.2,151.7L489.2,151.7z"/>
		
			<linearGradient id="SVGID_00000052825938114148018750000012129684591030116992_" gradientUnits="userSpaceOnUse" x1="468.7" y1="-241.0886" x2="468.7" y2="-203.5786" gradientTransform="matrix(1 0 0 -1 0 -75.8886)">
			<stop  offset="0" style="stop-color:#FFEADB"/>
			<stop  offset="0.99" style="stop-color:#C27CB6"/>
		</linearGradient>
		<path style="opacity:0.6;fill:url(#SVGID_00000052825938114148018750000012129684591030116992_);enable-background:new    ;" d="
			M486.8,155.5l-3.2,4.7c0,0-17.5-13.5-21.2-14.6c-3.8-1.1-5.2-0.4-5.2-0.4l-3.9,5c0,0,7.2,6.4,7.8,15c0,0-2.4-10.9-10.5-14.1
			c0.6,0,3.4-2.3,4.5-4s7.3-14.9,8.7-19.3c-0.2,0.8-0.5,2.2,0.2,3.4c0.9,1.6,5.9,0.1,6.2,0l0,0l-5.8,11.6v0.1l1.6,0.8l4.3-4.1
			l-2.1,5l15.6,2.8l-3.1,4l1.6,0.3L486.8,155.5L486.8,155.5z"/>
		
			<linearGradient id="SVGID_00000018934554291688568670000016555466940800489900_" gradientUnits="userSpaceOnUse" x1="476.2" y1="-228.0979" x2="476.2" y2="-211.293" gradientTransform="matrix(1 0 0 -1 0 -75.8886)">
			<stop  offset="0" style="stop-color:#FFB0B0"/>
			<stop  offset="0.98" style="stop-color:#FFC2A9"/>
		</linearGradient>
		<path style="fill:url(#SVGID_00000018934554291688568670000016555466940800489900_);" d="M474.7,135.4c0,0,3-0.4,5,3.5l-0.4,1.3
			c0,0,3,0.6,5.8,5.4c0,0-2.5,4.6-8.8,6.7c0,0-2.9-0.8-3.4-3.3l0.6-1.6l-2.3,1.7c0,0-2.7,0.8-3.9-3.2L474.7,135.4z"/>
		
			<linearGradient id="SVGID_00000126304051355415353370000013393195931718855600_" gradientUnits="userSpaceOnUse" x1="485.8734" y1="-230.6979" x2="485.8734" y2="-221.4779" gradientTransform="matrix(1 0 0 -1 0 -75.8886)">
			<stop  offset="0" style="stop-color:#FFB0B0"/>
			<stop  offset="0.98" style="stop-color:#FFC2A9"/>
		</linearGradient>
		<path style="fill:url(#SVGID_00000126304051355415353370000013393195931718855600_);" d="M490.1,150.4c0,0,0.6-2.9-2.5-4.8l-6,6.6
			c0,0,0.2,2.1,2.8,2.6C484.4,154.8,488.5,153.4,490.1,150.4z"/>
		
			<linearGradient id="SVGID_00000158007059147836374850000017504535824991578007_" gradientUnits="userSpaceOnUse" x1="446.4564" y1="-249.0886" x2="463.6064" y2="-249.0886" gradientTransform="matrix(1 0 0 -1 0 -75.8886)">
			<stop  offset="2.000000e-02" style="stop-color:#D1A1D6"/>
			<stop  offset="0.99" style="stop-color:#BD89C4"/>
		</linearGradient>
		<path style="opacity:0.91;fill:url(#SVGID_00000158007059147836374850000017504535824991578007_);enable-background:new    ;" d="
			M446.4,164.3c0,0,7,7.8,17.1,11.1l-4.4,6.7l-9.2-11.6l0.6-1.7C450.6,168.8,446.9,166,446.4,164.3L446.4,164.3z"/>
		<path class="st28" d="M479.2,140.2c0,0-2.9,4.8-5.8,7.2l-0.6,1.6c0,0,5.6-3.8,7.7-8.2C480.6,140.8,479.9,140.3,479.2,140.2
			L479.2,140.2z"/>
	</g>
	
		<linearGradient id="SVGID_00000165930371558305649320000017764002791106127502_" gradientUnits="userSpaceOnUse" x1="422.6539" y1="-308.3009" x2="422.6539" y2="-223.7886" gradientTransform="matrix(1 0 0 -1 0 -75.8886)">
		<stop  offset="0" style="stop-color:#CCCCFF"/>
		<stop  offset="1" style="stop-color:#755CBB"/>
	</linearGradient>
	<path style="opacity:0.5;fill:url(#SVGID_00000165930371558305649320000017764002791106127502_);enable-background:new    ;" d="
		M458.3,191.5c-0.9,1.4-5.3,4.3-6.4,5.4c-1.1,1.1,0,4.9,0,4.9c-18.6,19.7-37.9,29.6-39.9,30.5c-0.1,0-0.2,0.1-0.2,0.1
		c-1.5,0.2-8.9-1.9-16.3-16.7c-6.7-13.4-8.6-22.3-8.9-23.9v-0.2l1.6-2.2l2.4-27.3l1.7,5.5c6.4-7.8,12.5-19.7,12.5-19.7l0.3,0.9l0,0
		c1.1,4.3,3.3,20.3,5.4,26c1.3,3.6,3.4,5.5,4.9,6.6l0,0l0,0c-5.9,5.4-8.9,13.2-10.3,19.4c-1.3,5.7-1.4,10-1.4,10s1.6-7.7,6.8-17
		c1.9-3.4,4.6-6.4,7.3-8.9c2-1.9,4.1-3.4,5.7-4.6c1.4,0.9,2.6,2.3,3.8,1.7c-7.8,11.7-7.6,34.9-0.3,30.5c7.3-4.4,9-13.8,9-13.8
		c-1.7-11.4-1.2-24.3,0.2-26.8c1.7,0.1,6.5,3.4,6.8,3.4c-0.4,13.4,5.9,22.4,5.9,22.4l4.2-6.4c-6.1-10.2-5.6-20.2-5.6-20.2
		c0.2-0.1,1.7,1,1.7,1l-1,1.3c1.6,9.1,6.8,15.2,6.8,15.2l3.5-5.1C458.3,183.5,459.2,190.1,458.3,191.5L458.3,191.5z"/>
	
		<linearGradient id="SVGID_00000049936546909725383000000005950893110641427350_" gradientUnits="userSpaceOnUse" x1="236.6" y1="-291.2721" x2="377.9" y2="-291.2721" gradientTransform="matrix(1 0 0 -1 0 -75.8886)">
		<stop  offset="0" style="stop-color:#CCCCFF"/>
		<stop  offset="1" style="stop-color:#755CBB"/>
	</linearGradient>
	<path style="opacity:0.5;fill:url(#SVGID_00000049936546909725383000000005950893110641427350_);enable-background:new    ;" d="
		M377.9,275.6v4l-0.1,0.1l-0.2,0.2l-0.2,0.1c-1.8,1.4-9.4,6.1-33.3,7.4c-28.2,1.5-47.1-7.6-47.1-7.6l1.4-3.9c0,0-1.3-1.1-1.4-1.7
		s1-1.9,1-1.9s-2.8-1.5-2.8-3.4c0-1.7,4.6-6.7,5.4-11.3c0.1-0.5,0.1-1,0.1-1.5c-0.2-5-4.5-9.4-5.1-12.3l0,0
		c-0.6-2.8,7.4-9.9,7.4-9.9c-6.8-21.6-8.1-50.6-8.1-50.6l-1.3-1.5c0,0-8.1,18.6-15.5,27.7S259.9,226.4,258,226
		c-4.4,0-9.2-7.6-13.6-16.9c-4.4-9.3-4.7-36.2-4.9-37.9s-2.7-5-2.9-6.4c4.7,8.1,12.3,5.8,12.3,5.8c-5.5,0.1-8.3-10.1-8.3-10.1v-0.1
		v-0.1l-2.7-7.1c0.3,0.3,6.6,7.3,12.6,3c6.2-4.4,9.4-13,9.4-13v11c0,0,0.4,1.7,0.9,1.7c-0.4,5.1-1.4,11.2-2.7,17.3
		c-2.8,13.1-6.7,25.8-6.7,25.8s10.4-5.7,14.1-20.1c1.8-6.9,2-12.9,1.9-17.2c-0.1-3.7-0.6-6.3-0.8-7.2c0-0.1,0-0.1-0.1-0.2v-0.1l0,0
		l1,2.1l1.9,4.8c2.2,18.5-2.4,46.3-2.4,46.3c6.7-8.3,8.1-26.8,7.8-31.3c-0.1-2.1-0.3-4.8-0.4-6.9c-0.1-2.4-0.2-4.1-0.2-4.1l13.7,8.2
		l-2.5-8l10,8c0,0,9,10.8,18.2,12.1s43.1,0.5,43.1,0.5s-29.4,1.9-38,4.4s-10.5,5.3-10.5,5.3c6.2,31.6,40.6,42.2,41.7,42.6
		c-31.2-4.7-45.7-31.2-45.7-31.2s-0.5,14.9,1.9,20.6c2.4,5.7,16.6,19.6,34.7,22.5c1.5,0.2,3,0.4,4.5,0.5c15.3,0.7,28-7.1,29.3-8
		c0.1,0,0.1-0.1,0.1-0.1l0,0c-0.5,0.8-6.8,9.6-32.2,10.6c-1.5,0.1-3,0-4.5,0l0,0c-23.5-1-35.5-16.7-35.5-16.7s-8.7,4.7-3.1,11.6
		c0.1,0.1,0.1,0.1,0.2,0.2c1.6,1.9,5.2,4.2,9.5,6.6c0.1,0.1,0.2,0.1,0.4,0.2c5.2,2.9,11.2,5.8,15.9,8.2c0,0,0,0,0.1,0
		c2.9,1.5,5.2,2.8,6.5,3.7l0,0c1.3,1,1.6,1.6,0.3,1.7c-6.6,0.8-31.4-4.7-32.5-3.2c-1,1.5,1.2,5.4,1.2,5.4
		c22.8,11.3,71.7,5.7,73.2,5.6c-40.9,10.5-74.4-2.8-74.4-2.8l1.1,3.9c0,0,18.2,6.3,39.7,6.8s34.9-5,34.9-5L377.9,275.6L377.9,275.6z
		"/>
	
		<linearGradient id="SVGID_00000070824852752769381210000001030008662509282981_" gradientUnits="userSpaceOnUse" x1="361.1364" y1="-267.5391" x2="388.1364" y2="-267.5391" gradientTransform="matrix(1 0 0 -1 0 -75.8886)">
		<stop  offset="0" style="stop-color:#CCEDFF"/>
		<stop  offset="1" style="stop-color:#755CBB"/>
	</linearGradient>
	<path style="opacity:0.5;fill:url(#SVGID_00000070824852752769381210000001030008662509282981_);enable-background:new    ;" d="
		M361.1,185.6c0,0,16.3,0.9,27,3.7l-5.5,8.4C382.6,197.8,374.3,190.4,361.1,185.6L361.1,185.6z"/>
	
		<linearGradient id="SVGID_00000093872298218236934240000016682673222060070073_" gradientUnits="userSpaceOnUse" x1="336.6" y1="-315.041" x2="376.3" y2="-315.041" gradientTransform="matrix(1 0 0 -1 0 -75.8886)">
		<stop  offset="0" style="stop-color:#CCEDFF"/>
		<stop  offset="1" style="stop-color:#755CBB"/>
	</linearGradient>
	<path style="opacity:0.5;fill:url(#SVGID_00000093872298218236934240000016682673222060070073_);enable-background:new    ;" d="
		M376.3,230.5c0,0-10.1,8.5-20.1,12.4s-19.6,4.3-19.6,4.3s5.7,1.7,19.9-0.6c14.1-2.3,19-9.9,19-9.9L376.3,230.5L376.3,230.5z"/>
	
		<linearGradient id="SVGID_00000078749335025514473990000012606573922091731607_" gradientUnits="userSpaceOnUse" x1="338.4987" y1="-332.9514" x2="380.9" y2="-332.9514" gradientTransform="matrix(1 0 0 -1 0 -75.8886)">
		<stop  offset="0" style="stop-color:#CCEDFF"/>
		<stop  offset="1" style="stop-color:#755CBB"/>
	</linearGradient>
	<path style="opacity:0.5;fill:url(#SVGID_00000078749335025514473990000012606573922091731607_);enable-background:new    ;" d="
		M380.9,263.1L380.9,263.1c-18.8,4.9-42.6-2.1-42.4-3s6.5,0.4,21.2-2.6c14.2-2.9,19.4-7.9,19.7-8.2c-0.1,0.9-2.1,2.8-2.6,4.8
		C376.3,255.5,379,259.9,380.9,263.1z"/>
	
		<linearGradient id="SVGID_00000021108939146577950980000014125837334120833418_" gradientUnits="userSpaceOnUse" x1="302" y1="-288.5079" x2="302" y2="-240.8979" gradientTransform="matrix(1 0 0 -1 0 -75.8886)">
		<stop  offset="0" style="stop-color:#CCEDFF"/>
		<stop  offset="1" style="stop-color:#755CBB"/>
	</linearGradient>
	<path style="opacity:0.5;fill:url(#SVGID_00000021108939146577950980000014125837334120833418_);enable-background:new    ;" d="
		M329.9,188.2c-16,1.6-20.4,6.1-20.4,6.1c-4.5,0.6-14.6-11-14.6-11l-1.3-1.5c0,0-8.1,18.6-15.5,27.7c-0.9,1.1-1.8,2.1-2.8,3.2
		l1.1-2.4c0,0,1.7-0.8,2.2-9.9c0.5-9-3.8-22.5-3.8-24.3s-0.7-11.1-0.7-11.1l13.7,8.2l-2.5-8l10,8c0,0,3.9,5.9,13.8,10.8
		C318.3,188.6,328.7,188.2,329.9,188.2z"/>
	
		<linearGradient id="SVGID_00000076593418516027712430000000354768897380107907_" gradientUnits="userSpaceOnUse" x1="305.75" y1="-292.4886" x2="305.75" y2="-256.3987" gradientTransform="matrix(1 0 0 -1 0 -75.8886)">
		<stop  offset="0" style="stop-color:#CCEDFF"/>
		<stop  offset="1" style="stop-color:#755CBB"/>
	</linearGradient>
	<path style="opacity:0.5;fill:url(#SVGID_00000076593418516027712430000000354768897380107907_);enable-background:new    ;" d="
		M293.5,181.8l9.6-1.2c0,0,3.8,2.5,11.5,5.6l-6.4,9.4c0,0,2.5,13.4,9.8,21c0,0-19.3-10.7-22-19.8L293.5,181.8L293.5,181.8z"/>
	
		<linearGradient id="SVGID_00000014617544313107746510000011715063442736599456_" gradientUnits="userSpaceOnUse" x1="248.75" y1="-246.3957" x2="248.75" y2="-219.1283" gradientTransform="matrix(1 0 0 -1 0 -75.8886)">
		<stop  offset="0" style="stop-color:#CCEDFF"/>
		<stop  offset="1" style="stop-color:#755CBB"/>
	</linearGradient>
	<path style="opacity:0.5;fill:url(#SVGID_00000014617544313107746510000011715063442736599456_);enable-background:new    ;" d="
		M237.8,153.2l2.7,7.2c0,0,2.8,9.7,8.3,10.1s10.9-16.3,10.9-16.3v-11c0,0-5.9,12.6-12.2,14C241.1,158.7,237.8,153.2,237.8,153.2z"/>
	
		<linearGradient id="SVGID_00000008142390530599884830000016479492291333927334_" gradientUnits="userSpaceOnUse" x1="270.8" y1="-222.3886" x2="281.8" y2="-222.3886" gradientTransform="matrix(1 0 0 -1 0 -75.8886)">
		<stop  offset="0" style="stop-color:#CCEDFF"/>
		<stop  offset="1" style="stop-color:#755CBB"/>
	</linearGradient>
	<path style="opacity:0.5;fill:url(#SVGID_00000008142390530599884830000016479492291333927334_);enable-background:new    ;" d="
		M270.8,147.5c0,0,4.9,9.9,11,12.9c0,0-7.2-17.5-5.7-27.8C276.1,132.6,273.5,134.2,270.8,147.5L270.8,147.5z"/>
	
		<linearGradient id="SVGID_00000163056500104765370150000007064538981071047298_" gradientUnits="userSpaceOnUse" x1="390.3" y1="-288.4886" x2="390.3" y2="-237.9886" gradientTransform="matrix(1 0 0 -1 0 -75.8886)">
		<stop  offset="0" style="stop-color:#CCCCFF"/>
		<stop  offset="1" style="stop-color:#755CBB"/>
	</linearGradient>
	<path style="opacity:0.76;fill:url(#SVGID_00000163056500104765370150000007064538981071047298_);enable-background:new    ;" d="
		M390.6,162.1l1.7,5.5l1.7,45c0,0-4.4-8.6-7.4-20.8l1.6-2.4C388.1,189.4,390.8,172.4,390.6,162.1L390.6,162.1z"/>
	
		<linearGradient id="SVGID_00000016755976730226384220000014117098063676032697_" gradientUnits="userSpaceOnUse" x1="447.0668" y1="-277.6379" x2="447.0668" y2="-251.2379" gradientTransform="matrix(1 0 0 -1 0 -75.8886)">
		<stop  offset="0" style="stop-color:#CCCCFF"/>
		<stop  offset="1" style="stop-color:#755CBB"/>
	</linearGradient>
	<path style="opacity:0.5;fill:url(#SVGID_00000016755976730226384220000014117098063676032697_);enable-background:new    ;" d="
		M442.9,175.4c0,0-1,22.1,8.4,24l0.5,2.4C451.8,201.8,439.6,201.3,442.9,175.4L442.9,175.4z"/>
	
		<linearGradient id="SVGID_00000001655865480445801800000002993967898131887493_" gradientUnits="userSpaceOnUse" x1="417.1" y1="-276.4886" x2="417.1" y2="-256.2886" gradientTransform="matrix(1 0 0 -1 0 -75.8886)">
		<stop  offset="0" style="stop-color:#CCCCFF"/>
		<stop  offset="1" style="stop-color:#755CBB"/>
	</linearGradient>
	<path style="opacity:0.3;fill:url(#SVGID_00000001655865480445801800000002993967898131887493_);enable-background:new    ;" d="
		M427.2,182.1c0,0-0.4,0.8-3.8-1.7c0,0-11.8,8.4-16.4,20.2c0,0,7.3-10.9,11.2-12c3.9-1.2,4.8,3.2,4.8,3.2S424.6,185.6,427.2,182.1
		L427.2,182.1z"/>
	
		<linearGradient id="SVGID_00000079447471064360087590000003933051461103109820_" gradientUnits="userSpaceOnUse" x1="243.0401" y1="-248.1156" x2="243.0401" y2="-240.6179" gradientTransform="matrix(1 0 0 -1 0 -75.8886)">
		<stop  offset="0" style="stop-color:#CCEDFF"/>
		<stop  offset="1" style="stop-color:#755CBB"/>
	</linearGradient>
	<path style="opacity:0.5;fill:url(#SVGID_00000079447471064360087590000003933051461103109820_);enable-background:new    ;" d="
		M236.5,164.7c0,0,4.6,8.4,13.1,5.8c0,0-5.1,3.4-10.2,0.6C239.4,171.1,236.2,165.7,236.5,164.7z"/>
	
		<linearGradient id="SVGID_00000013153224471750216090000016201485772501064339_" gradientUnits="userSpaceOnUse" x1="263.0303" y1="-270.9886" x2="263.0303" y2="-229.9886" gradientTransform="matrix(1 0 0 -1 0 -75.8886)">
		<stop  offset="0" style="stop-color:#CCCCFF"/>
		<stop  offset="1" style="stop-color:#755CBB"/>
	</linearGradient>
	<path style="opacity:0.5;fill:url(#SVGID_00000013153224471750216090000016201485772501064339_);enable-background:new    ;" d="
		M266.3,154.1c0,0,6.3,23.4-10.1,41c0,0,10.6-5.4,13-18C271.7,164.5,266.3,154.1,266.3,154.1L266.3,154.1z"/>
	
		<linearGradient id="SVGID_00000018207777642723472690000011203729532762232981_" gradientUnits="userSpaceOnUse" x1="368.4976" y1="-242.1279" x2="368.4976" y2="-211.2879" gradientTransform="matrix(1 0 0 -1 0 -75.8886)">
		<stop  offset="0" style="stop-color:#CCEDFF"/>
		<stop  offset="1" style="stop-color:#755CBB"/>
	</linearGradient>
	<path style="opacity:0.5;fill:url(#SVGID_00000018207777642723472690000011203729532762232981_);enable-background:new    ;" d="
		M378.5,135.4c0,0-0.7,10.6-5.8,18.1c-5.1,7.6-15.1,12.7-15.1,12.7s12.6-4.6,18.4-11.2C381.7,148.5,378.5,135.4,378.5,135.4
		L378.5,135.4z"/>
	
		<linearGradient id="SVGID_00000162330324518531947730000013447909119222622908_" gradientUnits="userSpaceOnUse" x1="328.0017" y1="-237.968" x2="328.0017" y2="-195.4079" gradientTransform="matrix(1 0 0 -1 0 -75.8886)">
		<stop  offset="0" style="stop-color:#CCEDFF"/>
		<stop  offset="1" style="stop-color:#755CBB"/>
	</linearGradient>
	<path style="opacity:0.5;fill:url(#SVGID_00000162330324518531947730000013447909119222622908_);enable-background:new    ;" d="
		M314,119.5c0,0,0,8.8,2.8,17.8s27.5,24.7,27.5,24.7s-25.4-10.6-30.4-20.1S314,119.5,314,119.5z"/>
	
		<linearGradient id="SVGID_00000123408474427253372970000011554338544958410127_" gradientUnits="userSpaceOnUse" x1="313.7" y1="-245.7848" x2="384.8" y2="-245.7848" gradientTransform="matrix(1 0 0 -1 0 -75.8886)">
		<stop  offset="0" style="stop-color:#8642A0"/>
		<stop  offset="1" style="stop-color:#6456C0"/>
	</linearGradient>
	<path style="fill:url(#SVGID_00000123408474427253372970000011554338544958410127_);" d="M313.7,161.6V176c0,0,33.1-0.3,70.2,2.2
		l0.9-12.9C384.8,165.2,352.5,161.4,313.7,161.6L313.7,161.6z"/>
	
		<linearGradient id="SVGID_00000055679976209479854910000004663577213463074200_" gradientUnits="userSpaceOnUse" x1="319.8564" y1="-204.6386" x2="366.1564" y2="-204.6386" gradientTransform="matrix(1 0 0 -1 0 -75.8886)">
		<stop  offset="0" style="stop-color:#CCCCFF"/>
		<stop  offset="1" style="stop-color:#755CBB"/>
	</linearGradient>
	<path style="opacity:0.5;fill:url(#SVGID_00000055679976209479854910000004663577213463074200_);enable-background:new    ;" d="
		M366.1,121.4c-0.8,9.3-3.6,15.8-6.6,20.2c-4.2,6-8.7,8-8.7,8c-4.5-2-8.4-4.4-11.8-7.1c-14.3-11.4-18.9-27.2-19.2-28.5
		c6,14.5,14.9,23.4,21.6,28.3c5.4,4,9.4,5.5,9.4,5.5v-4.6c-1.1-0.4-2.1-0.9-3.1-1.4c-11.8-5.9-18-18.4-20.9-26.4c0,0,0,0,0-0.1
		c-1.6-4.3-2.2-7.4-2.2-7.4h2.1l-0.7,1.5v0.1c0.3,1.5,0.7,3,1.2,4.4v0.1c6.6,20.8,23.6,27.5,23.6,27.5c11.8-8.7,11.6-22.5,11.6-22.5
		v-1.9l2.2,0.7L366.1,121.4L366.1,121.4z"/>
	
		<linearGradient id="SVGID_00000139292597485364516570000013906893602996348835_" gradientUnits="userSpaceOnUse" x1="438.7083" y1="-274.6279" x2="438.7083" y2="-247.8579" gradientTransform="matrix(1 0 0 -1 0 -75.8886)">
		<stop  offset="0" style="stop-color:#CCCCFF"/>
		<stop  offset="1" style="stop-color:#755CBB"/>
	</linearGradient>
	<path style="opacity:0.3;fill:url(#SVGID_00000139292597485364516570000013906893602996348835_);enable-background:new    ;" d="
		M436.1,172c0,0-3.2,10.5-0.2,26.8c0,0,1.5-20.6,2.6-22.4s4.3-1,4.3-1S437.9,172.6,436.1,172L436.1,172z"/>
	
		<linearGradient id="SVGID_00000080167876911084357640000004547666267970225296_" gradientUnits="userSpaceOnUse" x1="401" y1="-304.8886" x2="401" y2="-223.8886" gradientTransform="matrix(1 0 0 -1 0 -75.8886)">
		<stop  offset="0" style="stop-color:#CCCCFF"/>
		<stop  offset="1" style="stop-color:#755CBB"/>
	</linearGradient>
	<path style="opacity:0.5;fill:url(#SVGID_00000080167876911084357640000004547666267970225296_);enable-background:new    ;" d="
		M405,229c-2.8-2.5-6.2-6.5-9.5-13.2c-6.7-13.4-8.6-22.3-8.9-23.9l1.6-2.4l2.1-20.6l2-1.2c0,0,7.1-7.9,12.5-19.7
		c0.1,0.2,0.2,0.5,0.3,0.9l0,0c1.1,4.3,3.3,20.3,5.4,26c1.3,3.6,3.4,5.5,4.9,6.6c0,0-12.3,18.3-12.9,31.3
		C401.9,224.5,404.5,228.4,405,229L405,229z"/>
	
		<linearGradient id="SVGID_00000140006795012936585740000010866914330646766753_" gradientUnits="userSpaceOnUse" x1="313.8" y1="-342.8886" x2="313.8" y2="-319.6486" gradientTransform="matrix(1 0 0 -1 0 -75.8886)">
		<stop  offset="0" style="stop-color:#CCCCFF"/>
		<stop  offset="1" style="stop-color:#755CBB"/>
	</linearGradient>
	<path style="opacity:0.5;fill:url(#SVGID_00000140006795012936585740000010866914330646766753_);enable-background:new    ;" d="
		M331.9,267c0,0-22.2-3.6-31.2-9.5l0,0c0.1-0.5,0.1-1,0.1-1.5c-0.2-5-4.5-9.4-5.1-12.3c0.1,0.3,0.8,1.8,3.9,4.5c2,1.7,5,3.9,9.5,6.6
		c0.1,0.1,0.2,0.1,0.4,0.2c6.4,3.8,11.9,6.3,15.9,8.2c0,0,0,0,0.1,0C328.9,265,331.3,266.1,331.9,267L331.9,267L331.9,267z"/>
	
		<linearGradient id="SVGID_00000024681365569055865340000000326082425804713101_" gradientUnits="userSpaceOnUse" x1="358.95" y1="-336.524" x2="358.95" y2="-325.2343" gradientTransform="matrix(1 0 0 -1 0 -75.8886)">
		<stop  offset="0" style="stop-color:#CCCCFF"/>
		<stop  offset="1" style="stop-color:#755CBB"/>
	</linearGradient>
	<path style="opacity:0.5;fill:url(#SVGID_00000024681365569055865340000000326082425804713101_);enable-background:new    ;" d="
		M379.4,249.4c-0.1,0.9-2.1,2.8-2.6,4.8c0,0-8.1,8.6-38.3,6c0.2-0.9,6.5,0.4,21.2-2.6C373.9,254.7,379.1,249.7,379.4,249.4z"/>
	<path class="st57" d="M384.4,132.7l-19.3,6.2l-5.6,2.6l0,0h-3.7h-5l-3.1,0.3l-1.6,0.1l-4.7,0.4l-2.4,0.2l-23.1-8.4l-4.1-1.5
		l-19-6.9c0.6-0.2,1.1-0.4,1.7-0.7c12.8-5.1,25.3-11.2,25.3-11.2l4.8-5.9h2.1c1.9-4.2,3.2-8.1,4-11.2L332,91
		c0.1-0.6,0.1-0.9,0.1-0.9l6.8,3.6l22.9,18.3c0,1.2,0,2.4,0.1,3.3l0.3,2.3c0.1-0.4,0.1-0.7,0.1-0.7l2.2,0.7l1.5,3.6
		c0,0,2.6,4,12.7,8.4C380.6,130.7,382.4,131.6,384.4,132.7L384.4,132.7z"/>
	<g>
		
			<linearGradient id="SVGID_00000009555862046568812230000005472824252977546923_" gradientUnits="userSpaceOnUse" x1="358.3508" y1="-191.5018" x2="358.3508" y2="-114.2947" gradientTransform="matrix(1 0 0 -1 0 -75.8886)">
			<stop  offset="2.000000e-02" style="stop-color:#FFC2A9"/>
			<stop  offset="1" style="stop-color:#FF9595"/>
		</linearGradient>
		<path style="fill:url(#SVGID_00000009555862046568812230000005472824252977546923_);" d="M369.7,115.2c0,0-9,2-18.9-2.8
			S332.6,93.5,332,89.9c-0.5-3.5,3.8-12.8,3.8-20s-3.5-19.6,2.4-26.3s33.2-7.7,42.1,0.9c0,0,2.7,6.9,2.7,10.8c0,0.9-0.2,2.3-0.4,3.9
			c-0.1,0.6-0.2,1.2-0.3,1.9c-0.8,4.7-1.9,10.5-1.4,13c0.2,0.9,0.5,1.7,0.8,2.5l0,0c1.1,2.5,2.7,4.5,3,6.7
			C385.2,86.1,381.3,106.3,369.7,115.2L369.7,115.2z"/>
		
			<linearGradient id="SVGID_00000181789103406903259430000015843502066076713355_" gradientUnits="userSpaceOnUse" x1="329.6399" y1="-160.3115" x2="329.6399" y2="-137.5479" gradientTransform="matrix(1 0 0 -1 0 -75.8886)">
			<stop  offset="2.000000e-02" style="stop-color:#FFC2A9"/>
			<stop  offset="1" style="stop-color:#FF9595"/>
		</linearGradient>
		<path style="fill:url(#SVGID_00000181789103406903259430000015843502066076713355_);" d="M335.8,67.9c0,0-2.5-6.1-8.6-6.2
			c0,0-3.6,1.4-4.2,4.2c0,0,1.3,9.9,2.8,14.6c1.5,4.6,7.1,4,7.1,4S337.8,77,335.8,67.9L335.8,67.9z"/>
		
			<linearGradient id="SVGID_00000153704862258509773260000011488785761050922907_" gradientUnits="userSpaceOnUse" x1="369.1042" y1="-168.9054" x2="370.0542" y2="-163.9354" gradientTransform="matrix(1 0 0 -1 0 -75.8886)">
			<stop  offset="0" style="stop-color:#E1616A"/>
			<stop  offset="1" style="stop-color:#FF8883"/>
		</linearGradient>
		<path style="fill:url(#SVGID_00000153704862258509773260000011488785761050922907_);" d="M359.4,88.2c0,0,2-0.2,2.9,0.5
			s4.1,3.8,8.2,4.6c4.1,0.9,6.8-2.6,7.7-2.8s1.8,1.1,1.8,1.1s-0.4-1.4-2.5-2.1c0,0-0.9,3.3-6.8,2.1c-5.9-1.1-8.4-3.7-8.4-3.7
			l-0.3-0.5C362.1,87.4,360.4,87.7,359.4,88.2L359.4,88.2z"/>
		
			<linearGradient id="SVGID_00000183249614470443736240000009467465195623307917_" gradientUnits="userSpaceOnUse" x1="360.6" y1="-165.0886" x2="360.6" y2="-115.3386" gradientTransform="matrix(1 0 0 -1 0 -75.8886)">
			<stop  offset="0" style="stop-color:#FFEADB"/>
			<stop  offset="0.99" style="stop-color:#C27CB6"/>
		</linearGradient>
		<path style="opacity:0.6;fill:url(#SVGID_00000183249614470443736240000009467465195623307917_);enable-background:new    ;" d="
			M350.7,57.6l0.1-0.6c0,0,5.9-10.3,17.5-10.6s14.3,7,14.3,7l2.2-3.3l-4.9-10l-34.2-0.6l-8.3,6.7l-1,16.5l3.7,21.7l9,4.8l2.5-2.3
			c-0.9-7.3-6.4-13.9-6.4-13.9l4-2.7c0,0,10.1,4.9,16,3.4c0,0,4.4-12.9,4.1-22.4C369.3,51.4,354.2,53.6,350.7,57.6L350.7,57.6z"/>
		<path class="st62" d="M350.2,58.3c0,0,0.6-3.7,6.9-5.2c7-1.7,12.7-3.1,12.7-3.1s-1.2,4.1-3.6,5.6c0,0-7.4-0.3-11.1,0.6
			C351.3,57.1,350.2,58.3,350.2,58.3L350.2,58.3z"/>
		<path class="st62" d="M382.6,53.3c0,0-3.5,2.7-6,9.3c0,0,2.3-3,4.5-3c1.5,0,1.2,1.5,1.2,1.5S383.8,57.2,382.6,53.3L382.6,53.3z"/>
		
			<linearGradient id="SVGID_00000147210934730212522590000015264677496786971836_" gradientUnits="userSpaceOnUse" x1="358.1" y1="-144.7379" x2="358.1" y2="-134.8879" gradientTransform="matrix(1 0 0 -1 0 -75.8886)">
			<stop  offset="0" style="stop-color:#CF6074"/>
			<stop  offset="1" style="stop-color:#F37270"/>
		</linearGradient>
		<path style="fill:url(#SVGID_00000147210934730212522590000015264677496786971836_);" d="M352.6,68.9c0,0,0.4-7.9,8-9.8
			c0,0,2.8,3.6,3,7.6C363.6,66.6,359.6,65.8,352.6,68.9z"/>
		
			<linearGradient id="SVGID_00000023246334114733117580000011377982652196727685_" gradientUnits="userSpaceOnUse" x1="377.7125" y1="-147.8712" x2="377.7125" y2="-139.3011" gradientTransform="matrix(1 0 0 -1 0 -75.8886)">
			<stop  offset="0" style="stop-color:#CF6074"/>
			<stop  offset="1" style="stop-color:#FF817F"/>
		</linearGradient>
		<path style="fill:url(#SVGID_00000023246334114733117580000011377982652196727685_);" d="M374.5,72c0,0,0.6-6.3,4.2-8.6
			c0,0,2.5,1.8,2.2,7.1C381,70.5,378.8,69.7,374.5,72L374.5,72z"/>
		<path class="st65" d="M352.6,68.9c0,0,2.5,3.1,9.5,3.7c0,0,1.3-2,1.2-6C363.2,66.5,356.8,65.9,352.6,68.9L352.6,68.9z"/>
		<path class="st65" d="M374.5,72v0.9c0,0,1.1,2.2,4.9,2.6c0,0,1.2-1.9,1.4-5.1C380.8,70.5,378.4,69.9,374.5,72L374.5,72z"/>
		<path class="st66" d="M360,66.4c0,0-1.8,2.2-1.6,5.6c0,0,2.3,0.6,3.6,0.6c0,0,1.5-2.1,1.2-6C363.2,66.5,361.2,66.1,360,66.4
			L360,66.4z"/>
		<path class="st66" d="M378.2,70.6c0,0-1,1.1-1.2,4.4c0,0,1.4,0.6,2.5,0.6c0,0,1.4-2,1.4-5.1C380.8,70.5,379.8,70.1,378.2,70.6z"/>
		<path class="st62" d="M359.4,72.2c0,0-0.6-4.2,1.8-5.9l2,0.2c0,0,0.7,3.4-1.2,6C362,72.5,360.1,72.3,359.4,72.2L359.4,72.2z"/>
		<path class="st62" d="M379.1,70.4c0,0-0.9,1.9-1.3,4.8c0,0,0.7,0.3,1.7,0.3c0,0,1.4-1.7,1.4-5.1C380.8,70.5,379.8,70.2,379.1,70.4
			z"/>
		<path class="st67" d="M352.6,68.9c0,0,4.6-2.7,12.5-1.2l-1.5-1.1C363.6,66.6,358,64.8,352.6,68.9z"/>
		<path class="st67" d="M374.5,72c0,0,3.7-2,8.1-0.9l-1.8-1.3C380.8,69.7,377.9,69.3,374.5,72z"/>
		<path class="st1" d="M357.6,68.9c0,0,1.3-0.3,2.4,0.9C360,69.7,358.4,70.2,357.6,68.9z"/>
		<path class="st1" d="M376.2,72.5c0,0,2-0.4,2.7,0.5C378.9,73.1,377.8,73.8,376.2,72.5z"/>
		<path class="st68" d="M353,69.3c0,0,3.6,3.6,9.4,4.4l0.1-2.1l-0.5,0.9C362,72.5,356.5,72.2,353,69.3L353,69.3z"/>
		<path class="st68" d="M374.5,72.9c0,0,0.6,2.3,5.3,3.4l-0.1-1.1l-0.3,0.4C379.5,75.5,376.1,75.1,374.5,72.9z"/>
		<path class="st69" d="M365.1,82.1c0,0,1.8-0.4,5,0s6.8,1.3,8.8,0c0,0-2.6,2.6-4.9,3s-5.8-1.6-5.8-1.6h-1.5
			C366.7,83.6,365.6,83,365.1,82.1L365.1,82.1z"/>
		<path class="st70" d="M367,83.6c0,0,0.8-0.5,1.5-0.4s1.3,1.1,1.3,1.1S368.4,83.6,367,83.6z"/>
		<path class="st71" d="M378.9,82.1c0.8-0.8-3.5-8.6-5.6-8.9s-4,8.7-4,8.7s2.9,0.4,5.7,0.8C377.8,83.1,378.9,82.1,378.9,82.1
			L378.9,82.1z"/>
		
			<linearGradient id="SVGID_00000165940094434243301850000014445758606010991796_" gradientUnits="userSpaceOnUse" x1="378.5681" y1="-152.8579" x2="378.5681" y2="-133.5646" gradientTransform="matrix(1 0 0 -1 0 -75.8886)">
			<stop  offset="0" style="stop-color:#FFEADB"/>
			<stop  offset="0.99" style="stop-color:#C27CB6"/>
		</linearGradient>
		<path style="opacity:0.6;fill:url(#SVGID_00000165940094434243301850000014445758606010991796_);enable-background:new    ;" d="
			M382,57.7c-1.2-0.1-5.4,4.9-5.4,4.9s-2.6,8.2-2.1,10.6s7,3.7,7,3.7l0.3-0.4l0,0c-0.3-0.8-0.6-1.6-0.8-2.5c-0.5-2.5,0.6-8.3,1.4-13
			c0,0,0.3-1,0.3-1.9C382.7,58.5,382.6,57.8,382,57.7L382,57.7z"/>
		
			<linearGradient id="SVGID_00000127045485079299799310000015575741331735232919_" gradientUnits="userSpaceOnUse" x1="359.3518" y1="-192.4308" x2="359.3518" y2="-98.7979" gradientTransform="matrix(1 0 0 -1 0 -75.8886)">
			<stop  offset="0" style="stop-color:#2E33A0"/>
			<stop  offset="1" style="stop-color:#0665A5"/>
		</linearGradient>
		<path style="fill:url(#SVGID_00000127045485079299799310000015575741331735232919_);" d="M381.8,91c-1.3-2.8-0.5-4.2-12.1-5.7
			c-16.4-2.1-17.8,2.8-20.5,2.1c-0.1,0-0.2-0.1-0.3-0.1c-3-1.2-10.1-8.1-10.3-17.5c-0.2-9.8,6.4-16.7,6.4-16.7
			c-2.4-2-3.3-7.8-0.8-10.2c2.6-2.5,6.9-1.9,17.6-0.8c10.7,1.1,10.7,0.5,10.7,0.5c3.4,0.9,5.4,4.1,5.9,5.1c0.1,0.2,0.2,0.3,0.2,0.3
			l1.3-1.2c3.6,5.2,2.9,10.9,2.9,10.9s5.9-11.9,5.2-13.6c-1.2-3.1-4.6-7.7-4.8-8l0,0c0,0-1-9.1-3.8-9.1s-15,2.7-15,2.7
			c1.3-3.1,1.1-6.7,1.1-6.7v0.1c-4,3.6-7.8,3.9-13.3,6.5c-2.8,1.3-4.1,2.5-5.1,3.7l-0.4,0.4l-0.4,0.5c-0.4,0.5-0.8,1-1.2,1.5
			c0,0,0,0.1-0.1,0.1l0,0c-0.4,0.5-1,1-1.6,1.5c-3.6,2.9-11.5,4.9-12.5,8s1.2,7.3,2.3,11.7c1.1,4.4,0.6,8.2,0.6,8.2s3.8,4.9,2.5,12
			c-1.1,6.4-3.5,7.4-3.5,7.4c-1.7,3.5-0.9,6.8-0.9,6.8c3.5,13.9,18,22.2,18,22.2c12.9,4.8,21.4,2.7,21.4,2.7l0,0
			c9.4-6.1,12.6-26.3,12.7-27.3C383.9,89.1,382.2,91.8,381.8,91L381.8,91z M376.1,103.9c-2.3-0.4-2.8-6.1-3.5-6.9
			c-0.8-0.8-4.9-0.4-4.9-0.4s-3.8,4.3-5.3,4.4s-9.6-3.2-7.9-8.1s7.9-5.6,7.9-5.6s3.2,2.7,7.9,3c4.7,0.3,6.5-0.6,7-0.8
			c0.6-0.3,3.6,1.1,3.5,5.4C380.8,97.9,378.3,104.3,376.1,103.9L376.1,103.9z"/>
		<path class="st74" d="M375.5,75c0,0,4.1,5.1,3.7,7c-0.4,2.1-5.2,3.2-5.2,3.2s3.8-1.3,4.6-3.2C378.6,82,377.6,78.1,375.5,75
			L375.5,75z"/>
		
			<linearGradient id="SVGID_00000029016717869168108780000003215822870402888092_" gradientUnits="userSpaceOnUse" x1="384.0788" y1="-133.4886" x2="384.0788" y2="-111.8886" gradientTransform="matrix(1 0 0 -1 0 -75.8886)">
			<stop  offset="0" style="stop-color:#FFEADB"/>
			<stop  offset="0.99" style="stop-color:#8860C7"/>
		</linearGradient>
		<path style="opacity:0.6;fill:url(#SVGID_00000029016717869168108780000003215822870402888092_);enable-background:new    ;" d="
			M382.9,57.6c0,0,0.7-5.7-2.9-10.9c2.9-5.2,3.3-10.7,3.3-10.7l0,0c1,2.4,1.5,7.1,1.5,7.1l3.3,0.9C388.8,45.7,382.9,57.6,382.9,57.6
			z"/>
		
			<linearGradient id="SVGID_00000045609716124360908240000006840459814372666255_" gradientUnits="userSpaceOnUse" x1="354.7229" y1="-192.3459" x2="354.7229" y2="-98.7187" gradientTransform="matrix(1 0 0 -1 0 -75.8886)">
			<stop  offset="0" style="stop-color:#CCC2DB"/>
			<stop  offset="0.99" style="stop-color:#8860C7"/>
		</linearGradient>
		<path style="opacity:0.6;fill:url(#SVGID_00000045609716124360908240000006840459814372666255_);enable-background:new    ;" d="
			M378.5,47.6c-0.5-1-2.5-4.2-5.9-5.1c0,0,0,0.7-10.7-0.5c-10.7-1.1-15.1-1.7-17.6,0.8c-2.6,2.5-1.6,8.2,0.8,10.2
			c0,0-6.5,6.9-6.4,16.7c0.2,9.4,7.3,16.4,10.3,17.5l-0.1,1c0,0,0.5,21.5,5.8,23.2c5.2,1.7,16.1,0.8,17.1,1.8s-0.1,2.6-0.2,2.8l0,0
			c0,0-8.5,2.1-21.4-2.7c0,0-14.5-8.3-18-22.2c0,0-0.8-3.3,0.9-6.8c0,0,2.4-1,3.5-7.4c1.2-7.1-2.5-12-2.5-12s0.5-3.8-0.6-8.2
			s-3.3-8.6-2.3-11.7c6.1,0.9,10-2.2,10-2.2s1.1-1.5,5.8-2.2c4.7-0.8,23.5,1.1,23.5,1.1s-1.9-1.6-5.9-2.6c-3.8-1-16.6,0.2-18,0.3
			c1.5-0.3,16-2.8,17.7-2.3c1.8,0.5,8.1,3.4,8.1,3.4c-0.6-2.9-6.2-9.8-6.2-9.8s-8,0.1-13.2,1.2c-4.6,1-7.2,3.1-7.7,3.5l1.2-1.5
			l0.4-0.5l0.4-0.4l1.8-0.3l9.1-3.7c3.1-1.6,7-5.7,7.5-6.2v-0.1c0,0,0.2,3.6-1.1,6.7c7.7-0.9,10.3-0.5,10.3-0.5
			C378.3,34.1,378.5,47.6,378.5,47.6L378.5,47.6z"/>
		
			<linearGradient id="SVGID_00000021830794865141281070000014805187632645562517_" gradientUnits="userSpaceOnUse" x1="360.8915" y1="-192.41" x2="360.8915" y2="-188.39" gradientTransform="matrix(1 0 0 -1 0 -75.8886)">
			<stop  offset="0" style="stop-color:#776D7E"/>
			<stop  offset="1" style="stop-color:#9D68C2"/>
		</linearGradient>
		<path style="opacity:0.5;fill:url(#SVGID_00000021830794865141281070000014805187632645562517_);enable-background:new    ;" d="
			M350,113.4c0,0,4.7-1.1,11.9-0.8c7.1,0.3,11.2,0.3,9.5,3.6C371.4,116.1,362.4,118.1,350,113.4z"/>
		
			<linearGradient id="SVGID_00000165195874403883975410000010790523690744838041_" gradientUnits="userSpaceOnUse" x1="372.7" y1="-105.5179" x2="372.7" y2="-102.5297" gradientTransform="matrix(1 0 0 -1 0 -75.8886)">
			<stop  offset="0" style="stop-color:#1F77D1"/>
			<stop  offset="1" style="stop-color:#0686C9"/>
		</linearGradient>
		<path style="fill:url(#SVGID_00000165195874403883975410000010790523690744838041_);" d="M374.8,29.2c0,0,4.3-1.7,6.1-1.4
			c0,0-0.7-0.9-1.4-1.1c-0.7-0.2-15,3-15,3S373.4,28.6,374.8,29.2L374.8,29.2z"/>
		
			<linearGradient id="SVGID_00000001654704999802115580000010751696626892871309_" gradientUnits="userSpaceOnUse" x1="353.6" y1="-115.3579" x2="353.6" y2="-106.5208" gradientTransform="matrix(1 0 0 -1 0 -75.8886)">
			<stop  offset="0" style="stop-color:#1F77D1"/>
			<stop  offset="1" style="stop-color:#0686C9"/>
		</linearGradient>
		<path style="fill:url(#SVGID_00000001654704999802115580000010751696626892871309_);" d="M366,30.8c0,0-0.3,4.7-1.9,6.4l-17.7,2.3
			l-5.2-0.9c0,0,2-0.9,4.2-3.4C347.7,32.6,359.2,30,366,30.8L366,30.8z"/>
		
			<linearGradient id="SVGID_00000176003258522489290180000001522769329212068266_" gradientUnits="userSpaceOnUse" x1="385.7" y1="-119.838" x2="385.7" y2="-111.8679" gradientTransform="matrix(1 0 0 -1 0 -75.8886)">
			<stop  offset="0" style="stop-color:#1F77D1"/>
			<stop  offset="1" style="stop-color:#0686C9"/>
		</linearGradient>
		<path style="fill:url(#SVGID_00000176003258522489290180000001522769329212068266_);" d="M383.3,36c0,0,1.4,4.7,1.5,7.1l3.3,0.9
			C388.1,44,387.1,40.4,383.3,36z"/>
		
			<linearGradient id="SVGID_00000173866807420226164290000006739496969251947431_" gradientUnits="userSpaceOnUse" x1="332.9149" y1="-154.9411" x2="322.7177" y2="-142.4545" gradientTransform="matrix(1 0 0 -1 0 -75.8886)">
			<stop  offset="0" style="stop-color:#FFEADB"/>
			<stop  offset="0.99" style="stop-color:#B060F4"/>
		</linearGradient>
		<path style="opacity:0.8;fill:url(#SVGID_00000173866807420226164290000006739496969251947431_);enable-background:new    ;" d="
			M335.1,76.3c0,0-1.2-6-4.3-8.9c-3-2.9-6.5-2-6.5-2s1,11.1,1.9,13.8s2.5,3.4,2.5,3.4s-2.1-1.9-2.4-5.5c-0.3-3.7-0.4-8.8,0.4-9.4
			s4.1,1.8,4.1,1.8s-1,1.3-1.6,4.5c-0.6,3.3,1.7,5.6,2.5,5.6s0-3.8,0.1-4.8C331.9,73.8,333.8,73.7,335.1,76.3L335.1,76.3z"/>
		
			<linearGradient id="SVGID_00000059294510594017053230000018375039562632337296_" gradientUnits="userSpaceOnUse" x1="334.0094" y1="-153.306" x2="328.9938" y2="-147.1714" gradientTransform="matrix(1 0 0 -1 0 -75.8886)">
			<stop  offset="0" style="stop-color:#FFEADB"/>
			<stop  offset="0.99" style="stop-color:#B060F4"/>
		</linearGradient>
		<path style="opacity:0.8;fill:url(#SVGID_00000059294510594017053230000018375039562632337296_);enable-background:new    ;" d="
			M332,68.8c0,0-3.3,2.2-3,6.7c0.4,4.5,2.9,4.3,2.9,3.3c0-0.9-0.5-3.4-0.2-4.7c0.3-1.4,2.5-0.8,2.5-0.8S332.7,69.8,332,68.8
			L332,68.8z"/>
		<path class="st83" d="M384.1,88.8c0,0-4.1,18.9-12.7,27.3C371.4,116.1,381.2,112.3,384.1,88.8z"/>
		<path class="st83" d="M379.5,26.7c0,0,2.2,1.7,2.6,7.6S380,46.7,380,46.7s3.3-4.9,3.6-10.3C383.9,31.1,381.2,27.3,379.5,26.7
			L379.5,26.7z"/>
	</g>
	
		<linearGradient id="SVGID_00000002353377717162624280000011255430261167380645_" gradientUnits="userSpaceOnUse" x1="353.0664" y1="-116.1553" x2="370.3364" y2="-116.1553" gradientTransform="matrix(1 0 0 -1 0 -75.8886)">
		<stop  offset="0" style="stop-color:#1F77D1"/>
		<stop  offset="1" style="stop-color:#0686C9"/>
	</linearGradient>
	<path style="fill:url(#SVGID_00000002353377717162624280000011255430261167380645_);" d="M353.1,39c0,0,5,1.7,10.6,2.2
		c5.5,0.5,6.7,0.6,6.7,0.6s-2.2-2.2-7-2.8C358.6,38.4,353.1,39,353.1,39z"/>
	
		<linearGradient id="SVGID_00000040561790427685150740000000905970859792836491_" gradientUnits="userSpaceOnUse" x1="377.4264" y1="-167.7213" x2="382.6564" y2="-167.7213" gradientTransform="matrix(1 0 0 -1 0 -75.8886)">
		<stop  offset="0" style="stop-color:#1F77D1"/>
		<stop  offset="1" style="stop-color:#0686C9"/>
	</linearGradient>
	<path style="fill:url(#SVGID_00000040561790427685150740000000905970859792836491_);" d="M377.5,89.2c0,0,2.4,0,3.4,3
		c0.8,2.4,1,4.5,1,4.5l0.9-3.3c0,0-1.1-4.2-2.3-5.2c-0.8-0.7-2.3-1.4-3-1.2V89.2L377.5,89.2z"/>
	
		<linearGradient id="SVGID_00000168113962009622089270000003138646503610442167_" gradientUnits="userSpaceOnUse" x1="370.9564" y1="-163.8962" x2="376.6064" y2="-163.8962" gradientTransform="matrix(1 0 0 -1 0 -75.8886)">
		<stop  offset="0" style="stop-color:#1F77D1"/>
		<stop  offset="1" style="stop-color:#0686C9"/>
	</linearGradient>
	<path style="fill:url(#SVGID_00000168113962009622089270000003138646503610442167_);" d="M370.9,86.2l0.4,3.6c0,0,2.9,0.2,4.9-0.6
		l0.4-2.2C376.6,87.1,372.8,86.1,370.9,86.2L370.9,86.2z"/>
	<path class="st83" d="M384.4,132.7c0,0,17.2,12.6,19.5,16.9c2.2,4.3,3.1,17.9,6.2,23.8c0,0-2.1-9.6-3.5-17.1
		c-1.5-7.5-1.1-7.6-1.9-9.5S390.9,136,384.4,132.7L384.4,132.7z"/>
	<path class="st83" d="M381.3,202.8c0,0-8.3,35.5-7.9,37.9c0.4,2.4,5.8,7.3,6,8.6c0,0-4.1,5.5-3.9,6.7s7.2,8.9,7,11.3
		c0,0.7-4.6,8.2-4.6,8.2s5.1-7.4,5.4-8.5s-6.3-11-6.5-12c-0.5-2.6,3.3-4.5,3.4-6.2s-5.1-5.9-5.1-8.6
		C375,237.4,381.3,202.8,381.3,202.8L381.3,202.8z"/>
	<path class="st83" d="M383,287.5c0,0,18,40.6,24.1,81.3C407,368.8,406,329.1,383,287.5z"/>
	<path class="st71" d="M269.2,124.6c0,0-4.6-1-6.6-5c-1.9-4.1-0.7-9.9-0.7-9.9s3.6,7,5.4,9.4C269.1,121.5,269.7,124.1,269.2,124.6
		L269.2,124.6z"/>
</g>
<g>
	<g>
		<path class="st83" d="M317.9,172.2c0.6,0.3,1.5,0.6,2.4,0.6c1.4,0,2.2-0.8,2.1-1.8c0-1-0.6-1.5-2-2c-1.7-0.6-2.8-1.4-2.9-2.8
			c0-1.6,1.3-2.9,3.3-2.9c1.1,0,1.9,0.2,2.4,0.5c-0.1,0.4-0.2,0.7-0.4,1.1c-0.3-0.2-1.1-0.5-2-0.4c-1.4,0-2,0.9-1.9,1.6
			c0,1,0.7,1.4,2.1,1.9c1.8,0.6,2.7,1.5,2.7,3c0,1.6-1.1,3-3.6,3.1c-1,0-2.1-0.2-2.7-0.6C317.6,172.9,317.6,172.6,317.9,172.2z"/>
		<path class="st83" d="M325.4,163.4c0.7-0.1,1.5-0.2,2.6-0.2c1.4,0,2.3,0.3,3,0.8c0.6,0.5,0.9,1.2,0.9,2.2c0,0.9-0.3,1.7-0.8,2.2
			c-0.7,0.7-1.9,1.1-3.2,1.2c-0.4,0-0.8,0-1.1-0.1c0,1.7,0,2.5,0.1,4.1c-0.5,0-0.8,0-1.3,0C325.5,169.5,325.5,167.5,325.4,163.4z
			 M326.9,168.4c0.3,0.1,0.7,0.1,1.1,0.1c1.6,0,2.6-0.8,2.6-2.2c0-1.4-1-2-2.5-2c-0.6,0-1,0.1-1.3,0.1
			C326.9,166,326.9,166.8,326.9,168.4z"/>
		<path class="st83" d="M339.2,168.7c-1.6,0-2.4,0-4.1,0c0,1.5,0,2.2,0,3.7c1.8,0,2.7,0,4.5,0c0,0.4,0,0.7,0,1.1c-2.3,0-3.5,0-5.8,0
			c0-4.1,0-6.2,0-10.3c2.3,0,3.4,0,5.7,0c0,0.4,0,0.7,0,1.1c-1.7,0-2.6,0-4.3,0c0,1.3,0,2,0,3.3c1.6,0,2.4,0,4.1,0
			C339.2,168.1,339.2,168.3,339.2,168.7z"/>
		<path class="st83" d="M346.9,168.9c-1.6,0-2.4-0.1-4.1-0.1c0,1.5,0,2.2-0.1,3.7c1.8,0,2.7,0,4.5,0.1c0,0.4,0,0.7,0,1.1
			c-2.3-0.1-3.5-0.1-5.8-0.1c0.1-4.1,0.1-6.2,0.2-10.3c2.3,0,3.4,0.1,5.7,0.1c0,0.4,0,0.7,0,1.1c-1.7,0-2.6-0.1-4.3-0.1
			c0,1.3,0,2-0.1,3.3c1.6,0,2.4,0,4.1,0.1C346.9,168.2,346.9,168.4,346.9,168.9z"/>
		<path class="st83" d="M349.4,163.6c0.8-0.1,1.8-0.2,2.9-0.1c2,0.1,3.3,0.6,4.2,1.5s1.4,2.1,1.3,3.8c-0.1,1.7-0.7,3-1.7,4
			c-1,0.9-2.6,1.4-4.6,1.3c-1,0-1.8-0.1-2.4-0.2C349.1,169.7,349.1,167.6,349.4,163.6z M350.4,172.7c0.3,0.1,0.8,0.1,1.4,0.1
			c2.9,0.1,4.5-1.4,4.6-4.2c0.1-2.4-1.2-4.1-4.1-4.2c-0.7,0-1.2,0-1.6,0.1C350.5,167.8,350.4,169.5,350.4,172.7z"/>
		<path class="st83" d="M359.1,172.5c0.6,0.4,1.4,0.7,2.4,0.8c1.4,0.1,2.2-0.6,2.3-1.6s-0.5-1.6-1.9-2.2c-1.6-0.7-2.7-1.6-2.6-3.1
			c0.1-1.6,1.5-2.7,3.6-2.6c1.1,0.1,1.8,0.3,2.3,0.6c-0.2,0.4-0.3,0.6-0.4,1.1c-0.3-0.2-1-0.6-2-0.6c-1.4-0.1-2,0.7-2.1,1.4
			c0,1,0.6,1.5,2,2.1c1.7,0.8,2.6,1.7,2.5,3.2c-0.1,1.6-1.4,2.9-3.8,2.8c-1-0.1-2.1-0.4-2.6-0.8C358.9,173.2,358.9,173,359.1,172.5z
			"/>
		<path class="st83" d="M368.9,164.3c-0.2,2.4-0.2,3.7-0.4,6.1c-0.2,2.3,0.8,3.4,2.2,3.5c1.5,0.1,2.6-0.8,2.8-3.1
			c0.2-2.4,0.3-3.7,0.5-6.1c0.6,0,0.8,0.1,1.4,0.1c-0.2,2.4-0.3,3.6-0.5,6c-0.2,3.2-2,4.3-4.3,4.2c-2.1-0.1-3.6-1.5-3.4-4.7
			c0.2-2.4,0.2-3.6,0.4-6.1C368,164.3,368.2,164.3,368.9,164.3z"/>
		<path class="st83" d="M377.6,165c0.5,0,0.8,0.1,1.4,0.1c-0.3,3.7-0.5,5.5-0.8,9.2c1.8,0.2,2.7,0.2,4.4,0.4c0,0.4-0.1,0.7-0.1,1.1
			c-2.3-0.2-3.4-0.3-5.7-0.5C377,171.2,377.2,169.1,377.6,165z"/>
	</g>
</g>
<g>
	<g>
		<g>
			<ellipse class="st87" cx="512.8" cy="91.7" rx="37.8" ry="37.8"/>
		</g>
	</g>
	<g>
		<g>
			
				<ellipse transform="matrix(0.2298 -0.9732 0.9732 0.2298 305.7357 569.7137)" class="st87" cx="512.8" cy="91.7" rx="32.6" ry="32.6"/>
			<path class="st1" d="M512.8,125.9c-18.9,0-34.2-15.3-34.2-34.1c0-18.9,15.3-34.1,34.2-34.1S547,73,547,91.8
				C547,110.5,531.7,125.9,512.8,125.9z M512.8,60.7c-17.1,0-31,13.9-31,31s14,31,31,31c17.1,0,31-13.9,31-31S529.9,60.7,512.8,60.7
				z"/>
		</g>
		<g>
			<ellipse class="st87" cx="512.8" cy="91.7" rx="26.5" ry="26.5"/>
			<path class="st1" d="M512.8,119.8c-15.5,0-28.2-12.6-28.2-28.1s12.6-28.1,28.2-28.1c15.5,0,28.2,12.6,28.2,28.1
				S528.4,119.8,512.8,119.8z M512.8,66.8c-13.8,0-25,11.2-25,25s11.2,25,25,25s25-11.2,25-25S526.6,66.8,512.8,66.8z"/>
		</g>
		<g>
			<ellipse class="st87" cx="512.8" cy="91.8" rx="20.5" ry="20.5"/>
			<path class="st1" d="M512.8,113.7c-12.2,0-22.1-9.9-22.1-22.1c0-12.1,9.9-22.1,22.1-22.1s22.1,9.9,22.1,22.1
				S525,113.7,512.8,113.7z M512.8,72.8c-10.4,0-18.9,8.5-18.9,18.9s8.5,18.9,18.9,18.9c10.4,0,18.9-8.5,18.9-18.9
				S523.3,72.8,512.8,72.8z"/>
		</g>
		<g>
			<ellipse class="st87" cx="512.8" cy="91.7" rx="14.5" ry="14.4"/>
			<path class="st1" d="M512.8,107.7c-8.8,0-16-7.2-16-16s7.2-16,16-16s16,7.2,16,16S521.6,107.7,512.8,107.7z M512.8,78.8
				c-7.1,0-12.9,5.8-12.9,12.8c0,7.1,5.8,12.8,12.9,12.8c7.1,0,12.9-5.8,12.9-12.8C525.7,84.6,519.9,78.8,512.8,78.8z"/>
		</g>
		<g>
			
				<ellipse transform="matrix(0.2298 -0.9732 0.9732 0.2298 305.7358 569.7137)" class="st87" cx="512.8" cy="91.7" rx="8.4" ry="8.4"/>
			<path class="st1" d="M512.8,101.7c-5.5,0-9.9-4.5-9.9-9.9c0-5.5,4.5-9.9,9.9-9.9c5.5,0,9.9,4.5,9.9,9.9S518.3,101.7,512.8,101.7z
				 M512.8,84.9c-3.8,0-6.8,3-6.8,6.8s3.1,6.8,6.8,6.8c3.8,0,6.8-3,6.8-6.8C519.6,88,516.6,84.9,512.8,84.9z"/>
		</g>
		<g>
			<ellipse class="st87" cx="512.8" cy="91.7" rx="2.3" ry="2.3"/>
			<path class="st1" d="M512.8,95.6c-2.1,0-3.9-1.8-3.9-3.9s1.8-3.9,3.9-3.9c2.1,0,3.9,1.8,3.9,3.9C516.7,93.9,515,95.6,512.8,95.6z
				 M512.8,91c-0.4,0-0.8,0.3-0.8,0.8c0,0.4,0.3,0.8,0.8,0.8c0.4,0,0.8-0.3,0.8-0.8S513.2,91,512.8,91z"/>
		</g>
	</g>
</g>
<g>
	<g>
		<path class="st88" d="M511.4,92.3c-0.3,0-0.5-0.1-0.7-0.2l-36.1-25.6c-0.5-0.4-0.6-1.1-0.3-1.6c0.4-0.5,1.1-0.6,1.6-0.3L512,90.2
			c0.5,0.4,0.6,1.1,0.3,1.6C512.1,92.2,511.8,92.3,511.4,92.3z"/>
	</g>
	<g>
		<path class="st88" d="M512.7,92.2c0-0.3-3.6-8.6-3.6-8.6l-5.5,7.5L512.7,92.2z"/>
	</g>
	<g>
		<path class="st88" d="M480.7,70.5c-0.3,0-0.5-0.1-0.7-0.3l-7.5-5.5c-0.2-0.1-0.3-0.3-0.4-0.5l-3.5-8.4c-0.2-0.5-0.1-1.1,0.4-1.4
			c0.4-0.3,1-0.3,1.4,0l10.1,7.4c0.3,0.2,0.4,0.5,0.5,0.8l0.9,6.5c0.1,0.4-0.2,0.9-0.6,1.2C481.1,70.5,480.9,70.5,480.7,70.5z"/>
	</g>
	<g>
		<path class="st88" d="M472.9,71.9c-0.2,0-0.4-0.1-0.6-0.2l-9.8-5.9c-0.4-0.3-0.6-0.8-0.6-1.3c0.1-0.5,0.5-0.9,1-0.9l10.1-1
			c0.3,0,0.6,0.1,0.8,0.3l7.5,5.5c0.4,0.3,0.6,0.8,0.4,1.2c-0.1,0.4-0.5,0.8-0.9,0.9l-7.8,1.4C473.1,71.9,473,71.9,472.9,71.9z"/>
	</g>
</g>
</svg>
