
<svg xmlns="http://www.w3.org/2000/svg"
	 width="800px" height="800px" 
	 viewBox="0 0 800 800"
      fill="currentColor"
      className="w-80 h-80 opacity-70">
<g>
	<path  
		clipRule="evenodd"
        fillRule="evenodd" 
		d="M553.1,143.3c3.7-4,9.8-4.2,13.8-0.6s4.2,9.8,0.6,13.8l-79.8,86.4l-0.1,0.2c-9.8,11.8-16.5,22.7-19.4,32.7
		c-2.6,8.8-2.3,16.8,1.7,23.8c2.1,3.8,1.4,8.4-1.4,11.4l0,0l-37.9,41c-3.7-4.1-6.7-7.3-8.6-9.5c-0.9-1.2-1.9-2.3-3-3.5l-0.1,0.1
		c-0.5-0.6-1.1-1.1-1.6-1.6l32.4-35.1c-3.8-10.1-3.8-20.9-0.3-32.4c3.8-12.5,11.7-25.7,23.2-39.5c0.3-0.3,0.5-0.7,0.8-1L553.1,143.3
		L553.1,143.3L553.1,143.3z M381.6,374.7c-3.6-4-3.2-10.2,0.8-13.8c4-3.6,10.2-3.2,13.8,0.8c40.1,44.9,164.2,177.9,198.5,227.7
		c45.3,64.2-24.9,84.4-48.1,61C488.4,594.2,364.9,450.8,310.6,390c-19.5,8.3-38.5,9.6-57.6,4.1c-20.5-5.8-40.6-19.5-61-40.6
		l-0.3-0.3c-15.5-16.4-27.7-32.5-36.5-48.5c-9-16.5-14.5-32.7-16.5-48.9c-2.1-17.4-0.5-33.6,4.2-48c5.5-16.9,15.3-31.2,28.1-41.8
		c12.9-10.7,28.7-17.6,46.4-19.7c14.7-1.7,30.7-0.3,47.2,5.2c22.9,7.5,49.6,26,71.7,49.8c16.3,17.5,30.3,38,38.6,59.1
		c8.7,22,11.3,44.8,4.3,66.1c-4.1,12.6-11.5,24.5-23,35.2c-4,3.7-10.1,3.4-13.8-0.5c-3.7-4-3.4-10.1,0.5-13.8
		c8.9-8.3,14.6-17.4,17.7-27c5.4-16.5,3.1-34.8-4-52.8c-7.4-18.8-20-37.3-34.8-53.1c-20-21.4-43.6-38-63.6-44.5
		c-13.7-4.4-26.8-5.7-38.8-4.3c-13.9,1.7-26.4,7-36.3,15.4c-10,8.3-17.6,19.5-22,32.9c-3.8,11.6-5.1,25-3.4,39.5
		c1.7,13.6,6.4,27.6,14.2,41.8c8.1,14.6,19.3,29.4,33.7,44.6l0.1,0.1c18,18.5,35.3,30.5,52.4,35.4c16.2,4.6,32.6,2.8,49.8-5.8
		c3.9-2.3,9-1.5,12.1,2c53,59.3,181.8,208.6,238.8,263.9c24.8,10.1,38.5-2.3,26.7-24.3C567.4,577,408.8,405.3,381.6,374.7
		L381.6,374.7L381.6,374.7z M330.2,460.5L205.9,595c-0.3,0.3-0.5,0.5-0.8,0.8c-18.2,19.6,14,48.2,33.9,29.1l120.8-130.7l13,14.7
		L252.9,638.6l0,0c-0.3,0.3-0.5,0.6-0.9,0.9c-7.2,6-14.4,9.9-21.7,11.6c-7.5,1.7-14.9,0.9-22-2.4c-1.2-0.5-2.3-1.1-3.3-2L188,630.7
		l0,0c-0.3-0.3-0.5-0.5-0.8-0.8c-6.7-7.7-9.8-15.9-9-24.5c0.8-8.2,5.2-16.2,13.4-23.8l125.5-135.9L330.2,460.5L330.2,460.5z
		 M460.5,385.2l7.4-8c3.7-4,9.9-4.2,13.8-0.6c3.9,3.7,4.2,9.8,0.6,13.8l-8.5,9.2L460.5,385.2L460.5,385.2z M583.4,171.9
		c3.7-4,9.8-4.2,13.8-0.6c4,3.7,4.2,9.8,0.6,13.8l-70,75.8c-3.7,4-9.8,4.2-13.8,0.6s-4.2-9.8-0.6-13.8L583.4,171.9L583.4,171.9
		L583.4,171.9z M613.7,199.9c3.7-4,9.8-4.2,13.8-0.6c4,3.7,4.2,9.8,0.6,13.8l-69.9,75.7c-3.7,4-9.8,4.2-13.8,0.6
		c-4-3.7-4.2-9.8-0.6-13.8L613.7,199.9L613.7,199.9L613.7,199.9z M645.1,229c3.7-4,9.8-4.2,13.8-0.6c4,3.7,4.2,9.9,0.6,13.8
		l-79.8,86.4c-0.3,0.3-0.6,0.6-0.9,0.9c-18.2,17.5-35.5,27.6-52.1,30.4c-18,3.1-34.5-2-49.6-15.2c-4.1-3.5-4.4-9.7-0.9-13.7
		c3.5-4.1,9.7-4.4,13.7-0.9c10.4,9.1,21.6,12.7,33.4,10.6c12.7-2.2,26.7-10.6,42-25.3l0.1-0.1L645.1,229L645.1,229L645.1,229z"/>
</g>
</svg>
