<?xml version="1.0" encoding="utf-8"?>
<!-- Generator: Adobe Illustrator 27.0.1, SVG Export Plug-In . SVG Version: 6.00 Build 0)  -->
<svg version="1.1" id="Camada_1" xmlns="http://www.w3.org/2000/svg" xmlns:xlink="http://www.w3.org/1999/xlink" x="0px" y="0px"
	 width="800px" height="800px" viewBox="0 0 800 800" style="enable-background:new 0 0 800 800;" xml:space="preserve">
<style type="text/css">
	.st0{fill:#E6E6E6;}
	.st1{fill:#FFFFFF;}
	.st2{fill:#005BFF;}
	.st3{fill:#FF0000;}
	.st4{fill:#06F3FF;}
</style>
<path d="M464.6,625.3H212.8c-8.4,0-15.2,6.8-15.2,15.2c0,8.4,6.8,15.2,15.2,15.2h251.8c8.4,0,15.2-6.8,15.2-15.2
	C479.8,632,473,625.3,464.6,625.3L464.6,625.3z"/>
<path class="st0" d="M713.2,602.7v30.5h43C749.9,615.4,733,602.7,713.2,602.7z"/>
<path class="st1" d="M637.2,528V183.8c0-12.6-10.2-22.7-22.7-22.7H63c-12.6,0-22.7,10.2-22.7,22.7V528c0,12.6,10.2,22.7,22.7,22.7
	h551.5C627,550.9,637.2,540.6,637.2,528z M602.9,495.2c0,12.5-10.2,22.7-22.7,22.7H97.3c-12.5,0-22.7-10.2-22.7-22.7V216.6
	c0-12.5,10.2-22.7,22.7-22.7h482.8c12.5,0,22.7,10.2,22.7,22.7V495.2z"/>
<path class="st0" d="M580.2,193.9H97.3c-12.5,0-22.7,10.2-22.7,22.7v278.6c0,12.5,10.2,22.7,22.7,22.7h482.8
	c12.5,0,22.7-10.2,22.7-22.7V216.6C602.9,204.1,592.7,193.9,580.2,193.9L580.2,193.9z M171.3,219.1c0-1.3,1-2.2,2.2-2.2h47.9
	c1.2,0,2.2,1,2.2,2.2v13.7c0,1.2-1,2.2-2.2,2.2h-47.9c-1.3,0-2.2-1-2.2-2.2V219.1z M147.7,216.3c5.2,0,9.3,4.1,9.3,9.3
	c0,5.2-4.1,9.3-9.3,9.3s-9.3-4.1-9.3-9.3C138.4,220.5,142.6,216.3,147.7,216.3z M117.2,216.3c5.2,0,9.3,4.1,9.3,9.3
	c0,5.2-4.1,9.3-9.3,9.3s-9.3-4.1-9.3-9.3C107.9,220.5,112,216.3,117.2,216.3z M302.6,358.3c0,53-43.1,96.1-96.1,96.1
	s-96.1-43.1-96.1-96.1s43.1-96.1,96.1-96.1h7.6v88.5h88.5V358.3z M232.2,328v-74c40.9,0,74,33.1,74,74H232.2L232.2,328z
	 M524.1,444.4H414.1c-4.2,0-7.6-3.4-7.6-7.6c0-4.2,3.4-7.6,7.6-7.6h109.9c4.2,0,7.6,3.4,7.6,7.6
	C531.6,440.9,528.3,444.4,524.1,444.4z M524.1,387.1H410.3c-4.2,0-7.6-3.4-7.6-7.6c0-4.2,3.4-7.6,7.6-7.6h113.8
	c4.2,0,7.6,3.4,7.6,7.6C531.6,383.7,528.3,387.1,524.1,387.1L524.1,387.1z M524.1,329.8H360.3c-4.2,0-7.6-3.4-7.6-7.6
	c0-4.2,3.4-7.6,7.6-7.6h163.8c4.2,0,7.6,3.4,7.6,7.6C531.7,326.4,528.3,329.8,524.1,329.8L524.1,329.8z M524.1,272.5H360.3
	c-4.2,0-7.6-3.4-7.6-7.6c0-4.2,3.4-7.6,7.6-7.6h163.8c4.2,0,7.6,3.4,7.6,7.6C531.7,269.1,528.3,272.5,524.1,272.5L524.1,272.5z"/>
<path class="st1" d="M198.9,277.7c-41.1,3.8-73.4,38.5-73.4,80.5c0,44.6,36.3,80.9,80.9,80.9c42,0,76.7-32.3,80.5-73.4h-88.1V277.7z
	"/>
<path class="st2" d="M214.1,262.2h-7.6c-53,0-96.1,43.1-96.1,96.1s43.1,96.1,96.1,96.1s96.1-43.1,96.1-96.1v-7.6h-88.5V262.2z
	 M287,365.9c-3.8,41.1-38.5,73.4-80.5,73.4c-44.6,0-80.9-36.3-80.9-80.9c0-42,32.3-76.7,73.4-80.5v88.1H287L287,365.9z"/>
<path class="st3" d="M232.2,254.1v74h74C306.2,287.2,273,254.1,232.2,254.1z"/>
<path class="st1" d="M107.9,225.6c0,5.1,4.2,9.3,9.3,9.3c5.1,0,9.3-4.2,9.3-9.3l0,0c0-5.1-4.2-9.3-9.3-9.3
	C112.1,216.3,107.9,220.5,107.9,225.6z"/>
<path class="st1" d="M138.4,225.6c0,5.1,4.2,9.3,9.3,9.3c5.1,0,9.3-4.2,9.3-9.3l0,0c0-5.1-4.2-9.3-9.3-9.3
	C142.5,216.3,138.4,220.5,138.4,225.6z"/>
<path class="st1" d="M173.5,234.9h47.9c1.2,0,2.2-1,2.2-2.2v-13.7c0-1.2-1-2.2-2.2-2.2h-47.9c-1.3,0-2.2,1-2.2,2.2v13.7
	C171.3,234,172.3,234.9,173.5,234.9L173.5,234.9z"/>
<path d="M713.2,572.3c-36.7,0-67.4,26.2-74.5,60.8h-90.4c-9.1,0-15.8-1.8-18.1-4.9c-1.6-2.1-1.6-5.5-1.6-7v-39.9h85.9
	c29.3,0,53-23.8,53-53V183.8c0-29.3-23.8-53-53-53H63c-29.3,0-53,23.8-53,53V528c0,29.3,23.8,53,53,53h435.3v40
	c0,3.8,0,15.1,7.7,25.3c8.5,11.3,22.7,17,42.3,17h240.8v-15.2C789.1,606.3,755.1,572.3,713.2,572.3L713.2,572.3z M63,550.9
	c-12.6,0-22.7-10.2-22.7-22.7V183.8c0-12.6,10.2-22.7,22.7-22.7h551.5c12.6,0,22.7,10.2,22.7,22.7V528c0,12.6-10.2,22.7-22.7,22.7
	L63,550.9L63,550.9z M713.2,633h-43c6.2-17.7,23.2-30.5,43-30.5c19.8,0,36.8,12.7,43,30.5H713.2z"/>
<path class="st2" d="M524.1,257.3H360.3c-4.2,0-7.6,3.4-7.6,7.6c0,4.2,3.4,7.6,7.6,7.6h163.8c4.2,0,7.6-3.4,7.6-7.6
	C531.7,260.7,528.3,257.3,524.1,257.3L524.1,257.3z"/>
<path class="st4" d="M524.1,314.6H360.3c-4.2,0-7.6,3.4-7.6,7.6c0,4.2,3.4,7.6,7.6,7.6h163.8c4.2,0,7.6-3.4,7.6-7.6
	C531.7,318,528.3,314.6,524.1,314.6L524.1,314.6z M524.1,372H410.3c-4.2,0-7.6,3.4-7.6,7.6c0,4.2,3.4,7.6,7.6,7.6h113.8
	c4.2,0,7.6-3.4,7.6-7.6C531.6,375.3,528.3,372,524.1,372L524.1,372z"/>
<path class="st2" d="M524.1,429.2H414.1c-4.2,0-7.6,3.4-7.6,7.6s3.4,7.6,7.6,7.6h109.9c4.2,0,7.6-3.4,7.6-7.6
	S528.3,429.2,524.1,429.2z"/>
</svg>
