<?xml version="1.0" encoding="utf-8"?>
<!-- Generator: Adobe Illustrator 27.0.1, SVG Export Plug-In . SVG Version: 6.00 Build 0)  -->
<svg version="1.1" id="katman_1" xmlns="http://www.w3.org/2000/svg" xmlns:xlink="http://www.w3.org/1999/xlink" x="0px" y="0px"
	 width="746.7px" height="832.3px" viewBox="0 0 746.7 832.3" style="enable-background:new 0 0 746.7 832.3;" xml:space="preserve"
	>
<style type="text/css">
	.st0{fill:#75B27D;}
	.st1{fill:#1D1D1B;}
	.st2{fill:#EA0C0C;}
</style>
<g>
	<path class="st0" d="M522,546.3c5-2.2,10.8-3.9,15.7-5.8c9.3-3.6,17.6-6.2,24.9-7.8c18.9-4.1,37.2-2.3,54.8,5.2
		c0.4,0.2,0.5,0.4,0.1,0.7c-2,1.5-4,2.9-6,4.4c-19.5,14.5-39.6,17.3-62.8,12c-6.5-1.5-12.8-3.1-19.5-2.9c-2.2,0.1-5.5,0.6-9.8,1.5
		c-4.9,1.1-9.9,2.1-14.9,3c-0.5,0.1-0.6-0.1-0.3-0.5c2.9-4,6.1-8,9.5-11.9c5.1-5.7,10.2-11.9,15.3-17.3
		c16.1-17.1,32.4-34.2,48.7-51.1c2.5-2.6,5-6.2,7.2-9.9c6.2-10.3,12.7-18.9,21.8-26.1c15.5-12.3,35.6-19.3,54.4-24.9
		c0.8-0.2,1,0,0.5,0.7c-0.8,1.2-1.8,2.5-2.5,3.8c-7.8,15.2-15.5,30.1-28.3,41.4c-12.1,10.7-28.7,16.9-45.4,20
		c-0.6,0.1-1.3,0.6-2,1.4c-20,21.9-40.7,43-62.1,63.1C520.1,546.8,520.3,547.1,522,546.3z"/>
	<path class="st0" d="M563.6,472.8c-7.4,12.5-19.5,23.1-30.4,32.5c-0.2,0.2-0.6,0-0.6-0.3c-0.5-11.7-0.7-22.6,1.6-34.7
		c4.4-23.8,23.2-38.7,41.5-53c0.3-0.3,0.8,0,0.8,0.4c-0.9,9-1.5,19.1-3,27.1C571.5,454.7,568.6,464.3,563.6,472.8z"/>
	<path class="st0" d="M513.9,480.3c0.9,7.5,1.3,14.9,1.1,22.3c-0.3,14.9-4.2,27.3-13.3,38.9c-1.9,2.4-3.8,4.8-5.7,7.3
		c-0.1,0.1-0.3,0.1-0.3-0.1c-1.3-4.8-3.1-10.1-3.8-14.5c-3.6-20.8,6.3-39.4,20.5-53.9c0.3-0.3,0.6-0.5,0.9-0.5
		C513.7,479.8,513.9,479.9,513.9,480.3z"/>
	<path class="st0" d="M642.9,483.5c9,0.5,17.9,1.8,26.5,3.9c0.3,0.1,0.4,0.4,0.1,0.6c-0.8,0.6-1.5,1.1-2.2,1.6
		c-22.4,18.2-47.4,29.2-76.8,28.6c-8-0.2-16-0.5-23.9-1c-0.3,0-0.5-0.4-0.3-0.6C586.2,494.2,612.7,481.9,642.9,483.5z"/>
	<path class="st0" d="M224.7,546.3c-5-2.2-10.8-3.9-15.7-5.8c-9.3-3.6-17.6-6.2-24.9-7.8c-18.9-4.1-37.2-2.3-54.8,5.2
		c-0.4,0.2-0.5,0.4-0.1,0.7c2,1.5,4,2.9,6,4.4c19.5,14.5,39.6,17.3,62.8,12c6.5-1.5,12.8-3.1,19.5-2.9c2.2,0.1,5.5,0.6,9.8,1.5
		c4.9,1.1,9.9,2.1,14.9,3c0.5,0.1,0.6-0.1,0.3-0.5c-2.9-4-6.1-8-9.5-11.9c-5.1-5.7-10.2-11.9-15.3-17.3
		c-16.1-17.1-32.4-34.2-48.7-51.1c-2.5-2.6-5-6.2-7.2-9.9c-6.2-10.3-12.7-18.9-21.8-26.1c-15.5-12.3-35.6-19.3-54.4-24.9
		c-0.8-0.2-1,0-0.5,0.7c0.8,1.2,1.8,2.5,2.5,3.8c7.8,15.2,15.5,30.1,28.3,41.4c12.1,10.7,28.7,16.9,45.4,20c0.6,0.1,1.3,0.6,2,1.4
		c20,21.9,40.7,43,62.1,63.1C226.6,546.8,226.4,547.1,224.7,546.3z"/>
	<path class="st0" d="M183.1,472.8c7.4,12.5,19.5,23.1,30.4,32.5c0.2,0.2,0.6,0,0.6-0.3c0.5-11.7,0.7-22.6-1.6-34.7
		c-4.4-23.8-23.2-38.7-41.5-53c-0.3-0.3-0.8,0-0.8,0.4c0.9,9,1.5,19.1,3,27.1C175.1,454.7,178.1,464.3,183.1,472.8z"/>
	<path class="st0" d="M232.8,480.3c-0.9,7.5-1.3,14.9-1.1,22.3c0.3,14.9,4.2,27.3,13.3,38.9c1.9,2.4,3.8,4.8,5.7,7.3
		c0.1,0.1,0.3,0.1,0.3-0.1c1.3-4.8,3.1-10.1,3.8-14.5c3.6-20.8-6.3-39.4-20.5-53.9c-0.3-0.3-0.6-0.5-0.9-0.5
		C233,479.8,232.8,479.9,232.8,480.3z"/>
	<path class="st0" d="M103.8,483.5c-9,0.5-17.9,1.8-26.5,3.9c-0.3,0.1-0.4,0.4-0.1,0.6c0.8,0.6,1.5,1.1,2.2,1.6
		c22.4,18.2,47.4,29.2,76.8,28.6c8-0.2,16-0.5,23.9-1c0.3,0,0.5-0.4,0.3-0.6C160.5,494.2,134,481.9,103.8,483.5z"/>
	<g>
		<path class="st1" d="M475.8,567c2-2.6,4.3-6.1,6.9-8.1c0.2-0.2,0.2-0.5,0-0.7c-12.5-8.6-20.9-17.1-26.1-31.6
			c-8.1-22.5-8.1-47-4.8-70.5c0.1-0.4,0.3-0.7,0.7-0.8c32.9-7.9,62.7-28.4,75.6-60.8c9.1-23,6.9-44-6.7-63.1
			c-3.9-5.5-10.6-12.4-15.6-18.8c-10.9-14-15.6-29.6-20.2-46.4c0-0.1,0-0.1,0.1-0.2h0c0.1,0,0.1,0,0.2,0.1
			c4.2,9.7,10,18.1,16.9,26.1c5.7,6.6,14,14.1,20.9,21.2c0.1,0.1,0.2,0.1,0.3,0v0c0.1-0.1,0.1-0.2,0-0.3c-5.1-7-10.1-14-15-21
			c-9.9-14.1-17.8-29.5-22.6-46.1c-0.2-0.6-0.1-0.7,0.2-0.1c8.8,14.7,20.5,27.4,32.3,39.6c12,12.4,21.8,25.2,27,41.9
			c3.8,12.1,4.3,28-1.3,40.1c-0.4,0.9-0.3,1,0.5,0.3c0.3-0.3,0.7-0.8,1.1-1.6c11.5-20.3,14.7-44.6,13.7-67.6
			c-0.7-16.2-2.5-30.6-5.3-43.2c-7.1-31.9-25.3-56.1-56.5-67.7c-0.2-0.1-0.4,0-0.5,0.2c-11.5,16.4-28.6,22.6-48.2,21.8
			c-1.4-0.1-2.7-0.3-4-0.7c-0.3-0.1-0.5,0-0.5,0.2c0,0.2,0,0.3,0.2,0.4c13.9,11,22.6,25.2,26.2,42.7c1.5,7.2,2.6,12.9,3.3,17
			c2.5,13.8,6.1,25.5,13.8,36.8c0.2,0.2,0.2,0.5,0.2,0.8c-1.7,9.7-3.7,19.3-5.9,28.8c-0.7,3.1-1.6,6-2.7,8.6
			c-0.5,1.3-0.3,1.4,0.7,0.4c4.5-4.7,11.7-5.8,17.5-2.9c15,7.3,9.9,28.7-5.8,29.9c-6.8,0.6-11.6-2.1-16.4-6.5
			c-0.3-0.3-0.7-0.1-0.8,0.3c-3.4,17.4-6.7,33.4-15.4,49.7c-13.3,24.9-41.9,46.1-69.2,52.7c-35.7,8.6-70.8-11.3-90.8-40.6
			c-9-13.2-13.5-27.4-16.5-43.4c-3.6-18.7-8.2-40.7-13.8-66c-0.1-0.3,0-0.5,0.3-0.7l9.2-6.1c0.3-0.2,0.6-0.2,0.9,0
			c3,2.1,6,4.1,9.2,6c15.6,9.3,31.4,7.6,45.7-3c1.5-1.1,3-2.1,4.4-3.1c0.4-0.3,0.9-0.3,1.3-0.2c2.2,0.6,4.3,1.7,6.3,3.2
			c1,0.7,1.2,1.8,0.9,3.1c-1.7,6.4-3.1,13.4-4.1,21c-1.6,11.5-1,22.7,7.4,31.6c0.1,0.1,0.4,0.1,0.5,0c1.3-1.9,5.1-6.7,7.9-5.5
			c2.7,1.1,5.7,1.7,8.9,1.8c0.3,0,0.6-0.3,0.6-0.6c-0.2-4.5-2.9-8.5-7.3-9.5c-2-0.5-3.8-0.1-5.3,1.1c-1.1,0.8-1.4,0.6-0.9-0.7
			c2.9-7.5,5.8-15.5,7.1-23.2c3.3-19.2,1-37.8-7-55.8c-1.4-3.2-3-5.9-4.6-8c-4.9-6.3-14.1-8.7-21.7-8.4c-0.8,0-1-0.3-0.5-0.9
			c5.6-7.8,11.2-15.5,16.6-23.1c9-12.5,17.2-23.2,27.6-31.9c17-14.4,41.9-14.8,60.9-3.7c0.2,0.1,0.5,0,0.6-0.2
			c5.1-13.1,0.8-27-7.5-37.6c-19.2-24.3-55.6-29.8-80.6-11.7c-10.2,7.3-18.8,18.5-23.5,30c-0.8,1.9-1,1.8-0.7-0.2
			c3.1-17.9,9.3-34.6,24.5-45.8c1.7-1.2,3.3-2.4,5-3.7c0,0,0-0.1,0-0.1c0-0.1-0.1-0.1-0.1-0.2s-0.1,0-0.3,0
			c-8.6,3.1-15.8,7.1-21.4,12c-18.7,16.2-25.8,41.2-38.7,62c-13,20.9-38.2,36.9-63.7,32.4c-1.7-0.3-3.3-0.6-4.9-0.9
			c-0.9-0.2-0.9-0.2,0-0.2c15.3,0.4,30.1-4.1,43.4-11.9c12.3-7.2,21.5-17.4,27.7-30.4c5.5-11.5,9.8-23.5,16-34.6
			c8.5-15.1,22.5-28.1,39.2-33.6c11-3.6,22.5-5.4,33.9-4.6c29.4,2.1,55.5,20.8,69.8,46.2c2.4,4.3,4.2,8.5,5.2,12.8
			c0.4,1.4,0.6,1.4,0.6-0.1c0.4-11.1-1.4-21.2-7.5-31.5c-4.5-7.5-9.9-14.2-16.2-20.1c-12.3-11.4-27.2-21.5-43.2-26.8
			c-0.1,0-0.1-0.1-0.1-0.2v0c0-0.1,0.1-0.1,0.2-0.1c27.7,6.3,51.2,19.1,69,41.5c6.7,8.4,11.9,18.3,13,29.2c1,9.6-2.9,20.4-11.5,25.5
			c-0.1,0.1-0.1,0.2-0.1,0.3l0.1,0.2c0,0,0,0,0.1,0c5.3-2.1,9.1-3.7,11.3-4.9c12.6-6.5,17.5-18,16-31.8c-2-18.3-15.2-35.9-28.9-47.4
			c-38.4-32.3-95.6-36.5-141.6-18.6c-39.5,15.4-74.5,50.7-76.6,95.4c-0.3,6.7,1.7,22.1-3.6,26.1c-9.9,7.6-27.5,8.4-34.8-3.5
			c-5.9-9.6-0.1-18.4,8.5-23.2c0,0,0,0,0-0.1l-0.1-0.2c-0.1-0.1-0.2-0.2-0.3-0.1c-4.6,1.7-8.4,4.5-11.4,8.3
			c-12.8,16.1-9.1,42,8.5,52.6c28,17,67.4-5.2,88.7-23.6c0.1-0.1,0.1,0,0.2,0c0,0.1,0,0.1,0,0.2c-18.4,23.5-45.6,45.9-77.3,45.3
			c-18.8-0.4-35.8-11.2-41.2-29.4c-3.8-12.6-3-27.8,5.1-38.4c0,0,0-0.1,0-0.1l-0.2-0.1c-0.1-0.1-0.2-0.1-0.3,0
			c-20.7,23.2-20,58.2,4,78.8c23.7,20.3,57,17.9,81.1,0c12.7-9.4,22-20.8,32.2-33.8c8.4-10.8,16.9-21.5,25.3-32.3
			c19.6-24.9,40.7-48.6,74.5-52.4c1.3-0.1,2.3-0.2,3.2-0.1c0.6,0,0.6,0.2,0,0.3c-19,5.5-35.2,20.2-47.3,35.4
			c-4.8,6-9.9,12-14.5,18.1c-9,12-18.1,23.9-27.1,35.8c-8.2,10.9-15.5,19.7-22,26.4c-11.6,12.3-25.6,24.3-41.9,29.8
			c-24.3,8.1-49.1-0.6-66-18.9c-0.2-0.2-0.7-0.1-0.7,0.2c-2.3,29.7,6.2,62.1,29.4,82.5c0.4,0.4,0.7,1,0.6,1.6
			c-2.6,25.3,12.4,47.9,32.8,61.4c15.4,10.1,31.5,14.9,49.5,18.1c0.3,0,0.4,0.2,0.4,0.5c1.6,12.3,2.3,24.6,2.1,37
			c-0.3,21.5-7.8,42.4-24.1,56.9c-2.9,2.5-7,5.2-10.4,8c-0.3,0.3-0.4,0.7-0.1,1.1c32,38.3,58.5,78.2,84.3,123.8
			c8.1,14.3,16.1,28.9,24,43.6c0.2,0.3,0.7,0.3,0.9,0c8.3-15.7,16.9-31.4,25.6-47.1C422,640.4,447.4,602.7,475.8,567z M508,227.1
			c10.2,13.4,20.2,27.1,30,41c9.1,12.9,14.1,27.3,15,43.1c0.1,1,0.1,1.5,0,1.8c-0.2,1.5-0.4,1.5-0.6,0c-1.2-8.6-6.8-18.7-11.7-25.8
			c-4.5-6.4-8.8-12.9-13.1-19.4c-5.4-8.2-10-16.8-13.7-25.9c-2.2-5.2-4.2-10-6.2-14.5C507.2,226.2,507.3,226.1,508,227.1z
			 M294.3,300.7c7.2-6.2,13.6-14.2,19.7-21.4c0.2-0.3,0.6-0.4,1-0.3c15.5,4.6,24.2,11.1,32.2,25.3c0.1,0.1,0,0.3-0.2,0.3
			c-11.8,1-23.6,1.2-35.3,0.6c-5.9-0.3-11.7-1.5-17.2-3.6C294.1,301.5,294,301,294.3,300.7z M248.5,402.3
			c-12.4-0.2-22-9.9-22.5-22.2c-0.3-8.1,2.9-14.7,9.6-19.9c3.2-2.4,6.8-4.3,10.9-5.5c0.2-0.1,0.3,0,0.4,0.2l0.1,0.2
			c0,0.1,0,0.1-0.1,0.2c-11.6,4.2-18.2,15-14.6,27.2c0.2,0.5,0.4,0.9,0.7,1.2c0.2,0.2,0.5,0,0.5-0.2c-0.9-17.1,21.4-23.7,31.4-10.6
			C274.8,386,263.9,402.6,248.5,402.3z M374.1,706c-0.2,0.4-0.3,0.4-0.5,0c-7.9-15.6-13-25.6-15.4-30.1
			c-12.5-23.5-28.1-48.3-43.8-71.4c-0.1-0.1,0-0.3,0.2-0.3c7.9-0.2,15.8-0.9,23.6-2.3c0.8-0.1,0.9-0.5,0.3-1
			c-3.6-3.7-7.2-7.2-10.8-10.6c-0.8-0.7-1.1-1.8-0.9-3.1c3.7-24.8,14-48.5,27.8-69.9c12.7-19.7,28.3-32.7,48.8-43.2
			c12.1-6.2,23.8-12.4,34.4-21c2-1.7,3.6-3.6,5.1-5.7c0,0,0.1-0.1,0.2,0c0.1,0,0.1,0.1,0,0.2c-1.3,2.6-2.2,5.4-2.6,8.5
			c-2.6,16.9-3,33.6-1.4,50c2.1,20.8,11.5,42.2,27.6,55.8c0.2,0.2,0.2,0.4,0,0.6c-37.4,41.6-67.1,89.5-91.1,139.9
			C375.1,703.2,374.6,704.7,374.1,706z"/>
		<path class="st1" d="M436,253.6c-12.5,0.8-41.7,5.2-43.9,21.7c-0.6,4.5,4.8,4.2,7.5,3c11.6-5.2,24.9-8.6,37.5-10.7
			c12.5-2.1,24.6-1.3,36.1,4.3c0.1,0.1,0.3,0,0.2-0.2c0-0.1-0.1-0.2-0.2-0.3C463.2,261.9,450.9,252.6,436,253.6z"/>
		<path class="st1" d="M441.9,320.5c1.7-0.5,3.3-0.7,4.8-1.5c10.6-5.2,20.1-10.5,28.7-18.5c0.4-0.4,0.3-0.5-0.2-0.4
			c-1.2,0.3-2.7,1-3.5,1.2c-3.9,1-7.9,1.2-12,0.6c-0.3,0-0.4-0.2-0.5-0.4c-0.5-1.8,2.5-3.1,3.5-4.4c0.2-0.2,0-0.5-0.3-0.4
			c-9.3,3.5-18.6,7-28.6,7.8c-3.8,0.3-9.3,0.5-16.5,0.5c-8.5,0-16.9,0.2-25.4,0.8c-0.8,0.1-0.8,0.5-0.1,1.2c0.1,0.1,0.3,0.2,0.5,0.3
			c9.5,4.1,18.6,10.2,28.5,13.1c8.9,2.6,18,3,27.3,1.2c0.1,0,0.2-0.1,0.1-0.2l-0.1-0.2c0,0-0.1-0.1-0.1-0.1L442,321
			c-0.1,0-0.2-0.1-0.2-0.2C441.7,320.7,441.8,320.5,441.9,320.5z"/>
		<path class="st1" d="M377.6,365c3.9-2.1,8.5-0.3,11,3.4c0.8,1.2,1.2,1.1,1.1-0.4c-0.2-4.3-2.1-9.9-6.6-11.5
			c-1.8-0.6-3.5-0.5-5.1,0.4c-0.8,0.4-1.2,1.2-1.3,2.1l-0.2,5.3C376.4,365.2,376.8,365.4,377.6,365z"/>
		<path class="st2" d="M410.1,402.6c0.3-0.1,0.3-0.4,0.2-0.6c-1.2-1.2-2.8-2.2-3.9-3.3c-3.8-3.9-7.6-7.8-11.5-11.6
			c-4.2-4.1-9.5-8.7-15.4-5.7c-2.4,1.2-4.8,2.5-7.3,3.8c-0.7,0.4-1.6,0.4-2.3,0c-5-2.6-10.2-6.9-16-3.4c-7,4.1-12.8,11.1-19.5,18
			c-0.7,0.7-1.7,1.1-2.4,1.7c-1,0.7-0.9,1.2,0.3,1.3c2.7,0.3,4.8,1.7,6.4,4c5.4,7.9,9.6,15,19.4,18.7c4.7,1.8,10.3,2.5,16.7,2
			c10-0.7,18.6-4.2,23.5-13.3c0.2-0.4,0.1-0.5-0.3-0.3c-0.1,0.1-0.3,0.2-0.5,0.4c-4.8,4.5-10.3,6-16.8,4.6c-0.9-0.2-1.6-0.9-2-2
			c-0.1-0.2-0.1-0.5,0.1-0.7C384.8,407.7,400.9,404.6,410.1,402.6z M354.1,404.8c-1.3-1.6-0.7-2.7,0.8-3.7c2.5-1.7,3.7-2.4,6.9-1.9
			c3.6,0.5,8.4,2.5,11.5,1.6c4.4-1.4,9.7-3.2,13.8,0.1c2,1.6,2.1,3.3,0.4,5.2C380.5,413.8,360.7,412.7,354.1,404.8z"/>
		<path class="st1" d="M626.3,608.4c-1-0.7-2.2-1.5-3.6-2.2c-18.4-9.9-37.8-18-57.3-25.4c-15.9-6.1-32-11.8-48.1-17.2
			c-1.8-0.6-6.4-2.6-8-1.1c-36.5,32.9-66.6,71.5-91,114.8c-10.8,19.2-20.4,36.8-28.5,55.3c-2,4.6-4,9.2-6,13.7
			c-0.1,0.2,0.1,0.3,0.3,0.2l0.2-0.1c0.1,0,0.1-0.1,0.2-0.1c1.5-1.9,2.7-3.3,3.7-4.3c13-13.1,24.6-24,34.9-32.6
			c22-18.4,37.8-31.3,58.4-45c26.1-17.4,53.9-31.4,83.5-42c19.3-6.9,40.7-12.4,61.2-13.2C626.8,609,626.9,608.8,626.3,608.4z"/>
		<path class="st1" d="M356.9,732.5c-8.1-18.5-17.7-36.1-28.5-55.3c-24.4-43.3-54.5-81.9-91-114.8c-1.6-1.5-6.2,0.5-8,1.1
			c-16.2,5.4-32.2,11.2-48.1,17.2c-19.5,7.4-38.9,15.5-57.3,25.4c-1.4,0.7-2.6,1.5-3.6,2.2c-0.5,0.4-0.5,0.6,0.2,0.6
			c20.5,0.9,42,6.3,61.2,13.2c29.6,10.5,57.4,24.5,83.5,42c20.6,13.7,36.4,26.6,58.4,45c10.3,8.6,21.9,19.5,34.9,32.6
			c1,1,2.2,2.5,3.7,4.3c0,0.1,0.1,0.1,0.2,0.1l0.2,0.1c0.2,0.1,0.3-0.1,0.3-0.2C360.9,741.6,358.9,737,356.9,732.5z"/>
	</g>
</g>
</svg>
