<?xml version="1.0" encoding="utf-8"?>
<!-- Generator: Adobe Illustrator 27.0.1, SVG Export Plug-In . SVG Version: 6.00 Build 0)  -->
<svg version="1.1" id="Camada_1" xmlns="http://www.w3.org/2000/svg" xmlns:xlink="http://www.w3.org/1999/xlink" x="0px" y="0px"
	 width="800px" height="800px" viewBox="0 0 800 800" style="enable-background:new 0 0 800 800;" xml:space="preserve">
<style type="text/css">
	.st0{fill:#FFFFFF;}
	.st1{fill:#B3B3B3;}
	.st2{fill:#AAA0C7;}
	.st3{fill:#211715;}
	.st4{fill:#957F6E;}
	.st5{fill:#85807F;}
	.st6{fill:#070707;}
</style>
<path class="st0" d="M125,494c-1.1-4.8-0.1-9.8,1.1-14.5c1.2-4.6,2.7-9.5,6.2-12.8c3-2.8,6.7-4.6,10.7-5.4
	c8.4-1.3,16.9-2.1,25.4-2.2c8.8,0.8,16.8,5.4,21.9,12.6c2.1,2.7,3.2,6,3.2,9.5c0,0-3.6,4.1-11.3,12.9c-4.1,4.7-7.9,9.7-11.2,15
	c-0.8,1.9-3.3,2.6-5.7,1.7c-2-0.7-4.3-3.4-6.4-4c-3.8-1-9.8-0.1-13.7-0.9c-5.3-1.1-11.4-2.4-13.7-7.3L125,494z"/>
<path class="st0" d="M130.2,321.6c-0.9-1.3-1.9-2.7-2.9-4.2c-1.4-2-2.5-4.3-3.1-6.7c0,0,1.5-14.1,2.4-13.4c0.6,0.5,1.2,1,1.9,1.4
	c1.2,0.9,2.5,1.7,3.9,2.3c1.4,0.6,5.3,2,6.7,2.5c4.9,1.9,10,3.3,15.3,4.2c1.8,0.2,3.7,0.4,5.5,0.4c7.7,0.4,15.4-1.5,22-5.4
	c0.6-0.4,2.5,7.8,2.5,7.8c-0.4,3.4-1.7,9.1-2.5,14.6c-0.8,2.8-1.3,5.4-2,7.9c-2.5-1.3-3.9-2.1-5.9-3.2l-0.7-0.5
	c-3.2,2.5-7.1,3.9-11.2,4c-3.9,0.4-7.9-0.2-11.6-1.7c-1.7,1.4-3.5,2.7-5.5,3.8c-2.9-1.6-5.6-3.6-8.1-5.8
	C134.5,327.2,132.2,324.5,130.2,321.6z"/>
<path class="st0" d="M202.9,242.2c-0.5,7.9-0.7,15.7-1.1,22.9c-0.6,12.5-3.7,24-12,31.7c-8,7.8-18.8,11.9-29.9,11.4
	c-1.8,0-3.7-0.2-5.5-0.4c-5.2-0.8-10.3-2.2-15.3-4.2c-1.4-0.5-5.3-1.9-6.7-2.5c-1.4-0.7-2.7-1.4-3.9-2.3c-5.1-3.8-9.6-8.3-13.3-13.3
	c0,0-2.5-3.3-3.5-5.3c0,0-0.2-0.4-0.5-1.1c-2.6,0.3-5.3-0.2-7.7-1.3c-3.6-2-6.5-5-8.4-8.7c-2.2-3.8-3.4-10.2-1.9-14.1
	c0.9-2.4,3.1-4.1,5.7-4.5c2-0.4,4-0.1,5.8,0.9c0,0-6.1-45.4,54.1-46.7C211.5,203.7,202.9,242.2,202.9,242.2z"/>
<path class="st0" d="M371.3,314.6c-0.6-1.8-1.3-3.6-1.9-5.4c-5,5.5-10.2,8.9-17.5,9.9c-4.4,0.7-8.9,0.6-13.3-0.2
	c-5.4-1.3-10.6-3.3-15.5-6c2.5,9.5,3.5,19.3,3.2,29.1c-0.5,13.2-1.7,26.4-1.5,39.6c0.1,6.2,1.9,36.8,2.2,43.3l0.1,3
	c19.2-3.7,38.1-7.3,56.5-10.8c0.8-21.2,2.7-54.4-3-75.4c-1.7-6.4-4-12.6-6.2-18.8C373.3,320.4,372.3,317.6,371.3,314.6z"/>
<path class="st1" d="M379.1,179.7c-11.6-13.9-25.8-18.5-42.3-18.6c-11.1-0.1-27.4,2.7-42,19c-6.7,7.9-9.5,13.2-11.5,22.4
	c-1.2,5.7-1.7,11.6-1.5,17.4c0.3,2.9,1,7.5,1.5,12.2c1.3,9.1,0.8,21.6-1.1,26.9c-2.5,7.3-4.1,24.4,12.2,28.5c0,0,27.4,5.7,43.2,1.1
	c1.9,0.6,3.8,1,5.8,1.3c1.7,0.3,3.4,0.4,5.1,0.5c10.4,0.7,20.7-2.9,28.4-10.1c7.9-7,11.1-17.7,11.9-29.5c0.5-7,0.9-14.7,1.6-22.3
	c1.1-8.7,0.9-17.5-0.7-26.2C388.2,194.1,384.5,186.2,379.1,179.7"/>
<path class="st0" d="M309.5,231.8c6-3,11.7-6.6,17.1-10.7c13.2,0.7,15.3,2.2,27.7-2.6c8.1-3.2,15.3-8.2,21-14.7l1.6-1.8
	c3,2.1,5.4,6.1,8.5,12.4c2.6,6.1,3.8,12.7,3.6,19.4l-0.6,21.7c-1.3,9.9-4.6,18.8-11.5,24.9c-4.2,3.9-9.2,6.8-14.7,8.5
	c0.8,2.2,1.3,3.4,1.3,3.4c1.9,5.2,3.9,11.1,5.9,16.9c-5,5.5-10.2,8.9-17.5,9.9c-4.4,0.7-8.9,0.6-13.3-0.2c-5.4-1.3-10.6-3.3-15.5-6
	c-1.7-6.5-3.9-12.8-6.7-18.9c0.9-6.7,1-9.1,1.6-14.2c-4.1-3.4-7.8-7.4-10.9-11.8c0,0-5.3-7.6-3.1-6.1c-2.6,0.3-5.3-0.1-7.7-1.3
	c-3.3-2-6-4.9-7.7-8.4c-1.9-3.6-3-9.7-1.5-13.3c0.9-2.2,3-3.8,5.4-4.1c1.9-0.4,3.8,0,5.4,1L309.5,231.8z"/>
<path class="st2" d="M406.4,412.8l19.2-3.7c-2.3-11.9-5.8-28.5-8.2-43.4c-2.7-16.4-6.9-37.6-16.5-49.8c-5.5-6.9-11.4-10.5-19.2-14
	c-2.4-1.1-10-3.9-10-3.9l-7.1-2.7c3.2,8.9,6.6,19.2,9.7,27.7c2.3,6.2,4.5,12.4,6.2,18.8c5.7,21,3.7,54.2,3,75.4L406.4,412.8z"/>
<path class="st2" d="M280.7,436.8l-16,3.1c-1-15.4-1.4-37-1.6-50.4c-0.2-14.4,2.3-39.7,5.9-50.3c6.1-17.8,15.4-25.3,32.8-37.1
	c4.9-3.6,9.8-5.6,14.1-9.1c7.3,15.3,10.9,32.2,10.3,49.1c-0.5,13.2-1.7,26.4-1.5,39.6c0.1,6.2,1.9,36.8,2.2,43.3l0.1,3
	C311.6,430.9,296.1,433.9,280.7,436.8z"/>
<path class="st3" d="M314.5,280.5c-0.5,4.1-0.9,8.3-1.4,12.4c0,0.9,0.4,1.7,1,2.4c1.3,1.3,3.4,1.3,4.7,0c0,0,0,0,0,0
	c0.6-0.7,0.9-1.5,1-2.4c0.5-4.1,0.9-8.3,1.4-12.4c0-0.9-0.4-1.7-1-2.4c-1.3-1.3-3.4-1.3-4.7,0C314.9,278.8,314.6,279.6,314.5,280.5z
	"/>
<path class="st3" d="M428.8,408.3c-2-10.4-4.1-20.7-6.1-31c-1.9-9.9-3.3-20-5.5-29.8c-1.9-9.3-5.1-18.4-9.4-26.8
	c-4.4-8.1-11.1-14.7-19.2-18.9c-6.1-3-12.4-5.6-18.8-7.7c-4.1-1.5-5.8,5-1.8,6.5c2.1,0.8,4.2,1.5,6.3,2.3c1.4,0.5,2.8,1,4.2,1.6
	c0.5,0.2,1.1,0.4,1.6,0.6c-0.8-0.4,0.1,0.1,0.2,0.1c0.7,0.3,1.4,0.6,2.1,1c7.9,3.5,14.5,9.3,19,16.7c9.4,16.1,11.2,35.7,14.5,53.7
	c2.1,11.3,4.4,22.5,6.6,33.7C423.2,414.3,429.6,412.5,428.8,408.3L428.8,408.3z"/>
<path class="st3" d="M391.8,345.8c0.9,11.4,2.8,22.8,2,34.3c-0.4,6.2-1.4,12.3-2.9,18.3c-0.8,2.9-1.4,5.8-1.8,8.8
	c-0.2,2.8-0.1,5.5,0.2,8.3c0.3,4.3,7,4.3,6.7,0c-0.3-2.7-0.3-5.3-0.2-8c0.4-3,1.1-5.9,1.9-8.8c1.4-6.1,2.3-12.3,2.8-18.6
	c0.8-11.5-1.1-22.9-2-34.3C398.1,341.5,391.5,341.5,391.8,345.8L391.8,345.8z"/>
<path class="st3" d="M280.3,234.5c0.6,5.7,0.6,11.5,0,17.3c-0.4,3.5-1.6,6.6-2.2,10c-1.3,7-0.8,15.2,3.4,21.2c2.9,4,7.2,6.8,12,7.8
	l-1.5-0.9c2.3,2.5,6.1,3.6,9.3,4.1c4.5,0.8,9.1,0.4,13.4-1.3c1.7-0.5,2.8-2.3,2.3-4.1c-0.5-1.8-2.3-2.8-4.1-2.3
	c-4.6,1.9-11.8,2.3-15.8-0.7c-0.3-0.3-0.7-0.6-1.1-0.9c-0.8-0.3-1.6-0.6-2.4-0.7c-1.1-0.3-2.1-0.7-3-1.3c-1.7-1-3.1-2.4-4.1-4.1
	c-1.9-3.4-2.7-7.2-2.4-11c0-1.7,0.2-3.4,0.6-5.1c0.4-1.8,1.1-3.5,1.4-5.3c1.4-7.5,1.6-15.1,0.8-22.6c0-1.8-1.5-3.3-3.3-3.3
	C281.8,231.1,280.3,232.6,280.3,234.5L280.3,234.5z"/>
<path class="st3" d="M321.6,278.5c-3.6-2.9-7-6.1-9.9-9.7c-0.2-0.2-0.3-0.4-0.4-0.6c0-0.1-0.6-0.8-0.2-0.2c-0.3-0.4-0.6-0.8-1-1.3
	c-0.3-0.4-0.5-0.7-0.8-1.1c-1-1.4-1.9-2.8-2.7-4.3c-0.9-1.6-3-2.1-4.6-1.2c-1.6,1-2.1,3-1.2,4.6c1.7,3,3.7,5.9,5.9,8.5
	c3,3.7,6.3,7,10,10c1.3,1.3,3.4,1.3,4.7,0C322.9,281.9,322.9,279.8,321.6,278.5L321.6,278.5z"/>
<path class="st3" d="M376.7,182.1c6.4,7.3,9.7,17.1,10.6,26.6c1.1,10.9-0.5,21.6-1.2,32.5c-0.6,9.5-0.7,19.5-5.1,28.3
	c-4.2,7.9-11.4,13.8-19.9,16.3c-10.4,3.1-21.2,0.8-31-3.3c-1.8-0.5-3.6,0.6-4.1,2.3c-0.4,1.8,0.6,3.6,2.3,4.1
	c10,4.1,20.8,6.2,31.6,4c9.8-2.1,18.5-7.8,24.4-15.9c6.2-8.7,7.5-19.6,8.2-30c0.4-6.2,0.7-12.3,1.4-18.5c0.7-5.7,0.8-11.4,0.5-17.1
	c-0.8-12.4-4.6-24.7-12.8-34.1C378.6,174.1,373.9,178.9,376.7,182.1L376.7,182.1z"/>
<path class="st3" d="M381.4,177.3c-7.3-8.8-17.2-15.1-28.3-17.8c-9.7-2.3-19.7-2.5-29.4-0.5c-11.1,2.5-21.3,8.2-29.2,16.4
	c-8.2,8.1-13.5,18.7-15.2,30.2c-1,5.8-1.1,11.7-0.5,17.6c0.8,6.3,2,12.6,1.6,18.9c-0.2,4.3,6.5,4.3,6.7,0c0.5-10-2.7-19.7-1.9-29.7
	c0.8-10.2,3.6-19.7,10-27.8c6.7-8.6,15.9-15,26.4-18.3c8.3-2.3,17.1-2.7,25.6-1.2c11.5,1.8,22,7.8,29.4,16.9
	C379.5,185.4,384.2,180.6,381.4,177.3z"/>
<path class="st3" d="M299.6,233.1c-4.2-2.4-9.5-2-13.1,1.2c-2.5,2.6-3.8,6.1-3.4,9.7c0.3,7.7,4.7,16.3,11.8,19.8
	c4.2,2.2,9.1,2.3,13.4,0.3c1.6-0.9,2.1-3,1.2-4.6s-3-2.1-4.6-1.2c-0.6,0.2-1.2,0.4-1.9,0.4c-0.5,0-1,0-1.5,0c-0.2,0-0.5,0-0.7-0.1
	c0.3,0,0.2,0-0.2,0c-0.8-0.2-1.6-0.4-2.4-0.7c-0.6-0.2,0.5,0.3-0.1,0c-0.4-0.3-0.9-0.5-1.3-0.8c-1.4-1-2.6-2.2-3.6-3.6
	c-0.4-0.6-0.8-1.2-1.2-1.9c-0.2-0.3-0.4-0.7-0.6-1c-0.1-0.3-0.3-0.5-0.4-0.8c-0.7-1.6-1.1-3.4-1.3-5.1c-0.1-1-0.1-2,0-3
	c-0.1,0.5,0.2-0.7,0.2-0.8c0.1-0.2,0.1-0.4,0.2-0.6c-0.2,0.4-0.2,0.5-0.1,0.2c0.1-0.2,0.2-0.5,0.4-0.7c0.1-0.2,0.5-0.6,0-0.1
	c0.1-0.1,0.9-0.8,0.3-0.4c0.3-0.3,0.7-0.5,1.1-0.7c-0.3,0.1-0.2,0.1,0.2-0.1c0.3-0.1,0.5-0.2,0.8-0.2c0.5-0.1,0.6-0.1,0.3-0.1
	c0.3,0,0.5,0,0.8,0c0.8,0,1.6,0.2,2.2,0.7C299.9,241.1,303.2,235.3,299.6,233.1L299.6,233.1z"/>
<path class="st3" d="M372.9,201.5c-5.3,6.1-12,10.8-19.5,13.9c-3.7,1.6-7.7,2.7-11.7,3.2c-4,0.1-8-0.1-12-0.5
	c-4.3-0.3-4.3,6.4,0,6.7c4.1,0.5,8.3,0.7,12.5,0.5c4.7-0.5,9.3-1.8,13.7-3.7c8.3-3.3,15.8-8.6,21.8-15.3
	C380.5,203,375.8,198.3,372.9,201.5L372.9,201.5z"/>
<path class="st3" d="M333.7,209.2c-3.3,4.2-7.2,8-11.5,11.2c-4.6,3.2-9.4,6-14.3,8.6c-1.6,0.9-2.1,3-1.2,4.6c0.9,1.6,3,2.1,4.6,1.2
	c10.2-5.5,20-11.5,27.2-20.8c1.2-1.3,1.2-3.4,0-4.7C337.1,207.9,335,207.9,333.7,209.2L333.7,209.2z"/>
<path class="st3" d="M375.1,204.9c0.1,0.1,0.4,0.3,0.1,0.1c0.2,0.2,0.4,0.3,0.5,0.5c0.4,0.4,0.8,0.8,1.2,1.2
	c0.7,0.8,1.3,1.7,1.8,2.6c1.5,2.4,2.8,4.8,3.9,7.3c2.2,5.5,3.1,11.3,2.9,17.1c-0.1,4.3,6.6,4.3,6.7,0c0.2-6.9-1-13.7-3.6-20.1
	c-2.3-5.3-5.3-11.1-10.2-14.6c-1.6-0.9-3.6-0.4-4.6,1.2C373.1,201.9,373.6,203.9,375.1,204.9L375.1,204.9z"/>
<path class="st3" d="M312.5,293.7c4.7,10,7.9,20.6,9.6,31.5c1.6,11.4,0.5,22.9-0.1,34.3c-0.5,8.9-0.9,17.8-0.5,26.7
	c0.3,6.6,0.6,13.3,1,19.9c0.3,6.3,0.7,12.6,1,19c0.2,4.3,6.9,4.3,6.7,0c-0.6-12.5-1.4-25-2-37.4c-0.4-8.5-0.1-17.1,0.3-25.6
	c0.6-11.6,1.8-23.2,0.5-34.8c-1.6-12.8-5.2-25.3-10.7-36.9c-0.9-1.6-3-2.1-4.6-1.2C312.1,290,311.6,292.1,312.5,293.7L312.5,293.7z"
	/>
<path class="st3" d="M323.8,317.1c7.9,3.7,15.8,6.3,24.6,5.7c7.8-0.3,15.2-3.4,20.9-8.7c3.2-2.9-1.6-7.6-4.7-4.7
	c-4.6,4.2-10.6,6.7-16.9,6.8c-7.3,0.4-13.9-1.7-20.5-4.8C323.3,309.5,319.9,315.3,323.8,317.1L323.8,317.1z"/>
<path class="st3" d="M360.2,293.2c2.9,8.1,5.7,16.3,8.6,24.4c3,8.4,6.2,16.7,8.5,25.3c3.9,14.6,3.9,30.1,3.7,45.1
	c-0.1,8.5-0.5,16.9-0.8,25.4c-0.2,4.3,6.5,4.3,6.7,0c0.6-15.6,1.3-31.3,0.4-46.9c-0.3-7.5-1.3-15-2.8-22.4c-2.2-8.5-4.9-16.8-8.1-25
	c-3.3-9.3-6.4-18.6-9.7-27.8C365.2,287.4,358.8,289.2,360.2,293.2L360.2,293.2z"/>
<path class="st3" d="M313.4,290.7c-2.8,2-5.7,3.8-8.7,5.5c-2.9,1.8-5.7,3.8-8.6,5.7c-4.6,3.1-8.9,6.4-13.1,10
	c-7.6,6.7-13.3,15.2-16.7,24.7c-3.5,9.5-4.5,20-5.5,30.1c-0.9,10.5-1.3,21.1-1,31.7c0.3,13.9,0.6,27.7,1.5,41.6c0.3,4.3,7,4.3,6.7,0
	c-0.8-12.1-1.1-24.3-1.4-36.5c-0.2-10.4-0.4-20.8,0.4-31.2c0.5-10.1,2-20.1,4.4-29.9c2.5-9,7.3-17.1,14-23.6
	c4.2-3.9,8.8-7.5,13.5-10.7c3.1-2.1,6.2-4.3,9.4-6.3c3.4-1.9,6.6-4,9.7-6.3c1.3-1.3,1.3-3.4,0-4.7
	C316.8,289.5,314.7,289.5,313.4,290.7L313.4,290.7z"/>
<path class="st3" d="M334.5,261.8c-0.4,0.4-0.7,0.8-1,1.3c-0.2,0.3-0.3,0.6-0.5,0.9c-0.3,0.6-0.5,1.1-0.7,1.7
	c-0.2,0.6-0.3,1.2-0.3,1.8c0,1.8,1.5,3.3,3.3,3.3l0.9-0.1c0.6-0.2,1.1-0.4,1.5-0.9l0.5-0.7c0.3-0.5,0.5-1.1,0.5-1.7c0,0,0-0.1,0-0.1
	l-0.1,0.9c0.1-0.5,0.2-1.1,0.4-1.6l-0.3,0.8c0.2-0.5,0.5-1,0.8-1.4l-0.5,0.7c0.1-0.1,0.2-0.2,0.3-0.3c1.3-1.3,1.3-3.4,0-4.7
	c-0.6-0.6-1.5-1-2.4-1l-0.9,0.1C335.4,261.1,334.9,261.4,334.5,261.8L334.5,261.8z"/>
<path class="st3" d="M359,265.2c-0.2,0.1-0.4,0.2-0.6,0.3c-0.4,0.2,0.2-0.1,0.3-0.1c-0.1,0-0.3,0.1-0.4,0.2c-0.5,0.2-1,0.3-1.5,0.4
	c-0.3,0.1-0.6,0.1-0.9,0.2c-0.1,0-0.3,0-0.4,0.1c0.1,0,0.8-0.1,0.3,0c-0.6,0.1-1.1,0.1-1.7,0.1c-0.5,0-1.1,0-1.6-0.1
	c-0.8-0.1,0.7,0.1,0,0c-0.3,0-0.5-0.1-0.8-0.2c-0.2-0.1-0.5-0.1-0.7-0.2c-0.1,0-0.3-0.1-0.4-0.2c0.2,0,0.6,0.3,0.2,0.1
	c-0.8-0.4-1.7-0.8-2.5-1.1c-0.9-0.2-1.8-0.1-2.6,0.3c-1.6,0.9-2.1,3-1.2,4.6c0.5,0.7,1.2,1.3,2,1.5c-0.4-0.2-0.4-0.2,0,0l0.4,0.2
	c0.3,0.1,0.6,0.3,0.9,0.4c0.7,0.3,1.5,0.6,2.3,0.8c1.4,0.3,2.8,0.5,4.2,0.5c2.8,0,5.6-0.7,8-2c1.6-0.9,2.1-3,1.2-4.6
	C362.6,264.8,360.6,264.3,359,265.2L359,265.2z"/>
<path class="st3" d="M331.9,238.7c-0.6,2.4,0.3,7.8,4.8,8c5.9-0.4,5.8-7,3.6-10C338.5,234.3,333.6,233.6,331.9,238.7z"/>
<path class="st3" d="M367.4,235.3c-0.5,2.4,0.3,7.7,4.4,7.9c5.4-0.4,5.3-6.9,3.3-9.9C373.5,231,369,230.3,367.4,235.3z"/>
<path class="st3" d="M354.5,250.5c0.4,0.7,0.9,1.3,1.3,2c0.5,0.7,0.9,1.5,1.3,2.3l-0.3-0.8c0.1,0.2,0.1,0.4,0.2,0.6l-0.1-0.9
	c0,0.1,0,0.2,0,0.3l0.1-0.9c0,0.1,0,0.1,0,0.2l0.3-0.8c0,0.1,0,0.1-0.1,0.2l0.5-0.7c-0.1,0.2-0.3,0.3-0.5,0.5l0.7-0.5
	c-0.1,0.1-0.3,0.2-0.5,0.3l0.8-0.3c-0.2,0.1-0.5,0.1-0.7,0.2l0.9-0.1c-0.4,0.1-0.9,0.1-1.3,0.2c-0.8,0.2-1.6,0.8-2,1.5
	c-0.9,1.6-0.4,3.6,1.2,4.6c0,0,0,0,0,0l0.8,0.3c0.6,0.2,1.2,0.2,1.8,0l0.2,0l-0.9,0.1c0.6,0,1.2-0.1,1.8-0.3
	c0.9-0.3,1.7-0.8,2.4-1.5c0.5-0.5,0.9-1.1,1.1-1.8c0.2-0.7,0.2-1.5,0-2.2c-0.2-0.7-0.4-1.3-0.8-1.9c-0.7-1.3-1.5-2.5-2.3-3.8
	c-0.5-0.7-1.2-1.3-2-1.5c-0.9-0.2-1.8-0.1-2.6,0.3C354.1,246.9,353.6,248.9,354.5,250.5C354.5,250.5,354.5,250.5,354.5,250.5
	L354.5,250.5z"/>
<path class="st3" d="M295.7,372.5c0,8.6,0.1,17.3,0.4,25.9c0.1,9.8,0.6,19.7,1.7,29.4c0.5,1.8,2.3,2.8,4.1,2.3
	c1.8-0.5,2.8-2.3,2.3-4.1c0.1,0.8-0.1-0.6-0.1-0.7c-0.1-0.5-0.1-0.9-0.1-1.4c-0.1-1-0.2-2.1-0.3-3.2c-0.2-2.3-0.3-4.6-0.4-6.9
	c-0.3-5.4-0.4-10.7-0.6-16.1c-0.2-8.4-0.4-16.9-0.3-25.4C302.4,368.2,295.7,368.2,295.7,372.5L295.7,372.5z"/>
<path class="st4" d="M176.3,331.1c-0.7-0.4-1.4-0.8-2.2-1.2c-0.2-0.2-0.5-0.3-0.7-0.5c-3.2,2.5-7.1,3.9-11.2,4
	c-3.9,0.4-7.9-0.2-11.6-1.7c-1.7,1.4-3.5,2.7-5.5,3.8c-2.9-1.6-5.6-3.6-8.1-5.8c-3.7-3.7-7-7.8-9.8-12.3c-1.1-1.5-1.9-3.1-2.5-4.9
	l-2.9,1c0,0-8.6,2.9-10.7,3.8C90,326.1,76.1,330,64.4,350.5c-7,12.1-12.8,37.3-16.5,51.2c-3.7,13.9-4.7,29-0.9,42.7
	c2.2,8.4,6.3,16.1,12,22.7c14.7,16.9,51,28,65.8,25.6c-0.4-4.5,0-9,1.3-13.3c1.2-4.6,2.7-9.5,6.2-12.8c3-2.8,6.7-4.6,10.7-5.4
	c4.4-0.8,15-1.9,21.2-2.2c23.7-4.5,48.9-9.3,74.5-14.2c0.2-25.5-0.1-56.2-3.9-80.6c-4.2-27-15.4-35.4-39.8-46.4
	c-1.1-0.5-10.4-4.5-10.4-4.5s-0.2-0.1-0.6-0.2c-0.6,3.3-1.5,7.8-2.1,12.1c-0.8,2.8-1.3,5.4-2,7.9
	C178.5,332.3,177.4,331.7,176.3,331.1z"/>
<path class="st0" d="M400.8,491.4c-0.3-1.6,0-3.2,0.7-4.6c1.1-2.2,3.3-3.8,5.8-4.2c7-1.3,14.2-2.3,21.3-2.8
	c13.4-1.2,20.1-1.8,36.7-3.5l2.1-0.2l-1-2.7c-0.7-1.8-4.7-5.5-9.4-9.5c-2.6-2.2-5.1-4.6-7.3-7.2c-1.3-2.1-1.1-4.9,0.5-6.8
	c2.1-2.7,5.8-2.4,8.5-1.3c11.9,4.7,27.9,13.8,38,17.8c5.7,2.2,11.1,9.9,10.7,17.2l8.6,11.8c-11.5,8.2-20.9,19-27.5,31.5l-10.9-4.6
	c-4.7-2-19-1.8-22.8-1.9c-7.2-0.2-14.7-0.4-22.5-0.4l-0.8-3.2c-5.3,0.1-10.3,0-11.8-0.1c-2.3-0.1-4.3-1.8-4.8-4.1
	c-0.1-2.4,1.4-4.6,3.6-5.4l0.6-0.2l-4.7,0.5c-6.5,0.6-10.6-2.1-10.3-6.4c0.3-2.4,2.1-4.4,4.4-5.1l-1.8-0.2
	C402.9,495.3,401.2,493.4,400.8,491.4z"/>
<path class="st0" d="M658.6,328.8l0.2-0.2c3.5-4.3,5.6-9.5,6-15c0.6-5.6-1.6-13.6-5.9-17.1c-1.5-1.2-4.6-2.9-10.3-1.5
	c-3.2,0.7-5.9,2.7-7.7,5.4c-2.3-4.2-5.5-11.9-11.5-19.4c-7.4-6.2-18.5-10.7-30.7-11.6c-0.6,3-1.1,6.1-1.7,9.3
	c-0.5,3.5-1.3,7-2.4,10.3c-0.9,2-2,3.9-3.4,5.6c-2.5,3.2-5.3,6.1-5.9,10.1c-0.4,2.5,1.4,6.5,1.6,9.1c0.2,1.9,0.3,2.6,0.4,4.5
	l1.5,8.3c1.7-0.1,5.6,0,8.3,0c0.9,0.1,1.6,0.8,1.5,1.8c0,0,0,0,0,0.1c-0.2,3.9-1.6,5.4-2.9,8.2c-0.9,1.7-2.1,3.3-3.5,4.7l-0.7,0.6
	c0.4,2.2,1.3,7.3,1.3,7.3c1,2.3,2.4,4.4,4.2,6.1c2.3,2.7,5.3,4.8,8.6,6c9.3,3.8,19.4,5.1,29.3,3.8c2.9,4.5,5.2,9.3,7.1,14.2l2.1,5.6
	c5.7-4.1,11.9-7.3,18.5-9.5c10.2-3.5,20.9-5.6,31.7-6.2l-1.7-5.5c-18.4-2-33.3-19.9-39.6-28.8l-1.2-1.7
	C654.4,332.5,656.7,330.9,658.6,328.8z"/>
<path class="st3" d="M588.7,330c2.1-0.1,4.1,0,6.2,0h1.6h0.4c0.4,0,0.3,0-0.3-0.1c-0.3-0.1-0.6-0.3-0.8-0.5
	c-0.3-0.5-0.4-0.5-0.2-0.2c-0.2-0.3-0.3-0.6-0.2-0.9c0,0.2,0,0.3,0,0.5c0,0.3-0.1,0.5-0.1,0.8c0.1-0.5,0.1-0.5,0-0.2
	c0,0.1-0.1,0.3-0.1,0.4c-0.1,0.3-0.1,0.6-0.2,0.8c-0.1,0.3-0.2,0.5-0.2,0.8c0,0.1-0.1,0.2-0.1,0.4c0.2-0.5,0.3-0.6,0.1-0.3
	c-0.2,0.4-0.4,0.8-0.6,1.2c-0.5,0.9-0.9,1.8-1.3,2.6c-0.2,0.4-0.5,0.9-0.8,1.3c-0.2,0.2-0.3,0.4-0.5,0.7c-0.1,0.2-0.6,0.7,0,0
	c-0.5,0.6-1.1,1.3-1.6,1.9c-1.3,1.3-1.3,3.4,0,4.7c1.3,1.3,3.4,1.3,4.7,0c1.3-1.3,2.5-2.7,3.4-4.3c0.9-1.5,1.7-3,2.4-4.6
	c0.5-1,0.9-2.1,1.1-3.2c0.4-1.5,0.5-3.1,0.3-4.6c-0.4-1.7-1.7-3.1-3.4-3.7c-1.2-0.2-2.3-0.3-3.5-0.2c-2.1,0-4.1,0-6.2,0
	c-1.8,0-3.3,1.5-3.3,3.3S586.8,330,588.7,330L588.7,330z"/>
<path class="st5" d="M641.5,222c-21.2,6.4-31.6,17.8-39.5,35.6c-1.5,3.8-2.6,7.8-3.3,11.8c12.2,0.9,23.3,5.4,30.7,11.6
	c6,7.5,9.2,15.2,11.5,19.4c1.8-2.7,4.5-4.7,7.7-5.4c5.7-1.5,8.8,0.3,10.3,1.5c4.3,3.5,6.5,11.5,5.9,17.1c-0.4,5.5-2.4,10.8-6,15
	c-1.9,2.2-4.3,3.9-7,4.9l1.2,1.7c7.1,10.1,25.3,31.7,47,28.7c4.1-6.1,10.4-12,14.6-16.1c10.4-10.3,23.2-28.6,24.7-52
	c0.9-14.7-4.3-29.9-10.7-40.6c-16.5-27.6-36.6-33.3-49-35.6C666.9,217.6,653.9,218.4,641.5,222L641.5,222z"/>
<path class="st3" d="M589.8,351.1c1.8,3.7,4.4,6.9,7.6,9.5c3.7,2.8,8,4.8,12.5,6c10.1,3,20.8,3.3,31.1,1.1c4.2-0.9,2.4-7.3-1.8-6.5
	c-8.9,2-18.2,1.7-27-0.9c-3.6-0.9-7-2.3-10.1-4.4c-2.8-2.2-5-5-6.5-8.2C593.7,343.8,587.9,347.2,589.8,351.1L589.8,351.1z"/>
<path class="st3" d="M598.8,256.7c-2.1,5.9-3.6,11.9-4.5,18.1c-1,5.5-1.4,11.7-4.7,16.4c-2.7,3.9-6.4,7.3-7.4,12.2
	c-0.4,2.5-0.2,5.1,0.6,7.5c0.6,2.5,1,5,1.2,7.5c0,1.8,1.5,3.3,3.3,3.3c1.8,0,3.3-1.5,3.3-3.3c-0.2-2.5-0.5-5-1-7.5
	c-0.5-2-1.4-4.2-1-6.3c1-4.4,5.4-7.7,7.6-11.5c3-5,3.5-11.3,4.5-16.9c0.9-6,2.4-12,4.4-17.7c0.5-1.8-0.6-3.6-2.3-4.1
	C601.1,253.9,599.3,255,598.8,256.7L598.8,256.7z"/>
<path class="st3" d="M632.9,368.3c1.3,2.1,2.5,4.4,3.5,6.7c0.3,0.6,0.5,1.1,0.8,1.7c0.1,0.3,0.2,0.5,0.3,0.8
	c0.1,0.1,0.1,0.3,0.2,0.4c0.1,0.1,0.3,0.6,0,0.1c-0.2-0.5,0.1,0.2,0.2,0.4c0.1,0.2,0.2,0.5,0.3,0.7c0.2,0.4,0.3,0.9,0.5,1.3
	c0.5,1.8,2.3,2.8,4.1,2.3c1.8-0.5,2.8-2.3,2.3-4.1c-1.7-4.8-3.9-9.4-6.5-13.7c-0.9-1.6-3-2.1-4.6-1.2
	C632.5,364.6,632,366.7,632.9,368.3z"/>
<path class="st3" d="M650.1,336.9c10.1,14.3,24.3,28.4,42.5,30.5c1.8,0,3.3-1.5,3.3-3.3c0-1.8-1.5-3.3-3.3-3.3
	c-15.5-1.8-28.2-15.1-36.7-27.1c-1-1.6-3-2.1-4.6-1.2C649.7,333.2,649.1,335.3,650.1,336.9L650.1,336.9z"/>
<path class="st3" d="M644.3,301.4c2.4-3.2,8.5-4.6,11.7-2.8c0.1,0.1,1,0.7,0.6,0.4c-0.3-0.2,0.8,0.7,0.9,0.9
	c0.7,0.8,1.3,1.6,1.7,2.5c1.1,2.1,1.8,4.5,2.1,6.9c1.2,9.5-4.1,20.3-14.1,22c-1.8,0.5-2.8,2.3-2.3,4.1c0.5,1.8,2.3,2.8,4.1,2.3
	c11.6-2,17.7-12.8,19-23.7c1-8.4-2.9-20.6-12.3-22.5c-6.5-1.2-13.2,1.3-17.2,6.5c-0.9,1.6-0.4,3.6,1.2,4.6
	C641.3,303.4,643.3,302.9,644.3,301.4L644.3,301.4z"/>
<path class="st3" d="M596.3,291.9c-1.1,2.9-1.4,9.8,3.3,10.9c6.4,0.7,7.7-7.6,6-11.7C604.3,287.7,599.3,285.8,596.3,291.9z"/>
<path class="st3" d="M604.9,259.3c3.2-7.9,7.9-15,13.9-21.1c6.4-5.9,14.1-10.2,22.4-12.6c16.7-5.3,35.7-5.4,52.1,1.3
	c16.9,6.9,29.8,22.2,37,38.7c4.6,10.3,6.5,21.7,5.5,33c-1.2,10.5-4.7,20.5-10.2,29.5c-4.9,8.3-11.2,15-18,21.8
	c-7.7,7.8-16.2,16.9-14.9,28.7c0.1,1.8,1.5,3.3,3.3,3.3c1.8,0,3.3-1.5,3.3-3.3c-0.5-5,0.9-9.9,4-13.8c3-4.1,6.4-7.9,10.2-11.4
	c6.4-6.1,12.1-12.9,16.9-20.3c5.8-9.2,9.6-19.4,11.4-30c1.8-11.9,0.6-24.1-3.7-35.4c-6.9-18.9-20.7-36.6-39.1-45.4
	c-16.5-7.8-35.6-8.8-53.2-4.8c-10.8,2.2-20.9,7-29.5,14c-7.7,6.6-13.1,15.3-17.2,24.5c-0.9,1.6-0.3,3.6,1.2,4.6
	C601.9,261.4,603.9,260.9,604.9,259.3L604.9,259.3z"/>
<path class="st3" d="M627,283.4c0.2,0.2,0.4,0.5,0.6,0.7c0.4,0.5-0.2-0.3,0.1,0.2c0.3,0.4,0.6,0.8,0.9,1.2c0.6,0.8,1.2,1.6,1.7,2.5
	c1,1.6,2,3.2,3,4.9c1.5,2.7,2.8,5.4,4.2,8.1c0.9,1.6,3,2.1,4.6,1.2c1.6-1,2.1-3,1.2-4.6c-1.4-2.8-2.8-5.6-4.3-8.3
	c-2.1-3.7-4.5-7.3-7.1-10.6c-1.3-1.3-3.4-1.3-4.7,0C625.8,280,625.8,282.1,627,283.4L627,283.4z"/>
<path class="st3" d="M601.6,273.1c9.1,1.3,18.5,4.6,25.4,10.3c1.3,1.3,3.4,1.3,4.7,0c1.3-1.3,1.3-3.4,0-4.7
	c-8.2-6.5-18-10.7-28.4-12.1c-1.8-0.4-3.6,0.6-4.1,2.3C598.8,270.7,599.8,272.6,601.6,273.1z"/>
<path class="st6" d="M674.3,372.3c-4,0.9-7.9,2-11.7,3.3c-15,4.9-32.1,17-36.9,33.5c-1.6,0.7-3.2,1.4-4.8,2.1
	c-14,6.3-26.3,14-35.4,26.7c-14.6,20.2-14.3,45.9-19.6,69.4c-1.3,5.6-1.8,12.4-6.1,18.8c-12.4-11-20.3-20.1-32.2-32.5
	c-1.8-1.8-4.5-2.3-6.8-1.1c-16.4,8.5-31.1,29.5-33.5,37.3c-0.2,0.5-0.1,1,0.2,1.4c10,16.4,25.6,38.1,34.2,47.3
	c15.7,16.9,37.5,30.6,60.5,26.8c0.4-0.1,0.9-0.2,1.3-0.3c3.5,11.5,7.5,18.5,18.4,24c6.6,3.3,16.7,7.4,26.7,8.2
	c11.9,0.7,23.9,0.6,35.9-0.4c8.7-12.5,31.9-46.5,42.2-60.8c11.7-16.2,41.4-63.7,45.4-70.3c0.9-7.7,2-16.3,2.2-23.2
	c0.4-17.1,1.3-31-3.4-46.8c-4.7-15.8-16.6-36.2-35.3-41.4c-2-4.5-6.3-17.5-9-21.6c-1-2.4-3.5-3.8-6.1-3.5
	C691.6,369.2,682.8,370.3,674.3,372.3z"/>
<path class="st3" d="M4.2,493.1c22.5-4.3,45-8.6,67.5-12.9c4.2-0.8,2.4-7.3-1.8-6.5c-22.5,4.3-45,8.6-67.5,12.9
	C-1.8,487.4,0,493.9,4.2,493.1z"/>
<path class="st3" d="M426.6,607.1c22-5.5,43.7-12.2,65.5-18.3c3.6-1,7.2-2.1,10.9-3c4.2-1.1,2.4-7.5-1.8-6.5
	c-21.7,5.7-43.3,12.1-64.9,18.1c-3.8,1.1-7.6,2.2-11.5,3.1C420.7,601.7,422.5,608.2,426.6,607.1L426.6,607.1z"/>
<path class="st3" d="M577.5,410.3c-11.6-3.2-23.2-6.5-34.9-9.7c-6.9-1.9-13.7-3.8-20.6-5.7l-9.5-2.6l-4.3-1.2
	c-1.7-0.5-3.4-0.5-5.1-0.1c-23.4,4.5-46.9,8.9-70.3,13.4c-27.8,5.3-55.7,10.6-83.5,15.9c-29.5,5.6-59,11.3-88.5,16.9
	c-28.9,5.5-57.8,11-86.6,16.5l-10.1,1.9c-4.2,0.8-2.4,7.3,1.8,6.5l68.7-13.1l72.1-13.8l70.7-13.5l66-12.6l56.8-10.8l6.4-1.2h-1.8
	c23.6,6.5,47.2,13,70.9,19.6C579.8,417.9,581.6,411.4,577.5,410.3L577.5,410.3z"/>
<path class="st3" d="M194,516.8c9.7,4.9,19.6,9.8,29.4,14.6c5.6,2.8,11.2,5.6,16.9,8.3c1.3,0.8,2.7,1.5,4.1,2c1.5,0.1,3-0.1,4.3-0.6
	l8.5-2c23.5-5.5,46.9-11.1,70.4-16.7c12.3-2.9,24.7-5.8,37-8.7c1.4-0.4,2.4-1.7,2.5-3.2c-0.1-1.5-1-2.8-2.5-3.2
	c-18.8-7.8-37.5-15.6-56.3-23.3c-10-4.1-19.9-8.3-29.9-12.5c-4.3-1.8-8.5-3.6-12.8-5.4c-2-0.8-3.9-1.7-5.9-2.5
	c-1.8-0.8-4.4-2.5-6.4-2.5c-2,0.2-3.9,0.5-5.8,1.1l-6,1.2c-3.8,0.7-7.5,1.5-11.3,2.2c-7.3,1.4-14.6,2.9-21.9,4.3
	c-4.2,0.8-2.4,7.3,1.8,6.5c14.7-2.9,29.4-5.8,44.1-8.7l-2.6-0.3c29.4,12.8,59.1,24.9,88.8,37.2c7.5,3.1,14.9,6.2,22.4,9.3v-6.4
	c-31,7.3-62.1,14.7-93.1,22c-8.4,2-16.9,4-25.3,6l2.6,0.3c-16.5-8.2-33.1-16.2-49.5-24.6C193.5,509,190.2,514.8,194,516.8L194,516.8
	z"/>
<path class="st3" d="M398.5,467.2c-20.1-8.2-40.6-15.1-60.9-22.7v6.5c28.2-5.6,56.4-11.4,84.7-17.1c6.8-1.4,13.7-2.8,20.6-4.1H441
	c16.3,5.3,32.6,10.4,48.9,15.5c17.8,5.6,35.6,11.2,53.4,16.7c5.4,1.7,10.8,3.4,16.2,5v-6.5c-11.7,3-23.4,5.8-35.1,8.5
	c-4.2,1-2.4,7.4,1.8,6.5c11.7-2.7,23.4-5.5,35.1-8.5c1.8-0.5,2.8-2.4,2.2-4.2c-0.3-1.1-1.2-1.9-2.2-2.2
	c-21.6-6.6-43.2-13.4-64.7-20.2c-13.4-4.2-26.8-8.4-40.2-12.7c-2.6-0.8-5.3-1.7-7.9-2.5c-2.2-0.7-5.2-2.3-7.6-1.9
	c-9.8,1.6-19.5,3.9-29.2,5.9c-25.3,5.1-50.7,10.3-76,15.4c-3.5,0.7-2.8,5.4,0,6.5c20.3,7.6,40.8,14.6,60.9,22.7
	c1.8,0.5,3.6-0.6,4.1-2.3C401.3,469.6,400.2,467.8,398.5,467.2L398.5,467.2z"/>
<path class="st3" d="M342,460.5c-9,3.5-18,6.9-26.9,10.5c-1.8,0.6-2.8,2.4-2.2,4.2c0.3,1.1,1.2,1.9,2.2,2.2
	c22.7,6.7,45.2,14,67.7,21.1c4.1,1.3,5.9-5.2,1.8-6.5c-22.6-7.1-45.1-14.4-67.7-21.1v6.5c8.9-3.6,18-7,26.9-10.5
	c1.7-0.5,2.8-2.3,2.3-4.1C345.7,461.1,343.8,460,342,460.5L342,460.5z"/>
<path class="st3" d="M714.6,397.6c14.5,4.2,24.4,17.7,30.1,31c7.2,16.9,6.6,34.8,6.2,52.8c-0.3,10.2-1.8,20.3-3,30.5
	c0,1.8,1.5,3.3,3.3,3.3c1.8,0,3.3-1.5,3.3-3.3c2.2-19.5,4.6-39.2,2.8-58.9c-1.5-16.9-7.4-33.5-18.4-46.5
	c-5.8-7.2-13.7-12.6-22.6-15.3C712.2,389.9,710.4,396.4,714.6,397.6L714.6,397.6z"/>
<path class="st3" d="M718.3,392.7c-0.9-2.1-2-5.2-3-7.8c-1.3-3.3-2.5-6.7-4-9.9c-1-3-2.9-5.6-5.3-7.6c-3.6-2.5-9.4-1.5-13.5-1.2
	c-17.5,1.2-36.1,5.8-50.4,16.3c-7.5,5.2-13.6,12.2-17.6,20.4c-0.9,1.6-0.3,3.6,1.2,4.6c1.6,0.9,3.6,0.4,4.6-1.2
	c5.9-12.9,18.5-22.1,31.6-26.8c8.3-3,16.9-5,25.6-6.1c4.5-0.7,9-0.9,13.6-0.7c2.4,0.2,3.5,3.3,4.4,5.3c2.7,5.9,4.5,12.2,7.2,18.1
	c0.9,1.6,3,2.1,4.6,1.2C718.7,396.3,719.2,394.3,718.3,392.7L718.3,392.7z"/>
<path class="st3" d="M695.6,389.9c-15,0.2-29.9,2.4-44.3,6.5c-14.1,3.9-27.6,9.3-40.6,16.1c-11.6,5.9-21.7,14.6-29.2,25.2
	c-7.6,11.3-11.2,24.6-13.6,37.9c-1.3,7.5-2.3,15-3.7,22.5c-0.7,3.7-1.5,7.3-2.2,11c-0.6,4.1-1.7,8.1-3.2,11.9
	c-0.9,1.6-0.3,3.6,1.2,4.6c1.6,0.9,3.6,0.4,4.6-1.2c2.9-6.3,3.9-13.3,5.3-20.1c1.3-6.4,2.2-12.9,3.2-19.4c2-12.7,4.3-25.7,10.3-37.2
	c6-11.2,15.1-20.5,26.1-26.8c12-6.9,24.8-12.4,38.1-16.3c15.5-5,31.6-7.7,47.9-7.9C699.9,396.5,699.9,389.8,695.6,389.9L695.6,389.9
	z"/>
<path class="st3" d="M564.6,525.9c-9.9-8.6-18.9-18-27.9-27.6c-4.2-4.5-9.1-11.8-16.2-9.3c-5.3,1.9-10.2,6.2-14.3,9.9
	c-7.9,7-14.5,15.2-19.6,24.4c-0.9,1.6-1.6,3.2-2.3,4.9c-1,3,0.4,5.1,2,7.6c3.3,5.2,6.7,10.4,10.2,15.5
	c13.3,19.2,27.5,38.8,48.6,50.1c11.1,5.9,23.6,9.2,36.1,7.4c12.3-1.7,23.4-9.4,30.5-19.3c7-9.8,10.2-22.4,13.4-33.9
	c4-13.9,6.9-28,8.8-42.3c0.5-3.5,0.8-6.9,1.1-10.4c0.4-4.3-6.3-4.3-6.7,0c-1.2,13.2-3.4,26.2-6.6,39c-2.8,11.7-5.9,23.7-10.6,34.7
	c-4,9.8-11.4,17.8-20.9,22.5c-10.4,5.1-22.5,4.1-33.1,0.3c-20.5-7.3-35.1-24.4-47.6-41.5c-3.4-4.7-6.8-9.5-10.1-14.4
	c-1.6-2.3-3.1-4.6-4.6-6.9c-0.8-1.2-1.5-2.3-2.2-3.5l-1-1.6c-0.2-0.3-1.1-1.7-1-1.3c0.1,0.4,0.2-0.3,0.3-0.6
	c0.2-0.6-0.1,0.2,0.2-0.4c0.3-0.7,0.7-1.4,1-2.1c0.9-1.7,1.9-3.4,3-5c2.6-4,5.5-7.8,8.7-11.3c3.5-4,7.3-7.6,11.5-10.8
	c2.1-1.6,4.2-3,6.5-4.2c2.7-1.5,4.1,0.8,5.9,2.7c8.2,8.6,16.2,17.4,24.9,25.5c2.4,2.2,4.8,4.4,7.3,6.6
	C563.1,533.5,567.9,528.7,564.6,525.9L564.6,525.9z"/>
<path class="st3" d="M469.2,471.7c-1.3-2.3-3.1-4.3-5.1-5.9c-2.5-2.3-5.1-4.4-7.6-6.7c-1.5-1.4-5.1-3.8-4.3-6.1
	c0.8-2.5,3.6-1.9,5.5-1.2c12.2,4.6,23.3,11.5,35.3,16.6c3,1,5.6,2.9,7.6,5.4c2.2,2.8,3.3,6.2,3.3,9.8c-0.1,4.3,6.6,4.3,6.7,0
	c0.1-8-4.1-15.3-10.9-19.4c-2.9-1.6-6.1-2.7-9.1-4.1c-3.6-1.7-7.1-3.5-10.6-5.2c-3.7-1.8-7.3-3.6-11-5.4c-3.4-1.7-6.8-3.2-10.4-4.5
	c-3.6-1.3-7.5-0.5-10.4,2.1c-3,3-3.6,7.7-1.4,11.3c2.4,3.2,5.3,6,8.4,8.4c1.9,1.6,3.8,3.3,5.6,5c1.1,0.9,2,2,2.7,3.2
	c0.9,1.6,3,2.1,4.6,1.2C469.6,475.4,470.1,473.3,469.2,471.7L469.2,471.7z"/>
<path class="st3" d="M465.3,473c-12,1.2-24,2.4-36.1,3.4c-6.4,0.6-12.8,1.2-19.2,2.2c-5.4,0.9-10.4,2.6-12.2,8.3
	c-1.9,6,2.1,11.1,8.1,11.9c1.8,0.4,3.6-0.6,4.1-2.3c0.5-1.8-0.6-3.6-2.3-4.1c-1-0.1-2-0.3-2.9-0.8c-0.2-0.1-0.4-0.3-0.6-0.5
	c0,0-0.1-0.3-0.1-0.3c-0.2-1-0.1-2.1,0.5-3c1.1-1.4,2.8-2.2,4.5-2.3c2.1-0.4,4.2-0.8,6.4-1c10.3-1.4,20.7-2,31-3
	c6.3-0.6,12.5-1.2,18.7-1.8c1.8,0,3.3-1.5,3.3-3.3C468.6,474.5,467.1,473,465.3,473L465.3,473z"/>
<path class="st3" d="M445.5,489.2c-7.5,0.2-15,0.6-22.5,1.3c-3.6,0.3-7.1,0.7-10.7,1.2c-3.4,0.2-6.7,1.6-9.2,3.9
	c-4.3,4.8-1.9,11.8,3.7,14.1c3.1,1.1,6.3,1.3,9.5,0.8c3.1-0.3,6.3-0.6,9.4-0.8c6.9-0.5,13.7-1.1,20.6-1.4c4.3-0.2,4.3-6.9,0-6.7
	c-10.4,0.5-20.9,1.4-31.3,2.3c-2.1,0.2-4.8,0.4-6.6-0.8c-0.9-0.5-1.2-1.7-0.7-2.6c0.1-0.1,0.1-0.2,0.2-0.3c1.4-1.7,4.4-1.8,6.4-2.1
	c3.1-0.4,6.1-0.7,9.2-1c7.3-0.7,14.6-1,21.9-1.2C449.8,495.8,449.8,489.1,445.5,489.2L445.5,489.2z"/>
<path class="st3" d="M417.8,503.9c-4,1.6-7.2,5.8-5.8,10.3c1.3,3.5,4.7,5.9,8.4,5.9c5.3,0.3,10.6,0.1,15.8,0c2.9,0,5.7-0.1,8.6-0.2
	c4.3-0.1,4.3-6.8,0-6.7c-5.9,0.2-11.8,0.3-17.7,0.3c-2.3,0-4.6-0.1-6.8-0.1c-0.1,0-0.3,0-0.4,0c1,0.1-0.5-0.2-0.5-0.1
	c-0.4-0.2-0.8-0.5-1-0.9c-0.1-0.2-0.1-0.5,0-0.7c0.2-0.5,0.6-0.9,1.1-1.2c1.7-0.5,2.8-2.3,2.3-4.1
	C421.4,504.4,419.5,503.4,417.8,503.9L417.8,503.9z"/>
<path class="st3" d="M432.4,523.3c8.7,0.1,17.4,0.4,26.1,0.5c3.3,0,6.5,0.1,9.8,0.3c2.9,0,5.7,0.5,8.4,1.4c1.8,0.5,3.6-0.6,4.1-2.3
	c0.4-1.8-0.6-3.6-2.3-4.1c-3-1-6.1-1.5-9.2-1.6c-3.5-0.3-6.9-0.4-10.4-0.4c-8.8-0.1-17.7-0.4-26.5-0.5
	C428,516.6,428,523.2,432.4,523.3L432.4,523.3z"/>
<path class="st0" d="M795.7,584.5c0-24.7,0.7-30.8,0.9-73.2c0.1-9.2-7.4-16.8-16.6-16.8c-1.6,0-3.2,0.2-4.8,0.7
	c-27.5,8-67.4,19.6-94.7,27.5c-9.2,2.7-15.6,11.1-15.6,20.7c-0.2,41.6-0.6,58.3-0.6,95.8L795.7,584.5z"/>
<path class="st3" d="M667.5,639.1c0-21.5,0.2-43,0.4-64.4c0.1-5.9,0.1-11.8,0.1-17.7c0-3.3,0-6.6,0.1-9.9c-0.2-2.9,0.1-5.8,0.7-8.6
	c1.3-4.6,4.4-8.6,8.6-10.9c2.2-1.1,4.5-1.9,6.9-2.5c2.6-0.8,5.3-1.5,7.9-2.3c23.2-6.7,46.4-13.5,69.6-20.2
	c5.1-1.5,10.3-3.5,15.6-4.5c4.4-0.8,9,0.7,12.1,4c3.9,4.1,3.7,9.2,3.6,14.5c0,5.9-0.1,11.9-0.2,17.8c-0.2,14.7-0.6,29.5-0.7,44.2
	c0,2,0,4,0,6c0,4.3,6.7,4.3,6.7,0c0-15.2,0.4-30.3,0.6-45.5c0.1-5.7,0.1-11.5,0.2-17.2c0.1-6.3,0.9-12.9-1.7-18.8
	c-2.2-4.9-6.3-8.7-11.3-10.5c-5.5-2.1-10.7-1-16.2,0.6c-24,7-48,13.9-72,20.9c-5.5,1.6-11.1,3.2-16.6,4.8c-5.4,1.6-10.3,3.7-14.1,8
	c-3.8,4.3-6.1,9.7-6.4,15.4c-0.4,6.8-0.1,13.7-0.2,20.5c-0.2,22.2-0.5,44.3-0.5,66.5c0,3.3,0,6.6,0,10
	C660.8,643.4,667.5,643.4,667.5,639.1L667.5,639.1z"/>
<path class="st1" d="M126.7,228.4c2.1-5.9,6.8-12.6,12.6-15c8.9-3.8,19.3-3.8,28.9-3.9c4.8,0.6,9.6,1.6,14.2,3
	c12,4.1,19,13.8,19,30.6l1.1,1.4c1.5-10.6,1.2-21.5-0.9-32c-2.4-10.4-6.3-19.6-14.7-26.9c-11.7-13.1-24.7-16.9-42.8-16.9
	c-11.8,0-29.1,3.7-44.3,21.8c-7,8.7-9.8,14.6-11.7,24.7c-1.1,6.3-1.5,12.6-1.1,19c0.6,5.3,2.1,16.3,5.4,22.4c0.4-1,0.7-1.7,0.7-1.7
	c0.9-2.4,3.1-4.1,5.7-4.5c2-0.4,4-0.1,5.8,0.9l10.7-0.6c0.2-4.3,0.7-8.6,1.4-12.8c0.6-2.2,1.7-4.2,3.1-5.9c1.7-1.8,3.9-3.1,6.3-3.8"
	/>
<path class="st3" d="M97.2,403.4c-2.2,8.8-4,17.8-5.2,26.8c-0.8,3.6-0.7,7.2,0.2,10.8c1,2.9,2.8,5.4,5.1,7.4
	c4.9,4.1,11.2,6.8,17.2,9c5.8,1.9,11.8,3.5,17.9,4.5c4.2,0.9,6-5.6,1.8-6.5c-10.5-2.2-21-4.5-30.1-10.3c-2.1-1.2-3.9-2.9-5.1-5
	c-1.3-2.6-0.9-5.6-0.5-8.4c0.6-4.1,1.4-8.2,2.2-12.3c0.9-4.7,1.8-9.5,3-14.2C104.8,401,98.3,399.3,97.2,403.4L97.2,403.4z"/>
<path class="st3" d="M112.4,489.1c-8.1-1.3-16.1-3.6-23.7-6.7c-7.6-2.9-14.8-6.9-21.3-11.9c-15.1-12.1-20.5-31.7-19.2-50.4
	c0.6-8.9,3-17.4,5.2-25.9c2.1-8.1,4.2-16.1,6.7-24.1c4.5-14,10.9-27.4,23.4-36c6.7-4.2,13.8-7.7,21.2-10.4c6-2.5,12-4.8,18.2-6.8
	c4.1-1.4,2.3-7.8-1.8-6.5c-5.6,1.9-11.1,3.9-16.5,6.1c-7.2,2.7-14.3,5.9-21.1,9.7C76.9,330,71.2,335,66.6,341
	c-4.8,6.5-8.5,13.7-11.1,21.4c-3,8.3-5.3,16.8-7.5,25.4c-2.5,8.6-4.5,17.3-6,26.1c-2.7,20.3,1.4,42.6,16.4,57.6
	c7,6.6,15.2,11.9,24.1,15.5c9,4,18.4,6.9,28.1,8.6c1.8,0.4,3.6-0.6,4.1-2.3C115.2,491.4,114.1,489.6,112.4,489.1L112.4,489.1z"/>
<path class="st3" d="M242,443.4c0.2-26.6,0.1-53.4-3.9-79.7c-1.4-9.2-4-18.7-9.5-26.4c-5.1-6.8-11.8-12.3-19.3-16.2
	c-7.5-3.9-15.1-7.5-23-10.6c-1.6-0.9-3.6-0.3-4.6,1.2c-0.9,1.6-0.4,3.6,1.2,4.6c6.3,2.7,12.6,5.3,18.8,8.4c7.3,3.7,14.5,8,19.8,14.3
	c5.4,6.4,8,14.7,9.5,22.8c2.1,12.4,3.3,24.9,3.7,37.4c0.7,14.7,0.7,29.5,0.6,44.2C235.3,447.7,242,447.7,242,443.4L242,443.4z"/>
<path class="st3" d="M202.1,367.9c-2.1,24.3-2.9,48.7-2.5,73.1c0.1,4.3,6.8,4.3,6.7,0c-0.4-24.4,0.4-48.8,2.5-73.1
	C209.2,363.6,202.5,363.6,202.1,367.9z"/>
<path class="st3" d="M128.2,493.1c-0.6-3.9-0.3-7.9,0.8-11.6c0.6-3.3,1.8-6.5,3.3-9.6c3.1-5.3,9-7.1,14.6-7.9
	c5.3-0.7,10.6-1.2,15.8-1.5c4.8-0.5,9.6,0.2,13.9,2.1c6.1,2.8,13.6,9.1,13.4,16.5c-0.1,4.3,6.6,4.3,6.7,0
	c0.3-8.3-6.3-15.7-12.8-20.1c-5.5-3.7-12.1-5.5-18.7-5.3c-6.1,0.2-12.1,0.8-18.1,1.6c-7.2,0.9-14.3,2.9-19,8.9
	c-2.6,3.7-4.4,7.9-5.3,12.3c-1.6,5.3-2,10.9-1.1,16.3C122.6,499.1,129.1,497.3,128.2,493.1L128.2,493.1z"/>
<path class="st3" d="M168.2,477.3c2,0.3,4,0.8,5.9,1.5c0.4,0.1,0.8,0.3,1.2,0.4c0.3,0.1,0.5,0.2,0.1,0c0.2,0.1,0.4,0.2,0.6,0.3
	c0.8,0.3,1.5,0.7,2.2,1.2c0.6,0.4,1.2,0.8,1.8,1.2c0.1,0.1,0.6,0.4,0.2,0.1s0,0,0.1,0.1c0.3,0.2,0.5,0.4,0.7,0.7
	c0.6,0.5,1.1,1.1,1.6,1.7l0.4,0.5c0.6,0.7-0.2-0.3,0.1,0.1c0.3,0.4,0.6,0.8,0.9,1.3c0.9,1.6,3,2.1,4.6,1.2s2.1-3,1.2-4.6
	c-2.1-3.2-4.8-5.9-8.1-8c-3.6-2.1-7.6-3.5-11.8-4.2c-1.8-0.4-3.6,0.6-4.1,2.3C165.4,475,166.5,476.8,168.2,477.3L168.2,477.3z"/>
<path class="st3" d="M168.6,489.9c0.2,0,0.5,0,0.7,0.1l-0.9-0.1c1,0.2,2,0.4,3,0.8c0.4,0.1-0.8-0.4-0.3-0.1l0.3,0.1
	c0.3,0.1,0.5,0.3,0.8,0.4c0.5,0.3,1,0.6,1.5,0.9c0.2,0.1,0.4,0.3,0.7,0.5c0.1,0.1,0.2,0.2,0.4,0.3c-0.2-0.1-0.6-0.5-0.2-0.1
	c0.4,0.3,0.8,0.7,1.2,1.1c0.2,0.2,0.4,0.4,0.6,0.6c0.1,0.1,0.5,0.6,0.5,0.6c0,0-0.5-0.7-0.2-0.3c0.1,0.1,0.2,0.2,0.2,0.3
	c0.2,0.2,0.3,0.5,0.5,0.8c0.9,1.6,3,2.1,4.6,1.2c1.6-0.9,2.1-3,1.2-4.6c-1.6-2.6-3.8-4.8-6.4-6.4c-2.5-1.6-5.3-2.6-8.3-2.8
	c-1.8,0-3.3,1.5-3.3,3.3C165.3,488.3,166.8,489.8,168.6,489.9L168.6,489.9z"/>
<path class="st3" d="M164,500.9c0.7,0.1,1.5,0.3,2.2,0.6l-0.8-0.3c0.9,0.4,1.7,0.8,2.4,1.4l-0.7-0.5c0.7,0.6,1.4,1.2,1.9,1.9
	l-0.5-0.7c0.5,0.6,0.8,1.3,1.2,2c0.4,0.8,1.2,1.3,2,1.5c0.9,0.2,1.8,0.1,2.6-0.3c0.8-0.4,1.3-1.2,1.5-2l0.1-0.9
	c0-0.6-0.2-1.2-0.5-1.7c-1-2.1-2.6-4-4.6-5.3c-0.9-0.6-1.9-1.1-2.9-1.5c-0.7-0.3-1.4-0.5-2.2-0.6c-0.9-0.2-1.8-0.1-2.6,0.3
	c-1.6,0.9-2.1,3-1.2,4.6C162.5,500.1,163.2,500.6,164,500.9L164,500.9z"/>
<path class="st3" d="M128.6,500.2c3.8,7.6,14.6,9.3,22.2,9.3c2.1-0.1,4.1,0,6.2,0.2c1.9,0.3,3.3,1.8,4.8,2.8
	c3.7,2.6,9.8,2.6,12.1-1.9c2-3.8-3.8-7.2-5.8-3.4c-0.2,0.3-0.4,0.4-0.1,0.3c-0.2,0.1-0.4,0.2-0.6,0.1c-0.6,0-1.2-0.2-1.7-0.6
	c-1.4-0.8-2.5-2-3.9-2.8c-3.2-1.8-7.3-1.5-10.9-1.5c-3.3,0-6.5-0.5-9.6-1.4c-2.8-0.8-5.4-1.9-6.8-4.6
	C132.4,493,126.7,496.3,128.6,500.2L128.6,500.2z"/>
<path class="st3" d="M121,311.6c1.5,5.6,5.2,10.4,8.8,14.9c3.7,4.8,8.4,8.9,13.7,11.9c1,0.6,2.3,0.6,3.4,0c3.2-2.1,6.3-4.4,9.3-6.8
	c2.9-2.3,6-4.5,8.7-7l-4.1,0.5c5.9,3.6,11.4,7.7,17.6,10.9c1.6,0.9,3.7,0.3,4.6-1.3c0.1-0.2,0.2-0.5,0.3-0.7
	c2-7.7,3.6-15.5,4.6-23.4c0-1.8-1.5-3.3-3.3-3.3c-1.8,0-3.3,1.5-3.3,3.3c-1,7.3-2.4,14.5-4.3,21.6l4.9-2
	c-6.1-3.2-11.7-7.2-17.6-10.9c-1.3-0.7-3-0.5-4.1,0.5c-2.6,2.4-5.4,4.4-8.1,6.6c-2.7,2.2-5.5,4.3-8.5,6.2h3.4
	c-4.6-2.6-8.6-6.1-11.9-10.3c-3-3.7-6.2-7.8-7.5-12.5C126.3,305.7,119.9,307.4,121,311.6L121,311.6z"/>
<path class="st3" d="M130.2,295.9c-0.3-0.2-0.6-0.4-0.8-0.6c0.4,0.3-0.4-0.3-0.4-0.3c-0.5-0.4-0.9-0.8-1.4-1.2
	c-0.9-0.8-1.9-1.6-2.7-2.5c-1.7-1.6-3.3-3.4-4.8-5.2c-0.7-0.8-1.4-1.7-2.1-2.6c0.3,0.4,0.1,0.1,0,0c-0.2-0.2-0.3-0.5-0.5-0.7
	c-1-1.4-2-2.9-2.9-4.4c-1-1.5-3.1-1.9-4.6-0.9c-1.4,0.9-1.9,2.8-1.1,4.3c1.9,3.2,4.1,6.2,6.5,9c3.4,4,7.3,7.7,11.6,10.8
	c1.6,0.9,3.6,0.4,4.6-1.2C132.2,298.9,131.7,296.9,130.2,295.9L130.2,295.9z"/>
<path class="st3" d="M138.2,306.9c14,5.4,29.9,7,43.7-0.2c6.5-3.3,12-8.3,16-14.3c3.8-6.4,6.1-13.6,6.8-21c1.2-9.6,1-19.4,1.6-29.1
	c0.3-4.3-6.4-4.3-6.7,0c-0.5,8.1-0.7,16.2-1.2,24.3c-0.2,6.6-1.8,13.2-4.5,19.2c-5.7,11.4-18.1,18.6-30.7,19.1
	c-8,0.1-15.9-1.4-23.2-4.4c-1.8-0.5-3.6,0.6-4.1,2.3C135.4,304.6,136.5,306.4,138.2,306.9L138.2,306.9z"/>
<path class="st3" d="M106.3,248.6c-4.4-2.5-9.9-1.9-13.7,1.5c-2.6,2.7-3.8,6.4-3.4,10.1c0.5,8.1,5.2,17.1,12.8,20.7
	c4.4,2.2,9.6,2.3,14.1,0.2c3.8-2,0.4-7.8-3.4-5.8c-0.6,0.3-1.3,0.5-2.1,0.6c-0.5,0-1.1,0-1.6,0c-0.3,0-0.5,0-0.8-0.1
	c-0.4,0-0.5-0.1-0.2,0c-0.9-0.1-1.7-0.4-2.6-0.6c-0.2-0.1-0.3-0.1-0.5-0.2c0.4,0.2,0.5,0.2,0.2,0.1c-0.4-0.3-0.8-0.5-1.2-0.7
	c-2.9-2-5.2-4.8-6.6-8c-0.7-1.7-1.2-3.5-1.4-5.3c-0.1-1-0.1-2.1,0-3.1c0-0.3,0.1-0.6,0.2-0.9c0-0.1,0.4-1.4,0.2-0.7
	c-0.2,0.6,0.1-0.2,0.2-0.3c0.1-0.2,0.7-0.9,0.2-0.3c0.2-0.3,0.5-0.6,0.8-0.8c-0.4,0.4,0.6-0.3,0.7-0.4c1.5-0.8,3.3-0.8,4.8,0.1
	C106.6,256.6,110,250.8,106.3,248.6L106.3,248.6z"/>
<path class="st3" d="M144.9,277.5c-0.6,0.6-1.1,1.4-1.5,2.1c-0.3,0.6-0.5,1.1-0.7,1.7c-0.2,0.6-0.3,1.2-0.3,1.8
	c0,1.8,1.5,3.3,3.3,3.3l0.9-0.1c0.6-0.2,1.1-0.5,1.5-0.9l0.5-0.7c0.3-0.5,0.5-1.1,0.5-1.7c0,0,0-0.1,0-0.1L149,284
	c0.1-0.5,0.2-1.1,0.4-1.6l-0.3,0.8c0.2-0.5,0.5-1,0.8-1.4l-0.5,0.7c0.1-0.1,0.2-0.2,0.3-0.3c1.3-1.3,1.3-3.4,0-4.7
	c-0.6-0.6-1.5-1-2.4-1l-0.9,0.1C145.9,276.8,145.3,277.1,144.9,277.5L144.9,277.5z"/>
<path class="st3" d="M181.5,215.7c4.9,1.6,9.2,4.8,12.1,9.1c3.4,5.3,4.4,11.8,4.4,18.2c0,4.3,6.7,4.3,6.7,0c0-7.6-1.3-15.5-5.5-21.9
	c-3.8-5.6-9.4-9.8-15.9-11.9c-1.8-0.5-3.6,0.6-4.1,2.3C178.7,213.4,179.7,215.3,181.5,215.7L181.5,215.7L181.5,215.7z"/>
<path class="st3" d="M151.6,211.5c0.7-1.5,1.5-3,2.5-4.3l-0.5,0.7c1-1.2,2.1-2.3,3.3-3.3l-0.7,0.5c0.7-0.5,1.4-1,2.2-1.5
	c1.6-0.9,2.1-3,1.2-4.6c-0.9-1.6-3-2.1-4.6-1.2l0,0c-2.1,1.2-4,2.8-5.6,4.6c-1.5,1.7-2.7,3.6-3.6,5.7c-0.4,0.8-0.5,1.7-0.3,2.6
	c0.5,1.8,2.3,2.8,4.1,2.3c0,0,0,0,0,0C150.4,212.8,151.2,212.3,151.6,211.5L151.6,211.5z"/>
<path class="st3" d="M163.3,212.9c0.3-0.2,0.6-0.5,0.8-0.7c-0.6,0.5,0.3-0.2,0.4-0.3c0.6-0.4,1.2-0.8,1.9-1.2c0.7-0.4,1.3-0.7,2-1
	c-0.7,0.3,0.4-0.1,0.5-0.2c0.4-0.1,0.7-0.3,1.1-0.4c1.5-0.5,3-0.9,4.5-1.1c0.4-0.1,0.8-0.1,1.2-0.2c0.1,0,1.4-0.2,0.6-0.1
	c0.8-0.1,1.6-0.2,2.4-0.2c1.8,0,3.3-1.5,3.3-3.3s-1.5-3.3-3.3-3.3c-7.3,0.6-14.5,2.4-20.1,7.4c-1.3,1.3-1.3,3.4,0,4.7
	C159.9,214.2,161.9,214.2,163.3,212.9L163.3,212.9z"/>
<path class="st3" d="M118.7,251c0.1-2.5,0.3-5,0.6-7.5c0.2-1.9,0.5-3.8,1.1-5.6c0.2-0.4-0.2,0.5,0,0c0.1-0.2,0.2-0.5,0.3-0.7
	c0.2-0.4,0.4-0.8,0.7-1.2c0.2-0.4,0.5-0.8,0.7-1.1c-0.4,0.5,0,0.1,0.1,0c0.2-0.2,0.3-0.3,0.5-0.5c0.3-0.3,0.7-0.6,1-0.9
	c0.3-0.2-0.3,0.2,0.2-0.1c0.2-0.1,0.3-0.2,0.5-0.3c0.5-0.3,0.9-0.5,1.4-0.8c-0.3,0.1,0.1,0,0.2-0.1c0.4-0.1,0.7-0.2,1.1-0.3
	c1.8-0.5,2.8-2.3,2.3-4.1c-0.5-1.8-2.3-2.8-4.1-2.3c-4.9,1.3-8.8,4.8-10.8,9.4c-0.9,2.3-1.5,4.8-1.7,7.3c-0.4,3-0.7,6-0.8,9
	c0,1.8,1.5,3.3,3.3,3.3S118.7,252.8,118.7,251L118.7,251z"/>
<path class="st3" d="M129.9,229.3c0.1-0.4,0.3-0.7,0.4-1.1c0.2-0.5,0.1-0.2,0,0.1c0.1-0.2,0.2-0.4,0.3-0.6c0.3-0.7,0.7-1.4,1.1-2.1
	c0.4-0.7,0.8-1.4,1.2-2.1c0.2-0.4,0.5-0.7,0.7-1.1c0.1-0.2,0.2-0.3,0.3-0.5c0.5-0.6-0.5,0.6,0-0.1c1-1.2,2.1-2.4,3.3-3.4
	c0.2-0.1,0.4-0.3,0.5-0.4c-0.3,0.2-0.4,0.3-0.1,0.1c0.3-0.2,0.7-0.5,1-0.7c0.3-0.2,0.6-0.4,0.9-0.5c0.2-0.1,0.4-0.2,0.6-0.3
	s0.9-0.4,0,0c0.8-0.3,1.5-0.8,2-1.5c0.4-0.8,0.6-1.7,0.3-2.6c-0.5-1.8-2.3-2.8-4.1-2.3c-7.4,3-12.3,10-15,17.3
	c-0.5,1.8,0.6,3.6,2.3,4.1C127.5,232.1,129.4,231,129.9,229.3L129.9,229.3z"/>
<path class="st3" d="M187.8,191.3c6.1,6.8,9.3,15.6,10.9,24.4c1.7,9.2,1.8,18.7,0.5,28c-0.4,1.8,0.6,3.6,2.3,4.1
	c1.8,0.5,3.6-0.6,4.1-2.3c2.9-19.8,0.8-43.4-13.1-58.9C189.7,183.3,185,188.1,187.8,191.3L187.8,191.3z"/>
<path class="st3" d="M95.5,255.4c-2.1-4.4-3.5-9.2-4.1-14c-0.8-4.3-1.2-8.6-1.2-13c0.2-10.1,2-20.4,7.5-29c6-9.7,14.7-17.5,25-22.5
	c7.6-3.4,15.9-5,24.3-4.6c11.8,0.3,23.3,2.9,32.4,10.8c3.3,2.8,8-1.9,4.7-4.7c-9.1-7.8-20-11.5-31.8-12.4c-9.7-1-19.5,0.1-28.6,3.4
	c-11.7,4.7-21.8,12.6-29.1,22.8c-6.9,9.4-9.9,20-10.8,31.5c-0.4,5.9-0.1,11.8,0.8,17.6c0.7,6.1,2.4,12.1,5.1,17.6
	C91.8,262.5,97.6,259.2,95.5,255.4L95.5,255.4z"/>
<path class="st3" d="M148.9,334.7c4.6,2,9.7,2.7,14.7,2c2.4-0.2,4.8-0.8,7.1-1.8c1.6-0.8,3.1-1.7,4.5-2.7c1.6-1,2.1-3,1.2-4.6
	c-0.9-1.6-3-2.1-4.6-1.2c-1.3,0.9-2.6,1.7-4,2.4c0,0-0.8,0.3-0.3,0.1c0.4-0.2-0.1,0.1-0.2,0.1c-0.4,0.1-0.8,0.3-1.2,0.4
	c-0.5,0.1-1,0.3-1.5,0.4c-0.2,0-0.4,0.1-0.7,0.1c-0.1,0-0.3,0.1-0.4,0.1c-1.9,0.2-3.8,0.3-5.7,0.2c-0.2,0-0.5,0-0.7-0.1
	c-0.2,0-0.8-0.1-0.3,0c-0.5-0.1-1.1-0.2-1.6-0.3c-0.5-0.1-1.1-0.3-1.6-0.4c-0.2-0.1-0.5-0.2-0.7-0.2c0,0-0.9-0.4-0.6-0.2
	c-1.6-0.9-3.6-0.3-4.6,1.2C146.8,331.7,147.4,333.7,148.9,334.7L148.9,334.7z"/>
<path class="st3" d="M169.7,281.3c-0.2,0.1-0.4,0.2-0.6,0.3c-0.1,0-0.2,0.1-0.3,0.2c0.5-0.4,0.5-0.2,0.2-0.1c-0.5,0.2-1,0.4-1.5,0.5
	c-0.6,0.1-1.2,0.2-1.8,0.3c0.2,0,0.7-0.1,0.2,0c-0.1,0-0.3,0-0.4,0c-0.3,0-0.6,0-1,0.1c-0.6,0-1.1,0-1.7,0c-0.1,0-0.3,0-0.4,0
	c-0.4,0,0.7,0.1,0.3,0c-0.3-0.1-0.6-0.1-0.8-0.2c-0.3-0.1-0.5-0.1-0.7-0.2c-0.2-0.1-0.7-0.4-0.9-0.3l0.3,0.1l-0.3-0.1l-0.5-0.2
	c-0.5-0.2-1.1-0.5-1.6-0.7c-1.8-0.5-3.6,0.6-4.1,2.3c-0.4,1.8,0.6,3.6,2.3,4.1c0.1,0,0.8,0.3,0.3,0.1c-0.4-0.2,0.1,0,0.2,0.1
	c0.5,0.2,1.1,0.5,1.6,0.7c0.6,0.2,1.2,0.4,1.8,0.6c1.5,0.3,3,0.5,4.4,0.4c2.9,0,5.8-0.8,8.4-2.2c1.6-0.9,2.1-3,1.2-4.6
	C173.4,280.9,171.3,280.4,169.7,281.3L169.7,281.3z"/>
<path class="st3" d="M140.9,253.5c-0.6,2.6,0.3,8.3,5.1,8.5c6.3-0.5,6.2-7.5,3.8-10.6C147.9,248.8,142.7,248,140.9,253.5z"/>
<path class="st3" d="M178.7,249.9c-0.6,2.5,0.3,8.1,4.7,8.2c5.8-0.4,5.6-7.2,3.5-10.3C185.1,245.3,180.3,244.6,178.7,249.9z"/>
<path class="st3" d="M165.1,265.4c0.5,0.7,1,1.4,1.4,2.2c0.5,0.8,1,1.6,1.4,2.4l-0.3-0.8c0.1,0.2,0.1,0.3,0.1,0.5l-0.1-0.9
	c0,0.1,0,0.2,0,0.3l0.1-0.9c0,0.1,0,0.2-0.1,0.3l0.3-0.8c0,0.1-0.1,0.1-0.1,0.2l0.5-0.7c-0.1,0.2-0.3,0.3-0.4,0.4l0.7-0.5
	c-0.2,0.1-0.4,0.2-0.6,0.3l0.8-0.3c-0.4,0.1-0.7,0.2-1.1,0.2c-1.8,0.5-2.8,2.3-2.3,4.1c0.2,0.8,0.8,1.6,1.5,2
	c0.8,0.4,1.7,0.5,2.6,0.3c0.3,0,0.6-0.1,1-0.2c0.9-0.3,1.7-0.8,2.4-1.4c0.9-0.8,1.5-2.1,1.4-3.3c-0.1-1-0.4-1.9-0.9-2.8
	c-0.8-1.4-1.6-2.7-2.5-4c-0.5-0.7-1.2-1.3-2-1.5c-0.9-0.2-1.8-0.1-2.6,0.3c-0.8,0.4-1.3,1.2-1.5,2
	C164.5,263.7,164.6,264.7,165.1,265.4L165.1,265.4z"/>
<path class="st3" d="M46.2,392.9c-7,1.1-13.3,4.7-17.8,10.2c-4.3,5.6-6.6,12.6-6.4,19.7c0,14.3-0.1,28.5-0.1,42.8
	c0,6.1,0,12.2,0,18.3c0,4.3,6.7,4.3,6.7,0c0-11.6,0.1-23.2,0.1-34.8c0-6.9,0-13.7,0.1-20.6c0-6.1-0.4-12.1,2.6-17.7
	c3.4-6.2,9.6-10.4,16.6-11.4c1.8-0.5,2.8-2.3,2.3-4.1C49.8,393.5,48,392.5,46.2,392.9L46.2,392.9z"/>
</svg>
