<?xml version="1.0" encoding="utf-8"?>
<!-- Generator: Adobe Illustrator 27.4.0, SVG Export Plug-In . SVG Version: 6.00 Build 0)  -->
<svg version="1.1" id="Layer_1" xmlns="http://www.w3.org/2000/svg" xmlns:xlink="http://www.w3.org/1999/xlink" x="0px" y="0px"
	 viewBox="0 0 800 800" style="enable-background:new 0 0 800 800;" xml:space="preserve">
<style type="text/css">
	.st0{fill:none;stroke:#000000;stroke-width:24;stroke-linecap:round;stroke-linejoin:round;stroke-miterlimit:16;}
	.st1{fill:none;stroke:#000000;stroke-width:16;stroke-linecap:round;stroke-linejoin:round;stroke-miterlimit:16;}
</style>
<g>
	<rect x="196.5" y="172.5" class="st0" width="75" height="76.2"/>
	<rect x="309.6" y="172.5" class="st0" width="75" height="76.2"/>
	<rect x="83.4" y="172.5" class="st0" width="75" height="76.2"/>
	<rect x="196.5" y="279.4" class="st0" width="75" height="76.2"/>
	<rect x="309.6" y="279.4" class="st0" width="75" height="76.2"/>
	<rect x="83.4" y="279.4" class="st0" width="75" height="76.2"/>
	<rect x="196.5" y="386.2" class="st0" width="75" height="76.2"/>
	<rect x="309.6" y="386.2" class="st0" width="75" height="76.2"/>
	<rect x="83.4" y="386.2" class="st0" width="75" height="76.2"/>
	<rect x="309.6" y="493" class="st0" width="75" height="76.2"/>
	<rect x="196.5" y="493" class="st0" width="75" height="76.2"/>
	<rect x="83.4" y="493" class="st0" width="75" height="76.2"/>
	<rect x="196.5" y="599.7" class="st0" width="75" height="152.3"/>
	<rect x="309.6" y="599.7" class="st0" width="75" height="76.2"/>
	<rect x="83.4" y="599.7" class="st0" width="75" height="76.2"/>
	<rect x="43.2" y="107.8" class="st0" width="381.8" height="644.2"/>
</g>
<g>
	<rect x="588.3" y="168.7" class="st1" width="58.3" height="59.3"/>
	<rect x="676.3" y="168.7" class="st1" width="58.3" height="59.3"/>
	<rect x="500.4" y="168.7" class="st1" width="58.3" height="59.3"/>
	<rect x="588.3" y="251.8" class="st1" width="58.3" height="59.3"/>
	<rect x="676.3" y="251.8" class="st1" width="58.3" height="59.3"/>
	<rect x="500.4" y="251.8" class="st1" width="58.3" height="59.3"/>
	<rect x="588.3" y="334.9" class="st1" width="58.3" height="59.3"/>
	<rect x="676.3" y="334.9" class="st1" width="58.3" height="59.3"/>
	<rect x="500.4" y="334.9" class="st1" width="58.3" height="59.3"/>
	<rect x="676.3" y="417.9" class="st1" width="58.3" height="59.3"/>
	<rect x="588.3" y="417.9" class="st1" width="58.3" height="59.3"/>
	<rect x="500.4" y="417.9" class="st1" width="58.3" height="59.3"/>
	<rect x="588.3" y="500.9" class="st1" width="58.3" height="118.4"/>
	<rect x="676.3" y="500.9" class="st1" width="58.3" height="59.3"/>
	<rect x="500.4" y="500.9" class="st1" width="58.3" height="59.3"/>
	<rect x="469.1" y="118.4" class="st1" width="296.9" height="501"/>
</g>
</svg>
