<?xml version="1.0" encoding="utf-8"?>
<!-- Generator: Adobe Illustrator 27.0.1, SVG Export Plug-In . SVG Version: 6.00 Build 0)  -->
<svg version="1.1" id="Camada_1" xmlns="http://www.w3.org/2000/svg" xmlns:xlink="http://www.w3.org/1999/xlink" x="0px" y="0px"
	 width="800px" height="800px" viewBox="0 0 800 800" style="enable-background:new 0 0 800 800;" xml:space="preserve">
<style type="text/css">
	.st0{fill:#F9C0C0;}
	.st1{fill:#CE0202;}
</style>
<g>
	<path class="st0" d="M62.4,366.5h142.8l53.3-109.8L343.2,588l39.3-224.6h44.6l31,78.5l39.8-165.8L552.2,501l35.2-140.6h175.1
		c0,0,36.9-153-44.6-222.7c-98.3-84-186.6-51.6-272.1,34.7L400,221.2l-41.4-42.6c0,0-72.4-95.3-160.5-82
		C116.9,108.9,11.1,206.5,62.4,366.5z"/>
	<path d="M399.9,733.9l-3.9-2.3c-0.3-0.2-35.8-20.4-87.4-58c-47.6-34.6-119.1-91.5-189.8-165.9c-32.1-33.8-56.8-69.2-73.6-105.4
		l12.4-5.7c16.1,34.8,40.1,69.1,71.1,101.7C251.7,627.8,379.1,705.8,399.8,718c20.9-12.4,148.2-90.3,271.1-219.7
		c33.5-35.3,58.7-72.3,74.7-109.9c14.4-33.6,21.6-67.8,21.4-101.5c-0.2-57.3-22.3-113.3-60.6-153.6c-32.8-34.5-76.4-53.5-122.9-53.5
		s-90.2,19-122.9,53.5l-60.9,64.2l-60.9-64.2c-32.8-34.5-76.4-53.5-122.9-53.5s-90.2,19-122.9,53.5c-23.3,24.4-40.9,55.1-50.9,88.6
		c-11.6,38.6-12.8,78.7-3.6,119.5l-13.3,3c-9.8-43.1-8.5-85.6,3.8-126.4c10.7-35.6,29.4-68.1,54.1-94.1
		c35.3-37.2,82.5-57.7,132.8-57.7s97.5,20.5,132.8,57.7l51,53.7l51-53.7c35.3-37.2,82.5-57.7,132.8-57.7s97.5,20.5,132.8,57.7
		c40.6,42.8,64,102.2,64.3,162.9c0.1,35.7-7.5,71.7-22.5,107c-16.8,39.1-42.8,77.5-77.5,113.9C610.2,582.1,538.6,639,491.1,673.6
		c-51.6,37.6-87.1,57.8-87.5,58L399.9,733.9L399.9,733.9z"/>
	<path class="st1" d="M345.5,611.8l-88.1-344.3l-49.9,106.3H1.1v-7.3h201.7L259.5,246l84.5,330.3l35.5-216.5h50.1l27.7,70.1
		l40.6-169.3l54.4,225.2l32.3-128.9h214.4v7.3H590.2L552,516.3l-54.2-224.6L459,454L424.6,367h-39L345.5,611.8z"/>
</g>
</svg>
